G04 ================== begin FILE IDENTIFICATION RECORD ==================*
G04 Layout Name:  LIDAR_READOUT_VER1_2_top_bot_gnd.brd*
G04 Film Name:    POWER*
G04 File Format:  Gerber RS274X*
G04 File Origin:  Cadence Allegro 17.2-P019*
G04 Origin Date:  Mon Jul 17 16:09:54 2023*
G04 *
G04 Layer:  ETCH/POWER*
G04 Layer:  PIN/POWER*
G04 Layer:  VIA CLASS/POWER*
G04 *
G04 Offset:    (0.0 0.0)*
G04 Mirror:    No*
G04 Mode:      Positive*
G04 Rotation:  0*
G04 FullContactRelief:  No*
G04 UndefLineWidth:     0.0*
G04 ================== end FILE IDENTIFICATION RECORD ====================*
%FSLAX25Y25*MOIN*%
%IR0*IPPOS*OFA0.00000B0.00000*MIA0B0*SFA1.00000B1.00000*%
%ADD14C,.15*%
%ADD12C,.024*%
%ADD10C,.025*%
%ADD11C,.055*%
%ADD15C,.065*%
%ADD18C,.075*%
%ADD20C,.058*%
%ADD13C,.0485*%
%ADD17R,.075X.075*%
%ADD19R,.058X.058*%
%ADD16C,.0899*%
%ADD21C,.012*%
%ADD28C,.1102*%
%ADD26C,.1704*%
%ADD25C,.0444*%
%ADD22C,.0454*%
%ADD23C,.0754*%
%ADD27C,.0854*%
%ADD29C,.0954*%
%ADD30C,.0784*%
%ADD24C,.0688*%
G75*
%LPD*%
G75*
G36*
G01X367700Y217430D02*
G03X363280Y224000I0J4772D01*
G01X295500D01*
Y198090D01*
X298590Y195000D01*
X327410D01*
X327500Y195090D01*
X331500Y191090D01*
Y144910D01*
X308100Y144900D01*
X244200D01*
X244210Y146920D01*
G02X244660Y147320I399J4D01*
G03X244670Y151820I295J2249D01*
G02X244230Y152220I-41J397D01*
G01X244240Y157240D01*
X244280Y157300D01*
G03X244300Y161880I-2982J2303D01*
G01X244260Y161940D01*
X244280Y166920D01*
G02X244720Y167310I398J-6D01*
G03X244730Y171830I226J2260D01*
G02X244300Y172230I-32J397D01*
G01X244350Y187380D01*
X244390Y187430D01*
G03X244400Y191740I-3089J2162D01*
G01X244370Y191800D01*
X244420Y206900D01*
G02X244840Y207300I398J2D01*
G03X244850Y211840I110J2270D01*
G02X244440Y212240I-12J398D01*
G01X244490Y226900D01*
G02X244900Y227300I399J1D01*
G03X245180Y231830I60J2270D01*
G01X245000Y231850D01*
Y237410D01*
X210410Y272000D01*
X135090D01*
X123000Y259910D01*
Y242410D01*
X122590Y242000D01*
X111000D01*
Y252500D01*
X85590D01*
X80500Y247410D01*
Y239670D01*
G03Y235530I800J-2070D01*
G01Y210090D01*
X94590Y196000D01*
X201590D01*
X204450Y193140D01*
G02X204430Y192550I-279J-286D01*
G03X206330Y185970I2468J-2852D01*
G01X206500Y185950D01*
Y163450D01*
X206330Y163430D01*
G03Y155970I570J-3730D01*
G01X206500Y155950D01*
Y151980D01*
G02X205930Y151620I-399J0D01*
G03X203180Y148150I-980J-2048D01*
G02X202870Y147500I-312J-250D01*
G01X137090D01*
X136000Y146410D01*
Y136230D01*
G03Y132170I900J-2030D01*
G01Y119000D01*
X82910D01*
X81000Y120910D01*
Y161000D01*
X44090D01*
X38500Y155410D01*
Y1040D01*
X1040D01*
Y510960D01*
X259500D01*
Y468410D01*
X163000Y371910D01*
Y370730D01*
G03Y368410I1950J-1160D01*
G01Y350730D01*
G03Y348410I1950J-1160D01*
G01Y320000D01*
X205410D01*
X207000Y321590D01*
Y328600D01*
G03Y330540I-2050J970D01*
G01Y343910D01*
X203910Y347000D01*
X199500D01*
Y365090D01*
X199910Y365500D01*
X231090D01*
X236000Y360590D01*
Y323090D01*
X242590Y316500D01*
X266410D01*
X271500Y321590D01*
Y340410D01*
X268910Y343000D01*
X261500D01*
Y361090D01*
X262910Y362500D01*
X295590D01*
X297000Y361090D01*
Y326400D01*
X298200Y325500D01*
X319800D01*
X321900Y327600D01*
X322000Y344910D01*
X318410Y348500D01*
X316500D01*
Y362500D01*
X396150D01*
G02X396540Y362070I-7J-398D01*
G03X406060I4760J-370D01*
G02X406450Y362500I397J32D01*
G01X416150D01*
G02X416540Y362070I-7J-398D01*
G03X426060I4760J-370D01*
G02X426450Y362500I397J32D01*
G01X444590D01*
X448500Y358590D01*
Y317000D01*
X479910D01*
X481000Y318090D01*
Y348000D01*
X511090D01*
X511500Y347590D01*
Y298410D01*
X510590Y297500D01*
X501860D01*
G03X494340I-3760J-1100D01*
G01X491860D01*
G03X484340I-3760J-1100D01*
G01X377910D01*
X377000Y298410D01*
Y313500D01*
X352590D01*
X349000Y309910D01*
Y270590D01*
X355590Y264000D01*
X431410D01*
X431500Y264090D01*
X434000Y261590D01*
Y258280D01*
G02X433290Y258030I-399J1D01*
G03Y255270I-1740J-1380D01*
G02X434000Y255020I311J-251D01*
G01Y182910D01*
X430090Y179000D01*
X370910D01*
X367500Y182410D01*
Y217230D01*
G02X367700Y217430I200J0D01*
G37*
G36*
G01X242400Y142500D02*
X333300D01*
X333500Y191910D01*
X327500Y197910D01*
X326590Y197000D01*
X299410D01*
X297500Y198910D01*
Y206340D01*
G02X298040Y206720I402J3D01*
G03Y210880I760J2080D01*
G02X297500Y211260I-138J377D01*
G01Y222000D01*
X362930D01*
X362950Y221820D01*
G03X365500Y217970I4753J378D01*
G01Y192240D01*
G02X365080Y191840I-398J-2D01*
G03Y187300I-130J-2270D01*
G02X365500Y186900I22J-398D01*
G01Y181590D01*
X370090Y177000D01*
X430910D01*
X436000Y182090D01*
Y262410D01*
X431500Y266910D01*
X430590Y266000D01*
X356410D01*
X351000Y271410D01*
Y309090D01*
X353410Y311500D01*
X362760D01*
G02X363090Y310870I3J-400D01*
G03X366810I1860J-1300D01*
G02X367140Y311500I327J230D01*
G01X375000D01*
Y297590D01*
X377090Y295500D01*
X484280D01*
X484320Y295350D01*
G03X491880I3780J1050D01*
G01X491920Y295500D01*
X494280D01*
X494320Y295350D01*
G03X501880I3780J1050D01*
G01X501920Y295500D01*
X511410D01*
X513500Y297590D01*
Y348410D01*
X511910Y350000D01*
X480090D01*
X479000Y348910D01*
Y319000D01*
X450500D01*
Y329640D01*
G02X451040Y330020I402J3D01*
G03Y334180I760J2080D01*
G02X450500Y334560I-138J377D01*
G01Y359410D01*
X445410Y364500D01*
X425160D01*
G03X417440I-3860J-2800D01*
G01X405160D01*
G03X397440I-3860J-2800D01*
G01X315590D01*
X314500Y363410D01*
Y347030D01*
G02X313920Y346670I-400J-2D01*
G03X314780Y345890I-1010J-1978D01*
G02X315110Y346500I337J212D01*
G01X317590D01*
X320000Y344090D01*
X320100Y328500D01*
X318900Y327300D01*
X299100D01*
X299000Y361910D01*
X296410Y364500D01*
X262090D01*
X259500Y361910D01*
Y342090D01*
X260590Y341000D01*
X268090D01*
X269500Y339590D01*
Y322410D01*
X265590Y318500D01*
X243410D01*
X238000Y323910D01*
Y361410D01*
X231910Y367500D01*
X227030D01*
G02X226720Y368150I2J400D01*
G03X223180I-1770J1420D01*
G02X222870Y367500I-312J-250D01*
G01X199090D01*
X197500Y365910D01*
Y345000D01*
X203090D01*
X205000Y343090D01*
Y332040D01*
G02X204810Y331840I-198J-2D01*
G03X203610Y331400I150J-2266D01*
G03X204490Y327060I287J-2201D01*
G02X205000Y326680I110J-384D01*
G01Y322410D01*
X204590Y322000D01*
X165000D01*
Y347290D01*
X165180Y347310D01*
G03Y351830I-230J2260D01*
G01X165000Y351850D01*
Y367290D01*
X165180Y367310D01*
G03X166120Y371510I-232J2257D01*
G02X166050Y372140I209J342D01*
G01X182380Y388470D01*
G02X183010Y388400I288J-279D01*
G03X186120Y391510I1940J1170D01*
G02X186050Y392140I209J342D01*
G01X202380Y408470D01*
G02X203010Y408400I288J-279D01*
G03X206120Y411510I1940J1170D01*
G02X206050Y412140I209J342D01*
G01X261500Y467590D01*
Y510960D01*
X541960D01*
Y1040D01*
X40500D01*
Y154590D01*
X44910Y159000D01*
X79000D01*
Y120090D01*
X82090Y117000D01*
X138000D01*
Y132270D01*
G03Y136130I-1100J1930D01*
G01Y145500D01*
X208500D01*
Y156290D01*
G03Y163110I-1600J3410D01*
G01Y186290D01*
G03X207020Y193470I-1602J3412D01*
G01X206940D01*
X202410Y198000D01*
X95410D01*
X86260Y207150D01*
G02X86310Y207750I286J278D01*
G03X83010Y210750I-1361J1818D01*
G01X83000Y210730D01*
X82840Y210570D01*
X82500Y210910D01*
Y227860D01*
G02X83210Y228120I401J3D01*
G03Y231020I1740J1450D01*
G02X82500Y231280I-309J257D01*
G01Y235730D01*
G03Y239470I-1200J1870D01*
G01Y246590D01*
X86410Y250500D01*
X109000D01*
Y240000D01*
X123410D01*
X125000Y241590D01*
Y259090D01*
X135910Y270000D01*
X209590D01*
X243000Y236590D01*
Y231410D01*
X242500Y230910D01*
X242460Y193700D01*
G02X241990Y193310I-399J3D01*
G03X241980Y185890I-685J-3709D01*
G02X242450Y185500I70J-393D01*
G01X242420Y163710D01*
G02X241950Y163310I-399J-7D01*
G03Y155890I-650J-3710D01*
G02X242410Y155490I61J-395D01*
G01X242400Y142500D01*
G37*
%LPC*%
G75*
G36*
G01X48990Y442990D02*
Y444500D01*
X48940Y444560D01*
G02Y461440I10060J8440D01*
G01X48990Y461500D01*
Y463010D01*
X50500D01*
X50560Y463060D01*
G02X67440I8440J-10060D01*
G01X67500Y463010D01*
X69010D01*
Y461500D01*
X69060Y461440D01*
G02Y444560I-10060J-8440D01*
G01X69010Y444500D01*
Y442990D01*
X67500D01*
X67440Y442940D01*
G02X50560I-8440J10060D01*
G01X50500Y442990D01*
X48990D01*
G37*
G36*
G01X282840Y310400D02*
G02X287210Y309740I2159J-500D01*
G02X282840Y310400I-2261J-175D01*
G37*
G36*
G01X494190Y243500D02*
Y249300D01*
G02X495200Y250310I1010J0D01*
G01X501000D01*
G02X502010Y249300I0J-1010D01*
G01Y243500D01*
G02X501000Y242490I-1010J0D01*
G01X495200D01*
G02X494190Y243500I0J1010D01*
G37*
G36*
G01X484190Y203500D02*
Y209300D01*
G02X485200Y210310I1010J0D01*
G01X491000D01*
G02X492010Y209300I0J-1010D01*
G01Y203500D01*
G02X491000Y202490I-1010J0D01*
G01X485200D01*
G02X484190Y203500I0J1010D01*
G37*
G36*
G01X226840Y421650D02*
Y429150D01*
G02X227850Y430160I1010J0D01*
G01X235350D01*
G02X236360Y429150I0J-1010D01*
G01Y421650D01*
G02X235350Y420640I-1010J0D01*
G01X227850D01*
G02X226840Y421650I0J1010D01*
G37*
G36*
G01X462510Y442990D02*
X461000D01*
X460940Y442940D01*
G02X444060I-8440J10060D01*
G01X444000Y442990D01*
X442490D01*
Y444500D01*
X442440Y444560D01*
G02Y461440I10060J8440D01*
G01X442490Y461500D01*
Y463010D01*
X444000D01*
X444060Y463060D01*
G02X460940I8440J-10060D01*
G01X461000Y463010D01*
X462510D01*
Y461500D01*
X462560Y461440D01*
G02Y444560I-10060J-8440D01*
G01X462510Y444500D01*
Y442990D01*
G37*
G36*
G01X442490Y48990D02*
Y50500D01*
X442440Y50560D01*
G02Y67440I10060J8440D01*
G01X442490Y67500D01*
Y69010D01*
X444000D01*
X444060Y69060D01*
G02X460940I8440J-10060D01*
G01X461000Y69010D01*
X462510D01*
Y67500D01*
X462560Y67440D01*
G02Y50560I-10060J-8440D01*
G01X462510Y50500D01*
Y48990D01*
X461000D01*
X460940Y48940D01*
G02X444060I-8440J10060D01*
G01X444000Y48990D01*
X442490D01*
G37*
G36*
G01X69010D02*
X67500D01*
X67440Y48940D01*
G02X50560I-8440J10060D01*
G01X50500Y48990D01*
X48990D01*
Y50500D01*
X48940Y50560D01*
G02Y67440I10060J8440D01*
G01X48990Y67500D01*
Y69010D01*
X50500D01*
X50560Y69060D01*
G02X67440I8440J-10060D01*
G01X67500Y69010D01*
X69010D01*
Y67500D01*
X69060Y67440D01*
G02Y50560I-10060J-8440D01*
G01X69010Y50500D01*
Y48990D01*
G37*
G54D28*
X222200Y475000D03*
X206610D03*
X253390D03*
X237800D03*
G54D26*
X110000Y465000D03*
G54D25*
X66000Y272100D03*
X58200Y276000D03*
X58800Y306300D03*
X97200Y139500D03*
X99300Y352500D03*
X124500Y127800D03*
X116900Y127900D03*
X126700Y275500D03*
X117800Y255500D03*
X156800Y275000D03*
X151500Y302100D03*
X133200Y294900D03*
X135900Y435000D03*
X186000Y171900D03*
X180300Y301500D03*
X184500Y294900D03*
X168600Y306900D03*
X210700Y274700D03*
X199200Y306900D03*
X212700Y354000D03*
X250200Y254700D03*
X239400Y295800D03*
X234150Y292200D03*
X233100Y339300D03*
X261000Y239400D03*
X258300Y278100D03*
X253800Y270600D03*
X264900Y281100D03*
X260700Y299700D03*
X253970Y286070D03*
X270600Y349800D03*
X298500Y240000D03*
X294300Y303600D03*
X325500Y174000D03*
X319300Y227000D03*
X325200Y337200D03*
X328500Y354900D03*
X396400Y192400D03*
X387300Y235200D03*
X393700Y231700D03*
X401100Y259200D03*
X388200Y315600D03*
X398700Y345600D03*
X409000Y187900D03*
X425100Y198600D03*
X404700Y222600D03*
X411000Y320100D03*
X426900Y347100D03*
X449700Y309300D03*
X433500Y325800D03*
X432900Y358500D03*
X505200Y338100D03*
X67550Y141650D03*
X98400Y222600D03*
X105000Y201900D03*
X109200Y222600D03*
X102900Y244500D03*
X156900Y121500D03*
X146900Y134200D03*
X156000Y256800D03*
X154200Y264900D03*
X172400Y127100D03*
X190700Y133300D03*
X183000Y258600D03*
X173700Y344100D03*
X209400Y257100D03*
X207600Y264600D03*
X196200Y328500D03*
X195200Y383800D03*
X254700Y323400D03*
X262700Y324100D03*
X254600Y381400D03*
X291300Y126900D03*
X305500Y133000D03*
X311900Y384700D03*
X333300Y208500D03*
X317700Y217100D03*
X313800Y332400D03*
X366950Y292150D03*
X400500Y279600D03*
X410700Y270900D03*
X454050Y246150D03*
X466200Y322500D03*
X469200Y327000D03*
X488600Y367900D03*
G54D22*
X24950Y29570D03*
Y69570D03*
Y49570D03*
Y89570D03*
Y129570D03*
Y109570D03*
Y149570D03*
Y189570D03*
Y169570D03*
Y209570D03*
Y249570D03*
Y229570D03*
Y269570D03*
Y309570D03*
Y289570D03*
Y329570D03*
Y369570D03*
Y349570D03*
Y389570D03*
Y429570D03*
Y409570D03*
Y449570D03*
Y469570D03*
X64950Y189570D03*
X44950D03*
X64950Y169570D03*
X44950D03*
X64950Y209570D03*
X44950D03*
X64950Y229570D03*
X44950D03*
X64950Y289570D03*
Y429570D03*
X44950D03*
X64950Y409570D03*
X44950D03*
X84950Y129570D03*
Y189570D03*
Y169570D03*
Y269570D03*
Y309570D03*
Y289570D03*
Y429570D03*
Y409570D03*
Y449570D03*
Y469570D03*
X104950Y129570D03*
Y149570D03*
Y189570D03*
X124950Y169570D03*
X104950D03*
X124950Y309570D03*
X104950D03*
X124950Y289570D03*
X104950D03*
Y329570D03*
X124950Y369570D03*
X104950D03*
X124950Y349570D03*
X104950Y389570D03*
X124950Y429570D03*
X104950D03*
X124950Y409570D03*
X104950D03*
X144950Y169570D03*
Y309570D03*
Y409570D03*
X164950Y169570D03*
X184950Y429570D03*
X164950Y409570D03*
X184950Y449570D03*
X224950Y309570D03*
Y329570D03*
Y349570D03*
X264950Y149570D03*
Y169570D03*
Y209570D03*
Y229570D03*
Y309570D03*
X304950Y169570D03*
X284950D03*
X304950Y249570D03*
X284950D03*
Y349570D03*
X324950Y149570D03*
Y249570D03*
Y309570D03*
X364950Y249570D03*
X344950D03*
Y309570D03*
X364950Y329570D03*
X344950D03*
X364950Y349570D03*
X344950D03*
X384950Y189570D03*
Y329570D03*
Y349570D03*
X424950Y249570D03*
X404950D03*
X424950Y229570D03*
X404950D03*
Y309570D03*
X484950D03*
X464950D03*
X484950Y329570D03*
X504950Y309570D03*
X64950Y29570D03*
X44950D03*
X64950Y89570D03*
X44950D03*
X64950Y129570D03*
X44950D03*
X64950Y109570D03*
X44950D03*
Y149570D03*
X84950Y29570D03*
Y69570D03*
Y49570D03*
Y89570D03*
Y109570D03*
X124950Y29570D03*
X104950D03*
X124950Y69570D03*
X104950D03*
X124950Y49570D03*
X104950D03*
X124950Y89570D03*
X104950D03*
X124950Y109570D03*
X104950D03*
Y209570D03*
X144950Y29570D03*
Y69570D03*
Y49570D03*
Y89570D03*
Y109570D03*
Y209570D03*
X184950Y29570D03*
X164950D03*
X184950Y69570D03*
X164950D03*
X184950Y49570D03*
X164950D03*
X184950Y89570D03*
X164950D03*
X184950Y109570D03*
X164950D03*
X184950Y209570D03*
X164950D03*
X184950Y249570D03*
X164950D03*
X184950Y229570D03*
X164950D03*
X204950Y29570D03*
Y69570D03*
Y49570D03*
Y89570D03*
Y129570D03*
Y109570D03*
Y209570D03*
Y229570D03*
Y389570D03*
X244950Y29570D03*
X224950D03*
X244950Y69570D03*
X224950D03*
X244950Y49570D03*
X224950D03*
X244950Y89570D03*
X224950D03*
X244950Y129570D03*
X224950D03*
X244950Y109570D03*
X224950D03*
Y149570D03*
Y209570D03*
Y249570D03*
Y229570D03*
X244950Y389570D03*
X224950D03*
Y409570D03*
X264950Y29570D03*
Y69570D03*
Y49570D03*
Y89570D03*
Y129570D03*
Y109570D03*
Y389570D03*
Y409570D03*
Y449570D03*
Y469570D03*
X304950Y29570D03*
X284950D03*
X304950Y69570D03*
X284950D03*
X304950Y49570D03*
X284950D03*
X304950Y89570D03*
X284950D03*
X304950Y109570D03*
X284950D03*
Y369570D03*
X304950Y389570D03*
X284950D03*
X304950Y429570D03*
X284950D03*
X304950Y409570D03*
X284950D03*
X304950Y449570D03*
X284950D03*
X304950Y469570D03*
X284950D03*
X324950Y29570D03*
Y69570D03*
Y49570D03*
Y89570D03*
Y129570D03*
Y109570D03*
Y369570D03*
Y389570D03*
Y429570D03*
Y409570D03*
Y449570D03*
Y469570D03*
X364950Y29570D03*
X344950D03*
X364950Y69570D03*
X344950D03*
X364950Y49570D03*
X344950D03*
X364950Y89570D03*
X344950D03*
X364950Y129570D03*
X344950D03*
X364950Y109570D03*
X344950D03*
X364950Y149570D03*
X344950D03*
Y189570D03*
X364950Y169570D03*
X344950D03*
Y209570D03*
X364950Y369570D03*
X344950D03*
X364950Y389570D03*
X344950D03*
X364950Y429570D03*
X344950D03*
X364950Y409570D03*
X344950D03*
X364950Y449570D03*
X344950D03*
X364950Y469570D03*
X344950D03*
X384950Y29570D03*
Y69570D03*
Y49570D03*
Y89570D03*
Y129570D03*
Y109570D03*
Y369570D03*
Y389570D03*
Y429570D03*
Y409570D03*
Y449570D03*
Y469570D03*
X424950Y29570D03*
X404950D03*
X424950Y69570D03*
X404950D03*
X424950Y49570D03*
X404950D03*
X424950Y89570D03*
X404950D03*
X424950Y129570D03*
X404950D03*
X424950Y109570D03*
X404950D03*
X424950Y149570D03*
Y169570D03*
Y429570D03*
X404950D03*
X424950Y409570D03*
X404950D03*
X424950Y449570D03*
X404950D03*
X424950Y469570D03*
X404950D03*
X444950Y29570D03*
Y89570D03*
Y129570D03*
Y109570D03*
Y149570D03*
Y189570D03*
Y169570D03*
Y229570D03*
Y369570D03*
Y389570D03*
Y429570D03*
Y409570D03*
X484950Y29570D03*
X464950D03*
X484950Y69570D03*
Y49570D03*
Y89570D03*
X464950D03*
X484950Y129570D03*
X464950D03*
X484950Y109570D03*
X464950D03*
X484950Y149570D03*
X464950D03*
X484950Y189570D03*
X464950D03*
X484950Y169570D03*
X464950D03*
Y229570D03*
Y369570D03*
X484950Y389570D03*
X464950D03*
X484950Y429570D03*
X464950D03*
X484950Y409570D03*
X464950D03*
X484950Y449570D03*
Y469570D03*
X504950Y29570D03*
Y69570D03*
Y49570D03*
Y89570D03*
Y129570D03*
Y109570D03*
Y149570D03*
Y189570D03*
Y169570D03*
Y369570D03*
Y389570D03*
Y429570D03*
Y409570D03*
Y449570D03*
Y469570D03*
G54D23*
X40900Y255500D03*
X50900D03*
X116900Y159700D03*
X126900D03*
Y189700D03*
X116900D03*
X136900Y159700D03*
X146900D03*
X156900D03*
Y189700D03*
X146900D03*
X136900D03*
X166900Y159700D03*
X176900D03*
X186900D03*
Y189700D03*
X176900D03*
X166900D03*
X196900Y159700D03*
Y189700D03*
X251300Y159600D03*
Y189600D03*
X281300Y159600D03*
X271300D03*
X261300D03*
Y189600D03*
X271300D03*
X281300D03*
X311300Y159600D03*
X301300D03*
X291300D03*
Y189600D03*
X301300D03*
X311300D03*
X321300Y159600D03*
Y189600D03*
X231300Y159600D03*
Y189600D03*
G54D27*
X167500Y455000D03*
Y465000D03*
Y475000D03*
G54D29*
X357700Y232200D03*
X377700Y212200D03*
Y232200D03*
X241600Y425400D03*
X251600D03*
X357700Y212200D03*
X402000Y161700D03*
X392000Y151700D03*
Y171700D03*
X401300Y381700D03*
X412000Y151700D03*
Y171700D03*
X411300Y371700D03*
X421300Y381700D03*
G54D30*
X488100Y216400D03*
Y226400D03*
Y236400D03*
Y246400D03*
Y256400D03*
Y266400D03*
Y276400D03*
Y286400D03*
X498100Y206400D03*
Y216400D03*
Y226400D03*
Y236400D03*
Y256400D03*
Y266400D03*
Y276400D03*
Y286400D03*
G54D24*
X41300Y331800D03*
Y391800D03*
X61300Y331800D03*
X71300D03*
Y391800D03*
X61300D03*
X81300Y331800D03*
Y391800D03*
X131300Y331800D03*
Y391800D03*
X141300Y331800D03*
Y391800D03*
%LPD*%
G75*
G54D10*
X24950Y29570D03*
Y49570D03*
Y69570D03*
Y89570D03*
Y109570D03*
Y129570D03*
Y149570D03*
Y169570D03*
Y189570D03*
Y209570D03*
Y229570D03*
Y249570D03*
Y269570D03*
Y289570D03*
Y309570D03*
Y329570D03*
Y349570D03*
Y369570D03*
Y389570D03*
Y409570D03*
Y429570D03*
Y449570D03*
Y469570D03*
X44950Y29570D03*
X64950D03*
X59000Y59000D03*
X44950Y89570D03*
X64950D03*
X44950Y109570D03*
X64950D03*
X44950Y129570D03*
X64950D03*
X44950Y149570D03*
Y169570D03*
X64950D03*
X44950Y189570D03*
X64950D03*
X44950Y209570D03*
X64950D03*
X44950Y229570D03*
X64950D03*
Y289570D03*
X44950Y409570D03*
X64950D03*
X59000Y453000D03*
X44950Y429570D03*
X64950D03*
X84950Y29570D03*
Y49570D03*
Y69570D03*
Y89570D03*
Y109570D03*
Y129570D03*
Y169570D03*
Y189570D03*
Y209570D03*
Y229570D03*
Y269570D03*
Y289570D03*
Y309570D03*
Y409570D03*
Y429570D03*
Y449570D03*
Y469570D03*
X104950Y29570D03*
Y49570D03*
Y69570D03*
Y89570D03*
Y109570D03*
Y129570D03*
Y149570D03*
Y169570D03*
Y189570D03*
Y209570D03*
Y289570D03*
Y309570D03*
Y329570D03*
Y369570D03*
Y389570D03*
Y409570D03*
Y429570D03*
X124950Y29570D03*
X144950D03*
X124950Y49570D03*
X144950D03*
X124950Y69570D03*
X144950D03*
X124950Y89570D03*
X144950D03*
X124950Y109570D03*
X144950D03*
X124950Y169570D03*
X144950D03*
Y209570D03*
X124950Y289570D03*
Y309570D03*
X144950D03*
X124950Y349570D03*
Y369570D03*
Y409570D03*
X144950D03*
X124950Y429570D03*
X164950Y29570D03*
Y49570D03*
Y69570D03*
Y89570D03*
Y109570D03*
Y169570D03*
Y209570D03*
Y229570D03*
Y249570D03*
Y349570D03*
Y369570D03*
Y409570D03*
X184950Y29570D03*
Y49570D03*
Y69570D03*
Y89570D03*
Y109570D03*
Y209570D03*
Y229570D03*
Y249570D03*
Y389570D03*
Y429570D03*
Y449570D03*
X204950Y29570D03*
X224950D03*
X204950Y49570D03*
X224950D03*
X204950Y69570D03*
X224950D03*
X204950Y89570D03*
X224950D03*
X204950Y109570D03*
X224950D03*
X204950Y129570D03*
X224950D03*
X204950Y149570D03*
X224950D03*
X204950Y209570D03*
X224950D03*
X204950Y229570D03*
X224950D03*
Y249570D03*
Y309570D03*
X204950Y329570D03*
X224950D03*
Y349570D03*
Y369570D03*
X204950Y389570D03*
X224950D03*
X204950Y409570D03*
X224950D03*
X244950Y29570D03*
Y49570D03*
Y69570D03*
Y89570D03*
Y109570D03*
Y129570D03*
Y149570D03*
Y169570D03*
Y209570D03*
Y229570D03*
Y389570D03*
X264950Y29570D03*
Y49570D03*
Y69570D03*
Y89570D03*
Y109570D03*
Y129570D03*
Y149570D03*
Y169570D03*
Y209570D03*
Y229570D03*
Y309570D03*
Y389570D03*
Y409570D03*
Y449570D03*
Y469570D03*
X284950Y29570D03*
X304950D03*
X284950Y49570D03*
X304950D03*
X284950Y69570D03*
X304950D03*
X284950Y89570D03*
X304950D03*
X284950Y109570D03*
X304950D03*
X284950Y169570D03*
X304950D03*
X284950Y249570D03*
X304950D03*
X284950Y309570D03*
Y349570D03*
Y369570D03*
Y389570D03*
X304950D03*
X284950Y409570D03*
X304950D03*
X284950Y429570D03*
X304950D03*
X284950Y449570D03*
X304950D03*
X284950Y469570D03*
X304950D03*
X324950Y29570D03*
Y49570D03*
Y69570D03*
Y89570D03*
Y109570D03*
Y129570D03*
Y149570D03*
Y249570D03*
Y309570D03*
Y369570D03*
Y389570D03*
Y409570D03*
Y429570D03*
Y449570D03*
Y469570D03*
X344950Y29570D03*
X364950D03*
X344950Y49570D03*
X364950D03*
X344950Y69570D03*
X364950D03*
X344950Y89570D03*
X364950D03*
X344950Y109570D03*
X364950D03*
X344950Y129570D03*
X364950D03*
X344950Y149570D03*
X364950D03*
X344950Y169570D03*
X364950D03*
X344950Y189570D03*
X364950D03*
X344950Y209570D03*
Y249570D03*
X364950D03*
X344950Y309570D03*
X364950D03*
X344950Y329570D03*
X364950D03*
X344950Y349570D03*
X364950D03*
X344950Y369570D03*
X364950D03*
X344950Y389570D03*
X364950D03*
X344950Y409570D03*
X364950D03*
X344950Y429570D03*
X364950D03*
X344950Y449570D03*
X364950D03*
X344950Y469570D03*
X364950D03*
X384950Y29570D03*
Y49570D03*
Y69570D03*
Y89570D03*
Y109570D03*
Y129570D03*
Y189570D03*
Y329570D03*
Y349570D03*
Y369570D03*
Y389570D03*
Y409570D03*
Y429570D03*
Y449570D03*
Y469570D03*
X404950Y29570D03*
Y49570D03*
Y69570D03*
Y89570D03*
Y109570D03*
Y129570D03*
Y229570D03*
Y249570D03*
Y309570D03*
Y409570D03*
Y429570D03*
Y449570D03*
Y469570D03*
X424950Y29570D03*
X444950D03*
X452500Y59000D03*
X424950Y49570D03*
Y69570D03*
Y89570D03*
X444950D03*
X424950Y109570D03*
X444950D03*
X424950Y129570D03*
X444950D03*
X424950Y149570D03*
X444950D03*
X424950Y169570D03*
X444950D03*
Y189570D03*
X424950Y229570D03*
X444950D03*
X424950Y249570D03*
X444950Y369570D03*
Y389570D03*
X424950Y409570D03*
X444950D03*
X452500Y453000D03*
X424950Y429570D03*
X444950D03*
X424950Y449570D03*
Y469570D03*
X464950Y29570D03*
Y89570D03*
Y109570D03*
Y129570D03*
Y149570D03*
Y169570D03*
Y189570D03*
Y229570D03*
Y309570D03*
Y369570D03*
Y389570D03*
Y409570D03*
Y429570D03*
X484950Y29570D03*
Y49570D03*
Y69570D03*
Y89570D03*
Y109570D03*
Y129570D03*
Y149570D03*
Y169570D03*
Y189570D03*
Y309570D03*
Y329570D03*
Y389570D03*
Y409570D03*
Y429570D03*
Y449570D03*
Y469570D03*
X504950Y29570D03*
Y49570D03*
Y69570D03*
Y89570D03*
Y109570D03*
Y129570D03*
Y149570D03*
Y169570D03*
Y189570D03*
Y309570D03*
Y369570D03*
Y389570D03*
Y409570D03*
Y429570D03*
Y449570D03*
Y469570D03*
G54D20*
X498100Y206400D03*
X488100Y216400D03*
X498100D03*
X488100Y226400D03*
X498100D03*
X488100Y236400D03*
X498100D03*
X488100Y246400D03*
Y256400D03*
X498100D03*
X488100Y266400D03*
X498100D03*
X488100Y276400D03*
X498100D03*
X488100Y286400D03*
X498100D03*
X488100Y296400D03*
X498100D03*
G54D11*
X40900Y255500D03*
X50900D03*
X116900Y159700D03*
Y189700D03*
X146900Y159700D03*
X136900D03*
X126900D03*
Y189700D03*
X136900D03*
X146900D03*
X166900Y159700D03*
X156900D03*
Y189700D03*
X166900D03*
X196900Y159700D03*
X186900D03*
X176900D03*
Y189700D03*
X186900D03*
X196900D03*
X206900Y159700D03*
Y189700D03*
X251300Y159600D03*
X241300D03*
X231300D03*
Y189600D03*
X241300D03*
X251300D03*
X281300Y159600D03*
X271300D03*
X261300D03*
Y189600D03*
X271300D03*
X281300D03*
X311300Y159600D03*
X301300D03*
X291300D03*
Y189600D03*
X301300D03*
X311300D03*
X321300Y159600D03*
Y189600D03*
G54D21*
G01X67550Y139240D02*
Y141650D01*
G01D02*
Y144060D01*
G01X65140Y141650D02*
X67550D01*
G01D02*
X69960D01*
G01X97200Y137090D02*
Y139500D01*
G01D02*
Y141910D01*
G01X94790Y139500D02*
X97200D01*
G01D02*
X99610D01*
G01X98400Y220190D02*
Y222600D01*
G01D02*
Y225010D01*
G01X95990Y222600D02*
X98400D01*
G01D02*
X100810D01*
G01X115390Y255500D02*
X117800D01*
G01Y253090D02*
Y255500D01*
G01D02*
Y257910D01*
G01Y255500D02*
X120210D01*
G01X169990Y127100D02*
X172400D01*
G01X156800Y272590D02*
Y275000D01*
G01D02*
Y277410D01*
G01X154390Y275000D02*
X156800D01*
G01D02*
X159210D01*
G01X154200Y262490D02*
Y264900D01*
G01D02*
Y267310D01*
G01X151790Y264900D02*
X154200D01*
G01D02*
X156610D01*
G01X167500Y450540D02*
Y455000D01*
G01D02*
Y459460D01*
G01X163040Y455000D02*
X167500D01*
G01D02*
X171960D01*
G01X172400Y124690D02*
Y127100D01*
G01D02*
Y129510D01*
G01Y127100D02*
X174810D01*
G01X186000Y169490D02*
Y171900D01*
G01D02*
Y174310D01*
G01X183590Y171900D02*
X186000D01*
G01D02*
X188410D01*
G01X180300Y299090D02*
Y301500D01*
G01D02*
Y303910D01*
G01X177890Y301500D02*
X180300D01*
G01D02*
X182710D01*
G01X196200Y326090D02*
Y328500D01*
G01D02*
Y330910D01*
G01X193790Y328500D02*
X196200D01*
G01D02*
X198610D01*
G01X195200Y381390D02*
Y383800D01*
G01D02*
Y386210D01*
G01X192790Y383800D02*
X195200D01*
G01D02*
X197610D01*
G01X210700Y272290D02*
Y274700D01*
G01D02*
Y277110D01*
G01X208290Y274700D02*
X210700D01*
G01D02*
X213110D01*
G01X207600Y262190D02*
Y264600D01*
G01D02*
Y267010D01*
G01X205190Y264600D02*
X207600D01*
G01D02*
X210010D01*
G01X212700Y351590D02*
Y354000D01*
G01D02*
Y356410D01*
G01X210290Y354000D02*
X212700D01*
G01D02*
X215110D01*
G01X239400Y293390D02*
Y295800D01*
G01D02*
Y298210D01*
G01X236990Y295800D02*
X239400D01*
G01D02*
X241810D01*
G01X252290Y323400D02*
X254700D01*
G01X252190Y381400D02*
X254600D01*
G01X251600Y420440D02*
Y425400D01*
G01D02*
Y430360D01*
G01Y425400D02*
X256560D01*
G01X261000Y236990D02*
Y239400D01*
G01D02*
Y241810D01*
G01X258590Y239400D02*
X261000D01*
G01D02*
X263410D01*
G01X264900Y278690D02*
Y281100D01*
G01D02*
Y283510D01*
G01X262490Y281100D02*
X264900D01*
G01D02*
X267310D01*
G01X254700Y320990D02*
Y323400D01*
G01D02*
Y325810D01*
G01Y323400D02*
X257110D01*
G01X270600Y347390D02*
Y349800D01*
G01D02*
Y352210D01*
G01X268190Y349800D02*
X270600D01*
G01D02*
X273010D01*
G01X254600Y378990D02*
Y381400D01*
G01D02*
Y383810D01*
G01Y381400D02*
X257010D01*
G01X291300Y124490D02*
Y126900D01*
G01D02*
Y129310D01*
G01X288890Y126900D02*
X291300D01*
G01D02*
X293710D01*
G01X294300Y301190D02*
Y303600D01*
G01D02*
Y306010D01*
G01X291890Y303600D02*
X294300D01*
G01D02*
X296710D01*
G01X325500Y171590D02*
Y174000D01*
G01D02*
Y176410D01*
G01X323090Y174000D02*
X325500D01*
G01D02*
X327910D01*
G01X319300Y224590D02*
Y227000D01*
G01D02*
Y229410D01*
G01X316890Y227000D02*
X319300D01*
G01D02*
X321710D01*
G01X317700Y214690D02*
Y217100D01*
G01D02*
Y219510D01*
G01X315290Y217100D02*
X317700D01*
G01D02*
X320110D01*
G01X313800Y329990D02*
Y332400D01*
G01D02*
Y334810D01*
G01X311390Y332400D02*
X313800D01*
G01D02*
X316210D01*
G01X328500Y352490D02*
Y354900D01*
G01D02*
Y357310D01*
G01X326090Y354900D02*
X328500D01*
G01D02*
X330910D01*
G01X311900Y382290D02*
Y384700D01*
G01D02*
Y387110D01*
G01X309490Y384700D02*
X311900D01*
G01D02*
X314310D01*
G01X387300Y232790D02*
Y235200D01*
G01D02*
Y237610D01*
G01X384890Y235200D02*
X387300D01*
G01D02*
X389710D01*
G01X366950Y289740D02*
Y292150D01*
G01D02*
Y294560D01*
G01X364540Y292150D02*
X366950D01*
G01D02*
X369360D01*
G01X388200Y313190D02*
Y315600D01*
G01D02*
Y318010D01*
G01X385790Y315600D02*
X388200D01*
G01D02*
X390610D01*
G01X410700Y268490D02*
Y270900D01*
G01D02*
Y273310D01*
G01X408290Y270900D02*
X410700D01*
G01D02*
X413110D01*
G01X425100Y196190D02*
Y198600D01*
G01D02*
Y201010D01*
G01X422690Y198600D02*
X425100D01*
G01D02*
X427510D01*
G01X433500Y323390D02*
Y325800D01*
G01D02*
Y328210D01*
G01X431090Y325800D02*
X433500D01*
G01D02*
X435910D01*
G01X426900Y344690D02*
Y347100D01*
G01D02*
Y349510D01*
G01X424490Y347100D02*
X426900D01*
G01D02*
X429310D01*
G01X466200Y320090D02*
Y322500D01*
G01D02*
Y324910D01*
G01X463790Y322500D02*
X466200D01*
G01D02*
X468610D01*
G01X488600Y365490D02*
Y367900D01*
G01D02*
Y370310D01*
G01X486190Y367900D02*
X488600D01*
G01D02*
X491010D01*
G01X505200Y335690D02*
Y338100D01*
G01D02*
Y340510D01*
G01X502790Y338100D02*
X505200D01*
G01D02*
X507610D01*
G54D12*
X58200Y276000D03*
X58800Y306300D03*
X67550Y141650D03*
X81300Y237600D03*
X66000Y272100D03*
X116900Y127900D03*
X97200Y139500D03*
X105000Y201900D03*
X109200Y222600D03*
X98400D03*
X102900Y244500D03*
X117800Y255500D03*
X99300Y352500D03*
X124500Y127800D03*
X136900Y134200D03*
X126700Y275500D03*
X133200Y294900D03*
X135900Y435000D03*
X156900Y121500D03*
X146900Y134200D03*
X172400Y127100D03*
X156000Y256800D03*
X156800Y275000D03*
X154200Y264900D03*
X168600Y306900D03*
X151500Y302100D03*
X173700Y344100D03*
X190700Y133300D03*
X186000Y171900D03*
X183000Y258600D03*
X184500Y294900D03*
X199200Y306900D03*
X180300Y301500D03*
X196200Y328500D03*
X195200Y383800D03*
X209400Y257100D03*
X210700Y274700D03*
X207600Y264600D03*
X203900Y329200D03*
X212700Y354000D03*
X250200Y254700D03*
X253800Y270600D03*
X234150Y292200D03*
X253970Y286070D03*
X239400Y295800D03*
X254700Y323400D03*
X233100Y339300D03*
X254600Y381400D03*
X261000Y239400D03*
X258300Y278100D03*
X264900Y281100D03*
X260700Y299700D03*
X262700Y324100D03*
X270600Y349800D03*
X305500Y133000D03*
X291300Y126900D03*
X298800Y208800D03*
X298500Y240000D03*
X285000Y309900D03*
X294300Y303600D03*
X325500Y174000D03*
X333300Y208500D03*
X319300Y227000D03*
X317700Y217100D03*
X325200Y337200D03*
X313800Y332400D03*
X312900Y344700D03*
X328500Y354900D03*
X311900Y384700D03*
X387300Y235200D03*
X366950Y292150D03*
X388200Y315600D03*
X409000Y187900D03*
X396400Y192400D03*
X404700Y222600D03*
X393700Y231700D03*
X400500Y279600D03*
X401100Y259200D03*
X410700Y270900D03*
X411000Y320100D03*
X398700Y345600D03*
X425100Y198600D03*
X431550Y256650D03*
X433500Y325800D03*
X432900Y358500D03*
X426900Y347100D03*
X454050Y246150D03*
X449700Y309300D03*
X451800Y332100D03*
X469200Y327000D03*
X466200Y322500D03*
X488600Y367900D03*
X505200Y338100D03*
G54D13*
X41300Y331800D03*
X61300D03*
Y391800D03*
X41300D03*
X71300Y331800D03*
X81300D03*
Y391800D03*
X71300D03*
X131300Y331800D03*
X141300D03*
Y391800D03*
X131300D03*
G54D14*
X110000Y465000D03*
G54D15*
X167500Y455000D03*
Y465000D03*
Y475000D03*
G54D16*
X206610D03*
X222200D03*
X237800D03*
X253390D03*
G54D17*
X231600Y425400D03*
G54D18*
X241600D03*
X251600D03*
X357700Y212200D03*
Y232200D03*
X392000Y151700D03*
Y171700D03*
X367700Y222200D03*
X377700Y212200D03*
Y232200D03*
X402000Y161700D03*
X412000Y151700D03*
Y171700D03*
X421300Y361700D03*
X401300D03*
X411300Y371700D03*
X401300Y381700D03*
X421300D03*
G54D19*
X488100Y206400D03*
X498100Y246400D03*
M02*
