G04 ================== begin FILE IDENTIFICATION RECORD ==================*
G04 Layout Name:  LIDAR_READOUT_VER1_2_top_bot_gnd.brd*
G04 Film Name:    Silkscreen_Bottom*
G04 File Format:  Gerber RS274X*
G04 File Origin:  Cadence Allegro 17.2-P019*
G04 Origin Date:  Mon Jul 17 14:05:16 2023*
G04 *
G04 Layer:  COMPONENT VALUE/SILKSCREEN_BOTTOM*
G04 Layer:  BOARD GEOMETRY/SILKSCREEN_BOTTOM*
G04 Layer:  MANUFACTURING/AUTOSILK_BOTTOM*
G04 *
G04 Offset:    (0.0 0.0)*
G04 Mirror:    No*
G04 Mode:      Positive*
G04 Rotation:  0*
G04 FullContactRelief:  No*
G04 UndefLineWidth:     10.0*
G04 ================== end FILE IDENTIFICATION RECORD ====================*
%FSLAX25Y25*MOIN*%
%IR0*IPPOS*OFA0.00000B0.00000*MIA0B0*SFA1.00000B1.00000*%
%ADD10C,.01*%
G75*
%LPD*%
G75*
G54D10*
G01X191200Y311050D02*
X191160Y311260D01*
X190990Y311450D01*
X190740Y311610D01*
X190450Y311720D01*
X190120Y311770D01*
X189780D01*
X189450Y311720D01*
X189160Y311610D01*
X188910Y311450D01*
X188740Y311260D01*
X188700Y311050D01*
X188740Y310840D01*
X188910Y310650D01*
X189160Y310490D01*
X189450Y310380D01*
X189780Y310330D01*
X190120D01*
X190450Y310380D01*
X190740Y310490D01*
X190990Y310650D01*
X191160Y310840D01*
X191200Y311050D01*
G01Y309380D02*
X188700D01*
Y308740D01*
X188830Y308530D01*
X189120Y308370D01*
X189450Y308320D01*
X189780Y308370D01*
X190030Y308500D01*
X190160Y308740D01*
Y309380D01*
G01X191200Y307320D02*
X188700Y306650D01*
X191200Y305980D01*
G01X190330Y306220D02*
Y307080D01*
G01X189120Y304960D02*
X188870Y304800D01*
X188740Y304610D01*
X188700Y304400D01*
X188780Y304130D01*
X188990Y303940D01*
X189240Y303890D01*
X189490Y303920D01*
X189700Y304020D01*
X190120Y304560D01*
X190410Y304800D01*
X190830Y304960D01*
X191200Y305010D01*
Y303890D01*
G01Y302300D02*
X190660Y302250D01*
X190200Y302170D01*
X189780Y302060D01*
X189330Y301930D01*
X188700Y301720D01*
Y302780D01*
G01X191200Y300100D02*
X190660Y300050D01*
X190200Y299970D01*
X189780Y299860D01*
X189330Y299730D01*
X188700Y299520D01*
Y300580D01*
G01X250600Y305050D02*
X250560Y305260D01*
X250390Y305450D01*
X250140Y305610D01*
X249850Y305720D01*
X249520Y305770D01*
X249180D01*
X248850Y305720D01*
X248560Y305610D01*
X248310Y305450D01*
X248140Y305260D01*
X248100Y305050D01*
X248140Y304840D01*
X248310Y304650D01*
X248560Y304490D01*
X248850Y304380D01*
X249180Y304330D01*
X249520D01*
X249850Y304380D01*
X250140Y304490D01*
X250390Y304650D01*
X250560Y304840D01*
X250600Y305050D01*
G01Y303380D02*
X248100D01*
Y302740D01*
X248230Y302530D01*
X248520Y302370D01*
X248850Y302320D01*
X249180Y302370D01*
X249430Y302500D01*
X249560Y302740D01*
Y303380D01*
G01X250600Y301320D02*
X248100Y300650D01*
X250600Y299980D01*
G01X249730Y300220D02*
Y301080D01*
G01X248520Y298960D02*
X248270Y298800D01*
X248140Y298610D01*
X248100Y298400D01*
X248180Y298130D01*
X248390Y297940D01*
X248640Y297890D01*
X248890Y297920D01*
X249100Y298020D01*
X249520Y298560D01*
X249810Y298800D01*
X250230Y298960D01*
X250600Y299010D01*
Y297890D01*
G01Y296300D02*
X250060Y296250D01*
X249600Y296170D01*
X249180Y296060D01*
X248730Y295930D01*
X248100Y295720D01*
Y296780D01*
G01X250600Y294100D02*
X250060Y294050D01*
X249600Y293970D01*
X249180Y293860D01*
X248730Y293730D01*
X248100Y293520D01*
Y294580D01*
G01X307900Y312250D02*
X307860Y312460D01*
X307690Y312650D01*
X307440Y312810D01*
X307150Y312920D01*
X306820Y312970D01*
X306480D01*
X306150Y312920D01*
X305860Y312810D01*
X305610Y312650D01*
X305440Y312460D01*
X305400Y312250D01*
X305440Y312040D01*
X305610Y311850D01*
X305860Y311690D01*
X306150Y311580D01*
X306480Y311530D01*
X306820D01*
X307150Y311580D01*
X307440Y311690D01*
X307690Y311850D01*
X307860Y312040D01*
X307900Y312250D01*
G01Y310580D02*
X305400D01*
Y309940D01*
X305530Y309730D01*
X305820Y309570D01*
X306150Y309520D01*
X306480Y309570D01*
X306730Y309700D01*
X306860Y309940D01*
Y310580D01*
G01X307900Y308520D02*
X305400Y307850D01*
X307900Y307180D01*
G01X307030Y307420D02*
Y308280D01*
G01X305820Y306160D02*
X305570Y306000D01*
X305440Y305810D01*
X305400Y305600D01*
X305480Y305330D01*
X305690Y305140D01*
X305940Y305090D01*
X306190Y305120D01*
X306400Y305220D01*
X306820Y305760D01*
X307110Y306000D01*
X307530Y306160D01*
X307900Y306210D01*
Y305090D01*
G01Y303500D02*
X307360Y303450D01*
X306900Y303370D01*
X306480Y303260D01*
X306030Y303130D01*
X305400Y302920D01*
Y303980D01*
G01X307900Y301300D02*
X307360Y301250D01*
X306900Y301170D01*
X306480Y301060D01*
X306030Y300930D01*
X305400Y300720D01*
Y301780D01*
G01X394300Y246250D02*
X394260Y246460D01*
X394090Y246650D01*
X393840Y246810D01*
X393550Y246920D01*
X393220Y246970D01*
X392880D01*
X392550Y246920D01*
X392260Y246810D01*
X392010Y246650D01*
X391840Y246460D01*
X391800Y246250D01*
X391840Y246040D01*
X392010Y245850D01*
X392260Y245690D01*
X392550Y245580D01*
X392880Y245530D01*
X393220D01*
X393550Y245580D01*
X393840Y245690D01*
X394090Y245850D01*
X394260Y246040D01*
X394300Y246250D01*
G01Y244580D02*
X391800D01*
Y243940D01*
X391930Y243730D01*
X392220Y243570D01*
X392550Y243520D01*
X392880Y243570D01*
X393130Y243700D01*
X393260Y243940D01*
Y244580D01*
G01X394300Y242520D02*
X391800Y241850D01*
X394300Y241180D01*
G01X393430Y241420D02*
Y242280D01*
G01X392220Y240160D02*
X391970Y240000D01*
X391840Y239810D01*
X391800Y239600D01*
X391880Y239330D01*
X392090Y239140D01*
X392340Y239090D01*
X392590Y239120D01*
X392800Y239220D01*
X393220Y239760D01*
X393510Y240000D01*
X393930Y240160D01*
X394300Y240210D01*
Y239090D01*
G01Y237500D02*
X393760Y237450D01*
X393300Y237370D01*
X392880Y237260D01*
X392430Y237130D01*
X391800Y236920D01*
Y237980D01*
G01X394300Y235300D02*
X393760Y235250D01*
X393300Y235170D01*
X392880Y235060D01*
X392430Y234930D01*
X391800Y234720D01*
Y235780D01*
G01X435550Y332000D02*
X435760Y332040D01*
X435950Y332210D01*
X436110Y332460D01*
X436220Y332750D01*
X436270Y333080D01*
Y333420D01*
X436220Y333750D01*
X436110Y334040D01*
X435950Y334290D01*
X435760Y334460D01*
X435550Y334500D01*
X435340Y334460D01*
X435150Y334290D01*
X434990Y334040D01*
X434880Y333750D01*
X434830Y333420D01*
Y333080D01*
X434880Y332750D01*
X434990Y332460D01*
X435150Y332210D01*
X435340Y332040D01*
X435550Y332000D01*
G01X433880D02*
Y334500D01*
X433240D01*
X433030Y334370D01*
X432870Y334080D01*
X432820Y333750D01*
X432870Y333420D01*
X433000Y333170D01*
X433240Y333040D01*
X433880D01*
G01X431820Y332000D02*
X431150Y334500D01*
X430480Y332000D01*
G01X430720Y332870D02*
X431580D01*
G01X429460Y334080D02*
X429300Y334330D01*
X429110Y334460D01*
X428900Y334500D01*
X428630Y334420D01*
X428440Y334210D01*
X428390Y333960D01*
X428420Y333710D01*
X428520Y333500D01*
X429060Y333080D01*
X429300Y332790D01*
X429460Y332370D01*
X429510Y332000D01*
X428390D01*
G01X426800D02*
X426750Y332540D01*
X426670Y333000D01*
X426560Y333420D01*
X426430Y333870D01*
X426220Y334500D01*
X427280D01*
G01X424600Y332000D02*
X424550Y332540D01*
X424470Y333000D01*
X424360Y333420D01*
X424230Y333870D01*
X424020Y334500D01*
X425080D01*
M02*
