G04 ================== begin FILE IDENTIFICATION RECORD ==================*
G04 Layout Name:  LIDAR_READOUT_VER1_2_top_bot_gnd.brd*
G04 Film Name:    Silkscreen_Top*
G04 File Format:  Gerber RS274X*
G04 File Origin:  Cadence Allegro 17.2-P019*
G04 Origin Date:  Mon Jul 17 14:05:16 2023*
G04 *
G04 Layer:  COMPONENT VALUE/SILKSCREEN_TOP*
G04 Layer:  BOARD GEOMETRY/SILKSCREEN_TOP*
G04 Layer:  MANUFACTURING/AUTOSILK_TOP*
G04 *
G04 Offset:    (0.0 0.0)*
G04 Mirror:    No*
G04 Mode:      Positive*
G04 Rotation:  0*
G04 FullContactRelief:  No*
G04 UndefLineWidth:     10.0*
G04 ================== end FILE IDENTIFICATION RECORD ====================*
%FSLAX25Y25*MOIN*%
%IR0*IPPOS*OFA0.00000B0.00000*MIA0B0*SFA1.00000B1.00000*%
%ADD10C,.01*%
G75*
%LPD*%
G75*
G54D10*
G01X117550Y244500D02*
X117340Y244540D01*
X117150Y244710D01*
X116990Y244960D01*
X116880Y245250D01*
X116830Y245580D01*
Y245920D01*
X116880Y246250D01*
X116990Y246540D01*
X117150Y246790D01*
X117340Y246960D01*
X117550Y247000D01*
X117760Y246960D01*
X117950Y246790D01*
X118110Y246540D01*
X118220Y246250D01*
X118270Y245920D01*
Y245580D01*
X118220Y245250D01*
X118110Y244960D01*
X117950Y244710D01*
X117760Y244540D01*
X117550Y244500D01*
G01X119220D02*
Y247000D01*
X119860D01*
X120070Y246870D01*
X120230Y246580D01*
X120280Y246250D01*
X120230Y245920D01*
X120100Y245670D01*
X119860Y245540D01*
X119220D01*
G01X121280Y244500D02*
X121950Y247000D01*
X122620Y244500D01*
G01X122380Y245370D02*
X121520D01*
G01X123640Y245540D02*
X123830Y245830D01*
X123990Y246000D01*
X124200Y246080D01*
X124390Y246000D01*
X124520Y245830D01*
X124630Y245580D01*
X124660Y245290D01*
X124630Y245040D01*
X124520Y244790D01*
X124360Y244580D01*
X124180Y244500D01*
X123960Y244580D01*
X123780Y244830D01*
X123670Y245210D01*
X123640Y245620D01*
X123700Y246170D01*
X123780Y246460D01*
X123910Y246750D01*
X124100Y246960D01*
X124280Y247000D01*
X124470Y246920D01*
X124600Y246710D01*
G01X125760Y244870D02*
X125920Y244670D01*
X126110Y244540D01*
X126350Y244500D01*
X126590Y244580D01*
X126780Y244750D01*
X126910Y245040D01*
X126940Y245370D01*
X126880Y245710D01*
X126750Y245920D01*
X126560Y246080D01*
X126380Y246120D01*
X126190Y246080D01*
X125950Y245920D01*
X126030Y247000D01*
X126750D01*
G01X128500Y244500D02*
X128550Y245040D01*
X128630Y245500D01*
X128740Y245920D01*
X128870Y246370D01*
X129080Y247000D01*
X128020D01*
G01X95500Y332130D02*
X90500D01*
Y333720D01*
X90750Y334220D01*
X91080Y334540D01*
X91750Y334670D01*
X92420Y334540D01*
X92830Y334160D01*
X93080Y333720D01*
Y332130D01*
G01Y333720D02*
X95500Y334670D01*
G01Y339260D02*
X90500D01*
X94080Y336920D01*
Y340080D01*
G01X93420Y342400D02*
X92830Y342840D01*
X92500Y343220D01*
X92330Y343730D01*
X92500Y344170D01*
X92830Y344490D01*
X93330Y344740D01*
X93920Y344800D01*
X94420Y344740D01*
X94920Y344490D01*
X95330Y344110D01*
X95500Y343660D01*
X95330Y343160D01*
X94830Y342710D01*
X94080Y342460D01*
X93250Y342400D01*
X92170Y342520D01*
X91580Y342710D01*
X91000Y343030D01*
X90580Y343470D01*
X90500Y343920D01*
X90670Y344360D01*
X91080Y344680D01*
G01X166900Y192920D02*
X161900Y194500D01*
X166900Y196080D01*
G01X165150Y195510D02*
Y193490D01*
G01X166900Y198210D02*
X161900D01*
Y199470D01*
X162150Y199980D01*
X162480Y200360D01*
X162980Y200680D01*
X163570Y200930D01*
X164400Y200990D01*
X165230Y200930D01*
X165820Y200680D01*
X166320Y200360D01*
X166650Y199980D01*
X166900Y199470D01*
Y198210D01*
G01X164820Y203500D02*
X164230Y203940D01*
X163900Y204320D01*
X163730Y204830D01*
X163900Y205270D01*
X164230Y205590D01*
X164730Y205840D01*
X165320Y205900D01*
X165820Y205840D01*
X166320Y205590D01*
X166730Y205210D01*
X166900Y204760D01*
X166730Y204260D01*
X166230Y203810D01*
X165480Y203560D01*
X164650Y203500D01*
X163570Y203620D01*
X162980Y203810D01*
X162400Y204130D01*
X161980Y204570D01*
X161900Y205020D01*
X162070Y205460D01*
X162480Y205780D01*
G01X166900Y210560D02*
X161900D01*
X165480Y208220D01*
Y211380D01*
G01X166900Y214900D02*
X161900D01*
X162900Y214140D01*
G01X166900D02*
Y215660D01*
G01X169850Y263900D02*
X169640Y263940D01*
X169450Y264110D01*
X169290Y264360D01*
X169180Y264650D01*
X169130Y264980D01*
Y265320D01*
X169180Y265650D01*
X169290Y265940D01*
X169450Y266190D01*
X169640Y266360D01*
X169850Y266400D01*
X170060Y266360D01*
X170250Y266190D01*
X170410Y265940D01*
X170520Y265650D01*
X170570Y265320D01*
Y264980D01*
X170520Y264650D01*
X170410Y264360D01*
X170250Y264110D01*
X170060Y263940D01*
X169850Y263900D01*
G01X171520D02*
Y266400D01*
X172160D01*
X172370Y266270D01*
X172530Y265980D01*
X172580Y265650D01*
X172530Y265320D01*
X172400Y265070D01*
X172160Y264940D01*
X171520D01*
G01X173580Y263900D02*
X174250Y266400D01*
X174920Y263900D01*
G01X174680Y264770D02*
X173820D01*
G01X175940Y264940D02*
X176130Y265230D01*
X176290Y265400D01*
X176500Y265480D01*
X176690Y265400D01*
X176820Y265230D01*
X176930Y264980D01*
X176960Y264690D01*
X176930Y264440D01*
X176820Y264190D01*
X176660Y263980D01*
X176480Y263900D01*
X176260Y263980D01*
X176080Y264230D01*
X175970Y264610D01*
X175940Y265020D01*
X176000Y265570D01*
X176080Y265860D01*
X176210Y266150D01*
X176400Y266360D01*
X176580Y266400D01*
X176770Y266320D01*
X176900Y266110D01*
G01X178200Y264190D02*
X178380Y263980D01*
X178600Y263900D01*
X178810Y263980D01*
X179000Y264230D01*
X179130Y264610D01*
X179180Y264980D01*
Y265440D01*
X179130Y265820D01*
X179000Y266150D01*
X178840Y266320D01*
X178650Y266400D01*
X178440Y266320D01*
X178280Y266150D01*
X178170Y265900D01*
X178120Y265570D01*
X178170Y265280D01*
X178300Y264980D01*
X178460Y264820D01*
X178650Y264770D01*
X178860Y264860D01*
X179020Y265070D01*
X179180Y265440D01*
G01X180260Y264270D02*
X180420Y264070D01*
X180610Y263940D01*
X180850Y263900D01*
X181090Y263980D01*
X181280Y264150D01*
X181410Y264440D01*
X181440Y264770D01*
X181380Y265110D01*
X181250Y265320D01*
X181060Y265480D01*
X180880Y265520D01*
X180690Y265480D01*
X180450Y265320D01*
X180530Y266400D01*
X181250D01*
G01X223550Y263600D02*
X223340Y263640D01*
X223150Y263810D01*
X222990Y264060D01*
X222880Y264350D01*
X222830Y264680D01*
Y265020D01*
X222880Y265350D01*
X222990Y265640D01*
X223150Y265890D01*
X223340Y266060D01*
X223550Y266100D01*
X223760Y266060D01*
X223950Y265890D01*
X224110Y265640D01*
X224220Y265350D01*
X224270Y265020D01*
Y264680D01*
X224220Y264350D01*
X224110Y264060D01*
X223950Y263810D01*
X223760Y263640D01*
X223550Y263600D01*
G01X225220D02*
Y266100D01*
X225860D01*
X226070Y265970D01*
X226230Y265680D01*
X226280Y265350D01*
X226230Y265020D01*
X226100Y264770D01*
X225860Y264640D01*
X225220D01*
G01X227280Y263600D02*
X227950Y266100D01*
X228620Y263600D01*
G01X228380Y264470D02*
X227520D01*
G01X229640Y264640D02*
X229830Y264930D01*
X229990Y265100D01*
X230200Y265180D01*
X230390Y265100D01*
X230520Y264930D01*
X230630Y264680D01*
X230660Y264390D01*
X230630Y264140D01*
X230520Y263890D01*
X230360Y263680D01*
X230180Y263600D01*
X229960Y263680D01*
X229780Y263930D01*
X229670Y264310D01*
X229640Y264720D01*
X229700Y265270D01*
X229780Y265560D01*
X229910Y265850D01*
X230100Y266060D01*
X230280Y266100D01*
X230470Y266020D01*
X230600Y265810D01*
G01X231900Y263890D02*
X232080Y263680D01*
X232300Y263600D01*
X232510Y263680D01*
X232700Y263930D01*
X232830Y264310D01*
X232880Y264680D01*
Y265140D01*
X232830Y265520D01*
X232700Y265850D01*
X232540Y266020D01*
X232350Y266100D01*
X232140Y266020D01*
X231980Y265850D01*
X231870Y265600D01*
X231820Y265270D01*
X231870Y264980D01*
X232000Y264680D01*
X232160Y264520D01*
X232350Y264470D01*
X232560Y264560D01*
X232720Y264770D01*
X232880Y265140D01*
G01X233960Y263970D02*
X234120Y263770D01*
X234310Y263640D01*
X234550Y263600D01*
X234790Y263680D01*
X234980Y263850D01*
X235110Y264140D01*
X235140Y264470D01*
X235080Y264810D01*
X234950Y265020D01*
X234760Y265180D01*
X234580Y265220D01*
X234390Y265180D01*
X234150Y265020D01*
X234230Y266100D01*
X234950D01*
G01X281300Y192820D02*
X276300Y194400D01*
X281300Y195980D01*
G01X279550Y195410D02*
Y193390D01*
G01X281300Y198110D02*
X276300D01*
Y199370D01*
X276550Y199880D01*
X276880Y200260D01*
X277380Y200580D01*
X277970Y200830D01*
X278800Y200890D01*
X279630Y200830D01*
X280220Y200580D01*
X280720Y200260D01*
X281050Y199880D01*
X281300Y199370D01*
Y198110D01*
G01X279220Y203400D02*
X278630Y203840D01*
X278300Y204220D01*
X278130Y204730D01*
X278300Y205170D01*
X278630Y205490D01*
X279130Y205740D01*
X279720Y205800D01*
X280220Y205740D01*
X280720Y205490D01*
X281130Y205110D01*
X281300Y204660D01*
X281130Y204160D01*
X280630Y203710D01*
X279880Y203460D01*
X279050Y203400D01*
X277970Y203520D01*
X277380Y203710D01*
X276800Y204030D01*
X276380Y204470D01*
X276300Y204920D01*
X276470Y205360D01*
X276880Y205680D01*
G01X281300Y210460D02*
X276300D01*
X279880Y208120D01*
Y211280D01*
G01X281300Y214800D02*
X276300D01*
X277300Y214040D01*
G01X281300D02*
Y215560D01*
G01X332020Y218600D02*
Y216100D01*
X333080D01*
G01X334060D02*
Y218600D01*
X334750Y216520D01*
X335440Y218600D01*
Y216100D01*
G01X336390D02*
Y218600D01*
G01X337510D02*
Y216100D01*
G01Y217350D02*
X336390D01*
G01X338640Y217140D02*
X338830Y217430D01*
X338990Y217600D01*
X339200Y217680D01*
X339390Y217600D01*
X339520Y217430D01*
X339630Y217180D01*
X339660Y216890D01*
X339630Y216640D01*
X339520Y216390D01*
X339360Y216180D01*
X339180Y216100D01*
X338960Y216180D01*
X338780Y216430D01*
X338670Y216810D01*
X338640Y217220D01*
X338700Y217770D01*
X338780Y218060D01*
X338910Y218350D01*
X339100Y218560D01*
X339280Y218600D01*
X339470Y218520D01*
X339600Y218310D01*
G01X341300Y216100D02*
X341350Y216640D01*
X341430Y217100D01*
X341540Y217520D01*
X341670Y217970D01*
X341880Y218600D01*
X340820D01*
G01X343550D02*
X343340Y218520D01*
X343180Y218310D01*
X343070Y218060D01*
X342990Y217720D01*
X342960Y217350D01*
X342990Y216970D01*
X343070Y216640D01*
X343180Y216390D01*
X343340Y216180D01*
X343550Y216100D01*
X343760Y216180D01*
X343920Y216390D01*
X344030Y216640D01*
X344110Y216970D01*
X344140Y217350D01*
X344110Y217720D01*
X344030Y218060D01*
X343920Y218310D01*
X343760Y218520D01*
X343550Y218600D01*
G01X346070Y216100D02*
Y218600D01*
X345080Y216810D01*
X346420D01*
M02*
