M48
INCH,TZ
T01C.013
T02C.02
T03C.0295
T04C.031
T05C.036
T06C.037
T07C.054
T08C.055
T09C.0709
T10C.15
T11C.2362
;LEADER: 12 
;HEADER: 
;CODE  : ASCII 
;FILE  : LIDAR_READOUT_VER1_2_top_bot_gnd-1-4.drl for board #Taaaaam21668.tmp ... layers TOP and BOTTOM
;T01 Holesize 1. = 13.000000 Tolerance = +0.000000/-0.000000 PLATED MILS Quantity = 93
;T02 Holesize 2. = 20.000000 Tolerance = +0.000000/-0.000000 PLATED MILS Quantity = 357
;T03 Holesize 3. = 29.500000 Tolerance = +0.000000/-0.000000 PLATED MILS Quantity = 12
;T04 Holesize 4. = 31.000000 Tolerance = +0.000000/-0.000000 PLATED MILS Quantity = 2
;T05 Holesize 5. = 36.000000 Tolerance = +0.000000/-0.000000 PLATED MILS Quantity = 40
;T06 Holesize 6. = 37.000000 Tolerance = +0.000000/-0.000000 PLATED MILS Quantity = 20
;T07 Holesize 7. = 54.000000 Tolerance = +0.000000/-0.000000 PLATED MILS Quantity = 18
;T08 Holesize 8. = 55.000000 Tolerance = +0.000000/-0.000000 PLATED MILS Quantity = 3
;T09 Holesize 9. = 70.900000 Tolerance = +0.000000/-0.000000 PLATED MILS Quantity = 4
;T10 Holesize 10. = 150.000000 Tolerance = +0.000000/-0.000000 PLATED MILS Quantity = 1
%
G90
T01
X67550Y141650
X66000Y272100
X58200Y276000
X58800Y306300
X135900Y435000
X99300Y352500
X133200Y294900
X126700Y275500
X117800Y255500
X102900Y244500
X81300Y237600
X109200Y222600
X98400Y222600
X105000Y201900
X97200Y139500
X136900Y134200
X116900Y127900
X124500Y127800
X156900Y121500
X172400Y127100
X190700Y133300
X146900Y134200
X186000Y171900
X156000Y256800
X209400Y257100
X183000Y258600
X207600Y264600
X154200Y264900
X156800Y275000
X184500Y294900
X180300Y301500
X151500Y302100
X168600Y306900
X199200Y306900
X196200Y328500
X203900Y329200
X173700Y344100
X195200Y383800
X254600Y381400
X212700Y354000
X270600Y349800
X233100Y339300
X262700Y324100
X254700Y323400
X260700Y299700
X239400Y295800
X234150Y292200
X253970Y286070
X264900Y281100
X258300Y278100
X210700Y274700
X253800Y270600
X250200Y254700
X261000Y239400
X291300Y126900
X305500Y133000
X325500Y174000
X333300Y208500
X298800Y208800
X317700Y217100
X319300Y227000
X298500Y240000
X294300Y303600
X285000Y309900
X313800Y332400
X325200Y337200
X312900Y344700
X328500Y354900
X311900Y384700
X398700Y345600
X411000Y320100
X388200Y315600
X366950Y292150
X400500Y279600
X410700Y270900
X401100Y259200
X387300Y235200
X393700Y231700
X404700Y222600
X396400Y192400
X409000Y187900
X425100Y198600
X454050Y246150
X431550Y256650
X449700Y309300
X466200Y322500
X433500Y325800
X469200Y327000
X451800Y332100
X426900Y347100
X432900Y358500
X488600Y367900
X505200Y338100
T02
X24950Y29570
R24X20000
X504950Y49570
X484950Y49570
X424950Y49570
R17X-20000
X24950Y49570
R02Y20000
X44950Y89570
X64950Y89570
X84950Y69570
X84950Y89570
X104950Y69570
X104950Y89570
X124950Y69570
X124950Y89570
X144950Y69570
X144950Y89570
X164950Y69570
X164950Y89570
X184950Y69570
X184950Y89570
X204950Y69570
X204950Y89570
X224950Y69570
X224950Y89570
X244950Y69570
X244950Y89570
X264950Y69570
X264950Y89570
X284950Y69570
X284950Y89570
X304950Y69570
X304950Y89570
X324950Y69570
X324950Y89570
X344950Y69570
X344950Y89570
X364950Y69570
X364950Y89570
X384950Y69570
X384950Y89570
X404950Y69570
X404950Y89570
X424950Y69570
X424950Y89570
X444950Y89570
X464950Y89570
X484950Y69570
X484950Y89570
X504950Y69570
R02Y20000
X484950Y109570
R23X-20000
X24950Y129570
X24950Y149570
X44950Y129570
X44950Y149570
X64950Y129570
R02X20000
X104950Y149570
X204950Y129570
X204950Y149570
X224950Y129570
X224950Y149570
X244950Y129570
X244950Y149570
X264950Y129570
X264950Y149570
X324950Y129570
X324950Y149570
X344950Y129570
X344950Y149570
X364950Y129570
X364950Y149570
X384950Y129570
X404950Y129570
X424950Y129570
X424950Y149570
X444950Y129570
X444950Y149570
X464950Y129570
X464950Y149570
X484950Y129570
X484950Y149570
X504950Y129570
X504950Y149570
X504950Y169570
X484950Y169570
R03X-20000
X364950Y169570
X344950Y169570
X304950Y169570
R03X-20000
X164950Y169570
R07X-20000
X24950Y189570
X24950Y209570
X44950Y189570
X44950Y209570
X64950Y189570
X64950Y209570
X84950Y189570
X84950Y209570
X104950Y189570
X104950Y209570
X144950Y209570
R06X20000
X344950Y189570
X344950Y209570
X364950Y189570
X384950Y189570
X444950Y189570
R03X20000
X464950Y229570
R03X-20000
X264950Y229570
R05X-20000
X84950Y229570
R03X-20000
X24950Y249570
X24950Y269570
X84950Y269570
X164950Y249570
X184950Y249570
X224950Y249570
X284950Y249570
R04X20000
X404950Y249570
X424950Y249570
X124950Y289570
R03X-20000
X24950Y289570
R02Y20000
X84950Y309570
X104950Y309570
X104950Y329570
X124950Y309570
X144950Y309570
X204950Y329570
X224950Y309570
X224950Y329570
X264950Y309570
X284950Y309570
X324950Y309570
X344950Y309570
X344950Y329570
X364950Y309570
X364950Y329570
X384950Y329570
X404950Y309570
X464950Y309570
X484950Y309570
X484950Y329570
X504950Y309570
X384950Y349570
X364950Y349570
X344950Y349570
X284950Y349570
R02X-60000
X124950Y349570
X24950Y349570
X24950Y369570
X24950Y389570
X104950Y369570
X104950Y389570
X124950Y369570
X164950Y369570
X184950Y389570
X204950Y389570
X224950Y369570
X224950Y389570
X244950Y389570
X264950Y389570
X284950Y369570
X284950Y389570
X304950Y389570
X324950Y369570
X324950Y389570
X344950Y369570
X344950Y389570
X364950Y369570
X364950Y389570
X384950Y369570
X384950Y389570
X444950Y369570
X444950Y389570
X464950Y369570
X464950Y389570
X484950Y389570
X504950Y369570
R02Y20000
X484950Y409570
R11X-20000
X224950Y409570
X204950Y409570
X164950Y409570
R07X-20000
X24950Y429570
X24950Y449570
X44950Y429570
R02X20000
X84950Y449570
X104950Y429570
X124950Y429570
X184950Y429570
X184950Y449570
X264950Y449570
X284950Y429570
X284950Y449570
X304950Y429570
X304950Y449570
X324950Y429570
X324950Y449570
X344950Y429570
X344950Y449570
X364950Y429570
X364950Y449570
X384950Y429570
X384950Y449570
X404950Y429570
X404950Y449570
X424950Y429570
X424950Y449570
X444950Y429570
R02X20000
X484950Y449570
X504950Y429570
X504950Y449570
X504950Y469570
X484950Y469570
X424950Y469570
X404950Y469570
R07X-20000
X84950Y469570
X24950Y469570
T03
X41300Y331800
X61300Y331800
X71300Y331800
X81300Y331800
X131300Y331800
X141300Y331800
X141300Y391800
X131300Y391800
X81300Y391800
R02X-10000
X41300Y391800
T04
X40900Y255500
X50900Y255500
T05
X116900Y159700
R09X10000
X231300Y159600
R09X10000
X321300Y189600
R09X-10000
X206900Y189700
R09X-10000
T06
X488100Y206400
X498100Y206400
X498100Y216400
X488100Y216400
X488100Y226400
X498100Y226400
X498100Y236400
X488100Y236400
X488100Y246400
X498100Y246400
X498100Y256400
X488100Y256400
X488100Y266400
X498100Y266400
X498100Y276400
X488100Y276400
X488100Y286400
X498100Y286400
X498100Y296400
X488100Y296400
T07
X392000Y151700
X412000Y151700
X402000Y161700
X412000Y171700
X392000Y171700
X377700Y212200
X357700Y212200
X367700Y222200
X357700Y232200
X377700Y232200
X401300Y361700
X421300Y361700
X411300Y371700
X421300Y381700
X401300Y381700
X251600Y425400
X241600Y425400
X231600Y425400
T08
X167500Y455000
R02Y10000
T09
X206610Y475000
X222200Y475000
X237800Y475000
X253390Y475000
T10
X110000Y465000
M30
