M48
METRIC,TZ
T01C.3302
T02C.7501
T03C1.3716
T04C1.397
T05C1.8001
T06C3.81
T07C6.35
;LEADER: 12 
;HEADER: 
;CODE  : ASCII 
;FILE  : 80DB_LIDAR_1-1-4.drl for board #Taaaaab41164.tmp ... layers TOP and BOTTOM
;T01 Holesize 1. = 0.330200 Tolerance = +0.000000/-0.000000 PLATED MM Quantity = 1966
;T02 Holesize 2. = 0.750100 Tolerance = +0.000000/-0.000000 PLATED MM Quantity = 96
;T03 Holesize 3. = 1.371600 Tolerance = +0.000000/-0.000000 PLATED MM Quantity = 149
;T04 Holesize 4. = 1.397000 Tolerance = +0.000000/-0.000000 PLATED MM Quantity = 24
;T05 Holesize 5. = 1.800100 Tolerance = +0.000000/-0.000000 PLATED MM Quantity = 32
;T06 Holesize 6. = 3.810000 Tolerance = +0.000000/-0.000000 PLATED MM Quantity = 8
%
G90
T01
X1250000Y1250000
R31Y500000
X2250000
X1750000
X2250000Y16250000
X1750000
X2250000Y15750000
X1750000
X2250000Y14250000
X1750000
X2250000Y13750000
X1750000
X2250000Y13250000
X1750000
X2250000Y12750000
X1750000
X2250000Y12250000
X1750000
X2250000Y11750000
X1750000
X2250000Y11250000
X1750000
X2250000Y10750000
X1750000
X2250000Y9250000
X1750000
X2250000Y8750000
X1750000
X2250000Y8250000
X1750000
X2250000Y7750000
X1750000
X2250000Y6250000
X1750000
X2250000Y5750000
X1750000
X2250000Y5250000
X1750000
X2250000Y4750000
X1750000
X2250000Y4250000
X1750000
X2250000Y3750000
X1750000
X2250000Y3250000
X1750000
X2250000Y2750000
X1750000
X2250000Y1250000
X1750000
X2750000
R05Y500000
Y4750000
R24Y500000
X3750000
X3250000
Y16250000
X3750000Y15750000
X3250000
X3750000Y15250000
X3250000
X3750000Y14750000
X3250000
Y14250000
X3750000Y13750000
X3250000
X3750000Y13250000
X3250000
X3750000Y11750000
X3250000
X3750000Y11250000
X3250000
X3750000Y10750000
X3250000
X3750000Y10250000
X3250000
X3750000Y9750000
X3250000
X3750000Y9250000
X3250000
Y8750000
Y8250000
X3750000Y7250000
X3250000
Y6750000
Y6250000
X3750000Y5750000
X3250000
X3750000Y5250000
X3250000
Y4750000
X3510000Y4558000
X3245960Y4077960
X3193000Y3757000
X3750000Y3750000
Y3250000
X3250000
X3750000Y2750000
X3250000
X3750000Y2250000
X3250000
X3750000Y1250000
X3250000
X4250000
Y2250000
R03Y500000
X4496960Y4077960
X4527000Y4224000
Y4438000
X3837000Y4714000
X4285160Y4967160
X4250000Y5250000
Y5750000
Y7250000
Y9250000
R04Y500000
X4445000Y11777000
X4007320Y12004320
X4302000Y12261200
X4337800Y12535100
X4214700Y12870400
X4250000Y13250000
Y13750000
Y14750000
Y15250000
Y15750000
Y16750000
X5250000
X4750000
X4911200Y15809200
X5125600Y15614800
X5250000Y15250000
X4750000
X5095800Y15017500
X4750000Y14750000
X5119600Y14664300
X5250000Y14250000
X4750000
X5250000Y13750000
X4750000
Y13250000
X5070000Y13063000
X4655000Y12855000
X4792000Y12653000
X5250000Y11750000
X4750000
X5250000Y11250000
X4750000
X5250000Y10750000
X4750000
X5250000Y10250000
X4750000
X5250000Y9750000
X4750000
X5250000Y9250000
X4750000
Y8750000
Y7250000
X5250000Y5750000
X4674000Y5585000
X5271100Y4602100
X5250000Y3750000
X4856200Y3669200
X5250000Y3250000
X4750000
X5250000Y2750000
X4750000
X5250000Y2250000
X4750000
X5250000Y1250000
X4750000
X5750000
Y2250000
R03Y500000
X5850840Y4053160
X5829000Y4204000
X5815000Y4461000
X5568760Y4985760
X5382000Y5323000
X5750000Y5750000
Y9250000
R04Y500000
X5946000Y11761000
X5500340Y12104660
X5341800Y12207600
X5750000Y12250000
X5909400Y12513200
X5750000Y13750000
X5837900Y15735800
X5750000Y16250000
Y16750000
X6750000
X6250000
X6750000Y16250000
X6250000
X6750000Y15750000
X6250000
X6661400Y15366700
X6260600Y15344900
X6750000Y14750000
X6250000
X6750000Y14250000
X6250000
X6750000Y13750000
X6250000
Y13250000
X6636660Y13047660
X6147500Y12900200
X6218000Y12650000
X6750000Y11750000
X6250000
X6750000Y11250000
X6250000
X6750000Y10750000
X6250000
X6750000Y10250000
X6250000
X6750000Y9750000
X6250000
X6750000Y9250000
X6250000
X6750000Y8750000
X6250000
X6750000Y8250000
X6250000
X6750000Y7750000
X6250000
X6750000Y6750000
X6250000
X6750000Y6250000
X6250000
X6750000Y5750000
X6250000
X6750000Y5250000
X6590100Y4590100
X6750000Y3750000
X6250000
X6750000Y3250000
X6250000
X6750000Y2750000
X6250000
X6750000Y2250000
X6250000
X6750000Y1750000
X6250000
X6750000Y1250000
X6250000
X7250000
Y1750000
R03Y500000
X7508000Y3733000
X7250000Y3750000
X7121000Y4116000
X7101000Y4630000
X7170500Y4868200
X6914160Y4963840
X7504000Y5295000
X7160000Y5312000
X7250000Y5750000
R02Y500000
Y9250000
R04Y500000
X7228900Y11652000
X6959100Y11967500
X7008160Y12152160
X6857900Y12251300
X7387700Y12271100
X7373800Y12495400
X6889600Y12501300
X7250000Y13750000
Y14250000
R04Y500000
X8250000Y16750000
X7750000
X8250000Y16250000
X7750000
Y15750000
X8250000Y15250000
X7750000
X8250000Y14750000
X7750000
X8250000Y14250000
X7750000
X8250000Y13750000
X7750000
X8250000Y13250000
X7750000
X8131660Y13046340
X8320300Y12765200
X8250000Y11750000
X7750000
X8250000Y11250000
X7750000
X8250000Y10750000
X7750000
X8250000Y10250000
X7750000
X8250000Y9750000
X7750000
X8250000Y9250000
X7750000
X8250000Y8750000
X7750000
X8250000Y8250000
X7750000
X8250000Y7750000
X7750000
X8250000Y7250000
X7750000
X8250000Y6750000
X7750000
X8250000Y6250000
X7750000
X8250000Y5750000
X7750000
X8268000Y5447000
X8079000Y5444000
X7723000Y5025000
X8342000Y4634000
X7938000Y4628000
X8156300Y4508500
X8310500Y4381500
X7961800Y4072100
X8077000Y3786700
X7789200Y3669200
X7750000Y3250000
X7824740Y2752740
X7750000Y2250000
X7810500Y1849500
X7798000Y1578000
X8250000Y1250000
X7750000
X8750000
X8566000Y1606000
X8747000Y1849500
X8750000Y2250000
Y2750000
Y3250000
X8455000Y3558000
X8599700Y3865800
X8945100Y3877800
X9077000Y4173000
X8612000Y4496000
X8912000Y4500000
X9077000Y4817000
X8628500Y5033700
X9074600Y5220800
X8815600Y5244700
X8750000Y5750000
R02Y500000
Y8750000
R06Y500000
X8434000Y12032000
X8544000Y12183000
X9110100Y12761300
X8703840Y13201840
X9068400Y13354600
X8750000Y13750000
Y14250000
X9139900Y14580900
X8750000Y14750000
X9065500Y15660400
X8765000Y16830000
X9750000Y16750000
X9250000
X9750000Y16250000
X9250000
X9750000Y15750000
Y15250000
X9250000
X9750000Y14750000
Y14250000
X9155800Y14069000
X9778800Y13858600
X9750000Y13250000
R02Y-500000
X9250000
X9750000Y11750000
X9250000
X9750000Y11250000
X9250000
X9750000Y10750000
X9250000
X9750000Y10250000
X9250000
X9750000Y9750000
X9250000
X9750000Y9250000
X9250000
X9863000Y8768000
X9250000Y8750000
Y8250000
X9882000Y8212000
X9250000Y7750000
X9891000Y7692000
X9250000Y7250000
X9877000Y7172000
X9250000Y6750000
X9822000Y6606000
X9750000Y6250000
X9192000Y6238000
X9750000Y5750000
X9196000Y5737000
X9750000Y5250000
Y4750000
R02Y-500000
X9348000Y3635600
X9750000Y3250000
X9250000
X9750000Y2750000
X9250000
X9750000Y2250000
X9250000
X9750000Y1750000
X9250000
X9750000Y1250000
X9250000
X10250000
Y1750000
R30Y500000
X11250000
X10750000
X11250000Y16250000
X10750000
X11250000Y15750000
X10750000
X11250000Y14250000
X10750000
X11250000Y13750000
X10750000
X11250000Y13250000
X10750000
X11250000Y12750000
X10750000
X11250000Y12250000
X10750000
X11250000Y11750000
X10750000
X11250000Y11250000
X10750000
X11250000Y10750000
X10750000
X11250000Y9250000
X10750000
X11250000Y8750000
X10750000
X11250000Y8250000
X10750000
X11250000Y7750000
X10750000
X11250000Y6250000
X10750000
X11250000Y5750000
X10750000
X11250000Y5250000
X10750000
X11250000Y4750000
X10750000
X11250000Y4250000
X10750000
X11250000Y3750000
X10750000
X11250000Y3250000
X10750000
X11250000Y2750000
X10750000
X11250000Y1250000
X10750000
X11750000
R31Y500000
X12250000
Y16250000
X12449000Y15876000
X12750000Y15250000
X12250000
R02Y-500000
X12750000Y13750000
X12250000
X12750000Y13250000
X12250000
X12750000Y12750000
X12250000
Y12250000
Y11750000
X12750000Y11250000
X12250000
X12750000Y10750000
X12250000
X12750000Y10250000
X12250000
X12750000Y9750000
X12250000
X12750000Y9250000
X12250000
X12750000Y8750000
X12250000
X12750000Y8250000
X12250000
X12750000Y7750000
X12250000
X12750000Y7250000
X12250000
X12750000Y6750000
X12250000
X12750000Y6250000
X12250000
X12750000Y5750000
X12250000
X12750000Y5250000
X12250000
X12752200Y4904000
X12250000Y4750000
Y4250000
X12750000Y3750000
X12250000
X12750000Y3250000
X12250000
X12750000Y2750000
X12250000
X12750000Y2250000
X12250000
X12750000Y1250000
X12250000
X13250000
Y2250000
R02Y500000
X13681400Y3604400
X13250000Y3750000
X13525500Y4160800
X13681500Y4862600
X13281200Y4917800
X13250000Y5250000
Y5750000
R03Y500000
Y8250000
R06Y500000
X13533200Y11505200
X13304340Y11848660
X13250000Y12250000
R03Y500000
Y15250000
Y15750000
X13588700Y16743800
X14033200
X14061000Y15775500
X13750000Y15250000
X14250000Y13750000
X13750000
X14250000Y13250000
X13750000
Y12750000
X14158660Y12736340
X13832800Y12362400
X14217800Y11489300
X14250000Y11250000
X13750000
X14250000Y10750000
X13750000
X14250000Y10250000
X13750000
X14250000Y9750000
X13750000
X14250000Y9250000
X13750000
X14250000Y8750000
X13750000
X14149100Y7853900
X14250000Y7250000
X13750000
X14250000Y6750000
X13750000
X14250000Y6250000
Y5750000
X13750000
X14250000Y5250000
X13750000
X13980500Y4676300
X13851160Y3782840
X14250000Y3750000
Y3250000
X13750000
X14250000Y2750000
X13750000
X14250000Y2250000
X13750000
X14250000Y1750000
X13750000
X14250000Y1250000
X13750000
X14750000
Y1750000
R02Y500000
X14631400Y3730900
X14977840Y3740000
X14750000Y4750000
X15107600Y4830400
X14503160Y5044160
X14750000Y5250000
Y5750000
R04Y500000
Y8750000
R05Y500000
X14868600Y11517100
X14526500Y11828660
X15077000Y12354500
X15132600Y12771200
X14750000Y13250000
Y13750000
X14753000Y14850000
X14858700Y16033500
X14918300Y16700200
X15750000Y16750000
X15250000
X15750000Y16250000
X15250000
X15750000Y15750000
X15250000
X15750000Y14750000
X15250000
X15750000Y14250000
X15250000
X15750000Y13750000
X15250000
X15750000Y13250000
X15250000
X15373660Y12778660
X15626700Y12217600
X15594900Y11925900
X15796500Y11803660
X15750000Y11250000
X15250000
X15750000Y10750000
X15250000
X15750000Y10250000
X15250000
X15750000Y9750000
X15250000
X15750000Y9250000
X15250000
X15750000Y8750000
Y8250000
Y7250000
X15621000Y6921500
X15750000Y6250000
Y5750000
X15250000
X15303000Y5583000
X15250000Y5250000
X15305000Y5070000
X15791000Y4858000
X15971000Y4794000
X15825200Y4563600
X15804500Y4117300
X15750000Y3750000
X15465600Y3743500
X15750000Y2750000
X15250000
X15750000Y2250000
X15250000
X15750000Y1750000
X15250000
X15750000Y1250000
X15250000
X16250000
X16750000
X16250000Y1750000
X16750000
X16250000Y2250000
X16750000
X16250000Y2750000
X16750000
Y3250000
X16178840Y3745000
X16133500Y4549800
X16445000Y4626000
X16254600Y5680000
X16240200Y6110500
X16750000Y6250000
X16250000Y7250000
Y7750000
X16750000
X16250000Y8750000
X16750000
X16250000Y9250000
X16750000
X16250000Y9750000
X16750000
X16250000Y10250000
X16750000
X16250000Y10750000
X16750000
X16250000Y11250000
X16750000
X16165000Y11662000
X16250000Y12750000
X16658660Y12772660
X16250000Y13250000
X16750000
X16250000Y13750000
X16750000
X16250000Y14250000
X16750000
X16250000Y14750000
X16750000
Y15250000
R03Y500000
X17250000
Y16250000
X17152600Y15737800
X17250000Y15250000
Y14750000
R03Y-500000
X17198200Y12771200
X16962100Y12572800
X17245900Y12175900
X17489900Y12171900
X16968100Y11830600
X17301000Y11709000
X17025000Y11532000
X17250000Y11250000
Y10750000
X17454500Y10668000
X17250000Y10250000
R03Y-500000
Y7750000
Y7250000
Y6250000
X16772600Y5699200
X17259400Y5694400
X16847760Y5489260
X17250000Y5250000
X17208000Y5021000
X17377000Y4899000
X17479000Y4528000
X17127000Y4499000
X17090000Y4328000
X17374600Y4079300
X16814000Y3848000
X16983840Y3729160
X17159300Y3602100
X17250000Y3250000
X17172500Y2957000
X17108800Y2741800
X17172500Y2449000
X17250000Y1750000
Y1250000
X17750000
X18250000
X17750000Y1750000
X18250000
X17750000Y2250000
X18250000
Y2750000
X17849240Y3288260
X17745900Y3517000
X17775160Y3727160
X17966900Y3909000
X17880000Y4338000
X17986000Y4512000
X17864000Y4757000
X18062000Y5111600
X17725000Y5387000
X17998100Y5602100
X17605400Y5626100
X18010100Y6076900
X17643200Y6103300
X18250000Y6250000
Y6750000
X17750000Y7250000
X18250000
X17750000Y7750000
X18250000
Y8250000
X17750000Y8750000
X18250000
X17750000Y9250000
X18250000
X17544000Y9880000
X17750000Y10250000
X18250000
X17750000Y11250000
X17636160Y11329160
X17853100Y11719500
X18161000Y11747500
X17886500Y11966500
X18020000Y12122500
X17670000Y12219000
X17886500Y12336500
X18018000Y12500000
X18152700Y12660100
X17886800Y12668000
X17692840Y12968160
X17750000Y13250000
X18105100Y13465700
X17750000Y13750000
X18081300Y14148300
X17750000Y14250000
Y14750000
X18164600Y14751600
X18190400Y15725900
Y16178300
X18769000Y16824000
X18440400Y16408500
X18885000Y16387000
Y15738000
X18398800Y15295300
X18880000Y15250000
X18816000Y14638000
X18750000Y14250000
X18855200Y13882400
X18750000Y13250000
R02Y-500000
X18523800Y12035000
X18750000Y11750000
X18334800Y11684000
X18750000Y11250000
Y10750000
Y10250000
X18444500Y9880000
X18750000Y9750000
Y9250000
R10Y-500000
X18298000Y3792000
X18750000Y3750000
Y3250000
R04Y-500000
X19250000
X19750000
X19250000Y1750000
R02Y500000
X19750000
X19250000Y3250000
X19750000
X19250000Y3750000
X19750000
X19250000Y4250000
X19750000
X19250000Y4750000
X19750000
X19250000Y5250000
X19750000
X19250000Y5750000
X19750000
X19250000Y6250000
X19750000
X19250000Y6750000
Y7250000
Y7750000
X19750000
X19250000Y8250000
X19750000
X19250000Y8750000
X19750000
X19250000Y9250000
X19750000
X19250000Y9750000
Y10250000
Y10750000
X19750000
X19250000Y11250000
X19750000
X19250000Y11750000
X19750000
X19250000Y12250000
X19750000
X19250000Y12750000
X19750000
X19250000Y13250000
X19750000
X19250000Y13750000
X19750000
X19250000Y14250000
X19750000
X19250000Y14750000
Y15250000
Y15750000
X19750000
X19250000Y16250000
X19750000
X19250000Y16750000
X19750000
X20250000
Y16250000
Y15750000
Y14250000
R07Y-500000
Y9250000
R03Y-500000
Y6250000
R07Y-500000
Y1250000
R02X500000
X20750000Y1750000
Y2250000
X21250000
X20750000Y2750000
X21250000
X20750000Y3250000
X21250000
X20750000Y3750000
X21250000
X20750000Y4250000
X21250000
X20750000Y4750000
X21250000
X20750000Y5250000
X21250000
X20750000Y5750000
X21250000
X20750000Y6250000
X21250000
X20750000Y6750000
X21250000
X20750000Y7250000
X21250000
X20750000Y7750000
X21250000
X20750000Y8250000
X21250000
X20750000Y8750000
X21250000
X20750000Y9250000
X21250000
X20750000Y9750000
X21250000
X20750000Y10250000
X21250000
X20750000Y10750000
X21250000
X20750000Y11250000
X21250000
X21277000Y11698000
X20750000Y11750000
X21235000Y12875000
X20761000Y12880000
X20750000Y13250000
X21250000
X20750000Y13750000
X21250000
X20750000Y14250000
X21250000
X20750000Y14750000
X21250000
X20750000Y15250000
X21250000
X20750000Y15750000
X21250000
X20750000Y16250000
X21250000
X20750000Y16750000
X21250000
X21750000Y15250000
Y13750000
Y13250000
X21740000Y12714000
X21750000Y11750000
X21550000Y11684000
X21750000Y11250000
Y10750000
R11Y-500000
Y3750000
R03Y-500000
Y1250000
R02X500000
Y1750000
X22250000Y2250000
X22750000
X22250000Y2750000
X22750000
X22250000Y3250000
X22750000
X22250000Y3750000
X22750000
X22448160Y3858160
X22415500Y4762500
X22250000Y5250000
X22750000
X22250000Y5750000
X22750000
X22250000Y6250000
Y6750000
Y7250000
X22750000
X22250000Y8250000
Y8750000
Y9250000
X22750000
X22250000Y9750000
X22750000
X22250000Y10250000
X22750000
X22250000Y10750000
X22750000
X22250000Y11250000
X22750000
X22316000Y11661000
X22805000Y11715000
X22500000Y12242000
X22487000Y12513000
X22215000Y13105000
X22250000Y13250000
Y13750000
X22750000
X22250000Y15250000
X22750000
X22250000Y15750000
Y16750000
X22750000
X23250000Y13750000
Y13250000
X23476000Y13086000
X23250000Y11750000
Y11250000
R05Y-500000
X22927000Y7678000
X23250000Y7250000
Y5750000
Y5250000
X23099160Y5060840
X23558500Y4762500
X23250000Y3750000
X23607440Y3724000
X23250000Y2750000
R03Y-500000
X23750000
X24250000
X23750000Y1750000
X24250000
X23750000Y2250000
X24250000
X23750000Y2750000
X24250000
X24012000Y3204000
X24091800Y3765100
X24264160Y5069840
X23750000Y5250000
X24250000
X23750000Y5750000
X24250000
X23750000Y7250000
Y9250000
X24250000
X23750000Y9750000
X24250000
X23750000Y10250000
X24250000
X23750000Y10750000
X24250000
X23750000Y11250000
X24250000
X24133000Y11720000
X24299000Y11739000
X23750000Y11750000
Y12250000
X23738000Y12518000
X23750000Y12750000
Y13750000
X24250000
Y14250000
Y14750000
Y15750000
R02Y500000
X24750000
R02Y-500000
Y14750000
R03Y-500000
X24807000Y13106000
X25027000Y12747000
X25018000Y12201000
X24635000Y11721000
X24750000Y11250000
R06Y-500000
X24801000Y7209000
X24525000Y7043000
X24778000Y6569000
X24750000Y5750000
Y5250000
X24680900Y4818900
X24791840Y3790000
X24413100Y3757900
X24750000Y2750000
R03Y-500000
X25250000
X25750000
X25250000Y1750000
X25750000
X25250000Y2250000
X25750000
X25250000Y2750000
X25750000
X25782000Y3147000
X25336500Y3302000
X25893100Y3537700
X25489900Y3995300
X25654000Y4254500
X25771200Y4777500
X25428500Y5081100
X25250000Y5250000
X25578000Y5554900
X25750000Y6250000
X25250000Y7250000
Y7750000
X25750000
X25250000Y8750000
X25750000
X25250000Y9250000
X25750000
X25250000Y9750000
X25750000
X25250000Y10250000
X25750000
X25250000Y10750000
X25750000
X25250000Y11250000
X25750000
X25371000Y11744000
X25157000Y11749000
X25750000Y11750000
X25862000Y12170000
X25777000Y12809000
X25250000Y13250000
X25750000
X25381000Y13256000
X25250000Y13750000
X25750000
X25250000Y14250000
X25750000
X25250000Y14750000
X25750000
R02Y500000
X25362000Y16235000
X25750000Y16250000
Y16750000
X26250000
Y16250000
Y15250000
Y14750000
R02Y-500000
X26139000Y13194000
X26310040Y13178960
X26116000Y12803000
X26502000Y12605000
X26310000Y12488000
X26662000Y12446000
X26502000Y12335000
X26211000Y12237000
X26081000Y12170000
X26375000Y11789000
X26208000Y11696000
X26250000Y11250000
X26281000Y11112500
X26245000Y10871000
X26250000Y10250000
X26482000Y9978000
X26250000Y9750000
R02Y-500000
Y7750000
Y7250000
Y6250000
X26202100Y5549300
X26415600Y5180000
X26274840Y5155160
X25952900Y5088000
X26433700Y4545200
X26429000Y4032000
X26130200Y4007300
X26041000Y3795000
X26442900Y3551500
X26250000Y3250000
X26172500Y2966000
X26382000Y2312000
X26250000Y1750000
Y1250000
R02X500000
X26750000Y1750000
X27250000
X26750000Y2250000
X27250000
Y2750000
X26841240Y3290740
X26786160Y3663160
X27290760Y3793000
X26891000Y4330000
X26997400Y4511900
X26894000Y4707000
X26710500Y4952200
X27077700Y5101800
X27050100Y5548000
X26766000Y5565000
X27250000Y6250000
Y6750000
X26750000Y7250000
X27250000
X26750000Y7750000
X27250000
Y8250000
X26750000Y8750000
X27250000
X26750000Y9250000
X27250000
X26750000Y9750000
X27250000
X26988000Y9978000
X27250000Y10250000
X27170000Y10944000
X27250000Y11250000
X27207000Y11661000
X26979500Y11938000
X27096000Y12159000
X26735760Y12753240
X27110000Y12858000
X26750000Y13250000
Y13750000
X27165000
X26750000Y14250000
X27165000Y14252000
X26750000Y14750000
X27250000
Y15750000
Y16250000
X27423000Y16506000
X27872000Y16833000
X27855000Y16242000
X27871000Y15752000
X27860000Y15227000
X27855000Y14742000
X27750000Y14250000
R26Y-500000
X28250000
X28750000
X28250000Y1750000
R02Y500000
X28750000
X28250000Y3250000
X28750000
X28250000Y3750000
X28750000
X28250000Y4250000
X28750000
X28250000Y4750000
X28750000
X28250000Y5250000
X28750000
X28250000Y5750000
X28750000
X28250000Y6250000
X28750000
X28250000Y6750000
Y7250000
Y7750000
X28750000
X28250000Y8250000
X28750000
X28250000Y8750000
X28750000
X28250000Y9250000
X28750000
X28250000Y9750000
Y10250000
Y10750000
X28750000
X28250000Y11250000
X28750000
X28250000Y11750000
X28750000
X28250000Y12250000
X28750000
X28250000Y12750000
X28750000
X28250000Y13250000
X28750000
X28250000Y13750000
X28750000
X28250000Y14250000
X28750000
X28250000Y14750000
Y15250000
Y15750000
X28750000
X28250000Y16250000
X28750000
X28250000Y16750000
X28750000
X29250000
Y16250000
Y15750000
Y14250000
R07Y-500000
Y9250000
R02Y-500000
X29640100Y8239200
X29250000Y7750000
Y6250000
R03Y-500000
X29249100Y4365700
X29250000Y3250000
Y2750000
Y1250000
X29750000
X30250000
X29750000Y1750000
X30250000
X29750000Y2250000
X30250000
X29750000Y2750000
X30250000
X30263000Y3202000
X29750000Y3250000
X29980500Y3611300
X30268000Y3744000
X29975900Y4144900
X30250000Y4250000
X29759700Y4361100
X29750000Y4750000
X30250000
X29750000Y5250000
X30250000
X29750000Y5750000
X30250000
X29750000Y6250000
X30250000
X29750000Y6750000
X30250000
X29750000Y7250000
X30250000
X29934500Y7627400
X30210500Y8257600
X29750000Y8750000
Y9250000
X30250000
X29750000Y9750000
X30250000
X29750000Y10250000
X30250000
X29750000Y10750000
X30250000
X29750000Y11250000
X30250000
X29750000Y11750000
X30250000
X29750000Y12250000
Y12750000
X30250000
X29750000Y13250000
X30250000
X29750000Y13750000
X30250000
X29750000Y14250000
X30250000
X29750000Y14750000
X30250000
X29750000Y15250000
X30250000
X29750000Y15750000
X30250000
X29750000Y16250000
X30250000
X29750000Y16750000
X30250000
X30750000
Y16250000
Y15250000
Y13750000
R02Y-500000
Y11750000
R05Y-500000
X31110900Y7701000
X30750000Y7250000
Y6750000
Y5250000
Y4750000
X31062000Y4430000
X30606300Y4209300
X30750000Y3250000
Y2750000
R03Y-500000
X31250000
X31750000
X31250000Y1750000
X31750000
X31250000Y2250000
X31750000
Y2750000
X31756300Y3192700
X31374000Y3213000
X31371000Y3746000
X31250000Y4250000
X31750000
X31250000Y4750000
X31750000
X31250000Y5250000
Y6750000
X31750000
X31250000Y7250000
X31750000
Y7750000
X31250000Y8750000
X31750000
X31250000Y9250000
X31750000
X31250000Y9750000
X31750000
X31250000Y10250000
X31750000
X31250000Y10750000
X31750000
X31250000Y11250000
X31750000
X31274660Y11628000
X31692000Y11680000
X31584000Y12582000
X31250000Y12750000
X31931660Y13023340
X31250000Y13250000
X31750000
X31250000Y13750000
X31750000
X31250000Y15250000
X31750000
X31250000Y15750000
Y16750000
X31750000
X32750000
X32250000
X32750000Y16250000
Y15750000
Y13750000
X32250000
X32191000Y12449000
X32177000Y12113000
X32250000Y11750000
X32560000Y11628000
X32750000Y11250000
X32250000
X32750000Y10750000
X32250000
X32750000Y10250000
X32250000
X32750000Y9750000
X32250000
X32750000Y9250000
X32250000
X32064600Y6794800
X32750000Y6750000
Y6250000
R03Y-500000
X32250000
X32223000Y4426000
X32467000Y4423300
X32455500Y4131100
X32618500Y3746500
X32243900Y3544600
X32543000Y3226000
X32750000Y2250000
X32250000
X32750000Y1750000
X32250000
X32750000Y1250000
X32250000
X33250000
Y1750000
Y2250000
X32855800Y2748700
X33250000Y2750000
X33304300Y3125900
X32816700Y3165000
X32917900Y4209300
X33447000Y4430000
X33250000Y4750000
R04Y500000
X33240900Y7365200
X33250000Y7750000
Y8250000
R06Y500000
X33293000Y11703000
X32909000Y11715000
X33479000Y12117000
X33458000Y12469000
X33220660Y12973660
X32980000Y13231000
X33228000
X33250000Y13750000
Y14250000
Y15250000
Y15750000
R02Y500000
X34250000
X33750000
Y16250000
Y15750000
X34250000Y15250000
X33750000
X34275000Y14312000
X33750000Y14250000
X34232000Y14115000
X34250000Y13750000
X33750000
X34250000Y13250000
Y11750000
X33820000Y11685000
X34250000Y11250000
X33750000
X34250000Y10750000
X33750000
X34250000Y10250000
X33750000
X34250000Y9750000
X33750000
X34250000Y9250000
X33750000
X34250000Y8750000
X33578000Y8745300
Y8446300
X34250000Y8250000
Y7750000
Y6750000
X33750000
X34250000Y6250000
X33750000
X34250000Y5750000
X33750000
X34250000Y5250000
X33750000
X33862160Y5042840
X34250000Y4750000
X33584900Y4020700
X34028000Y4000500
X34056000Y3790000
X33584900Y3742400
X34250000Y2750000
X33750000
X34250000Y2250000
X33750000
X34250000Y1750000
X33750000
X34250000Y1250000
X33750000
X34750000
Y1750000
R04Y500000
X34751100Y4002300
X34750000Y4750000
Y5250000
R03Y500000
X34433700Y7167400
X34750000Y7250000
Y7750000
R08Y500000
X34627000Y12145000
X34977000Y12168000
X34645000Y12490000
X34751000Y12591000
X34481660Y13053340
X34783000Y14300000
X34750000Y14750000
R04Y500000
X35750000
X35250000
Y16250000
Y15250000
Y14750000
X35750000Y14250000
X35250000
X35469000Y13972000
X35750000Y13750000
X35250000
X35750000Y13250000
X35716640Y13060360
X35473000Y12587000
X35248000Y12582000
X35556000Y12334000
X35581000Y12087000
X35305160Y11754160
X35750000Y11750000
Y11250000
X35250000
X35750000Y10750000
X35250000
X35750000Y10250000
X35250000
X35750000Y9750000
X35250000
X35750000Y9250000
X35250000
X35077700Y7273200
X35750000Y6750000
X35250000
X35750000Y6250000
X35250000
X35750000Y5750000
X35250000
X35750000Y5250000
X35250000
X35750000Y4750000
X35250000
Y3750000
X35750000Y3250000
X35250000
X35750000Y2750000
X35250000
Y2250000
Y1750000
X35750000Y1250000
X35250000
X36250000
Y2750000
Y3250000
Y3750000
X36098000Y3813000
X36250000Y4250000
X36094400Y4747600
X36073700Y5571000
Y6268000
X36069100Y6771700
X36126600Y7422700
X35873600Y7728600
X36122000Y8234600
X35873600Y8248400
X36094400Y8685500
X36250000Y9250000
Y9750000
R05Y500000
X35851000Y12513000
X35837000Y12807000
X36154000Y12826000
X36186000Y13771000
X36191000Y14240000
X36250000Y15250000
Y15750000
R02Y500000
X36844000Y16764000
X36872000Y16230000
X36867000Y15692000
Y15181000
X36872000Y14602000
X36750000Y14250000
Y13750000
R25Y-500000
T02
X7101500Y7061500
X7355500
X8625500
R02X254000
X9641500
X16253000Y5868000
Y6376000
R02Y254000
X17777000Y5868000
Y6376000
Y6630000
Y6884000
X25215500Y5848000
Y6356000
Y6610000
Y6864000
X26739500Y5848000
Y6356000
Y6610000
Y6864000
X33812600Y7143600
X34066600
X35336600
R02X254000
X36352600
Y8667600
X35844600
R02X-254000
X34066600
X33812600
X26739500Y8388000
Y8134000
X25215500Y8388000
Y8134000
X17777000Y8408000
Y8154000
X16253000Y8408000
Y8154000
X9641500Y8585500
X9133500
X8879500
X8625500
X7355500
X7101500
X6954500Y15110000
X7208500
X8478500
R02X254000
X9494500
X16101500Y15161500
X16355500
X17625500
X17879500
X18133500
X18641500
X25101500
X25355500
X26625500
X26879500
X27133500
X27641500
X34101500Y14907500
X34355500
X35625500
X35879500
X36133500
X36641500
Y16431500
X36133500
R02X-254000
X34355500
X34101500
X27641500Y16685500
X27133500
X26879500
X26625500
X25355500
X25101500
X18641500
X18133500
X17879500
X17625500
X16355500
X16101500
X9494500Y16634000
X8986500
X8732500
X8478500
X7208500
X6954500
T03
X2504000Y4064000
X2758000Y4318000
X3012000Y4064000
X12780000Y4094000
X13034000Y4348000
X13288000Y4094000
X14572000Y2919000
Y3427000
X14826000Y3173000
X15080000Y2919000
Y3427000
X15714000Y2929000
Y3437000
X15968000Y3183000
X16222000Y2929000
Y3437000
X21429500Y4146000
X21683500Y4400000
X21937500Y4146000
X23183500Y2964000
Y3472000
X23437500Y3218000
X23691500Y2964000
Y3472000
X24356500Y2971000
Y3479000
X24610500Y3225000
X24864500Y2971000
Y3479000
X29111000Y3614000
Y4122000
X29365000Y3868000
X29619000Y3614000
Y4122000
X30944000Y2502000
Y3010000
X31198000Y2756000
X31452000Y2502000
Y3010000
X32083000Y2504000
Y3012000
X32337000Y2758000
X32591000Y2504000
Y3012000
X33605000Y2982000
Y3490000
X33859000Y3236000
X34113000Y2982000
Y3490000
X21937500Y4654000
X21429500
X13288000Y4602000
X12780000
X6371000Y5181000
Y4673000
X6117000Y4927000
X5863000Y5181000
Y4673000
X5055000Y5186000
Y4678000
X4801000Y4932000
X4547000Y5186000
Y4678000
X3012000Y4572000
X2504000
X3952000Y8076000
Y8330000
Y8584000
X13763000Y8021000
R02Y254000
X22652000Y8052000
R02Y254000
X30599000Y7937500
R02Y254000
X33990500Y13243000
Y12735000
X33736500Y12989000
X33482500Y13243000
Y12735000
X32721500Y13182000
Y12674000
X32467500Y12928000
X32213500Y13182000
Y12674000
X30779500Y12544000
Y12036000
X30525500Y12290000
X30271500Y12544000
Y12036000
X24229000Y13249000
Y12741000
X23975000Y12995000
X23721000Y13249000
Y12741000
X22961000Y13241000
Y12733000
X22707000Y12987000
X22453000Y13241000
Y12733000
X21063000Y12627000
Y12119000
X20809000Y12373000
X20555000Y12627000
Y12119000
X16100500Y12945500
Y12437500
X15846500Y12691500
X15592500Y12945500
Y12437500
X14885500Y12950500
Y12442500
X14631500Y12696500
X14377500Y12950500
Y12442500
X12975500Y12330500
Y11822500
X12721500Y12076500
X12467500Y12330500
Y11822500
X7366000Y13234000
Y12726000
X7112000Y12980000
X6858000Y13234000
Y12726000
X5853500Y13241500
Y12733500
X5599500Y12987500
X5345500Y13241500
Y12733500
X3772000Y12618000
Y12110000
X3518000Y12364000
X3264000Y12618000
Y12110000
X3621000Y16049000
R02Y254000
X12953000Y16084000
R02Y254000
X21929000Y16075000
R02Y254000
X30947000Y16074000
R02Y254000
T04
X5450000Y6097000
R02Y254000
X5482000Y14109000
R02Y254000
X14450000Y14605000
R02Y-254000
X15193600Y6596900
R02Y-254000
X24108900Y6151100
R02Y254000
X23447000Y14057000
R02Y254000
X32453000Y14656000
R02Y-254000
X32450700Y6364700
R02Y-254000
T05
X5450000Y7537000
R03Y396000
X5488000Y15539000
R03Y396000
X14450000Y16725000
R03Y-396000
X15193600Y8676900
R03Y-396000
X24108000Y7512000
R03Y396000
X23450000Y15537000
R03Y396000
X32450000
R03Y-396000
X32427000Y8576000
R03Y-396000
T06
X3989500Y6351000
X4021500Y14363000
X12989500Y14351000
X13733100Y6342900
X22648400Y6405100
X21986500Y14311000
X30992500Y14402000
X30990200Y6110700
M30
