G04 ================== begin FILE IDENTIFICATION RECORD ==================*
G04 Layout Name:  C:/Users/MSDL3/Desktop/OrCAD File/80dB_LiDAR/allegro/80DB_LIDAR_1.brd*
G04 Film Name:    DRILL*
G04 File Format:  Gerber RS274X*
G04 File Origin:  Cadence Allegro 17.2-P019*
G04 Origin Date:  Wed Dec 04 13:52:11 2024*
G04 *
G04 Layer:  MANUFACTURING/NCLEGEND-1-4*
G04 Layer:  BOARD GEOMETRY/OUTLINE*
G04 Layer:  BOARD GEOMETRY/DESIGN_OUTLINE*
G04 Layer:  BOARD GEOMETRY/CUTOUT*
G04 *
G04 Offset:    (0.0000 0.0000)*
G04 Mirror:    No*
G04 Mode:      Positive*
G04 Rotation:  0*
G04 FullContactRelief:  No*
G04 UndefLineWidth:     0.2000*
G04 ================== end FILE IDENTIFICATION RECORD ====================*
%FSLAX35Y35*MOMM*%
%IR0*IPPOS*OFA0.00000B0.00000*MIA0B0*SFA1.00000B1.00000*%
%AMMACRO15*
1,1,.2,.372813,-.90005*
20,1,.2,.372813,-.90005,-.372813,-.90005,0.0*
1,1,.2,-.372813,-.90005*
20,1,.2,-.372813,-.90005,-.90005,-.372813,0.0*
1,1,.2,-.90005,-.372813*
20,1,.2,-.90005,-.372813,-.90005,.372813,0.0*
1,1,.2,-.90005,.372813*
20,1,.2,-.90005,.372813,-.372813,.90005,0.0*
1,1,.2,-.372813,.90005*
20,1,.2,-.372813,.90005,.372813,.90005,0.0*
1,1,.2,.372813,.90005*
20,1,.2,.372813,.90005,.90005,.372813,0.0*
1,1,.2,.90005,.372813*
20,1,.2,.90005,.372813,.90005,-.372813,0.0*
1,1,.2,.90005,-.372813*
20,1,.2,.90005,-.372813,.372813,-.90005,0.0*
1,1,.2,.372813,-.90005*
%
%ADD15MACRO15*%
%AMMACRO10*
1,1,.2,.1651,0.0*
20,1,.2,.1651,0.0,-.1651,0.0,0.0*
1,1,.2,-.1651,0.0*
1,1,.2,0.0,.1651*
20,1,.2,0.0,.1651,0.0,-.1651,0.0*
1,1,.2,0.0,-.1651*
%
%ADD10MACRO10*%
%AMMACRO13*
1,1,.2,1.905,0.0*
20,1,.2,1.905,0.0,0.0,-1.905,0.0*
1,1,.2,0.0,-1.905*
20,1,.2,0.0,-1.905,-1.905,0.0,0.0*
1,1,.2,-1.905,0.0*
20,1,.2,-1.905,0.0,0.0,1.905,0.0*
1,1,.2,0.0,1.905*
20,1,.2,0.0,1.905,1.905,0.0,0.0*
1,1,.2,1.905,0.0*
%
%ADD13MACRO13*%
%AMMACRO16*
1,1,.2,.37505,.37505*
20,1,.2,.37505,.37505,.37505,-.37505,0.0*
1,1,.2,.37505,-.37505*
20,1,.2,.37505,-.37505,-.37505,-.37505,0.0*
1,1,.2,-.37505,-.37505*
20,1,.2,-.37505,-.37505,-.37505,.37505,0.0*
1,1,.2,-.37505,.37505*
20,1,.2,-.37505,.37505,.37505,.37505,0.0*
1,1,.2,.37505,.37505*
%
%ADD16MACRO16*%
%AMMACRO11*
1,1,.2,0.0,3.175*
20,1,.2,0.0,3.175,3.175,-3.175,0.0*
1,1,.2,3.175,-3.175*
20,1,.2,3.175,-3.175,-3.175,-3.175,0.0*
1,1,.2,-3.175,-3.175*
20,1,.2,-3.175,-3.175,0.0,3.175,0.0*
1,1,.2,0.0,3.175*
%
%ADD11MACRO11*%
%AMMACRO12*
1,1,.2,.6858,0.0*
20,1,.2,.6858,0.0,.3429,.59392,0.0*
1,1,.2,.3429,.59392*
20,1,.2,.3429,.59392,-.3429,.59392,0.0*
1,1,.2,-.3429,.59392*
20,1,.2,-.3429,.59392,-.6858,0.0,0.0*
1,1,.2,-.6858,0.0*
20,1,.2,-.6858,0.0,-.3429,-.59392,0.0*
1,1,.2,-.3429,-.59392*
20,1,.2,-.3429,-.59392,.3429,-.59392,0.0*
1,1,.2,.3429,-.59392*
20,1,.2,.3429,-.59392,.6858,0.0,0.0*
1,1,.2,.6858,0.0*
%
%ADD12MACRO12*%
%AMMACRO14*
1,1,.2,0.0,.6985*
20,1,.2,0.0,.6985,-.604919,.34925,0.0*
1,1,.2,-.604919,.34925*
20,1,.2,-.604919,.34925,-.604919,-.34925,0.0*
1,1,.2,-.604919,-.34925*
20,1,.2,-.604919,-.34925,0.0,-.6985,0.0*
1,1,.2,0.0,-.6985*
20,1,.2,0.0,-.6985,.604919,-.34925,0.0*
1,1,.2,.604919,-.34925*
20,1,.2,.604919,-.34925,.604919,.34925,0.0*
1,1,.2,.604919,.34925*
20,1,.2,.604919,.34925,0.0,.6985,0.0*
1,1,.2,0.0,.6985*
%
%ADD14MACRO14*%
%ADD17C,.2*%
G75*
%LPD*%
G75*
G54D10*
X1250000Y1250000D03*
Y1750000D03*
Y2250000D03*
Y2750000D03*
Y3250000D03*
Y3750000D03*
Y4250000D03*
Y4750000D03*
Y5250000D03*
Y5750000D03*
Y6250000D03*
Y6750000D03*
Y7250000D03*
Y7750000D03*
Y8250000D03*
Y8750000D03*
Y9250000D03*
Y9750000D03*
Y10250000D03*
Y10750000D03*
Y11250000D03*
Y11750000D03*
Y12250000D03*
Y12750000D03*
Y13250000D03*
Y13750000D03*
Y14250000D03*
Y14750000D03*
Y15250000D03*
Y15750000D03*
Y16250000D03*
Y16750000D03*
X1750000Y1250000D03*
Y2750000D03*
Y3250000D03*
Y3750000D03*
Y4250000D03*
Y4750000D03*
Y5250000D03*
Y5750000D03*
Y6250000D03*
Y7750000D03*
Y8250000D03*
Y8750000D03*
Y9250000D03*
Y10750000D03*
Y11250000D03*
Y11750000D03*
Y12250000D03*
Y12750000D03*
Y13250000D03*
Y13750000D03*
Y14250000D03*
Y15750000D03*
Y16250000D03*
Y16750000D03*
X2250000Y1250000D03*
Y2750000D03*
Y3250000D03*
Y3750000D03*
Y4250000D03*
Y4750000D03*
Y5250000D03*
Y5750000D03*
Y6250000D03*
Y7750000D03*
Y8250000D03*
Y8750000D03*
Y9250000D03*
Y10750000D03*
Y11250000D03*
Y11750000D03*
Y12250000D03*
Y12750000D03*
Y13250000D03*
Y13750000D03*
Y14250000D03*
Y15750000D03*
Y16250000D03*
Y16750000D03*
X2750000Y1250000D03*
Y1750000D03*
Y2250000D03*
Y2750000D03*
Y3250000D03*
Y3750000D03*
X3193000Y3757000D03*
X2750000Y4750000D03*
Y5250000D03*
Y5750000D03*
Y6250000D03*
Y6750000D03*
Y7250000D03*
Y7750000D03*
Y8250000D03*
Y8750000D03*
Y9250000D03*
Y9750000D03*
Y10250000D03*
Y10750000D03*
Y11250000D03*
Y11750000D03*
Y12250000D03*
Y12750000D03*
Y13250000D03*
Y13750000D03*
Y14250000D03*
Y14750000D03*
Y15250000D03*
Y15750000D03*
Y16250000D03*
Y16750000D03*
X3250000Y1250000D03*
X3750000D03*
X3250000Y2250000D03*
X3750000D03*
X3250000Y2750000D03*
X3750000D03*
X3250000Y3250000D03*
X3750000D03*
Y3750000D03*
X3245960Y4077960D03*
X3510000Y4558000D03*
X3250000Y4750000D03*
X3837000Y4714000D03*
X3250000Y5250000D03*
X3750000D03*
X3250000Y5750000D03*
X3750000D03*
X3250000Y6250000D03*
Y6750000D03*
Y7250000D03*
X3750000D03*
X3250000Y8250000D03*
Y8750000D03*
Y9250000D03*
X3750000D03*
X3250000Y9750000D03*
X3750000D03*
X3250000Y10250000D03*
X3750000D03*
X3250000Y10750000D03*
X3750000D03*
X3250000Y11250000D03*
X3750000D03*
X3250000Y11750000D03*
X3750000D03*
X3250000Y13250000D03*
X3750000D03*
X3250000Y13750000D03*
X3750000D03*
X3250000Y14250000D03*
Y14750000D03*
X3750000D03*
X3250000Y15250000D03*
X3750000D03*
X3250000Y15750000D03*
X3750000D03*
X3250000Y16250000D03*
Y16750000D03*
X3750000D03*
X4250000Y1250000D03*
Y2250000D03*
Y2750000D03*
Y3250000D03*
Y3750000D03*
X4496960Y4077960D03*
X4285160Y4967160D03*
X4250000Y5250000D03*
Y5750000D03*
Y7250000D03*
Y9250000D03*
Y9750000D03*
Y10250000D03*
Y10750000D03*
Y11250000D03*
X4445000Y11777000D03*
X4007320Y12004320D03*
X4302000Y12261200D03*
X4337800Y12535100D03*
X4250000Y13250000D03*
X4214700Y12870400D03*
X4250000Y13750000D03*
Y14750000D03*
Y15250000D03*
Y15750000D03*
Y16750000D03*
X4750000Y1250000D03*
Y2250000D03*
Y2750000D03*
Y3250000D03*
X4856200Y3669200D03*
X4527000Y4224000D03*
Y4438000D03*
X4674000Y5585000D03*
X4750000Y7250000D03*
Y8750000D03*
Y9250000D03*
Y9750000D03*
Y10250000D03*
Y10750000D03*
Y11250000D03*
Y11750000D03*
X4792000Y12653000D03*
X4655000Y12855000D03*
X4750000Y13250000D03*
X5070000Y13063000D03*
X4750000Y13750000D03*
Y14250000D03*
X5119600Y14664300D03*
X4750000Y14750000D03*
Y15250000D03*
X5095800Y15017500D03*
X4911200Y15809200D03*
X5125600Y15614800D03*
X4750000Y16750000D03*
X5250000Y1250000D03*
X5750000D03*
X5250000Y2250000D03*
X5750000D03*
X5250000Y2750000D03*
X5750000D03*
X5250000Y3250000D03*
X5750000D03*
X5250000Y3750000D03*
X5750000D03*
X5271100Y4602100D03*
X5568760Y4985760D03*
X5382000Y5323000D03*
X5250000Y5750000D03*
X5750000D03*
X5250000Y9250000D03*
X5750000D03*
X5250000Y9750000D03*
X5750000D03*
X5250000Y10250000D03*
X5750000D03*
X5250000Y10750000D03*
X5750000D03*
X5250000Y11250000D03*
X5750000D03*
X5250000Y11750000D03*
X5500340Y12104660D03*
X5750000Y12250000D03*
X5341800Y12207600D03*
X5250000Y13750000D03*
X5750000D03*
X5250000Y14250000D03*
Y15250000D03*
X5750000Y16250000D03*
X5250000Y16750000D03*
X5750000D03*
X6250000Y1250000D03*
Y1750000D03*
Y2250000D03*
Y2750000D03*
Y3250000D03*
Y3750000D03*
X5829000Y4204000D03*
X5815000Y4461000D03*
X5850840Y4053160D03*
X6250000Y5750000D03*
Y6250000D03*
Y6750000D03*
Y7750000D03*
Y8250000D03*
Y8750000D03*
Y9250000D03*
Y9750000D03*
Y10250000D03*
Y10750000D03*
Y11250000D03*
X5946000Y11761000D03*
X6250000Y11750000D03*
X6218000Y12650000D03*
X5909400Y12513200D03*
X6147500Y12900200D03*
X6250000Y13250000D03*
Y13750000D03*
Y14250000D03*
Y14750000D03*
X6260600Y15344900D03*
X5837900Y15735800D03*
X6250000Y15750000D03*
Y16250000D03*
Y16750000D03*
X6750000Y1250000D03*
Y1750000D03*
Y2250000D03*
Y2750000D03*
Y3250000D03*
Y3750000D03*
X6590100Y4590100D03*
X6914160Y4963840D03*
X6750000Y5250000D03*
Y5750000D03*
Y6250000D03*
Y6750000D03*
Y7750000D03*
Y8250000D03*
Y8750000D03*
Y9250000D03*
Y9750000D03*
Y10250000D03*
Y10750000D03*
Y11250000D03*
Y11750000D03*
X6959100Y11967500D03*
X7008160Y12152160D03*
X6857900Y12251300D03*
X6889600Y12501300D03*
X6636660Y13047660D03*
X6750000Y13750000D03*
Y14250000D03*
Y14750000D03*
X6661400Y15366700D03*
X6750000Y15750000D03*
Y16250000D03*
Y16750000D03*
X7250000Y1250000D03*
Y1750000D03*
Y2250000D03*
Y2750000D03*
Y3250000D03*
Y3750000D03*
X7508000Y3733000D03*
X7121000Y4116000D03*
X7170500Y4868200D03*
X7101000Y4630000D03*
X7160000Y5312000D03*
X7250000Y5750000D03*
X7504000Y5295000D03*
X7250000Y6250000D03*
Y6750000D03*
Y9250000D03*
Y9750000D03*
Y10250000D03*
Y10750000D03*
Y11250000D03*
X7228900Y11652000D03*
X7373800Y12495400D03*
X7387700Y12271100D03*
X7250000Y13750000D03*
Y14250000D03*
Y14750000D03*
Y15250000D03*
Y15750000D03*
Y16250000D03*
X7750000Y1250000D03*
X8250000D03*
X7798000Y1578000D03*
X7810500Y1849500D03*
X7750000Y2250000D03*
X7824740Y2752740D03*
X8077000Y3786700D03*
X7750000Y3250000D03*
X7789200Y3669200D03*
X8310500Y4381500D03*
X7961800Y4072100D03*
X8156300Y4508500D03*
X7938000Y4628000D03*
X7723000Y5025000D03*
X7750000Y5750000D03*
X8250000D03*
X8079000Y5444000D03*
X8268000Y5447000D03*
X7750000Y6250000D03*
X8250000D03*
X7750000Y6750000D03*
X8250000D03*
X7750000Y7250000D03*
X8250000D03*
X7750000Y7750000D03*
X8250000D03*
X7750000Y8250000D03*
X8250000D03*
X7750000Y8750000D03*
X8250000D03*
X7750000Y9250000D03*
X8250000D03*
X7750000Y9750000D03*
X8250000D03*
X7750000Y10250000D03*
X8250000D03*
X7750000Y10750000D03*
X8250000D03*
X7750000Y11250000D03*
X8250000D03*
X7750000Y11750000D03*
X8250000D03*
X8320300Y12765200D03*
X7750000Y13250000D03*
X8250000D03*
X8131660Y13046340D03*
X7750000Y13750000D03*
X8250000D03*
X7750000Y14250000D03*
X8250000D03*
X7750000Y14750000D03*
X8250000D03*
X7750000Y15250000D03*
X8250000D03*
X7750000Y15750000D03*
Y16250000D03*
X8250000D03*
X7750000Y16750000D03*
X8250000D03*
X8750000Y1250000D03*
X8566000Y1606000D03*
X8747000Y1849500D03*
X8750000Y2250000D03*
Y2750000D03*
Y3250000D03*
X8599700Y3865800D03*
X8455000Y3558000D03*
X8945100Y3877800D03*
X8912000Y4500000D03*
X8612000Y4496000D03*
X8342000Y4634000D03*
X8628500Y5033700D03*
X8815600Y5244700D03*
X8750000Y5750000D03*
Y6250000D03*
Y6750000D03*
Y8750000D03*
Y9250000D03*
Y9750000D03*
Y10250000D03*
Y10750000D03*
Y11250000D03*
Y11750000D03*
X8434000Y12032000D03*
X8544000Y12183000D03*
X8703840Y13201840D03*
X8750000Y13750000D03*
Y14250000D03*
Y14750000D03*
X8765000Y16830000D03*
X9250000Y1250000D03*
Y1750000D03*
Y2250000D03*
Y2750000D03*
Y3250000D03*
X9348000Y3635600D03*
X9077000Y4173000D03*
Y4817000D03*
X9074600Y5220800D03*
X9196000Y5737000D03*
X9192000Y6238000D03*
X9250000Y6750000D03*
Y7250000D03*
Y7750000D03*
Y8250000D03*
Y8750000D03*
Y9250000D03*
Y9750000D03*
Y10250000D03*
Y10750000D03*
Y11250000D03*
Y11750000D03*
Y12250000D03*
X9110100Y12761300D03*
X9068400Y13354600D03*
X9155800Y14069000D03*
X9139900Y14580900D03*
X9250000Y15250000D03*
X9065500Y15660400D03*
X9250000Y16250000D03*
Y16750000D03*
X9750000Y1250000D03*
Y1750000D03*
Y2250000D03*
Y2750000D03*
Y3250000D03*
Y3750000D03*
Y4250000D03*
Y4750000D03*
Y5250000D03*
Y5750000D03*
Y6250000D03*
X9822000Y6606000D03*
X9877000Y7172000D03*
X9891000Y7692000D03*
X9882000Y8212000D03*
X9863000Y8768000D03*
X9750000Y9250000D03*
Y9750000D03*
Y10250000D03*
Y10750000D03*
Y11250000D03*
Y11750000D03*
Y12250000D03*
Y12750000D03*
Y13250000D03*
X9778800Y13858600D03*
X9750000Y14250000D03*
Y14750000D03*
Y15250000D03*
Y15750000D03*
Y16250000D03*
Y16750000D03*
X10250000Y1250000D03*
X10750000D03*
X10250000Y1750000D03*
Y2250000D03*
Y2750000D03*
X10750000D03*
X10250000Y3750000D03*
Y3250000D03*
X10750000Y3750000D03*
Y3250000D03*
X10250000Y4250000D03*
X10750000D03*
Y4750000D03*
X10250000D03*
Y5250000D03*
X10750000D03*
X10250000Y5750000D03*
X10750000D03*
X10250000Y6250000D03*
X10750000D03*
X10250000Y6750000D03*
Y7250000D03*
Y8250000D03*
Y7750000D03*
X10750000Y8250000D03*
Y7750000D03*
X10250000Y8750000D03*
X10750000D03*
X10250000Y9250000D03*
X10750000D03*
X10250000Y9750000D03*
Y10250000D03*
Y10750000D03*
X10750000D03*
X10250000Y11250000D03*
X10750000D03*
X10250000Y11750000D03*
X10750000D03*
X10250000Y12250000D03*
X10750000D03*
X10250000Y12750000D03*
X10750000D03*
X10250000Y13250000D03*
X10750000D03*
X10250000Y13750000D03*
X10750000D03*
X10250000Y14250000D03*
X10750000D03*
X10250000Y14750000D03*
Y15250000D03*
Y15750000D03*
X10750000D03*
X10250000Y16250000D03*
X10750000D03*
X10250000Y16750000D03*
X10750000D03*
X11250000Y1250000D03*
Y2750000D03*
Y3750000D03*
Y3250000D03*
Y4250000D03*
Y4750000D03*
Y5250000D03*
Y5750000D03*
Y6250000D03*
Y8250000D03*
Y7750000D03*
Y8750000D03*
Y9250000D03*
Y10750000D03*
Y11250000D03*
Y11750000D03*
Y12250000D03*
Y12750000D03*
Y13250000D03*
Y13750000D03*
Y14250000D03*
Y15750000D03*
Y16250000D03*
Y16750000D03*
X11750000Y1250000D03*
Y1750000D03*
Y2250000D03*
Y2750000D03*
Y3750000D03*
Y3250000D03*
Y4250000D03*
Y4750000D03*
Y5250000D03*
Y5750000D03*
Y6250000D03*
Y6750000D03*
Y7250000D03*
Y8250000D03*
Y7750000D03*
Y8750000D03*
Y9250000D03*
Y9750000D03*
Y10250000D03*
Y10750000D03*
Y11250000D03*
Y11750000D03*
Y12250000D03*
Y12750000D03*
Y13250000D03*
Y13750000D03*
Y14250000D03*
Y14750000D03*
Y15250000D03*
Y15750000D03*
Y16250000D03*
Y16750000D03*
X12750000Y1250000D03*
X12250000D03*
X12750000Y2250000D03*
X12250000D03*
X12750000Y2750000D03*
X12250000D03*
X12750000Y3750000D03*
X12250000D03*
X12750000Y3250000D03*
X12250000D03*
Y4250000D03*
X12752200Y4904000D03*
X12250000Y4750000D03*
X12750000Y5250000D03*
X12250000D03*
X12750000Y5750000D03*
X12250000D03*
X12750000Y6250000D03*
X12250000D03*
X12750000Y6750000D03*
X12250000D03*
X12750000Y7250000D03*
X12250000D03*
X12750000Y8250000D03*
X12250000D03*
X12750000Y7750000D03*
X12250000D03*
X12750000Y8750000D03*
X12250000D03*
Y9250000D03*
X12750000D03*
X12250000Y9750000D03*
X12750000D03*
X12250000Y10250000D03*
X12750000D03*
X12250000Y10750000D03*
X12750000D03*
X12250000Y11250000D03*
X12750000D03*
X12250000Y11750000D03*
Y12250000D03*
Y12750000D03*
X12750000D03*
X12250000Y13250000D03*
X12750000D03*
X12250000Y13750000D03*
X12750000D03*
X12250000Y14250000D03*
Y14750000D03*
Y15250000D03*
X12750000D03*
X12449000Y15876000D03*
X12250000Y16250000D03*
Y16750000D03*
X13250000Y1250000D03*
Y2250000D03*
Y2750000D03*
Y3750000D03*
Y3250000D03*
X13281200Y4917800D03*
X13250000Y5250000D03*
Y5750000D03*
Y6250000D03*
Y6750000D03*
Y7250000D03*
Y8250000D03*
Y8750000D03*
Y9250000D03*
Y9750000D03*
Y10250000D03*
Y10750000D03*
Y11250000D03*
X13304340Y11848660D03*
X13250000Y12250000D03*
Y12750000D03*
Y13250000D03*
Y13750000D03*
Y15250000D03*
Y15750000D03*
X13750000Y1250000D03*
Y1750000D03*
Y2250000D03*
Y2750000D03*
Y3250000D03*
X13681400Y3604400D03*
X13851160Y3782840D03*
X13525500Y4160800D03*
X13980500Y4676300D03*
X13681500Y4862600D03*
X13750000Y5250000D03*
Y5750000D03*
Y6750000D03*
Y7250000D03*
Y8750000D03*
Y9250000D03*
Y9750000D03*
Y10250000D03*
Y10750000D03*
Y11250000D03*
X13533200Y11505200D03*
X13832800Y12362400D03*
X13750000Y12750000D03*
Y13250000D03*
Y13750000D03*
Y15250000D03*
X14061000Y15775500D03*
X13588700Y16743800D03*
X14033200D03*
X14250000Y1250000D03*
Y1750000D03*
Y2250000D03*
Y2750000D03*
Y3750000D03*
Y3250000D03*
X14631400Y3730900D03*
X14503160Y5044160D03*
X14250000Y5250000D03*
Y5750000D03*
Y6250000D03*
Y6750000D03*
Y7250000D03*
X14149100Y7853900D03*
X14250000Y8750000D03*
Y9250000D03*
Y9750000D03*
Y10250000D03*
Y10750000D03*
Y11250000D03*
X14217800Y11489300D03*
X14526500Y11828660D03*
X14158660Y12736340D03*
X14250000Y13250000D03*
Y13750000D03*
X15250000Y1250000D03*
X14750000D03*
X15250000Y1750000D03*
X14750000D03*
X15250000Y2250000D03*
X14750000D03*
X15250000Y2750000D03*
X14750000D03*
X14977840Y3740000D03*
X15107600Y4830400D03*
X14750000Y4750000D03*
X15305000Y5070000D03*
X15250000Y5250000D03*
X14750000D03*
X15250000Y5750000D03*
X14750000D03*
X15303000Y5583000D03*
X14750000Y6250000D03*
Y6750000D03*
Y7250000D03*
Y7750000D03*
Y8750000D03*
Y9250000D03*
X15250000D03*
X14750000Y9750000D03*
X15250000D03*
X14750000Y10250000D03*
X15250000D03*
X14750000Y10750000D03*
X15250000D03*
X14750000Y11250000D03*
X15250000D03*
X14868600Y11517100D03*
X15077000Y12354500D03*
X15132600Y12771200D03*
X14750000Y13250000D03*
X15250000D03*
X14750000Y13750000D03*
X15250000D03*
Y14250000D03*
X14753000Y14850000D03*
X15250000Y14750000D03*
Y15750000D03*
X14858700Y16033500D03*
X15250000Y16250000D03*
X14918300Y16700200D03*
X15250000Y16750000D03*
X15750000Y1250000D03*
Y1750000D03*
Y2250000D03*
Y2750000D03*
Y3750000D03*
X15465600Y3743500D03*
X15804500Y4117300D03*
X15971000Y4794000D03*
X15825200Y4563600D03*
X15791000Y4858000D03*
X15750000Y5750000D03*
Y6250000D03*
X15621000Y6921500D03*
X15750000Y7250000D03*
Y8250000D03*
Y8750000D03*
Y9250000D03*
Y9750000D03*
Y10250000D03*
Y10750000D03*
Y11250000D03*
X15594900Y11925900D03*
X15796500Y11803660D03*
X15626700Y12217600D03*
X15373660Y12778660D03*
X15750000Y13250000D03*
Y13750000D03*
Y14250000D03*
Y14750000D03*
Y15750000D03*
Y16250000D03*
Y16750000D03*
X16250000Y1250000D03*
Y1750000D03*
Y2250000D03*
Y2750000D03*
X16178840Y3745000D03*
X16445000Y4626000D03*
X16133500Y4549800D03*
X16254600Y5680000D03*
X16240200Y6110500D03*
X16250000Y7250000D03*
Y7750000D03*
Y8750000D03*
Y9250000D03*
Y9750000D03*
Y10250000D03*
Y10750000D03*
Y11250000D03*
X16165000Y11662000D03*
X16250000Y12750000D03*
Y13250000D03*
Y13750000D03*
Y14250000D03*
Y14750000D03*
X16750000Y1250000D03*
X17250000D03*
X16750000Y1750000D03*
X17250000D03*
X16750000Y2250000D03*
X17172500Y2449000D03*
X16750000Y2750000D03*
X17108800Y2741800D03*
X17172500Y2957000D03*
X17250000Y3250000D03*
X16814000Y3848000D03*
X17159300Y3602100D03*
X16750000Y3250000D03*
X16983840Y3729160D03*
X17090000Y4328000D03*
X17127000Y4499000D03*
X17208000Y5021000D03*
X16772600Y5699200D03*
X17250000Y5250000D03*
X16847760Y5489260D03*
X16750000Y6250000D03*
X17250000D03*
Y7250000D03*
X16750000Y7750000D03*
X17250000D03*
X16750000Y8750000D03*
X17250000D03*
X16750000Y9250000D03*
X17250000D03*
X16750000Y9750000D03*
X17250000D03*
X16750000Y10250000D03*
X17250000D03*
X16750000Y10750000D03*
X17250000D03*
X16750000Y11250000D03*
X17250000D03*
X17025000Y11532000D03*
X16968100Y11830600D03*
X17245900Y12175900D03*
X17198200Y12771200D03*
X16962100Y12572800D03*
X16658660Y12772660D03*
X16750000Y13250000D03*
X17250000D03*
X16750000Y13750000D03*
X17250000D03*
X16750000Y14250000D03*
X17250000D03*
X16750000Y14750000D03*
X17250000D03*
X16750000Y15250000D03*
X17250000D03*
X16750000Y15750000D03*
X17152600Y15737800D03*
X16750000Y16250000D03*
X17250000D03*
X16750000Y16750000D03*
X17250000D03*
X17750000Y1250000D03*
Y1750000D03*
Y2250000D03*
X17745900Y3517000D03*
X17849240Y3288260D03*
X17775160Y3727160D03*
X17374600Y4079300D03*
X17880000Y4338000D03*
X17377000Y4899000D03*
X17479000Y4528000D03*
X17864000Y4757000D03*
X17259400Y5694400D03*
X17605400Y5626100D03*
X17725000Y5387000D03*
X17643200Y6103300D03*
X17750000Y7250000D03*
Y7750000D03*
Y8750000D03*
Y9250000D03*
X17544000Y9880000D03*
X17750000Y10250000D03*
X17454500Y10668000D03*
X17750000Y11250000D03*
X17636160Y11329160D03*
X17301000Y11709000D03*
X17853100Y11719500D03*
X17886500Y11966500D03*
X17489900Y12171900D03*
X17886800Y12668000D03*
X17886500Y12336500D03*
X17670000Y12219000D03*
X17750000Y13250000D03*
X17692840Y12968160D03*
X17750000Y13750000D03*
Y14250000D03*
Y14750000D03*
X18250000Y1250000D03*
Y1750000D03*
Y2250000D03*
Y2750000D03*
X18298000Y3792000D03*
X17966900Y3909000D03*
X17986000Y4512000D03*
X18062000Y5111600D03*
X17998100Y5602100D03*
X18010100Y6076900D03*
X18250000Y6250000D03*
Y6750000D03*
Y7250000D03*
Y8250000D03*
Y7750000D03*
Y8750000D03*
Y9250000D03*
X18444500Y9880000D03*
X18250000Y10250000D03*
X18161000Y11747500D03*
X18334800Y11684000D03*
X18020000Y12122500D03*
X18152700Y12660100D03*
X18018000Y12500000D03*
X18105100Y13465700D03*
X18081300Y14148300D03*
X18164600Y14751600D03*
X18398800Y15295300D03*
X18190400Y15725900D03*
Y16178300D03*
X18440400Y16408500D03*
X18750000Y1250000D03*
Y1750000D03*
Y2250000D03*
Y2750000D03*
Y3750000D03*
Y3250000D03*
Y4250000D03*
Y4750000D03*
Y5250000D03*
Y5750000D03*
Y6250000D03*
Y6750000D03*
Y7250000D03*
Y8250000D03*
Y7750000D03*
Y8750000D03*
Y9250000D03*
Y9750000D03*
Y10250000D03*
Y10750000D03*
Y11250000D03*
Y11750000D03*
X18523800Y12035000D03*
X18750000Y12250000D03*
Y12750000D03*
Y13250000D03*
X18855200Y13882400D03*
X18750000Y14250000D03*
X18816000Y14638000D03*
X18880000Y15250000D03*
X18885000Y15738000D03*
Y16387000D03*
X18769000Y16824000D03*
X19250000Y1250000D03*
X19750000D03*
X19250000Y1750000D03*
Y2250000D03*
Y2750000D03*
X19750000D03*
X19250000Y3250000D03*
X19750000D03*
X19250000Y3750000D03*
X19750000D03*
X19250000Y4250000D03*
X19750000D03*
X19250000Y4750000D03*
X19750000D03*
X19250000Y5250000D03*
X19750000D03*
X19250000Y5750000D03*
X19750000D03*
X19250000Y6250000D03*
X19750000D03*
X19250000Y6750000D03*
Y7250000D03*
Y7750000D03*
X19750000D03*
X19250000Y8250000D03*
X19750000D03*
X19250000Y8750000D03*
X19750000D03*
X19250000Y9250000D03*
X19750000D03*
X19250000Y9750000D03*
Y10250000D03*
Y10750000D03*
X19750000D03*
X19250000Y11250000D03*
X19750000D03*
X19250000Y11750000D03*
X19750000D03*
X19250000Y12250000D03*
X19750000D03*
X19250000Y12750000D03*
X19750000D03*
X19250000Y13250000D03*
X19750000D03*
X19250000Y13750000D03*
X19750000D03*
X19250000Y14250000D03*
X19750000D03*
X19250000Y14750000D03*
Y15250000D03*
Y15750000D03*
X19750000D03*
X19250000Y16250000D03*
X19750000D03*
X19250000Y16750000D03*
X19750000D03*
X20250000Y1250000D03*
Y2750000D03*
Y3250000D03*
Y3750000D03*
Y4250000D03*
Y4750000D03*
Y5250000D03*
Y5750000D03*
Y6250000D03*
Y7750000D03*
Y8250000D03*
Y8750000D03*
Y9250000D03*
Y10750000D03*
Y11250000D03*
Y11750000D03*
Y12250000D03*
Y12750000D03*
Y13250000D03*
Y13750000D03*
Y14250000D03*
Y15750000D03*
Y16250000D03*
Y16750000D03*
X20750000Y1250000D03*
Y1750000D03*
Y2250000D03*
Y2750000D03*
Y3250000D03*
Y3750000D03*
Y4250000D03*
Y4750000D03*
Y5250000D03*
Y5750000D03*
Y6250000D03*
Y6750000D03*
Y7250000D03*
Y7750000D03*
Y8250000D03*
Y8750000D03*
Y9250000D03*
Y9750000D03*
Y10250000D03*
Y10750000D03*
Y11250000D03*
Y11750000D03*
X20761000Y12880000D03*
X20750000Y13250000D03*
Y13750000D03*
Y14250000D03*
Y14750000D03*
Y15250000D03*
Y15750000D03*
Y16250000D03*
Y16750000D03*
X21250000Y1250000D03*
Y2250000D03*
Y2750000D03*
Y3250000D03*
Y3750000D03*
Y4250000D03*
Y4750000D03*
Y5250000D03*
Y5750000D03*
Y6250000D03*
Y6750000D03*
Y7250000D03*
Y7750000D03*
Y8250000D03*
Y8750000D03*
Y9250000D03*
Y9750000D03*
Y10250000D03*
Y10750000D03*
Y11250000D03*
X21277000Y11698000D03*
X21550000Y11684000D03*
X21235000Y12875000D03*
X21250000Y13250000D03*
Y13750000D03*
Y14250000D03*
Y14750000D03*
Y15250000D03*
Y15750000D03*
Y16250000D03*
Y16750000D03*
X21750000Y1250000D03*
X22250000D03*
X21750000Y2250000D03*
X22250000D03*
X21750000Y2750000D03*
X22250000D03*
X21750000Y3250000D03*
X22250000D03*
X21750000Y3750000D03*
X22250000D03*
X21750000Y5250000D03*
X22250000D03*
X21750000Y5750000D03*
X22250000D03*
X21750000Y6250000D03*
X22250000D03*
X21750000Y6750000D03*
X22250000D03*
X21750000Y7250000D03*
X22250000D03*
X21750000Y7750000D03*
Y8250000D03*
X22250000D03*
X21750000Y8750000D03*
X22250000D03*
X21750000Y9250000D03*
X22250000D03*
X21750000Y9750000D03*
X22250000D03*
X21750000Y10250000D03*
X22250000D03*
X21750000Y10750000D03*
X22250000D03*
X21750000Y11250000D03*
X22250000D03*
X21750000Y11750000D03*
X22316000Y11661000D03*
X21740000Y12714000D03*
X21750000Y13250000D03*
X22250000D03*
X22215000Y13105000D03*
X21750000Y13750000D03*
X22250000D03*
X21750000Y15250000D03*
X22250000D03*
Y15750000D03*
Y16750000D03*
X22750000Y1250000D03*
Y1750000D03*
Y2250000D03*
Y2750000D03*
Y3250000D03*
Y3750000D03*
X22448160Y3858160D03*
X22415500Y4762500D03*
X22750000Y5250000D03*
Y5750000D03*
Y7250000D03*
X22927000Y7678000D03*
X22750000Y9250000D03*
Y9750000D03*
Y10250000D03*
Y10750000D03*
Y11250000D03*
X22805000Y11715000D03*
X22500000Y12242000D03*
X22487000Y12513000D03*
X22750000Y13750000D03*
Y15250000D03*
Y16750000D03*
X23250000Y1250000D03*
Y1750000D03*
Y2250000D03*
Y2750000D03*
Y3750000D03*
X23607440Y3724000D03*
X23558500Y4762500D03*
X23099160Y5060840D03*
X23250000Y5250000D03*
Y5750000D03*
Y7250000D03*
Y8750000D03*
Y9250000D03*
Y9750000D03*
Y10250000D03*
Y10750000D03*
Y11250000D03*
Y11750000D03*
Y13250000D03*
X23476000Y13086000D03*
X23250000Y13750000D03*
X23750000Y1250000D03*
X24250000D03*
X23750000Y1750000D03*
X24250000D03*
X23750000Y2250000D03*
X24250000D03*
X23750000Y2750000D03*
X24250000D03*
X24012000Y3204000D03*
X24091800Y3765100D03*
X23750000Y5250000D03*
X24250000D03*
X23750000Y5750000D03*
X24250000D03*
X23750000Y7250000D03*
Y9250000D03*
X24250000D03*
X23750000Y9750000D03*
X24250000D03*
X23750000Y10250000D03*
X24250000D03*
X23750000Y10750000D03*
X24250000D03*
X23750000Y11250000D03*
X24250000D03*
X23750000Y11750000D03*
X24133000Y11720000D03*
X23750000Y12250000D03*
Y12750000D03*
X23738000Y12518000D03*
X23750000Y13750000D03*
X24250000D03*
Y14250000D03*
Y14750000D03*
Y15750000D03*
Y16250000D03*
Y16750000D03*
X24750000Y1250000D03*
Y1750000D03*
Y2250000D03*
Y2750000D03*
X24413100Y3757900D03*
X24791840Y3790000D03*
X24680900Y4818900D03*
X24264160Y5069840D03*
X24750000Y5250000D03*
Y5750000D03*
X24778000Y6569000D03*
X24525000Y7043000D03*
X24801000Y7209000D03*
X24750000Y8250000D03*
Y8750000D03*
Y9250000D03*
Y9750000D03*
Y10250000D03*
Y10750000D03*
Y11250000D03*
X24299000Y11739000D03*
X24635000Y11721000D03*
X24750000Y13250000D03*
X24807000Y13106000D03*
X24750000Y13750000D03*
Y14250000D03*
Y14750000D03*
Y15750000D03*
Y16250000D03*
Y16750000D03*
X25250000Y1250000D03*
Y1750000D03*
Y2250000D03*
Y2750000D03*
X25336500Y3302000D03*
X25489900Y3995300D03*
X25428500Y5081100D03*
X25250000Y5250000D03*
Y7250000D03*
Y7750000D03*
Y8750000D03*
Y9250000D03*
Y9750000D03*
Y10250000D03*
Y10750000D03*
Y11250000D03*
X25157000Y11749000D03*
X25371000Y11744000D03*
X25018000Y12201000D03*
X25027000Y12747000D03*
X25250000Y13250000D03*
X25381000Y13256000D03*
X25250000Y13750000D03*
Y14250000D03*
Y14750000D03*
X25362000Y16235000D03*
X25750000Y1250000D03*
Y1750000D03*
Y2250000D03*
Y2750000D03*
X25782000Y3147000D03*
X25893100Y3537700D03*
X26041000Y3795000D03*
X26130200Y4007300D03*
X25654000Y4254500D03*
X25771200Y4777500D03*
X25952900Y5088000D03*
X25578000Y5554900D03*
X25750000Y6250000D03*
Y7750000D03*
Y8750000D03*
Y9250000D03*
Y9750000D03*
Y10250000D03*
Y10750000D03*
Y11250000D03*
Y11750000D03*
X25862000Y12170000D03*
X26081000D03*
X26116000Y12803000D03*
X26139000Y13194000D03*
X25777000Y12809000D03*
X25750000Y13250000D03*
Y13750000D03*
Y14250000D03*
Y14750000D03*
Y15250000D03*
Y15750000D03*
Y16250000D03*
Y16750000D03*
X25542130Y23476250D03*
X26250000Y1250000D03*
X26750000D03*
X26250000Y1750000D03*
X26750000D03*
Y2250000D03*
X26382000Y2312000D03*
X26172500Y2966000D03*
X26250000Y3250000D03*
X26442900Y3551500D03*
X26786160Y3663160D03*
X26429000Y4032000D03*
X26710500Y4952200D03*
X26433700Y4545200D03*
X26415600Y5180000D03*
X26202100Y5549300D03*
X26274840Y5155160D03*
X26766000Y5565000D03*
X26250000Y6250000D03*
Y7250000D03*
X26750000D03*
X26250000Y7750000D03*
X26750000D03*
X26250000Y8750000D03*
X26750000D03*
X26250000Y9250000D03*
X26750000D03*
X26250000Y9750000D03*
X26750000D03*
X26482000Y9978000D03*
X26250000Y10250000D03*
X26245000Y10871000D03*
X26250000Y11250000D03*
X26281000Y11112500D03*
X26208000Y11696000D03*
X26375000Y11789000D03*
X26502000Y12605000D03*
Y12335000D03*
X26735760Y12753240D03*
X26662000Y12446000D03*
X26211000Y12237000D03*
X26310000Y12488000D03*
X26750000Y13250000D03*
X26310040Y13178960D03*
X26250000Y13750000D03*
X26750000D03*
X26250000Y14250000D03*
X26750000D03*
X26250000Y14750000D03*
X26750000D03*
X26250000Y15250000D03*
Y16250000D03*
Y16750000D03*
X27250000Y1250000D03*
Y1750000D03*
Y2250000D03*
Y2750000D03*
X26841240Y3290740D03*
X27290760Y3793000D03*
X26891000Y4330000D03*
X26997400Y4511900D03*
X27077700Y5101800D03*
X26894000Y4707000D03*
X27050100Y5548000D03*
X27250000Y6250000D03*
Y6750000D03*
Y7250000D03*
Y7750000D03*
Y8250000D03*
Y8750000D03*
Y9250000D03*
Y9750000D03*
X26988000Y9978000D03*
X27250000Y10250000D03*
X27170000Y10944000D03*
X27250000Y11250000D03*
X27207000Y11661000D03*
X26979500Y11938000D03*
X27096000Y12159000D03*
X27110000Y12858000D03*
X27165000Y13750000D03*
Y14252000D03*
X27250000Y14750000D03*
Y15750000D03*
Y16250000D03*
X27423000Y16506000D03*
X27750000Y1250000D03*
Y1750000D03*
Y2250000D03*
Y2750000D03*
Y3250000D03*
Y3750000D03*
Y4250000D03*
Y4750000D03*
Y5250000D03*
Y5750000D03*
Y6250000D03*
Y6750000D03*
Y7250000D03*
Y7750000D03*
Y8250000D03*
Y8750000D03*
Y9250000D03*
Y9750000D03*
Y10250000D03*
Y10750000D03*
Y11250000D03*
Y11750000D03*
Y12250000D03*
Y12750000D03*
Y13250000D03*
Y13750000D03*
Y14250000D03*
X27855000Y14742000D03*
X27860000Y15227000D03*
X27871000Y15752000D03*
X27855000Y16242000D03*
X27872000Y16833000D03*
X28250000Y1250000D03*
Y1750000D03*
Y2250000D03*
Y2750000D03*
Y3250000D03*
Y3750000D03*
Y4250000D03*
Y4750000D03*
Y5250000D03*
Y5750000D03*
Y6250000D03*
Y6750000D03*
Y7250000D03*
Y7750000D03*
Y8250000D03*
Y8750000D03*
Y9250000D03*
Y9750000D03*
Y10250000D03*
Y10750000D03*
Y11250000D03*
Y11750000D03*
Y12250000D03*
Y12750000D03*
Y13250000D03*
Y13750000D03*
Y14250000D03*
Y14750000D03*
Y15250000D03*
Y15750000D03*
Y16250000D03*
Y16750000D03*
X28750000Y1250000D03*
X29250000D03*
X28750000Y2750000D03*
X29250000D03*
X28750000Y3250000D03*
X29250000D03*
X28750000Y3750000D03*
Y4250000D03*
X29249100Y4365700D03*
X28750000Y4750000D03*
X29250000D03*
X28750000Y5250000D03*
X29250000D03*
X28750000Y5750000D03*
X29250000D03*
X28750000Y6250000D03*
X29250000D03*
X28750000Y7750000D03*
X29250000D03*
X28750000Y8250000D03*
X29250000D03*
X28750000Y8750000D03*
X29250000D03*
X28750000Y9250000D03*
X29250000D03*
X28750000Y10750000D03*
X29250000D03*
X28750000Y11250000D03*
X29250000D03*
X28750000Y11750000D03*
X29250000D03*
X28750000Y12250000D03*
X29250000D03*
X28750000Y12750000D03*
X29250000D03*
X28750000Y13250000D03*
X29250000D03*
X28750000Y13750000D03*
X29250000D03*
X28750000Y14250000D03*
X29250000D03*
X28750000Y15750000D03*
X29250000D03*
X28750000Y16250000D03*
X29250000D03*
X28750000Y16750000D03*
X29250000D03*
X29750000Y1250000D03*
Y1750000D03*
Y2250000D03*
Y2750000D03*
Y3250000D03*
X29980500Y3611300D03*
X29759700Y4361100D03*
X29975900Y4144900D03*
X29750000Y4750000D03*
Y5250000D03*
Y5750000D03*
Y6250000D03*
Y6750000D03*
Y7250000D03*
X29934500Y7627400D03*
X29640100Y8239200D03*
X29750000Y8750000D03*
Y9250000D03*
Y9750000D03*
Y10250000D03*
Y10750000D03*
Y11250000D03*
Y11750000D03*
Y12250000D03*
Y12750000D03*
Y13250000D03*
Y13750000D03*
Y14250000D03*
Y14750000D03*
Y15250000D03*
Y15750000D03*
Y16250000D03*
Y16750000D03*
X30250000Y1250000D03*
Y1750000D03*
Y2250000D03*
Y2750000D03*
X30263000Y3202000D03*
X30268000Y3744000D03*
X30250000Y4250000D03*
X30606300Y4209300D03*
X30250000Y4750000D03*
Y5250000D03*
Y5750000D03*
Y6250000D03*
Y6750000D03*
Y7250000D03*
X30210500Y8257600D03*
X30250000Y9250000D03*
Y9750000D03*
Y10250000D03*
Y10750000D03*
Y11250000D03*
Y11750000D03*
Y12750000D03*
Y13250000D03*
Y13750000D03*
Y14250000D03*
Y14750000D03*
Y15250000D03*
Y15750000D03*
Y16250000D03*
Y16750000D03*
X30750000Y1250000D03*
X31250000D03*
X30750000Y1750000D03*
X31250000D03*
X30750000Y2250000D03*
X31250000D03*
X30750000Y2750000D03*
Y3250000D03*
X31250000Y4250000D03*
X31062000Y4430000D03*
X30750000Y4750000D03*
X31250000D03*
X30750000Y5250000D03*
X31250000D03*
X30750000Y6750000D03*
X31250000D03*
X30750000Y7250000D03*
X31250000D03*
X31110900Y7701000D03*
X31250000Y8750000D03*
X30750000Y9250000D03*
X31250000D03*
X30750000Y9750000D03*
X31250000D03*
X30750000Y10250000D03*
X31250000D03*
X30750000Y10750000D03*
X31250000D03*
X30750000Y11250000D03*
X31250000D03*
X30750000Y11750000D03*
Y12750000D03*
X31250000D03*
X30750000Y13250000D03*
X31250000D03*
X30750000Y13750000D03*
X31250000D03*
X30750000Y15250000D03*
X31250000D03*
Y15750000D03*
X30750000Y16250000D03*
Y16750000D03*
X31250000D03*
X31750000Y1250000D03*
Y1750000D03*
Y2250000D03*
Y2750000D03*
X31756300Y3192700D03*
X31374000Y3213000D03*
X31371000Y3746000D03*
X31750000Y4250000D03*
Y4750000D03*
Y6750000D03*
Y7250000D03*
Y7750000D03*
Y8750000D03*
Y9250000D03*
Y9750000D03*
Y10250000D03*
Y10750000D03*
Y11250000D03*
X31692000Y11680000D03*
X31274660Y11628000D03*
X31584000Y12582000D03*
X31750000Y13250000D03*
Y13750000D03*
Y15250000D03*
Y16750000D03*
X32250000Y1250000D03*
Y1750000D03*
Y2250000D03*
X32243900Y3544600D03*
X32467000Y4423300D03*
X32455500Y4131100D03*
X32223000Y4426000D03*
X32250000Y4750000D03*
X32064600Y6794800D03*
X32250000Y9250000D03*
Y9750000D03*
Y10250000D03*
Y10750000D03*
Y11250000D03*
Y11750000D03*
X32177000Y12113000D03*
X32191000Y12449000D03*
X31931660Y13023340D03*
X32250000Y13750000D03*
Y16750000D03*
X32750000Y1250000D03*
Y1750000D03*
Y2250000D03*
X32855800Y2748700D03*
X32816700Y3165000D03*
X32543000Y3226000D03*
X32618500Y3746500D03*
X32917900Y4209300D03*
X32750000Y4750000D03*
Y5250000D03*
Y5750000D03*
Y6250000D03*
Y6750000D03*
Y9250000D03*
Y9750000D03*
Y10250000D03*
Y10750000D03*
Y11250000D03*
X32909000Y11715000D03*
X32560000Y11628000D03*
X32980000Y13231000D03*
X32750000Y13750000D03*
Y15750000D03*
Y16250000D03*
Y16750000D03*
X33250000Y1250000D03*
X33750000D03*
X33250000Y1750000D03*
X33750000D03*
X33250000Y2250000D03*
X33750000D03*
X33250000Y2750000D03*
X33750000D03*
X33304300Y3125900D03*
X33584900Y3742400D03*
Y4020700D03*
X33447000Y4430000D03*
X33250000Y4750000D03*
Y5250000D03*
X33750000D03*
X33250000Y5750000D03*
X33750000D03*
X33250000Y6250000D03*
X33750000D03*
X33250000Y6750000D03*
X33750000D03*
X33240900Y7365200D03*
X33250000Y7750000D03*
Y8250000D03*
X33578000Y8446300D03*
X33250000Y8750000D03*
X33578000Y8745300D03*
X33250000Y9250000D03*
X33750000D03*
X33250000Y9750000D03*
X33750000D03*
X33250000Y10250000D03*
X33750000D03*
X33250000Y10750000D03*
X33750000D03*
X33250000Y11250000D03*
X33750000D03*
X33293000Y11703000D03*
X33479000Y12117000D03*
X33458000Y12469000D03*
X33228000Y13231000D03*
X33220660Y12973660D03*
X33250000Y13750000D03*
X33750000D03*
X33250000Y14250000D03*
X33750000D03*
X33250000Y15250000D03*
X33750000D03*
X33250000Y15750000D03*
X33750000D03*
X33250000Y16250000D03*
X33750000D03*
X33250000Y16750000D03*
X33750000D03*
X34250000Y1250000D03*
Y1750000D03*
Y2250000D03*
Y2750000D03*
X34056000Y3790000D03*
X34028000Y4000500D03*
X34250000Y4750000D03*
X33862160Y5042840D03*
X34250000Y5250000D03*
Y5750000D03*
Y6250000D03*
Y6750000D03*
X34433700Y7167400D03*
X34250000Y7750000D03*
Y8250000D03*
Y8750000D03*
Y9250000D03*
Y9750000D03*
Y10250000D03*
Y10750000D03*
Y11250000D03*
Y11750000D03*
X33820000Y11685000D03*
X34250000Y13250000D03*
Y13750000D03*
X34275000Y14312000D03*
X34232000Y14115000D03*
X34250000Y15250000D03*
Y16750000D03*
X34750000Y1250000D03*
Y1750000D03*
Y2250000D03*
Y2750000D03*
Y3250000D03*
Y3750000D03*
X34751100Y4002300D03*
X34750000Y4750000D03*
Y5250000D03*
Y5750000D03*
Y6250000D03*
Y6750000D03*
Y7250000D03*
X35077700Y7273200D03*
X34750000Y7750000D03*
Y8250000D03*
Y8750000D03*
Y9250000D03*
Y9750000D03*
Y10250000D03*
Y10750000D03*
Y11250000D03*
Y11750000D03*
X34627000Y12145000D03*
X34977000Y12168000D03*
X34645000Y12490000D03*
X34751000Y12591000D03*
X34481660Y13053340D03*
X34783000Y14300000D03*
X34750000Y14750000D03*
Y15250000D03*
Y15750000D03*
Y16250000D03*
Y16750000D03*
X35250000Y1250000D03*
Y1750000D03*
Y2250000D03*
Y2750000D03*
Y3250000D03*
Y3750000D03*
Y4750000D03*
Y5250000D03*
Y5750000D03*
Y6250000D03*
Y6750000D03*
Y9250000D03*
Y9750000D03*
Y10250000D03*
Y10750000D03*
Y11250000D03*
X35581000Y12087000D03*
X35305160Y11754160D03*
X35248000Y12582000D03*
X35473000Y12587000D03*
X35556000Y12334000D03*
X35716640Y13060360D03*
X35250000Y13750000D03*
X35469000Y13972000D03*
X35250000Y14250000D03*
Y14750000D03*
Y15250000D03*
Y16250000D03*
Y16750000D03*
X35750000Y1250000D03*
X36250000D03*
X35750000Y2750000D03*
X36250000D03*
X35750000Y3250000D03*
X36250000D03*
Y3750000D03*
X36098000Y3813000D03*
X36250000Y4250000D03*
X35750000Y4750000D03*
X36094400Y4747600D03*
X35750000Y5250000D03*
Y5750000D03*
X36073700Y5571000D03*
X35750000Y6250000D03*
X36073700Y6268000D03*
X35750000Y6750000D03*
X36069100Y6771700D03*
X36126600Y7422700D03*
X35873600Y7728600D03*
Y8248400D03*
X36122000Y8234600D03*
X36094400Y8685500D03*
X35750000Y9250000D03*
X36250000D03*
X35750000Y9750000D03*
X36250000D03*
X35750000Y10250000D03*
X36250000D03*
X35750000Y10750000D03*
X36250000D03*
X35750000Y11250000D03*
X36250000D03*
X35750000Y11750000D03*
X36250000D03*
X35851000Y12513000D03*
X36250000Y12250000D03*
X35837000Y12807000D03*
X36154000Y12826000D03*
X35750000Y13250000D03*
Y13750000D03*
X36186000Y13771000D03*
X36191000Y14240000D03*
X35750000Y14250000D03*
X36250000Y15250000D03*
Y15750000D03*
Y16250000D03*
X35750000Y16750000D03*
X36250000D03*
X36750000Y1250000D03*
Y1750000D03*
Y2250000D03*
Y2750000D03*
Y3250000D03*
Y3750000D03*
Y4250000D03*
Y4750000D03*
Y5250000D03*
Y5750000D03*
Y6250000D03*
Y6750000D03*
Y7250000D03*
Y7750000D03*
Y8250000D03*
Y8750000D03*
Y9250000D03*
Y9750000D03*
Y10250000D03*
Y10750000D03*
Y11250000D03*
Y11750000D03*
Y12250000D03*
Y12750000D03*
Y13250000D03*
Y13750000D03*
Y14250000D03*
X36872000Y14602000D03*
X36867000Y15181000D03*
Y15692000D03*
X36872000Y16230000D03*
X36844000Y16764000D03*
G54D11*
X2000000Y2000000D03*
Y7000000D03*
Y10000000D03*
Y15000000D03*
X11000000Y2000000D03*
Y7000000D03*
Y10000000D03*
Y15000000D03*
X20000000Y2000000D03*
Y7000000D03*
Y10000000D03*
Y15000000D03*
X25542130Y17761250D03*
X29000000Y2000000D03*
Y7000000D03*
Y10000000D03*
Y15000000D03*
X36000000Y2000000D03*
G54D12*
X2504000Y4064000D03*
Y4572000D03*
X2758000Y4318000D03*
X3012000Y4064000D03*
Y4572000D03*
X3264000Y12110000D03*
Y12618000D03*
X3772000Y12110000D03*
X3518000Y12364000D03*
X3772000Y12618000D03*
X3621000Y16557000D03*
Y16303000D03*
Y16049000D03*
X4547000Y4678000D03*
Y5186000D03*
X3952000Y8330000D03*
Y8076000D03*
Y8584000D03*
X4801000Y4932000D03*
X5055000Y4678000D03*
Y5186000D03*
X5345500Y12733500D03*
X5599500Y12987500D03*
X5345500Y13241500D03*
X6117000Y4927000D03*
X5863000Y4673000D03*
X6371000D03*
Y5181000D03*
X5863000D03*
X5853500Y12733500D03*
Y13241500D03*
X6858000Y12726000D03*
Y13234000D03*
X7366000Y12726000D03*
X7112000Y12980000D03*
X7366000Y13234000D03*
X12780000Y4094000D03*
Y4602000D03*
X12721500Y12076500D03*
X12467500Y11822500D03*
Y12330500D03*
X13034000Y4348000D03*
X13288000Y4094000D03*
Y4602000D03*
X12975500Y11822500D03*
Y12330500D03*
X12953000Y16592000D03*
Y16338000D03*
Y16084000D03*
X13763000Y8275000D03*
Y8021000D03*
Y8529000D03*
X14572000Y2919000D03*
Y3427000D03*
X14631500Y12696500D03*
X14377500Y12442500D03*
Y12950500D03*
X14826000Y3173000D03*
X15080000Y2919000D03*
Y3427000D03*
X14885500Y12442500D03*
Y12950500D03*
X15968000Y3183000D03*
X15714000Y2929000D03*
Y3437000D03*
X15846500Y12691500D03*
X15592500Y12437500D03*
Y12945500D03*
X16222000Y2929000D03*
Y3437000D03*
X16100500Y12437500D03*
Y12945500D03*
X20555000Y12119000D03*
X21063000D03*
X20809000Y12373000D03*
X21063000Y12627000D03*
X20555000D03*
X21683500Y4400000D03*
X21429500Y4146000D03*
Y4654000D03*
X21937500Y4146000D03*
Y4654000D03*
X21929000Y16583000D03*
Y16329000D03*
Y16075000D03*
X22652000Y8306000D03*
Y8052000D03*
Y8560000D03*
X22453000Y12733000D03*
X22961000D03*
X22707000Y12987000D03*
X22961000Y13241000D03*
X22453000D03*
X23437500Y3218000D03*
X23183500Y2964000D03*
Y3472000D03*
X23691500Y2964000D03*
Y3472000D03*
X23721000Y12741000D03*
X24229000D03*
X23975000Y12995000D03*
X24229000Y13249000D03*
X23721000D03*
X24610500Y3225000D03*
X24356500Y2971000D03*
X24864500D03*
Y3479000D03*
X24356500D03*
X25542130Y21571250D03*
X29365000Y3868000D03*
X29111000Y3614000D03*
Y4122000D03*
X29619000Y3614000D03*
Y4122000D03*
X30599000Y8191500D03*
Y7937500D03*
Y8445500D03*
X30271500Y12036000D03*
X30525500Y12290000D03*
X30271500Y12544000D03*
X30944000Y2502000D03*
X31198000Y2756000D03*
X30944000Y3010000D03*
X30779500Y12036000D03*
Y12544000D03*
X30947000Y16582000D03*
Y16328000D03*
Y16074000D03*
X31452000Y2502000D03*
Y3010000D03*
X32083000Y2504000D03*
X32337000Y2758000D03*
X32083000Y3012000D03*
X32213500Y12674000D03*
X32467500Y12928000D03*
X32213500Y13182000D03*
X32591000Y2504000D03*
Y3012000D03*
X32721500Y12674000D03*
Y13182000D03*
X33605000Y2982000D03*
Y3490000D03*
X33482500Y12735000D03*
X33736500Y12989000D03*
X33482500Y13243000D03*
X33859000Y3236000D03*
X34113000Y2982000D03*
Y3490000D03*
X33990500Y12735000D03*
Y13243000D03*
G54D13*
X3989500Y6351000D03*
X4021500Y14363000D03*
X12989500Y14351000D03*
X13733100Y6342900D03*
X21986500Y14311000D03*
X22648400Y6405100D03*
X25542130Y18713750D03*
X30990200Y6110700D03*
X30992500Y14402000D03*
G54D14*
X5450000Y6097000D03*
Y6351000D03*
Y6605000D03*
X5482000Y14109000D03*
Y14363000D03*
Y14617000D03*
X14450000Y14097000D03*
Y14351000D03*
Y14605000D03*
X15193600Y6088900D03*
Y6342900D03*
Y6596900D03*
X23447000Y14057000D03*
Y14311000D03*
Y14565000D03*
X24108900Y6151100D03*
Y6405100D03*
Y6659100D03*
X25542130Y20618750D03*
X32450700Y5856700D03*
Y6110700D03*
Y6364700D03*
X32453000Y14148000D03*
Y14402000D03*
Y14656000D03*
G54D15*
X5450000Y7537000D03*
Y7933000D03*
Y8329000D03*
Y8725000D03*
X5488000Y15539000D03*
Y15935000D03*
Y16331000D03*
Y16727000D03*
X14450000Y15537000D03*
Y15933000D03*
Y16329000D03*
Y16725000D03*
X15193600Y7488900D03*
Y7884900D03*
Y8280900D03*
Y8676900D03*
X23450000Y15537000D03*
Y15933000D03*
Y16329000D03*
Y16725000D03*
X24108000Y7512000D03*
Y7908000D03*
Y8304000D03*
Y8700000D03*
X25542130Y19666250D03*
X32427000Y7388000D03*
Y7784000D03*
Y8180000D03*
Y8576000D03*
X32450000Y15537000D03*
Y15933000D03*
Y16329000D03*
Y16725000D03*
G54D16*
X6954500Y15110000D03*
Y16634000D03*
X7101500Y7061500D03*
X7355500D03*
Y8585500D03*
X7101500D03*
X7208500Y15110000D03*
Y16634000D03*
X8625500Y7061500D03*
X8879500D03*
Y8585500D03*
X8625500D03*
X8478500Y15110000D03*
X8732500D03*
X8986500D03*
Y16634000D03*
X8732500D03*
X8478500D03*
X9133500Y7061500D03*
Y8585500D03*
X9494500Y15110000D03*
Y16634000D03*
X9641500Y7061500D03*
Y8585500D03*
X16253000Y6376000D03*
Y5868000D03*
Y6884000D03*
Y6630000D03*
Y8154000D03*
Y8408000D03*
X16101500Y15161500D03*
X16355500D03*
Y16685500D03*
X16101500D03*
X17777000Y5868000D03*
Y6376000D03*
Y6630000D03*
Y6884000D03*
Y8154000D03*
Y8408000D03*
X17625500Y15161500D03*
X17879500D03*
Y16685500D03*
X17625500D03*
X18133500Y15161500D03*
Y16685500D03*
X18641500Y15161500D03*
Y16685500D03*
X25215500Y6356000D03*
Y5848000D03*
Y6864000D03*
Y6610000D03*
Y8134000D03*
Y8388000D03*
X25101500Y15161500D03*
X25355500D03*
Y16685500D03*
X25101500D03*
X25542130Y22523750D03*
X26739500Y5848000D03*
Y6356000D03*
Y6610000D03*
Y6864000D03*
Y8134000D03*
Y8388000D03*
X26625500Y15161500D03*
Y16685500D03*
X26879500Y15161500D03*
X27133500D03*
Y16685500D03*
X26879500D03*
X27641500Y15161500D03*
Y16685500D03*
X33812600Y7143600D03*
Y8667600D03*
X34066600Y7143600D03*
Y8667600D03*
X34101500Y14907500D03*
X34355500D03*
Y16431500D03*
X34101500D03*
X35336600Y7143600D03*
X35590600D03*
Y8667600D03*
X35336600D03*
X35625500Y14907500D03*
Y16431500D03*
X35844600Y7143600D03*
X36352600D03*
Y8667600D03*
X35844600D03*
X35879500Y14907500D03*
X36133500D03*
Y16431500D03*
X35879500D03*
X36641500Y14907500D03*
Y16431500D03*
G54D17*
G01X1000000Y1000000D02*
Y17000000D01*
X37000000D01*
Y1000000D01*
X1000000D01*
G01Y9000000D02*
X37000000D01*
G01X10000000Y1000000D02*
Y17000000D01*
G01X19000000Y1000000D02*
Y17000000D01*
G01X24400400Y17285000D02*
Y25872500D01*
X36998800D01*
Y17285000D01*
X24400400D01*
G01Y18237500D02*
X36998800D01*
G01X24400400Y19190000D02*
X36998800D01*
G01X24400400Y20142500D02*
X36998800D01*
G01X24400400Y21095000D02*
X36998800D01*
G01X24400400Y22047500D02*
X36998800D01*
G01X24400400Y23000000D02*
X36998800D01*
G01X24679920Y24111250D02*
Y24428750D01*
X24829540D01*
G01X24774410Y24275300D02*
X24679920D01*
G01X25022450Y24428750D02*
X25116930D01*
G01X25069690D02*
Y24111250D01*
G01X25022450D02*
X25116930D01*
G01X25408270Y24270000D02*
X25487020D01*
Y24174750D01*
X25463390Y24142990D01*
X25435830Y24121830D01*
X25396460Y24111250D01*
X25357090Y24121830D01*
X25329530Y24142990D01*
X25305910Y24174750D01*
X25290160Y24211790D01*
X25282280Y24254120D01*
Y24291170D01*
X25290160Y24322910D01*
X25305910Y24359960D01*
X25329530Y24391710D01*
X25353150Y24412870D01*
X25384650Y24428750D01*
X25412210D01*
X25443700Y24418170D01*
X25467330Y24397000D01*
G01X25613000Y24428750D02*
Y24201210D01*
X25628740Y24153570D01*
X25660240Y24121830D01*
X25699610Y24111250D01*
X25738980Y24121830D01*
X25770480Y24153570D01*
X25786220Y24201210D01*
Y24428750D01*
G01X25935830Y24111250D02*
Y24428750D01*
X26034250D01*
X26065750Y24412870D01*
X26085440Y24391710D01*
X26093310Y24349370D01*
X26085440Y24307040D01*
X26061810Y24280590D01*
X26034250Y24264700D01*
X25935830D01*
G01X26034250D02*
X26093310Y24111250D01*
G01X26408270D02*
X26250790D01*
Y24428750D01*
X26408270D01*
G01X26345280Y24275300D02*
X26250790D01*
G01X24400400Y23952500D02*
X36998800D01*
G01X24400400Y24587500D02*
X36998800D01*
G01X24400400Y25222500D02*
X36998800D01*
G01X26683860Y24587500D02*
Y17285000D01*
G01X26349210Y24746250D02*
X26447640Y25063750D01*
X26546070Y24746250D01*
G01X26510630Y24857370D02*
X26384640D01*
G01X26683860Y25063750D02*
Y24746250D01*
X26841340D01*
G01X26998820Y25063750D02*
Y24746250D01*
X27156300D01*
G01X27620870Y25063750D02*
Y24836210D01*
X27636610Y24788570D01*
X27668110Y24756830D01*
X27707480Y24746250D01*
X27746850Y24756830D01*
X27778350Y24788570D01*
X27794090Y24836210D01*
Y25063750D01*
G01X27931890Y24746250D02*
Y25063750D01*
X28112990Y24746250D01*
Y25063750D01*
G01X28290160D02*
X28384640D01*
G01X28337400D02*
Y24746250D01*
G01X28290160D02*
X28384640D01*
G01X28652360Y25063750D02*
Y24746250D01*
G01X28561810Y25063750D02*
X28742910D01*
G01X28884640Y24788570D02*
X28916140Y24762120D01*
X28951570Y24746250D01*
X28983070D01*
X29014560Y24762120D01*
X29038190Y24788570D01*
X29050000Y24825630D01*
X29042130Y24862660D01*
X29022440Y24894410D01*
X28987000Y24915590D01*
X28939760Y24926170D01*
X28912200Y24947330D01*
X28900390Y24984370D01*
X28908270Y25021420D01*
X28927950Y25047870D01*
X28955510Y25063750D01*
X28983070D01*
X29010630Y25053170D01*
X29034250Y25026710D01*
G01X29498810Y24746250D02*
X29597240Y25063750D01*
X29695670Y24746250D01*
G01X29660230Y24857370D02*
X29534240D01*
G01X29833460Y24746250D02*
Y25063750D01*
X29931880D01*
X29963380Y25047870D01*
X29983070Y25026710D01*
X29990940Y24984370D01*
X29983070Y24942040D01*
X29959440Y24915590D01*
X29931880Y24899700D01*
X29833460D01*
G01X29931880D02*
X29990940Y24746250D01*
G01X30305900D02*
X30148420D01*
Y25063750D01*
X30305900D01*
G01X30242910Y24910300D02*
X30148420D01*
G01X30809840Y25063750D02*
X30904320D01*
G01X30857080D02*
Y24746250D01*
G01X30809840D02*
X30904320D01*
G01X31081490D02*
Y25063750D01*
X31262590Y24746250D01*
Y25063750D01*
G01X31699590Y24746250D02*
Y25063750D01*
X31801960Y24799170D01*
X31904330Y25063750D01*
Y24746250D01*
G01X32069680Y25063750D02*
X32164160D01*
G01X32116920D02*
Y24746250D01*
G01X32069680D02*
X32164160D01*
G01X32353140Y25063750D02*
Y24746250D01*
X32510620D01*
G01X32668100Y25063750D02*
Y24746250D01*
X32825580D01*
G01X33014560Y25063750D02*
X33109040D01*
G01X33061800D02*
Y24746250D01*
G01X33014560D02*
X33109040D01*
G01X33274390D02*
Y25063750D01*
X33376760Y24799170D01*
X33479130Y25063750D01*
Y24746250D01*
G01X33770460D02*
X33612980D01*
Y25063750D01*
X33770460D01*
G01X33707470Y24910300D02*
X33612980D01*
G01X34006680Y25063750D02*
Y24746250D01*
G01X33916130Y25063750D02*
X34097230D01*
G01X34400380Y24746250D02*
X34242900D01*
Y25063750D01*
X34400380D01*
G01X34337390Y24910300D02*
X34242900D01*
G01X34557860Y24746250D02*
Y25063750D01*
X34656280D01*
X34687780Y25047870D01*
X34707470Y25026710D01*
X34715340Y24984370D01*
X34707470Y24942040D01*
X34683840Y24915590D01*
X34656280Y24899700D01*
X34557860D01*
G01X34656280D02*
X34715340Y24746250D01*
G01X34868880Y24788570D02*
X34900380Y24762120D01*
X34935810Y24746250D01*
X34967310D01*
X34998800Y24762120D01*
X35022430Y24788570D01*
X35034240Y24825630D01*
X35026370Y24862660D01*
X35006680Y24894410D01*
X34971240Y24915590D01*
X34924000Y24926170D01*
X34896440Y24947330D01*
X34884630Y24984370D01*
X34892510Y25021420D01*
X34912190Y25047870D01*
X34939750Y25063750D01*
X34967310D01*
X34994870Y25053170D01*
X35018490Y25026710D01*
G01X26675990Y25396250D02*
Y25713750D01*
X26754720D01*
X26786220Y25697870D01*
X26809840Y25676710D01*
X26829530Y25644960D01*
X26845280Y25607910D01*
X26849210Y25555000D01*
X26845280Y25502080D01*
X26829530Y25465040D01*
X26809840Y25433280D01*
X26786220Y25412120D01*
X26754720Y25396250D01*
X26675990D01*
G01X26998820D02*
Y25713750D01*
X27097240D01*
X27128740Y25697870D01*
X27148430Y25676710D01*
X27156300Y25634370D01*
X27148430Y25592040D01*
X27124800Y25565590D01*
X27097240Y25549700D01*
X26998820D01*
G01X27097240D02*
X27156300Y25396250D01*
G01X27345280Y25713750D02*
X27439760D01*
G01X27392520D02*
Y25396250D01*
G01X27345280D02*
X27439760D01*
G01X27628740Y25713750D02*
Y25396250D01*
X27786220D01*
G01X27943700Y25713750D02*
Y25396250D01*
X28101180D01*
G01X28738970Y25687290D02*
X28715350Y25703170D01*
X28687800Y25713750D01*
X28656300D01*
X28620860Y25697870D01*
X28593310Y25671420D01*
X28573620Y25639660D01*
X28557870Y25586750D01*
X28553930Y25539120D01*
X28561810Y25491500D01*
X28573620Y25459750D01*
X28597240Y25427990D01*
X28624800Y25406830D01*
X28652360Y25396250D01*
X28679920D01*
X28707480Y25406830D01*
X28731100Y25422700D01*
X28750790Y25443860D01*
G01X28884640Y25396250D02*
Y25713750D01*
G01X29050000D02*
Y25396250D01*
G01Y25555000D02*
X28884640D01*
G01X29183850Y25396250D02*
X29282280Y25713750D01*
X29380710Y25396250D01*
G01X29345270Y25507370D02*
X29219280D01*
G01X29518500Y25396250D02*
Y25713750D01*
X29616920D01*
X29648420Y25697870D01*
X29668110Y25676710D01*
X29675980Y25634370D01*
X29668110Y25592040D01*
X29644480Y25565590D01*
X29616920Y25549700D01*
X29518500D01*
G01X29616920D02*
X29675980Y25396250D01*
G01X29912200Y25713750D02*
Y25396250D01*
G01X29821650Y25713750D02*
X30002750D01*
G01X30227160Y25385670D02*
X30219280Y25390960D01*
Y25401540D01*
X30227160Y25406830D01*
X30235040Y25401540D01*
Y25390960D01*
X30227160Y25385670D01*
G01Y25528530D02*
X30219280Y25533830D01*
Y25544410D01*
X30227160Y25549700D01*
X30235040Y25544410D01*
Y25533830D01*
X30227160Y25528530D01*
G01X30857080Y25713750D02*
Y25396250D01*
G01X30766530Y25713750D02*
X30947630D01*
G01X31172040Y25396250D02*
X31140540Y25401540D01*
X31112990Y25422700D01*
X31089360Y25454460D01*
X31073610Y25491500D01*
X31065740Y25533830D01*
Y25576170D01*
X31073610Y25618500D01*
X31089360Y25655540D01*
X31112990Y25687290D01*
X31140540Y25708460D01*
X31172040Y25713750D01*
X31203530Y25708460D01*
X31231090Y25687290D01*
X31254720Y25655540D01*
X31270470Y25618500D01*
X31278340Y25576170D01*
Y25533830D01*
X31270470Y25491500D01*
X31254720Y25454460D01*
X31231090Y25422700D01*
X31203530Y25401540D01*
X31172040Y25396250D01*
G01X31408260D02*
Y25713750D01*
X31502750D01*
X31534240Y25697870D01*
X31557870Y25660830D01*
X31565740Y25618500D01*
X31557870Y25576170D01*
X31538180Y25544410D01*
X31502750Y25528530D01*
X31408260D01*
G01X32116920Y25713750D02*
Y25396250D01*
G01X32061800Y25607910D02*
X32172040D01*
G01X32431880Y25396250D02*
X32408260Y25401540D01*
X32384640Y25422700D01*
X32368880Y25459750D01*
X32361010Y25502080D01*
X32368880Y25544410D01*
X32384640Y25581460D01*
X32408260Y25602620D01*
X32431880Y25607910D01*
X32455500Y25602620D01*
X32479120Y25581460D01*
X32494870Y25544410D01*
X32498810Y25502080D01*
X32494870Y25459750D01*
X32479120Y25422700D01*
X32455500Y25401540D01*
X32431880Y25396250D01*
G01X33093290Y25565590D02*
X33109040Y25581460D01*
X33120850Y25607910D01*
X33128730Y25644960D01*
X33120850Y25676710D01*
X33105110Y25697870D01*
X33077550Y25713750D01*
X32971250D01*
Y25396250D01*
X33101170D01*
X33128730Y25417410D01*
X33144480Y25449170D01*
X33152350Y25486210D01*
X33144480Y25523240D01*
X33120850Y25555000D01*
X33093290Y25565590D01*
X32971250D01*
G01X33376760Y25396250D02*
X33345260Y25401540D01*
X33317710Y25422700D01*
X33294080Y25454460D01*
X33278330Y25491500D01*
X33270460Y25533830D01*
Y25576170D01*
X33278330Y25618500D01*
X33294080Y25655540D01*
X33317710Y25687290D01*
X33345260Y25708460D01*
X33376760Y25713750D01*
X33408250Y25708460D01*
X33435810Y25687290D01*
X33459440Y25655540D01*
X33475190Y25618500D01*
X33483060Y25576170D01*
Y25533830D01*
X33475190Y25491500D01*
X33459440Y25454460D01*
X33435810Y25422700D01*
X33408250Y25401540D01*
X33376760Y25396250D01*
G01X33691720Y25713750D02*
Y25396250D01*
G01X33601170Y25713750D02*
X33782270D01*
G01X34006680D02*
Y25396250D01*
G01X33916130Y25713750D02*
X34097230D01*
G01X34321640Y25396250D02*
X34290140Y25401540D01*
X34262590Y25422700D01*
X34238960Y25454460D01*
X34223210Y25491500D01*
X34215340Y25533830D01*
Y25576170D01*
X34223210Y25618500D01*
X34238960Y25655540D01*
X34262590Y25687290D01*
X34290140Y25708460D01*
X34321640Y25713750D01*
X34353130Y25708460D01*
X34380690Y25687290D01*
X34404320Y25655540D01*
X34420070Y25618500D01*
X34427940Y25576170D01*
Y25533830D01*
X34420070Y25491500D01*
X34404320Y25454460D01*
X34380690Y25422700D01*
X34353130Y25401540D01*
X34321640Y25396250D01*
G01X34534230D02*
Y25713750D01*
X34636600Y25449170D01*
X34738970Y25713750D01*
Y25396250D01*
G01X27278340Y24111250D02*
Y24428750D01*
X27427960D01*
G01X27372830Y24275300D02*
X27278340D01*
G01X27620870Y24428750D02*
X27715350D01*
G01X27668110D02*
Y24111250D01*
G01X27620870D02*
X27715350D01*
G01X27892520D02*
Y24428750D01*
X28073620Y24111250D01*
Y24428750D01*
G01X28250790D02*
X28345270D01*
G01X28298030D02*
Y24111250D01*
G01X28250790D02*
X28345270D01*
G01X28530310Y24153570D02*
X28561810Y24127120D01*
X28597240Y24111250D01*
X28628740D01*
X28660230Y24127120D01*
X28683860Y24153570D01*
X28695670Y24190630D01*
X28687800Y24227660D01*
X28668110Y24259410D01*
X28632670Y24280590D01*
X28585430Y24291170D01*
X28557870Y24312330D01*
X28546060Y24349370D01*
X28553940Y24386420D01*
X28573620Y24412870D01*
X28601180Y24428750D01*
X28628740D01*
X28656300Y24418170D01*
X28679920Y24391710D01*
G01X28845270Y24111250D02*
Y24428750D01*
G01X29010630D02*
Y24111250D01*
G01Y24270000D02*
X28845270D01*
G01X29321650Y24111250D02*
X29164170D01*
Y24428750D01*
X29321650D01*
G01X29258660Y24275300D02*
X29164170D01*
G01X29471260Y24111250D02*
Y24428750D01*
X29549990D01*
X29581490Y24412870D01*
X29605110Y24391710D01*
X29624800Y24359960D01*
X29640550Y24322910D01*
X29644480Y24270000D01*
X29640550Y24217080D01*
X29624800Y24180040D01*
X29605110Y24148280D01*
X29581490Y24127120D01*
X29549990Y24111250D01*
X29471260D01*
G01X29754720Y24005420D02*
X29990940D01*
G01X30105110Y24153570D02*
X30136610Y24127120D01*
X30172040Y24111250D01*
X30203540D01*
X30235030Y24127120D01*
X30258660Y24153570D01*
X30270470Y24190630D01*
X30262600Y24227660D01*
X30242910Y24259410D01*
X30207470Y24280590D01*
X30160230Y24291170D01*
X30132670Y24312330D01*
X30120860Y24349370D01*
X30128740Y24386420D01*
X30148420Y24412870D01*
X30175980Y24428750D01*
X30203540D01*
X30231100Y24418170D01*
X30254720Y24391710D01*
G01X30455510Y24428750D02*
X30549990D01*
G01X30502750D02*
Y24111250D01*
G01X30455510D02*
X30549990D01*
G01X30742900Y24428750D02*
X30892520D01*
X30742900Y24111250D01*
X30892520D01*
G01X31211410D02*
X31053930D01*
Y24428750D01*
X31211410D01*
G01X31148420Y24275300D02*
X31053930D01*
G01X28000000Y1000000D02*
Y17000000D01*
G01X28695660Y17734780D02*
X28723230Y17771840D01*
X28746850Y17793000D01*
X28778350Y17803580D01*
X28805910Y17793000D01*
X28825590Y17771840D01*
X28841340Y17740080D01*
X28845280Y17703040D01*
X28841340Y17671290D01*
X28825590Y17639530D01*
X28801960Y17613080D01*
X28774410Y17602500D01*
X28742910Y17613080D01*
X28715350Y17644820D01*
X28699600Y17692460D01*
X28695660Y17745370D01*
X28703540Y17814160D01*
X28715350Y17851210D01*
X28735030Y17888250D01*
X28762590Y17914710D01*
X28790150Y17920000D01*
X28817710Y17909420D01*
X28837400Y17882960D01*
G01X29085430Y17591920D02*
X29077550Y17597210D01*
Y17607790D01*
X29085430Y17613080D01*
X29093310Y17607790D01*
Y17597210D01*
X29085430Y17591920D01*
G01X29313780Y17666000D02*
X29337390Y17628950D01*
X29368890Y17607790D01*
X29404330Y17602500D01*
X29435830Y17607790D01*
X29467320Y17634240D01*
X29487000Y17666000D01*
X29490940Y17697750D01*
X29483070Y17734780D01*
X29455510Y17761250D01*
X29427950Y17771840D01*
X29392510D01*
G01X29427950D02*
X29451570Y17787710D01*
X29471260Y17814160D01*
X29479130Y17845910D01*
X29471260Y17877670D01*
X29451570Y17904120D01*
X29416140Y17920000D01*
X29380710Y17914710D01*
X29345270Y17893540D01*
G01X29628740Y17650110D02*
X29652350Y17623660D01*
X29679910Y17607790D01*
X29715350Y17602500D01*
X29750790Y17613080D01*
X29778340Y17634240D01*
X29798030Y17671290D01*
X29801960Y17713620D01*
X29794090Y17755950D01*
X29774400Y17782420D01*
X29746840Y17803580D01*
X29719290Y17808870D01*
X29691730Y17803580D01*
X29656300Y17782420D01*
X29668110Y17920000D01*
X29774400D01*
G01X28683860Y18618500D02*
X28707470Y18581450D01*
X28738970Y18560290D01*
X28774410Y18555000D01*
X28805910Y18560290D01*
X28837400Y18586740D01*
X28857080Y18618500D01*
X28861020Y18650250D01*
X28853150Y18687280D01*
X28825590Y18713750D01*
X28798030Y18724340D01*
X28762590D01*
G01X28798030D02*
X28821650Y18740210D01*
X28841340Y18766660D01*
X28849210Y18798410D01*
X28841340Y18830170D01*
X28821650Y18856620D01*
X28786220Y18872500D01*
X28750790Y18867210D01*
X28715350Y18846040D01*
G01X29085430Y18544420D02*
X29077550Y18549710D01*
Y18560290D01*
X29085430Y18565580D01*
X29093310Y18560290D01*
Y18549710D01*
X29085430Y18544420D01*
G01X29400390Y18555000D02*
X29427950Y18560290D01*
X29459440Y18576160D01*
X29479130Y18602610D01*
X29487000Y18639670D01*
X29479130Y18676700D01*
X29455510Y18708450D01*
X29420070Y18724340D01*
X29380710D01*
X29357080Y18734920D01*
X29337390Y18761370D01*
X29329520Y18798410D01*
X29341340Y18835460D01*
X29368890Y18861920D01*
X29400390Y18872500D01*
X29431880Y18861920D01*
X29459440Y18835460D01*
X29471260Y18798410D01*
X29463380Y18761370D01*
X29443700Y18734920D01*
X29420070Y18724340D01*
X29380710D01*
X29345270Y18708450D01*
X29321650Y18676700D01*
X29313780Y18639670D01*
X29321650Y18602610D01*
X29341340Y18576160D01*
X29372830Y18560290D01*
X29400390Y18555000D01*
G01X29715350D02*
Y18872500D01*
X29668110Y18809000D01*
G01Y18555000D02*
X29762590D01*
G01X28455510Y19507500D02*
Y19825000D01*
X28408270Y19761500D01*
G01Y19507500D02*
X28502750D01*
G01X28770470Y19496920D02*
X28762590Y19502210D01*
Y19512790D01*
X28770470Y19518080D01*
X28778350Y19512790D01*
Y19502210D01*
X28770470Y19496920D01*
G01X29085430Y19507500D02*
X29112990Y19512790D01*
X29144480Y19528660D01*
X29164170Y19555110D01*
X29172040Y19592170D01*
X29164170Y19629200D01*
X29140550Y19660950D01*
X29105110Y19676840D01*
X29065750D01*
X29042120Y19687420D01*
X29022430Y19713870D01*
X29014560Y19750910D01*
X29026380Y19787960D01*
X29053930Y19814420D01*
X29085430Y19825000D01*
X29116920Y19814420D01*
X29144480Y19787960D01*
X29156300Y19750910D01*
X29148420Y19713870D01*
X29128740Y19687420D01*
X29105110Y19676840D01*
X29065750D01*
X29030310Y19660950D01*
X29006690Y19629200D01*
X28998820Y19592170D01*
X29006690Y19555110D01*
X29026380Y19528660D01*
X29057870Y19512790D01*
X29085430Y19507500D01*
G01X29400390Y19825000D02*
X29368890Y19814420D01*
X29345270Y19787960D01*
X29329520Y19756210D01*
X29317710Y19713870D01*
X29313780Y19666250D01*
X29317710Y19618620D01*
X29329520Y19576290D01*
X29345270Y19544530D01*
X29368890Y19518080D01*
X29400390Y19507500D01*
X29431880Y19518080D01*
X29455510Y19544530D01*
X29471260Y19576290D01*
X29483070Y19618620D01*
X29487000Y19666250D01*
X29483070Y19713870D01*
X29471260Y19756210D01*
X29455510Y19787960D01*
X29431880Y19814420D01*
X29400390Y19825000D01*
G01X29715350D02*
X29683850Y19814420D01*
X29660230Y19787960D01*
X29644480Y19756210D01*
X29632670Y19713870D01*
X29628740Y19666250D01*
X29632670Y19618620D01*
X29644480Y19576290D01*
X29660230Y19544530D01*
X29683850Y19518080D01*
X29715350Y19507500D01*
X29746840Y19518080D01*
X29770470Y19544530D01*
X29786220Y19576290D01*
X29798030Y19618620D01*
X29801960Y19666250D01*
X29798030Y19713870D01*
X29786220Y19756210D01*
X29770470Y19787960D01*
X29746840Y19814420D01*
X29715350Y19825000D01*
G01X30030310Y19507500D02*
Y19825000D01*
X29983070Y19761500D01*
G01Y19507500D02*
X30077550D01*
G01X28612990Y20460000D02*
Y20777500D01*
X28565750Y20714000D01*
G01Y20460000D02*
X28660230D01*
G01X28927950Y20449420D02*
X28920070Y20454710D01*
Y20465290D01*
X28927950Y20470580D01*
X28935830Y20465290D01*
Y20454710D01*
X28927950Y20449420D01*
G01X29156300Y20523500D02*
X29179910Y20486450D01*
X29211410Y20465290D01*
X29246850Y20460000D01*
X29278350Y20465290D01*
X29309840Y20491740D01*
X29329520Y20523500D01*
X29333460Y20555250D01*
X29325590Y20592280D01*
X29298030Y20618750D01*
X29270470Y20629340D01*
X29235030D01*
G01X29270470D02*
X29294090Y20645210D01*
X29313780Y20671660D01*
X29321650Y20703410D01*
X29313780Y20735170D01*
X29294090Y20761620D01*
X29258660Y20777500D01*
X29223230Y20772210D01*
X29187790Y20751040D01*
G01X29490940Y20497030D02*
X29518500Y20470580D01*
X29549990Y20460000D01*
X29581490Y20470580D01*
X29609050Y20502320D01*
X29628740Y20549960D01*
X29636610Y20597580D01*
Y20655790D01*
X29628740Y20703410D01*
X29609050Y20745750D01*
X29585430Y20766920D01*
X29557870Y20777500D01*
X29526370Y20766920D01*
X29502750Y20745750D01*
X29487000Y20714000D01*
X29479130Y20671660D01*
X29487000Y20634630D01*
X29506690Y20597580D01*
X29530310Y20576410D01*
X29557870Y20571120D01*
X29589360Y20581700D01*
X29612990Y20608160D01*
X29636610Y20655790D01*
G01X29864950Y20460000D02*
X29872830Y20528790D01*
X29884640Y20586990D01*
X29900390Y20639920D01*
X29920070Y20698120D01*
X29951570Y20777500D01*
X29794090D01*
G01X28455510Y21412500D02*
Y21730000D01*
X28408270Y21666500D01*
G01Y21412500D02*
X28502750D01*
G01X28770470Y21401920D02*
X28762590Y21407210D01*
Y21417790D01*
X28770470Y21423080D01*
X28778350Y21417790D01*
Y21407210D01*
X28770470Y21401920D01*
G01X28998820Y21476000D02*
X29022430Y21438950D01*
X29053930Y21417790D01*
X29089370Y21412500D01*
X29120870Y21417790D01*
X29152360Y21444240D01*
X29172040Y21476000D01*
X29175980Y21507750D01*
X29168110Y21544780D01*
X29140550Y21571250D01*
X29112990Y21581840D01*
X29077550D01*
G01X29112990D02*
X29136610Y21597710D01*
X29156300Y21624160D01*
X29164170Y21655910D01*
X29156300Y21687670D01*
X29136610Y21714120D01*
X29101180Y21730000D01*
X29065750Y21724710D01*
X29030310Y21703540D01*
G01X29392510Y21412500D02*
X29400390Y21481290D01*
X29412200Y21539490D01*
X29427950Y21592420D01*
X29447630Y21650620D01*
X29479130Y21730000D01*
X29321650D01*
G01X29715350Y21412500D02*
Y21730000D01*
X29668110Y21666500D01*
G01Y21412500D02*
X29762590D01*
G01X29955500Y21544780D02*
X29983070Y21581840D01*
X30006690Y21603000D01*
X30038190Y21613580D01*
X30065750Y21603000D01*
X30085430Y21581840D01*
X30101180Y21550080D01*
X30105120Y21513040D01*
X30101180Y21481290D01*
X30085430Y21449530D01*
X30061800Y21423080D01*
X30034250Y21412500D01*
X30002750Y21423080D01*
X29975190Y21454820D01*
X29959440Y21502460D01*
X29955500Y21555370D01*
X29963380Y21624160D01*
X29975190Y21661210D01*
X29994870Y21698250D01*
X30022430Y21724710D01*
X30049990Y21730000D01*
X30077550Y21719420D01*
X30097240Y21692960D01*
G01X28455510Y22682500D02*
X28424010Y22671920D01*
X28400390Y22645460D01*
X28384640Y22613710D01*
X28372830Y22571370D01*
X28368900Y22523750D01*
X28372830Y22476120D01*
X28384640Y22433790D01*
X28400390Y22402030D01*
X28424010Y22375580D01*
X28455510Y22365000D01*
X28487000Y22375580D01*
X28510630Y22402030D01*
X28526380Y22433790D01*
X28538190Y22476120D01*
X28542120Y22523750D01*
X28538190Y22571370D01*
X28526380Y22613710D01*
X28510630Y22645460D01*
X28487000Y22671920D01*
X28455510Y22682500D01*
G01X28770470Y22354420D02*
X28762590Y22359710D01*
Y22370290D01*
X28770470Y22375580D01*
X28778350Y22370290D01*
Y22359710D01*
X28770470Y22354420D01*
G01X29077550Y22365000D02*
X29085430Y22433790D01*
X29097240Y22491990D01*
X29112990Y22544920D01*
X29132670Y22603120D01*
X29164170Y22682500D01*
X29006690D01*
G01X29313780Y22412610D02*
X29337390Y22386160D01*
X29364950Y22370290D01*
X29400390Y22365000D01*
X29435830Y22375580D01*
X29463380Y22396740D01*
X29483070Y22433790D01*
X29487000Y22476120D01*
X29479130Y22518450D01*
X29459440Y22544920D01*
X29431880Y22566080D01*
X29404330Y22571370D01*
X29376770Y22566080D01*
X29341340Y22544920D01*
X29353150Y22682500D01*
X29459440D01*
G01X29715350D02*
X29683850Y22671920D01*
X29660230Y22645460D01*
X29644480Y22613710D01*
X29632670Y22571370D01*
X29628740Y22523750D01*
X29632670Y22476120D01*
X29644480Y22433790D01*
X29660230Y22402030D01*
X29683850Y22375580D01*
X29715350Y22365000D01*
X29746840Y22375580D01*
X29770470Y22402030D01*
X29786220Y22433790D01*
X29798030Y22476120D01*
X29801960Y22523750D01*
X29798030Y22571370D01*
X29786220Y22613710D01*
X29770470Y22645460D01*
X29746840Y22671920D01*
X29715350Y22682500D01*
G01X30030310Y22365000D02*
Y22682500D01*
X29983070Y22619000D01*
G01Y22365000D02*
X30077550D01*
G01X28455510Y23635000D02*
X28424010Y23624420D01*
X28400390Y23597960D01*
X28384640Y23566210D01*
X28372830Y23523870D01*
X28368900Y23476250D01*
X28372830Y23428620D01*
X28384640Y23386290D01*
X28400390Y23354530D01*
X28424010Y23328080D01*
X28455510Y23317500D01*
X28487000Y23328080D01*
X28510630Y23354530D01*
X28526380Y23386290D01*
X28538190Y23428620D01*
X28542120Y23476250D01*
X28538190Y23523870D01*
X28526380Y23566210D01*
X28510630Y23597960D01*
X28487000Y23624420D01*
X28455510Y23635000D01*
G01X28770470Y23306920D02*
X28762590Y23312210D01*
Y23322790D01*
X28770470Y23328080D01*
X28778350Y23322790D01*
Y23312210D01*
X28770470Y23306920D01*
G01X28998820Y23381000D02*
X29022430Y23343950D01*
X29053930Y23322790D01*
X29089370Y23317500D01*
X29120870Y23322790D01*
X29152360Y23349240D01*
X29172040Y23381000D01*
X29175980Y23412750D01*
X29168110Y23449780D01*
X29140550Y23476250D01*
X29112990Y23486840D01*
X29077550D01*
G01X29112990D02*
X29136610Y23502710D01*
X29156300Y23529160D01*
X29164170Y23560910D01*
X29156300Y23592670D01*
X29136610Y23619120D01*
X29101180Y23635000D01*
X29065750Y23629710D01*
X29030310Y23608540D01*
G01X29313780Y23381000D02*
X29337390Y23343950D01*
X29368890Y23322790D01*
X29404330Y23317500D01*
X29435830Y23322790D01*
X29467320Y23349240D01*
X29487000Y23381000D01*
X29490940Y23412750D01*
X29483070Y23449780D01*
X29455510Y23476250D01*
X29427950Y23486840D01*
X29392510D01*
G01X29427950D02*
X29451570Y23502710D01*
X29471260Y23529160D01*
X29479130Y23560910D01*
X29471260Y23592670D01*
X29451570Y23619120D01*
X29416140Y23635000D01*
X29380710Y23629710D01*
X29345270Y23608540D01*
G01X29715350Y23635000D02*
X29683850Y23624420D01*
X29660230Y23597960D01*
X29644480Y23566210D01*
X29632670Y23523870D01*
X29628740Y23476250D01*
X29632670Y23428620D01*
X29644480Y23386290D01*
X29660230Y23354530D01*
X29683850Y23328080D01*
X29715350Y23317500D01*
X29746840Y23328080D01*
X29770470Y23354530D01*
X29786220Y23386290D01*
X29798030Y23428620D01*
X29801960Y23476250D01*
X29798030Y23523870D01*
X29786220Y23566210D01*
X29770470Y23597960D01*
X29746840Y23624420D01*
X29715350Y23635000D01*
G01X29955500Y23582080D02*
X29979130Y23613830D01*
X30006690Y23629710D01*
X30038190Y23635000D01*
X30077550Y23624420D01*
X30105120Y23597960D01*
X30112990Y23566210D01*
X30109050Y23534450D01*
X30093300Y23508000D01*
X30014560Y23455080D01*
X29979130Y23418040D01*
X29955500Y23365110D01*
X29947630Y23317500D01*
X30112990D01*
G01X31801960Y24587500D02*
Y17285000D01*
G01X31908260Y17602500D02*
Y17920000D01*
X32089360Y17602500D01*
Y17920000D01*
G01X32313770Y17602500D02*
X32282270Y17607790D01*
X32254720Y17628950D01*
X32231090Y17660710D01*
X32215340Y17697750D01*
X32207470Y17740080D01*
Y17782420D01*
X32215340Y17824750D01*
X32231090Y17861790D01*
X32254720Y17893540D01*
X32282270Y17914710D01*
X32313770Y17920000D01*
X32345260Y17914710D01*
X32372820Y17893540D01*
X32396450Y17861790D01*
X32412200Y17824750D01*
X32420070Y17782420D01*
Y17740080D01*
X32412200Y17697750D01*
X32396450Y17660710D01*
X32372820Y17628950D01*
X32345260Y17607790D01*
X32313770Y17602500D01*
G01X32538180D02*
Y17920000D01*
X32719280Y17602500D01*
Y17920000D01*
G01X32892510Y17708330D02*
X32994870D01*
G01X33179910Y17602500D02*
Y17920000D01*
X33274400D01*
X33305890Y17904120D01*
X33329520Y17867080D01*
X33337390Y17824750D01*
X33329520Y17782420D01*
X33309830Y17750660D01*
X33274400Y17734780D01*
X33179910D01*
G01X33494870Y17920000D02*
Y17602500D01*
X33652350D01*
G01X33790140D02*
X33888570Y17920000D01*
X33987000Y17602500D01*
G01X33951560Y17713620D02*
X33825570D01*
G01X34203530Y17920000D02*
Y17602500D01*
G01X34112980Y17920000D02*
X34294080D01*
G01X34597230Y17602500D02*
X34439750D01*
Y17920000D01*
X34597230D01*
G01X34534240Y17766550D02*
X34439750D01*
G01X34746840Y17602500D02*
Y17920000D01*
X34825570D01*
X34857070Y17904120D01*
X34880690Y17882960D01*
X34900380Y17851210D01*
X34916130Y17814160D01*
X34920060Y17761250D01*
X34916130Y17708330D01*
X34900380Y17671290D01*
X34880690Y17639530D01*
X34857070Y17618370D01*
X34825570Y17602500D01*
X34746840D01*
G01X32549990Y18555000D02*
Y18872500D01*
X32644480D01*
X32675970Y18856620D01*
X32699600Y18819580D01*
X32707470Y18777250D01*
X32699600Y18734920D01*
X32679910Y18703160D01*
X32644480Y18687280D01*
X32549990D01*
G01X32864950Y18872500D02*
Y18555000D01*
X33022430D01*
G01X33160220D02*
X33258650Y18872500D01*
X33357080Y18555000D01*
G01X33321640Y18666120D02*
X33195650D01*
G01X33573610Y18872500D02*
Y18555000D01*
G01X33483060Y18872500D02*
X33664160D01*
G01X33967310Y18555000D02*
X33809830D01*
Y18872500D01*
X33967310D01*
G01X33904320Y18719050D02*
X33809830D01*
G01X34116920Y18555000D02*
Y18872500D01*
X34195650D01*
X34227150Y18856620D01*
X34250770Y18835460D01*
X34270460Y18803710D01*
X34286210Y18766660D01*
X34290140Y18713750D01*
X34286210Y18660830D01*
X34270460Y18623790D01*
X34250770Y18592030D01*
X34227150Y18570870D01*
X34195650Y18555000D01*
X34116920D01*
G01X32549990Y19507500D02*
Y19825000D01*
X32644480D01*
X32675970Y19809120D01*
X32699600Y19772080D01*
X32707470Y19729750D01*
X32699600Y19687420D01*
X32679910Y19655660D01*
X32644480Y19639780D01*
X32549990D01*
G01X32864950Y19825000D02*
Y19507500D01*
X33022430D01*
G01X33160220D02*
X33258650Y19825000D01*
X33357080Y19507500D01*
G01X33321640Y19618620D02*
X33195650D01*
G01X33573610Y19825000D02*
Y19507500D01*
G01X33483060Y19825000D02*
X33664160D01*
G01X33967310Y19507500D02*
X33809830D01*
Y19825000D01*
X33967310D01*
G01X33904320Y19671550D02*
X33809830D01*
G01X34116920Y19507500D02*
Y19825000D01*
X34195650D01*
X34227150Y19809120D01*
X34250770Y19787960D01*
X34270460Y19756210D01*
X34286210Y19719160D01*
X34290140Y19666250D01*
X34286210Y19613330D01*
X34270460Y19576290D01*
X34250770Y19544530D01*
X34227150Y19523370D01*
X34195650Y19507500D01*
X34116920D01*
G01X32549990Y20460000D02*
Y20777500D01*
X32644480D01*
X32675970Y20761620D01*
X32699600Y20724580D01*
X32707470Y20682250D01*
X32699600Y20639920D01*
X32679910Y20608160D01*
X32644480Y20592280D01*
X32549990D01*
G01X32864950Y20777500D02*
Y20460000D01*
X33022430D01*
G01X33160220D02*
X33258650Y20777500D01*
X33357080Y20460000D01*
G01X33321640Y20571120D02*
X33195650D01*
G01X33573610Y20777500D02*
Y20460000D01*
G01X33483060Y20777500D02*
X33664160D01*
G01X33967310Y20460000D02*
X33809830D01*
Y20777500D01*
X33967310D01*
G01X33904320Y20624050D02*
X33809830D01*
G01X34116920Y20460000D02*
Y20777500D01*
X34195650D01*
X34227150Y20761620D01*
X34250770Y20740460D01*
X34270460Y20708710D01*
X34286210Y20671660D01*
X34290140Y20618750D01*
X34286210Y20565830D01*
X34270460Y20528790D01*
X34250770Y20497030D01*
X34227150Y20475870D01*
X34195650Y20460000D01*
X34116920D01*
G01X32549990Y21412500D02*
Y21730000D01*
X32644480D01*
X32675970Y21714120D01*
X32699600Y21677080D01*
X32707470Y21634750D01*
X32699600Y21592420D01*
X32679910Y21560660D01*
X32644480Y21544780D01*
X32549990D01*
G01X32864950Y21730000D02*
Y21412500D01*
X33022430D01*
G01X33160220D02*
X33258650Y21730000D01*
X33357080Y21412500D01*
G01X33321640Y21523620D02*
X33195650D01*
G01X33573610Y21730000D02*
Y21412500D01*
G01X33483060Y21730000D02*
X33664160D01*
G01X33967310Y21412500D02*
X33809830D01*
Y21730000D01*
X33967310D01*
G01X33904320Y21576550D02*
X33809830D01*
G01X34116920Y21412500D02*
Y21730000D01*
X34195650D01*
X34227150Y21714120D01*
X34250770Y21692960D01*
X34270460Y21661210D01*
X34286210Y21624160D01*
X34290140Y21571250D01*
X34286210Y21518330D01*
X34270460Y21481290D01*
X34250770Y21449530D01*
X34227150Y21428370D01*
X34195650Y21412500D01*
X34116920D01*
G01X32549990Y22365000D02*
Y22682500D01*
X32644480D01*
X32675970Y22666620D01*
X32699600Y22629580D01*
X32707470Y22587250D01*
X32699600Y22544920D01*
X32679910Y22513160D01*
X32644480Y22497280D01*
X32549990D01*
G01X32864950Y22682500D02*
Y22365000D01*
X33022430D01*
G01X33160220D02*
X33258650Y22682500D01*
X33357080Y22365000D01*
G01X33321640Y22476120D02*
X33195650D01*
G01X33573610Y22682500D02*
Y22365000D01*
G01X33483060Y22682500D02*
X33664160D01*
G01X33967310Y22365000D02*
X33809830D01*
Y22682500D01*
X33967310D01*
G01X33904320Y22529050D02*
X33809830D01*
G01X34116920Y22365000D02*
Y22682500D01*
X34195650D01*
X34227150Y22666620D01*
X34250770Y22645460D01*
X34270460Y22613710D01*
X34286210Y22576660D01*
X34290140Y22523750D01*
X34286210Y22470830D01*
X34270460Y22433790D01*
X34250770Y22402030D01*
X34227150Y22380870D01*
X34195650Y22365000D01*
X34116920D01*
G01X32549990Y23317500D02*
Y23635000D01*
X32644480D01*
X32675970Y23619120D01*
X32699600Y23582080D01*
X32707470Y23539750D01*
X32699600Y23497420D01*
X32679910Y23465660D01*
X32644480Y23449780D01*
X32549990D01*
G01X32864950Y23635000D02*
Y23317500D01*
X33022430D01*
G01X33160220D02*
X33258650Y23635000D01*
X33357080Y23317500D01*
G01X33321640Y23428620D02*
X33195650D01*
G01X33573610Y23635000D02*
Y23317500D01*
G01X33483060Y23635000D02*
X33664160D01*
G01X33967310Y23317500D02*
X33809830D01*
Y23635000D01*
X33967310D01*
G01X33904320Y23481550D02*
X33809830D01*
G01X34116920Y23317500D02*
Y23635000D01*
X34195650D01*
X34227150Y23619120D01*
X34250770Y23597960D01*
X34270460Y23566210D01*
X34286210Y23529160D01*
X34290140Y23476250D01*
X34286210Y23423330D01*
X34270460Y23386290D01*
X34250770Y23354530D01*
X34227150Y23333370D01*
X34195650Y23317500D01*
X34116920D01*
G01X32549990Y24111250D02*
Y24428750D01*
X32644480D01*
X32675970Y24412870D01*
X32699600Y24375830D01*
X32707470Y24333500D01*
X32699600Y24291170D01*
X32679910Y24259410D01*
X32644480Y24243530D01*
X32549990D01*
G01X32864950Y24428750D02*
Y24111250D01*
X33022430D01*
G01X33160220D02*
X33258650Y24428750D01*
X33357080Y24111250D01*
G01X33321640Y24222370D02*
X33195650D01*
G01X33573610Y24428750D02*
Y24111250D01*
G01X33483060Y24428750D02*
X33664160D01*
G01X33967310Y24111250D02*
X33809830D01*
Y24428750D01*
X33967310D01*
G01X33904320Y24275300D02*
X33809830D01*
G01X34116920Y24111250D02*
Y24428750D01*
X34195650D01*
X34227150Y24412870D01*
X34250770Y24391710D01*
X34270460Y24359960D01*
X34286210Y24322910D01*
X34290140Y24270000D01*
X34286210Y24217080D01*
X34270460Y24180040D01*
X34250770Y24148280D01*
X34227150Y24127120D01*
X34195650Y24111250D01*
X34116920D01*
G01X35030300Y24587500D02*
Y17285000D01*
G01X35699590Y21412500D02*
Y21730000D01*
X35652350Y21666500D01*
G01Y21412500D02*
X35746830D01*
G01X36061790D02*
Y21730000D01*
X35916120Y21502460D01*
X36112980D01*
G01X36262580Y21449530D02*
X36290140Y21423080D01*
X36321630Y21412500D01*
X36353130Y21423080D01*
X36380690Y21454820D01*
X36400380Y21502460D01*
X36408250Y21550080D01*
Y21608290D01*
X36400380Y21655910D01*
X36380690Y21698250D01*
X36357070Y21719420D01*
X36329510Y21730000D01*
X36298010Y21719420D01*
X36274390Y21698250D01*
X36258640Y21666500D01*
X36250770Y21624160D01*
X36258640Y21587130D01*
X36278330Y21550080D01*
X36301950Y21528910D01*
X36329510Y21523620D01*
X36361000Y21534200D01*
X36384630Y21560660D01*
X36408250Y21608290D01*
G01X35542110Y23317500D02*
Y23635000D01*
X35494870Y23571500D01*
G01Y23317500D02*
X35589350D01*
G01X35790140Y23354530D02*
X35817700Y23328080D01*
X35849190Y23317500D01*
X35880690Y23328080D01*
X35908250Y23359820D01*
X35927940Y23407460D01*
X35935810Y23455080D01*
Y23513290D01*
X35927940Y23560910D01*
X35908250Y23603250D01*
X35884630Y23624420D01*
X35857070Y23635000D01*
X35825570Y23624420D01*
X35801950Y23603250D01*
X35786200Y23571500D01*
X35778330Y23529160D01*
X35786200Y23492130D01*
X35805890Y23455080D01*
X35829510Y23433910D01*
X35857070Y23428620D01*
X35888560Y23439200D01*
X35912190Y23465660D01*
X35935810Y23513290D01*
G01X36097220Y23449780D02*
X36124790Y23486840D01*
X36148410Y23508000D01*
X36179910Y23518580D01*
X36207470Y23508000D01*
X36227150Y23486840D01*
X36242900Y23455080D01*
X36246840Y23418040D01*
X36242900Y23386290D01*
X36227150Y23354530D01*
X36203520Y23328080D01*
X36175970Y23317500D01*
X36144470Y23328080D01*
X36116910Y23359820D01*
X36101160Y23407460D01*
X36097220Y23460370D01*
X36105100Y23529160D01*
X36116910Y23566210D01*
X36136590Y23603250D01*
X36164150Y23629710D01*
X36191710Y23635000D01*
X36219270Y23624420D01*
X36238960Y23597960D01*
G01X36412180Y23449780D02*
X36439750Y23486840D01*
X36463370Y23508000D01*
X36494870Y23518580D01*
X36522430Y23508000D01*
X36542110Y23486840D01*
X36557860Y23455080D01*
X36561800Y23418040D01*
X36557860Y23386290D01*
X36542110Y23354530D01*
X36518480Y23328080D01*
X36490930Y23317500D01*
X36459430Y23328080D01*
X36431870Y23359820D01*
X36416120Y23407460D01*
X36412180Y23460370D01*
X36420060Y23529160D01*
X36431870Y23566210D01*
X36451550Y23603250D01*
X36479110Y23629710D01*
X36506670Y23635000D01*
X36534230Y23624420D01*
X36553920Y23597960D01*
G01X35699590Y24111250D02*
X35668090Y24116540D01*
X35640540Y24137700D01*
X35616910Y24169460D01*
X35601160Y24206500D01*
X35593290Y24248830D01*
Y24291170D01*
X35601160Y24333500D01*
X35616910Y24370540D01*
X35640540Y24402290D01*
X35668090Y24423460D01*
X35699590Y24428750D01*
X35731080Y24423460D01*
X35758640Y24402290D01*
X35782270Y24370540D01*
X35798020Y24333500D01*
X35805890Y24291170D01*
Y24248830D01*
X35798020Y24206500D01*
X35782270Y24169460D01*
X35758640Y24137700D01*
X35731080Y24116540D01*
X35699590Y24111250D01*
G01X35731080Y24195920D02*
X35778330Y24111250D01*
G01X36014550Y24428750D02*
Y24111250D01*
G01X35924000Y24428750D02*
X36105100D01*
G01X36329510Y24111250D02*
Y24254120D01*
X36250770Y24428750D01*
G01X36408250D02*
X36329510Y24254120D01*
G01X35857070Y17602500D02*
Y17920000D01*
X35809830Y17856500D01*
G01Y17602500D02*
X35904310D01*
G01X36164150D02*
X36172030Y17671290D01*
X36183840Y17729490D01*
X36199590Y17782420D01*
X36219270Y17840620D01*
X36250770Y17920000D01*
X36093290D01*
G01X36014550Y18555000D02*
X36042110Y18560290D01*
X36073600Y18576160D01*
X36093290Y18602610D01*
X36101160Y18639670D01*
X36093290Y18676700D01*
X36069670Y18708450D01*
X36034230Y18724340D01*
X35994870D01*
X35971240Y18734920D01*
X35951550Y18761370D01*
X35943680Y18798410D01*
X35955500Y18835460D01*
X35983050Y18861920D01*
X36014550Y18872500D01*
X36046040Y18861920D01*
X36073600Y18835460D01*
X36085420Y18798410D01*
X36077540Y18761370D01*
X36057860Y18734920D01*
X36034230Y18724340D01*
X35994870D01*
X35959430Y18708450D01*
X35935810Y18676700D01*
X35927940Y18639670D01*
X35935810Y18602610D01*
X35955500Y18576160D01*
X35986990Y18560290D01*
X36014550Y18555000D01*
G01X35770460Y19571000D02*
X35794070Y19533950D01*
X35825570Y19512790D01*
X35861010Y19507500D01*
X35892510Y19512790D01*
X35924000Y19539240D01*
X35943680Y19571000D01*
X35947620Y19602750D01*
X35939750Y19639780D01*
X35912190Y19666250D01*
X35884630Y19676840D01*
X35849190D01*
G01X35884630D02*
X35908250Y19692710D01*
X35927940Y19719160D01*
X35935810Y19750910D01*
X35927940Y19782670D01*
X35908250Y19809120D01*
X35872820Y19825000D01*
X35837390Y19819710D01*
X35801950Y19798540D01*
G01X36097220Y19772080D02*
X36120850Y19803830D01*
X36148410Y19819710D01*
X36179910Y19825000D01*
X36219270Y19814420D01*
X36246840Y19787960D01*
X36254710Y19756210D01*
X36250770Y19724450D01*
X36235020Y19698000D01*
X36156280Y19645080D01*
X36120850Y19608040D01*
X36097220Y19555110D01*
X36089350Y19507500D01*
X36254710D01*
G01X35782260Y20724580D02*
X35805890Y20756330D01*
X35833450Y20772210D01*
X35864950Y20777500D01*
X35904310Y20766920D01*
X35931880Y20740460D01*
X35939750Y20708710D01*
X35935810Y20676950D01*
X35920060Y20650500D01*
X35841320Y20597580D01*
X35805890Y20560540D01*
X35782260Y20507610D01*
X35774390Y20460000D01*
X35939750D01*
G01X36219270D02*
Y20777500D01*
X36073600Y20549960D01*
X36270460D01*
G01X35790140Y22402030D02*
X35817700Y22375580D01*
X35849190Y22365000D01*
X35880690Y22375580D01*
X35908250Y22407320D01*
X35927940Y22454960D01*
X35935810Y22502580D01*
Y22560790D01*
X35927940Y22608410D01*
X35908250Y22650750D01*
X35884630Y22671920D01*
X35857070Y22682500D01*
X35825570Y22671920D01*
X35801950Y22650750D01*
X35786200Y22619000D01*
X35778330Y22576660D01*
X35786200Y22539630D01*
X35805890Y22502580D01*
X35829510Y22481410D01*
X35857070Y22476120D01*
X35888560Y22486700D01*
X35912190Y22513160D01*
X35935810Y22560790D01*
G01X36097220Y22497280D02*
X36124790Y22534340D01*
X36148410Y22555500D01*
X36179910Y22566080D01*
X36207470Y22555500D01*
X36227150Y22534340D01*
X36242900Y22502580D01*
X36246840Y22465540D01*
X36242900Y22433790D01*
X36227150Y22402030D01*
X36203520Y22375580D01*
X36175970Y22365000D01*
X36144470Y22375580D01*
X36116910Y22407320D01*
X36101160Y22454960D01*
X36097220Y22507870D01*
X36105100Y22576660D01*
X36116910Y22613710D01*
X36136590Y22650750D01*
X36164150Y22677210D01*
X36191710Y22682500D01*
X36219270Y22671920D01*
X36238960Y22645460D01*
M02*
