ISO-10303-21;
HEADER;
FILE_DESCRIPTION (( 'STEP AP214' ),
    '1' );
FILE_NAME ('P0603Y3122BNT.STEP',
    '2024-03-15T08:01:46',
    ( '' ),
    ( '' ),
    'SwSTEP 2.0',
    'SolidWorks 2022',
    '' );
FILE_SCHEMA (( 'AUTOMOTIVE_DESIGN' ));
ENDSEC;

DATA;
#1 = ADVANCED_FACE ( 'NONE', ( #334 ), #614, .T. ) ;
#2 = LINE ( 'NONE', #253, #609 ) ;
#3 =( NAMED_UNIT ( * ) PLANE_ANGLE_UNIT ( ) SI_UNIT ( $, .RADIAN. ) );
#4 = VECTOR ( 'NONE', #227, 1000.000000000000000 ) ;
#5 = ORIENTED_EDGE ( 'NONE', *, *, #223, .T. ) ;
#6 =( NAMED_UNIT ( * ) PLANE_ANGLE_UNIT ( ) SI_UNIT ( $, .RADIAN. ) );
#7 = CARTESIAN_POINT ( 'NONE',  ( 0.3750000000000000000, 0.8499999999999999778, -0.005000000000000006176 ) ) ;
#8 = STYLED_ITEM ( 'NONE', ( #279 ), #518 ) ;
#9 = EDGE_CURVE ( 'NONE', #1008, #674, #523, .T. ) ;
#10 = COLOUR_RGB ( '',0.8431372549019607865, 0.8431372549019607865, 0.8431372549019607865 ) ;
#11 = ORIENTED_EDGE ( 'NONE', *, *, #654, .F. ) ;
#12 = CARTESIAN_POINT ( 'NONE',  ( 1.135000000000000009, 0.8499999999999999778, 0.4899999999999999911 ) ) ;
#13 = PLANE ( 'NONE',  #309 ) ;
#14 = ORIENTED_EDGE ( 'NONE', *, *, #821, .T. ) ;
#15 = ORIENTED_EDGE ( 'NONE', *, *, #362, .F. ) ;
#16 = UNCERTAINTY_MEASURE_WITH_UNIT (LENGTH_MEASURE( 1.000000000000000082E-05 ), #686, 'distance_accuracy_value', 'NONE');
#17 =( NAMED_UNIT ( * ) PLANE_ANGLE_UNIT ( ) SI_UNIT ( $, .RADIAN. ) );
#18 = APPLICATION_PROTOCOL_DEFINITION ( 'draft international standard', 'automotive_design', 1998, #102 ) ;
#19 = DIRECTION ( 'NONE',  ( 0.000000000000000000, 0.000000000000000000, -1.000000000000000000 ) ) ;
#20 = FILL_AREA_STYLE ('',( #516 ) ) ;
#21 =( GEOMETRIC_REPRESENTATION_CONTEXT ( 3 ) GLOBAL_UNCERTAINTY_ASSIGNED_CONTEXT ( ( #933 ) ) GLOBAL_UNIT_ASSIGNED_CONTEXT ( ( #710, #783, #123 ) ) REPRESENTATION_CONTEXT ( 'NONE', 'WORKASPACE' ) );
#22 = SURFACE_SIDE_STYLE ('',( #680 ) ) ;
#23 = MECHANICAL_DESIGN_GEOMETRIC_PRESENTATION_REPRESENTATION (  '', ( #326 ), #1063 ) ;
#24 = AXIS2_PLACEMENT_3D ( 'NONE', #1024, #338, #104 ) ;
#25 = VECTOR ( 'NONE', #198, 1000.000000000000000 ) ;
#26 = FACE_OUTER_BOUND ( 'NONE', #112, .T. ) ;
#27 =( LENGTH_UNIT ( ) NAMED_UNIT ( * ) SI_UNIT ( .MILLI., .METRE. ) );
#28 = LINE ( 'NONE', #721, #803 ) ;
#29 = ORIENTED_EDGE ( 'NONE', *, *, #42, .F. ) ;
#30 =( LENGTH_UNIT ( ) NAMED_UNIT ( * ) SI_UNIT ( .MILLI., .METRE. ) );
#31 = SURFACE_STYLE_USAGE ( .BOTH. , #281 ) ;
#32 = PRESENTATION_STYLE_ASSIGNMENT (( #38 ) ) ;
#33 = PRESENTATION_STYLE_ASSIGNMENT (( #536 ) ) ;
#34 = EDGE_CURVE ( 'NONE', #272, #815, #678, .T. ) ;
#35 = ORIENTED_EDGE ( 'NONE', *, *, #210, .T. ) ;
#36 = PRESENTATION_STYLE_ASSIGNMENT (( #968 ) ) ;
#37 = EDGE_CURVE ( 'NONE', #138, #748, #1013, .T. ) ;
#38 = SURFACE_STYLE_USAGE ( .BOTH. , #704 ) ;
#39 =( LENGTH_UNIT ( ) NAMED_UNIT ( * ) SI_UNIT ( .MILLI., .METRE. ) );
#40 = CARTESIAN_POINT ( 'NONE',  ( -0.006000000000000009666, 0.000000000000000000, -0.005000000000000013115 ) ) ;
#41 = ORIENTED_EDGE ( 'NONE', *, *, #617, .T. ) ;
#42 = EDGE_CURVE ( 'NONE', #674, #637, #101, .T. ) ;
#43 = AXIS2_PLACEMENT_3D ( 'NONE', #276, #716, #973 ) ;
#44 = VECTOR ( 'NONE', #71, 1000.000000000000000 ) ;
#45 = CARTESIAN_POINT ( 'NONE',  ( 0.000000000000000000, 0.8499999999999999778, 0.4899999999999999911 ) ) ;
#46 = STYLED_ITEM ( 'NONE', ( #851 ), #514 ) ;
#47 =( GEOMETRIC_REPRESENTATION_CONTEXT ( 3 ) GLOBAL_UNCERTAINTY_ASSIGNED_CONTEXT ( ( #100 ) ) GLOBAL_UNIT_ASSIGNED_CONTEXT ( ( #403, #838, #652 ) ) REPRESENTATION_CONTEXT ( 'NONE', 'WORKASPACE' ) );
#48 = DIRECTION ( 'NONE',  ( 1.000000000000000000, 0.000000000000000000, -0.000000000000000000 ) ) ;
#49 =( GEOMETRIC_REPRESENTATION_CONTEXT ( 3 ) GLOBAL_UNCERTAINTY_ASSIGNED_CONTEXT ( ( #865 ) ) GLOBAL_UNIT_ASSIGNED_CONTEXT ( ( #333, #3, #254 ) ) REPRESENTATION_CONTEXT ( 'NONE', 'WORKASPACE' ) );
#50 = ORIENTED_EDGE ( 'NONE', *, *, #872, .T. ) ;
#51 = DIRECTION ( 'NONE',  ( -0.000000000000000000, 1.000000000000000000, 0.000000000000000000 ) ) ;
#52 = EDGE_CURVE ( 'NONE', #491, #423, #928, .T. ) ;
#53 = CARTESIAN_POINT ( 'NONE',  ( 1.510000000000000009, -0.0009999999999998690492, 0.000000000000000000 ) ) ;
#54 = EDGE_LOOP ( 'NONE', ( #346, #657, #553, #829 ) ) ;
#55 = FACE_OUTER_BOUND ( 'NONE', #737, .T. ) ;
#56 = DIRECTION ( 'NONE',  ( -1.000000000000000000, -0.000000000000000000, 0.000000000000000000 ) ) ;
#57 = EDGE_CURVE ( 'NONE', #957, #528, #172, .T. ) ;
#58 = VERTEX_POINT ( 'NONE', #381 ) ;
#59 = CLOSED_SHELL ( 'NONE', ( #234, #1040, #473, #117, #514, #479, #399, #1, #743, #627 ) ) ;
#60 = AXIS2_PLACEMENT_3D ( 'NONE', #653, #904, #924 ) ;
#61 = FACE_OUTER_BOUND ( 'NONE', #577, .T. ) ;
#62 = LINE ( 'NONE', #564, #842 ) ;
#63 = AXIS2_PLACEMENT_3D ( 'NONE', #943, #349, #344 ) ;
#64 = ORIENTED_EDGE ( 'NONE', *, *, #864, .T. ) ;
#65 = CARTESIAN_POINT ( 'NONE',  ( -0.001000000000000000021, 0.8499999999999999778, 0.2449999999999999956 ) ) ;
#66 = LINE ( 'NONE', #1075, #978 ) ;
#67 = SURFACE_STYLE_FILL_AREA ( #905 ) ;
#68 = DIRECTION ( 'NONE',  ( -0.000000000000000000, -1.000000000000000000, -0.000000000000000000 ) ) ;
#69 = EDGE_LOOP ( 'NONE', ( #450, #35, #364, #383 ) ) ;
#70 = SURFACE_STYLE_USAGE ( .BOTH. , #738 ) ;
#71 = DIRECTION ( 'NONE',  ( -0.000000000000000000, -1.000000000000000000, -0.000000000000000000 ) ) ;
#72 = CARTESIAN_POINT ( 'NONE',  ( 1.516000000000000014, 1.336708521648689908E-16, 0.2449999999999999956 ) ) ;
#73 = CARTESIAN_POINT ( 'NONE',  ( -0.005000000000000000104, 0.8499999999999999778, 0.2449999999999999956 ) ) ;
#74 = VERTEX_POINT ( 'NONE', #706 ) ;
#75 = FILL_AREA_STYLE ('',( #492 ) ) ;
#76 = SURFACE_SIDE_STYLE ('',( #252 ) ) ;
#77 = PRESENTATION_STYLE_ASSIGNMENT (( #1001 ) ) ;
#78 = CARTESIAN_POINT ( 'NONE',  ( 0.3750000000000000000, 0.8499999999999999778, -3.176373552203626272E-19 ) ) ;
#79 = MECHANICAL_DESIGN_GEOMETRIC_PRESENTATION_REPRESENTATION (  '', ( #411 ), #47 ) ;
#80 = CARTESIAN_POINT ( 'NONE',  ( 0.1875000000000000000, -0.001000000000000000021, 0.4899999999999999911 ) ) ;
#81 = LINE ( 'NONE', #335, #755 ) ;
#82 = COLOUR_RGB ( '',0.8431372549019607865, 0.8431372549019607865, 0.8431372549019607865 ) ;
#83 = CARTESIAN_POINT ( 'NONE',  ( -0.006000000000000009666, 0.000000000000000000, 0.2449999999999999956 ) ) ;
#84 = EDGE_CURVE ( 'NONE', #751, #397, #638, .T. ) ;
#85 = EDGE_LOOP ( 'NONE', ( #793, #387, #251, #949 ) ) ;
#86 = CARTESIAN_POINT ( 'NONE',  ( 1.510000000000000009, 1.310063169057686374E-16, 0.2449999999999999956 ) ) ;
#87 = UNCERTAINTY_MEASURE_WITH_UNIT (LENGTH_MEASURE( 1.000000000000000082E-05 ), #664, 'distance_accuracy_value', 'NONE');
#88 = PRESENTATION_STYLE_ASSIGNMENT (( #1010 ) ) ;
#89 =( NAMED_UNIT ( * ) PLANE_ANGLE_UNIT ( ) SI_UNIT ( $, .RADIAN. ) );
#90 = CARTESIAN_POINT ( 'NONE',  ( 0.000000000000000000, 0.000000000000000000, 0.4899999999999999911 ) ) ;
#91 = FILL_AREA_STYLE ('',( #769 ) ) ;
#92 = LINE ( 'NONE', #844, #820 ) ;
#93 = DIRECTION ( 'NONE',  ( 0.000000000000000000, 0.000000000000000000, 1.000000000000000000 ) ) ;
#94 = VECTOR ( 'NONE', #779, 1000.000000000000000 ) ;
#95 = COLOUR_RGB ( '',0.8431372549019607865, 0.8431372549019607865, 0.8431372549019607865 ) ;
#96 = SURFACE_STYLE_FILL_AREA ( #858 ) ;
#97 = AXIS2_PLACEMENT_3D ( 'NONE', #222, #982, #718 ) ;
#98 =( GEOMETRIC_REPRESENTATION_CONTEXT ( 3 ) GLOBAL_UNCERTAINTY_ASSIGNED_CONTEXT ( ( #352 ) ) GLOBAL_UNIT_ASSIGNED_CONTEXT ( ( #929, #846, #1028 ) ) REPRESENTATION_CONTEXT ( 'NONE', 'WORKASPACE' ) );
#99 = COLOUR_RGB ( '',0.7921568627450980005, 0.8196078431372548767, 0.9333333333333333481 ) ;
#100 = UNCERTAINTY_MEASURE_WITH_UNIT (LENGTH_MEASURE( 1.000000000000000082E-05 ), #403, 'distance_accuracy_value', 'NONE');
#101 = LINE ( 'NONE', #936, #608 ) ;
#102 = APPLICATION_CONTEXT ( 'automotive_design' ) ;
#103 = ORIENTED_EDGE ( 'NONE', *, *, #318, .F. ) ;
#104 = DIRECTION ( 'NONE',  ( 0.000000000000000000, -0.000000000000000000, 1.000000000000000000 ) ) ;
#105 = ADVANCED_FACE ( 'NONE', ( #958 ), #1038, .T. ) ;
#106 = PRESENTATION_STYLE_ASSIGNMENT (( #456 ) ) ;
#107 = PLANE ( 'NONE',  #63 ) ;
#108 = ORIENTED_EDGE ( 'NONE', *, *, #628, .T. ) ;
#109 = PRODUCT_DEFINITION ( 'UNKNOWN', '', #174, #158 ) ;
#110 = CARTESIAN_POINT ( 'NONE',  ( -0.005000000000000002706, 0.8499999999999999778, 0.4949999999999999956 ) ) ;
#111 = PLANE ( 'NONE',  #155 ) ;
#112 = EDGE_LOOP ( 'NONE', ( #942, #903, #196, #773 ) ) ;
#113 =( NAMED_UNIT ( * ) PLANE_ANGLE_UNIT ( ) SI_UNIT ( $, .RADIAN. ) );
#114 = VECTOR ( 'NONE', #763, 1000.000000000000000 ) ;
#115 = MECHANICAL_DESIGN_GEOMETRIC_PRESENTATION_REPRESENTATION (  '', ( #687 ), #49 ) ;
#116 =( LENGTH_UNIT ( ) NAMED_UNIT ( * ) SI_UNIT ( .MILLI., .METRE. ) );
#117 = ADVANCED_FACE ( 'NONE', ( #203 ), #1042, .T. ) ;
#118 = CARTESIAN_POINT ( 'NONE',  ( 1.514999999999999902, 3.473605883724634529E-17, 0.4949999999999999956 ) ) ;
#119 = VERTEX_POINT ( 'NONE', #118 ) ;
#120 =( NAMED_UNIT ( * ) SI_UNIT ( $, .STERADIAN. ) SOLID_ANGLE_UNIT ( ) );
#121 = LINE ( 'NONE', #781, #1015 ) ;
#122 = DIRECTION ( 'NONE',  ( 1.000000000000000000, 0.000000000000000000, 0.000000000000000000 ) ) ;
#123 =( NAMED_UNIT ( * ) SI_UNIT ( $, .STERADIAN. ) SOLID_ANGLE_UNIT ( ) );
#124 = CARTESIAN_POINT ( 'NONE',  ( 0.7550000000000000044, -0.001000000000000000021, 0.4899999999999999911 ) ) ;
#125 = EDGE_CURVE ( 'NONE', #181, #491, #1046, .T. ) ;
#126 = ORIENTED_EDGE ( 'NONE', *, *, #263, .T. ) ;
#127 = PLANE ( 'NONE',  #1083 ) ;
#128 = DIRECTION ( 'NONE',  ( 0.000000000000000000, 0.000000000000000000, -1.000000000000000000 ) ) ;
#129 = DIRECTION ( 'NONE',  ( -0.000000000000000000, 0.000000000000000000, 1.000000000000000000 ) ) ;
#130 = PRESENTATION_STYLE_ASSIGNMENT (( #636 ) ) ;
#131 = EDGE_LOOP ( 'NONE', ( #480, #967, #143, #156 ) ) ;
#132 = SURFACE_STYLE_FILL_AREA ( #889 ) ;
#133 = COLOUR_RGB ( '',0.8431372549019607865, 0.8431372549019607865, 0.8431372549019607865 ) ;
#134 = VECTOR ( 'NONE', #1085, 1000.000000000000000 ) ;
#135 =( GEOMETRIC_REPRESENTATION_CONTEXT ( 3 ) GLOBAL_UNCERTAINTY_ASSIGNED_CONTEXT ( ( #776 ) ) GLOBAL_UNIT_ASSIGNED_CONTEXT ( ( #265, #6, #594 ) ) REPRESENTATION_CONTEXT ( 'NONE', 'WORKASPACE' ) );
#136 = COLOUR_RGB ( '',0.8431372549019607865, 0.8431372549019607865, 0.8431372549019607865 ) ;
#137 = DIRECTION ( 'NONE',  ( 0.000000000000000000, 1.000000000000000000, 0.000000000000000000 ) ) ;
#138 = VERTEX_POINT ( 'NONE', #727 ) ;
#139 =( NAMED_UNIT ( * ) SI_UNIT ( $, .STERADIAN. ) SOLID_ANGLE_UNIT ( ) );
#140 = EDGE_CURVE ( 'NONE', #1008, #634, #299, .T. ) ;
#141 = MANIFOLD_SOLID_BREP ( 'Solide3', #409 ) ;
#142 = LINE ( 'NONE', #159, #630 ) ;
#143 = ORIENTED_EDGE ( 'NONE', *, *, #1018, .T. ) ;
#144 = DIRECTION ( 'NONE',  ( -1.000000000000000000, -0.000000000000000000, -0.000000000000000000 ) ) ;
#145 = DIRECTION ( 'NONE',  ( -1.000000000000000000, 0.000000000000000000, 0.000000000000000000 ) ) ;
#146 = DIRECTION ( 'NONE',  ( -0.000000000000000000, 0.000000000000000000, 1.000000000000000000 ) ) ;
#147 = VERTEX_POINT ( 'NONE', #874 ) ;
#148 = PLANE ( 'NONE',  #1036 ) ;
#149 = FILL_AREA_STYLE ('',( #488 ) ) ;
#150 = PRESENTATION_LAYER_ASSIGNMENT (  '', '', ( #465 ) ) ;
#151 = VECTOR ( 'NONE', #202, 1000.000000000000000 ) ;
#152 = MECHANICAL_DESIGN_GEOMETRIC_PRESENTATION_REPRESENTATION (  '', ( #46 ), #342 ) ;
#153 = PLANE ( 'NONE',  #787 ) ;
#154 = CARTESIAN_POINT ( 'NONE',  ( 1.510000000000000009, -0.001000000000000000021, 0.000000000000000000 ) ) ;
#155 = AXIS2_PLACEMENT_3D ( 'NONE', #124, #448, #283 ) ;
#156 = ORIENTED_EDGE ( 'NONE', *, *, #697, .T. ) ;
#157 = CARTESIAN_POINT ( 'NONE',  ( 1.514999999999999902, -0.0009999999999998670976, 0.4949999999999999956 ) ) ;
#158 = PRODUCT_DEFINITION_CONTEXT ( 'detailed design', #102, 'design' ) ;
#159 = CARTESIAN_POINT ( 'NONE',  ( 1.135000000000000009, -0.0009999999999999549180, 0.4899999999999999911 ) ) ;
#160 = CARTESIAN_POINT ( 'NONE',  ( -0.005000000000000000104, -0.001000000000000000021, 0.4949999999999999956 ) ) ;
#161 = ORIENTED_EDGE ( 'NONE', *, *, #792, .F. ) ;
#162 = DIRECTION ( 'NONE',  ( 1.000000000000000000, 0.000000000000000000, -0.000000000000000000 ) ) ;
#163 = EDGE_CURVE ( 'NONE', #74, #957, #28, .T. ) ;
#164 =( LENGTH_UNIT ( ) NAMED_UNIT ( * ) SI_UNIT ( .MILLI., .METRE. ) );
#165 = ORIENTED_EDGE ( 'NONE', *, *, #277, .F. ) ;
#166 = CARTESIAN_POINT ( 'NONE',  ( 0.000000000000000000, 0.000000000000000000, 0.4899999999999999911 ) ) ;
#167 = EDGE_CURVE ( 'NONE', #343, #272, #235, .T. ) ;
#168 = DIRECTION ( 'NONE',  ( 0.000000000000000000, 0.000000000000000000, 1.000000000000000000 ) ) ;
#169 = DIRECTION ( 'NONE',  ( -1.000000000000000000, 0.000000000000000000, -0.000000000000000000 ) ) ;
#170 = VECTOR ( 'NONE', #585, 1000.000000000000000 ) ;
#171 = STYLED_ITEM ( 'NONE', ( #36 ), #573 ) ;
#172 = LINE ( 'NONE', #506, #837 ) ;
#173 = DIRECTION ( 'NONE',  ( 0.000000000000000000, 1.000000000000000000, 0.000000000000000000 ) ) ;
#174 = PRODUCT_DEFINITION_FORMATION_WITH_SPECIFIED_SOURCE ( 'ANY', '', #984, .NOT_KNOWN. ) ;
#175 =( NAMED_UNIT ( * ) SI_UNIT ( $, .STERADIAN. ) SOLID_ANGLE_UNIT ( ) );
#176 = CARTESIAN_POINT ( 'NONE',  ( 0.000000000000000000, 0.8499999999999999778, 0.2449999999999999956 ) ) ;
#177 =( LENGTH_UNIT ( ) NAMED_UNIT ( * ) SI_UNIT ( .MILLI., .METRE. ) );
#178 = ORIENTED_EDGE ( 'NONE', *, *, #210, .F. ) ;
#179 = CARTESIAN_POINT ( 'NONE',  ( 0.3750000000000000000, 0.8499999999999999778, 0.2449999999999999956 ) ) ;
#180 = DIRECTION ( 'NONE',  ( 0.000000000000000000, -0.000000000000000000, -1.000000000000000000 ) ) ;
#181 = VERTEX_POINT ( 'NONE', #328 ) ;
#182 =( LENGTH_UNIT ( ) NAMED_UNIT ( * ) SI_UNIT ( .MILLI., .METRE. ) );
#183 =( LENGTH_UNIT ( ) NAMED_UNIT ( * ) SI_UNIT ( .MILLI., .METRE. ) );
#184 = MECHANICAL_DESIGN_GEOMETRIC_PRESENTATION_REPRESENTATION (  '', ( #587 ), #268 ) ;
#185 = MECHANICAL_DESIGN_GEOMETRIC_PRESENTATION_REPRESENTATION (  '', ( #445 ), #21 ) ;
#186 = DIRECTION ( 'NONE',  ( 0.000000000000000000, 0.000000000000000000, -1.000000000000000000 ) ) ;
#187 = FILL_AREA_STYLE ('',( #354 ) ) ;
#188 = VECTOR ( 'NONE', #1044, 1000.000000000000000 ) ;
#189 =( NAMED_UNIT ( * ) PLANE_ANGLE_UNIT ( ) SI_UNIT ( $, .RADIAN. ) );
#190 = COLOUR_RGB ( '',0.8431372549019607865, 0.8431372549019607865, 0.8431372549019607865 ) ;
#191 = VECTOR ( 'NONE', #259, 1000.000000000000000 ) ;
#192 = UNCERTAINTY_MEASURE_WITH_UNIT (LENGTH_MEASURE( 1.000000000000000082E-05 ), #183, 'distance_accuracy_value', 'NONE');
#193 = LINE ( 'NONE', #831, #44 ) ;
#194 = FACE_OUTER_BOUND ( 'NONE', #54, .T. ) ;
#195 = FACE_OUTER_BOUND ( 'NONE', #455, .T. ) ;
#196 = ORIENTED_EDGE ( 'NONE', *, *, #57, .F. ) ;
#197 =( NAMED_UNIT ( * ) PLANE_ANGLE_UNIT ( ) SI_UNIT ( $, .RADIAN. ) );
#198 = DIRECTION ( 'NONE',  ( -1.000000000000000000, -4.440892098500630106E-16, -0.000000000000000000 ) ) ;
#199 = VERTEX_POINT ( 'NONE', #897 ) ;
#200 = ADVANCED_FACE ( 'NONE', ( #730 ), #153, .T. ) ;
#201 = EDGE_CURVE ( 'NONE', #397, #138, #310, .T. ) ;
#202 = DIRECTION ( 'NONE',  ( -1.000000000000000000, 0.000000000000000000, -0.000000000000000000 ) ) ;
#203 = FACE_OUTER_BOUND ( 'NONE', #1056, .T. ) ;
#204 = VECTOR ( 'NONE', #818, 1000.000000000000000 ) ;
#205 = ORIENTED_EDGE ( 'NONE', *, *, #34, .T. ) ;
#206 = FILL_AREA_STYLE_COLOUR ( '', #771 ) ;
#207 = VECTOR ( 'NONE', #496, 1000.000000000000000 ) ;
#208 = PRESENTATION_LAYER_ASSIGNMENT (  '', '', ( #687 ) ) ;
#209 = SURFACE_SIDE_STYLE ('',( #719 ) ) ;
#210 = EDGE_CURVE ( 'NONE', #58, #343, #142, .T. ) ;
#211 = DIRECTION ( 'NONE',  ( -0.000000000000000000, 0.000000000000000000, -1.000000000000000000 ) ) ;
#212 =( NAMED_UNIT ( * ) PLANE_ANGLE_UNIT ( ) SI_UNIT ( $, .RADIAN. ) );
#213 = EDGE_LOOP ( 'NONE', ( #713, #605, #291, #370 ) ) ;
#214 = FACE_OUTER_BOUND ( 'NONE', #1029, .T. ) ;
#215 =( NAMED_UNIT ( * ) PLANE_ANGLE_UNIT ( ) SI_UNIT ( $, .RADIAN. ) );
#216 = SURFACE_SIDE_STYLE ('',( #375 ) ) ;
#217 = SURFACE_STYLE_USAGE ( .BOTH. , #297 ) ;
#218 = EDGE_LOOP ( 'NONE', ( #981, #679, #882, #975 ) ) ;
#219 = DIRECTION ( 'NONE',  ( 1.000000000000000000, 0.000000000000000000, -0.000000000000000000 ) ) ;
#220 = DIRECTION ( 'NONE',  ( -0.000000000000000000, -0.000000000000000000, 1.000000000000000000 ) ) ;
#221 = ORIENTED_EDGE ( 'NONE', *, *, #992, .F. ) ;
#222 = CARTESIAN_POINT ( 'NONE',  ( 1.324999999999999956, -0.0009999999999999770357, 0.4949999999999999956 ) ) ;
#223 = EDGE_CURVE ( 'NONE', #623, #1084, #746, .T. ) ;
#224 = VECTOR ( 'NONE', #504, 1000.000000000000000 ) ;
#225 = VECTOR ( 'NONE', #144, 1000.000000000000000 ) ;
#226 = MECHANICAL_DESIGN_GEOMETRIC_PRESENTATION_REPRESENTATION (  '', ( #705 ), #931 ) ;
#227 = DIRECTION ( 'NONE',  ( 0.000000000000000000, -0.000000000000000000, 1.000000000000000000 ) ) ;
#228 = PLANE ( 'NONE',  #329 ) ;
#229 = ORIENTED_EDGE ( 'NONE', *, *, #901, .F. ) ;
#230 = DIRECTION ( 'NONE',  ( -1.000000000000000000, 0.000000000000000000, -0.000000000000000000 ) ) ;
#231 = ORIENTED_EDGE ( 'NONE', *, *, #817, .T. ) ;
#232 = LINE ( 'NONE', #246, #535 ) ;
#233 = EDGE_CURVE ( 'NONE', #317, #990, #1076, .T. ) ;
#234 = ADVANCED_FACE ( 'NONE', ( #61 ), #655, .T. ) ;
#235 = LINE ( 'NONE', #385, #204 ) ;
#236 = DIRECTION ( 'NONE',  ( 0.000000000000000000, 0.000000000000000000, -1.000000000000000000 ) ) ;
#237 = ORIENTED_EDGE ( 'NONE', *, *, #857, .F. ) ;
#238 = PRESENTATION_LAYER_ASSIGNMENT (  '', '', ( #587 ) ) ;
#239 = PRESENTATION_LAYER_ASSIGNMENT (  '', '', ( #1050 ) ) ;
#240 = DIRECTION ( 'NONE',  ( 1.000000000000000000, 4.440892098500630106E-16, 0.000000000000000000 ) ) ;
#241 = CARTESIAN_POINT ( 'NONE',  ( 0.000000000000000000, 0.000000000000000000, 0.000000000000000000 ) ) ;
#242 = EDGE_CURVE ( 'NONE', #199, #390, #315, .T. ) ;
#243 = MECHANICAL_DESIGN_GEOMETRIC_PRESENTATION_REPRESENTATION (  '', ( #740 ), #98 ) ;
#244 = ORIENTED_EDGE ( 'NONE', *, *, #901, .T. ) ;
#245 = DIRECTION ( 'NONE',  ( 0.000000000000000000, 0.000000000000000000, -1.000000000000000000 ) ) ;
#246 = CARTESIAN_POINT ( 'NONE',  ( 0.000000000000000000, 0.8499999999999999778, 0.2449999999999999956 ) ) ;
#247 = PRESENTATION_STYLE_ASSIGNMENT (( #406 ) ) ;
#248 = ORIENTED_EDGE ( 'NONE', *, *, #857, .T. ) ;
#249 = CARTESIAN_POINT ( 'NONE',  ( 0.1849999999999999978, 0.8499999999999999778, 0.4949999999999999956 ) ) ;
#250 = DIRECTION ( 'NONE',  ( 1.000000000000000000, -0.000000000000000000, 0.000000000000000000 ) ) ;
#251 = ORIENTED_EDGE ( 'NONE', *, *, #461, .F. ) ;
#252 = SURFACE_STYLE_FILL_AREA ( #323 ) ;
#253 = CARTESIAN_POINT ( 'NONE',  ( 1.134000000000000119, 0.8499999999999999778, 0.4899999999999999911 ) ) ;
#254 =( NAMED_UNIT ( * ) SI_UNIT ( $, .STERADIAN. ) SOLID_ANGLE_UNIT ( ) );
#255 = VECTOR ( 'NONE', #1057, 1000.000000000000000 ) ;
#256 = SURFACE_STYLE_USAGE ( .BOTH. , #337 ) ;
#257 = SURFACE_STYLE_USAGE ( .BOTH. , #688 ) ;
#258 = ORIENTED_EDGE ( 'NONE', *, *, #42, .T. ) ;
#259 = DIRECTION ( 'NONE',  ( -1.000000000000000000, 0.000000000000000000, -0.000000000000000000 ) ) ;
#260 = ORIENTED_EDGE ( 'NONE', *, *, #775, .T. ) ;
#261 = UNCERTAINTY_MEASURE_WITH_UNIT (LENGTH_MEASURE( 1.000000000000000082E-05 ), #116, 'distance_accuracy_value', 'NONE');
#262 = FILL_AREA_STYLE ('',( #757 ) ) ;
#263 = EDGE_CURVE ( 'NONE', #199, #561, #340, .T. ) ;
#264 = EDGE_LOOP ( 'NONE', ( #808, #797, #1054, #691 ) ) ;
#265 =( LENGTH_UNIT ( ) NAMED_UNIT ( * ) SI_UNIT ( .MILLI., .METRE. ) );
#266 = VERTEX_POINT ( 'NONE', #669 ) ;
#267 = CARTESIAN_POINT ( 'NONE',  ( 1.324999999999999956, 1.331959309557387283E-16, -0.005000000000000000104 ) ) ;
#268 =( GEOMETRIC_REPRESENTATION_CONTEXT ( 3 ) GLOBAL_UNCERTAINTY_ASSIGNED_CONTEXT ( ( #509 ) ) GLOBAL_UNIT_ASSIGNED_CONTEXT ( ( #39, #296, #956 ) ) REPRESENTATION_CONTEXT ( 'NONE', 'WORKASPACE' ) );
#269 = MECHANICAL_DESIGN_GEOMETRIC_PRESENTATION_REPRESENTATION (  '', ( #521 ), #325 ) ;
#270 = ORIENTED_EDGE ( 'NONE', *, *, #9, .T. ) ;
#271 = PLANE ( 'NONE',  #540 ) ;
#272 = VERTEX_POINT ( 'NONE', #422 ) ;
#273 =( NAMED_UNIT ( * ) SI_UNIT ( $, .STERADIAN. ) SOLID_ANGLE_UNIT ( ) );
#274 = VECTOR ( 'NONE', #814, 1000.000000000000000 ) ;
#275 = UNCERTAINTY_MEASURE_WITH_UNIT (LENGTH_MEASURE( 1.000000000000000082E-05 ), #27, 'distance_accuracy_value', 'NONE');
#276 = CARTESIAN_POINT ( 'NONE',  ( -0.001000000000000000021, 0.000000000000000000, 0.2449999999999999956 ) ) ;
#277 = EDGE_CURVE ( 'NONE', #918, #780, #1020, .T. ) ;
#278 = ORIENTED_EDGE ( 'NONE', *, *, #586, .F. ) ;
#279 = PRESENTATION_STYLE_ASSIGNMENT (( #694 ) ) ;
#280 = ADVANCED_FACE ( 'NONE', ( #513 ), #603, .T. ) ;
#281 = SURFACE_SIDE_STYLE ('',( #621 ) ) ;
#282 = DIRECTION ( 'NONE',  ( -1.000000000000000000, 0.000000000000000000, -0.000000000000000000 ) ) ;
#283 = DIRECTION ( 'NONE',  ( 1.000000000000000000, 0.000000000000000000, -0.000000000000000000 ) ) ;
#284 = VERTEX_POINT ( 'NONE', #777 ) ;
#285 = SURFACE_STYLE_FILL_AREA ( #640 ) ;
#286 = CARTESIAN_POINT ( 'NONE',  ( 1.510000000000000009, -0.0009999999999998690492, 0.2449999999999999956 ) ) ;
#287 = SURFACE_STYLE_FILL_AREA ( #1045 ) ;
#288 = CARTESIAN_POINT ( 'NONE',  ( 0.000000000000000000, 0.000000000000000000, 0.2449999999999999956 ) ) ;
#289 = CARTESIAN_POINT ( 'NONE',  ( 1.516000000000000014, 1.336708521648689908E-16, 0.4899999999999999911 ) ) ;
#290 = VECTOR ( 'NONE', #180, 1000.000000000000000 ) ;
#291 = ORIENTED_EDGE ( 'NONE', *, *, #469, .F. ) ;
#292 = PRESENTATION_LAYER_ASSIGNMENT (  '', '', ( #326 ) ) ;
#293 = VECTOR ( 'NONE', #692, 1000.000000000000000 ) ;
#294 =( GEOMETRIC_REPRESENTATION_CONTEXT ( 3 ) GLOBAL_UNCERTAINTY_ASSIGNED_CONTEXT ( ( #192 ) ) GLOBAL_UNIT_ASSIGNED_CONTEXT ( ( #183, #89, #527 ) ) REPRESENTATION_CONTEXT ( 'NONE', 'WORKASPACE' ) );
#295 = CARTESIAN_POINT ( 'NONE',  ( 0.000000000000000000, -0.001000000000000000021, 0.000000000000000000 ) ) ;
#296 =( NAMED_UNIT ( * ) PLANE_ANGLE_UNIT ( ) SI_UNIT ( $, .RADIAN. ) );
#297 = SURFACE_SIDE_STYLE ('',( #1053 ) ) ;
#298 = ORIENTED_EDGE ( 'NONE', *, *, #1070, .F. ) ;
#299 = LINE ( 'NONE', #868, #819 ) ;
#300 = LINE ( 'NONE', #622, #964 ) ;
#301 = ORIENTED_EDGE ( 'NONE', *, *, #938, .F. ) ;
#302 = CARTESIAN_POINT ( 'NONE',  ( 0.3750000000000000000, 0.8499999999999999778, 0.4899999999999999911 ) ) ;
#303 = ORIENTED_EDGE ( 'NONE', *, *, #712, .T. ) ;
#304 = SURFACE_SIDE_STYLE ('',( #285 ) ) ;
#305 = STYLED_ITEM ( 'NONE', ( #915 ), #200 ) ;
#306 = AXIS2_PLACEMENT_3D ( 'NONE', #597, #695, #128 ) ;
#307 = VECTOR ( 'NONE', #51, 1000.000000000000000 ) ;
#308 = MECHANICAL_DESIGN_GEOMETRIC_PRESENTATION_REPRESENTATION (  '', ( #980 ), #294 ) ;
#309 = AXIS2_PLACEMENT_3D ( 'NONE', #592, #1095, #169 ) ;
#310 = LINE ( 'NONE', #993, #324 ) ;
#311 = FACE_OUTER_BOUND ( 'NONE', #437, .T. ) ;
#312 = ORIENTED_EDGE ( 'NONE', *, *, #1058, .F. ) ;
#313 = LINE ( 'NONE', #578, #612 ) ;
#314 = EDGE_CURVE ( 'NONE', #1084, #343, #2, .T. ) ;
#315 = LINE ( 'NONE', #249, #1082 ) ;
#316 = FILL_AREA_STYLE ('',( #828 ) ) ;
#317 = VERTEX_POINT ( 'NONE', #685 ) ;
#318 = EDGE_CURVE ( 'NONE', #147, #990, #92, .T. ) ;
#319 =( LENGTH_UNIT ( ) NAMED_UNIT ( * ) SI_UNIT ( .MILLI., .METRE. ) );
#320 = SURFACE_SIDE_STYLE ('',( #989 ) ) ;
#321 = ORIENTED_EDGE ( 'NONE', *, *, #125, .T. ) ;
#322 = CARTESIAN_POINT ( 'NONE',  ( 1.135000000000000009, 0.8499999999999999778, 4.235164736271501695E-19 ) ) ;
#323 = FILL_AREA_STYLE ('',( #1009 ) ) ;
#324 = VECTOR ( 'NONE', #220, 1000.000000000000000 ) ;
#325 =( GEOMETRIC_REPRESENTATION_CONTEXT ( 3 ) GLOBAL_UNCERTAINTY_ASSIGNED_CONTEXT ( ( #261 ) ) GLOBAL_UNIT_ASSIGNED_CONTEXT ( ( #116, #17, #526 ) ) REPRESENTATION_CONTEXT ( 'NONE', 'WORKASPACE' ) );
#326 = STYLED_ITEM ( 'NONE', ( #913 ), #473 ) ;
#327 = STYLED_ITEM ( 'NONE', ( #408 ), #627 ) ;
#328 = CARTESIAN_POINT ( 'NONE',  ( 0.000000000000000000, 0.000000000000000000, 0.000000000000000000 ) ) ;
#329 = AXIS2_PLACEMENT_3D ( 'NONE', #1081, #665, #836 ) ;
#330 = VERTEX_POINT ( 'NONE', #835 ) ;
#331 = UNCERTAINTY_MEASURE_WITH_UNIT (LENGTH_MEASURE( 1.000000000000000082E-05 ), #319, 'distance_accuracy_value', 'NONE');
#332 =( LENGTH_UNIT ( ) NAMED_UNIT ( * ) SI_UNIT ( .MILLI., .METRE. ) );
#333 =( LENGTH_UNIT ( ) NAMED_UNIT ( * ) SI_UNIT ( .MILLI., .METRE. ) );
#334 = FACE_OUTER_BOUND ( 'NONE', #729, .T. ) ;
#335 = CARTESIAN_POINT ( 'NONE',  ( -0.005000000000000000104, 0.000000000000000000, 0.2449999999999999956 ) ) ;
#336 = PLANE ( 'NONE',  #24 ) ;
#337 = SURFACE_SIDE_STYLE ('',( #420 ) ) ;
#338 = DIRECTION ( 'NONE',  ( 0.000000000000000000, 1.000000000000000000, 0.000000000000000000 ) ) ;
#339 = UNCERTAINTY_MEASURE_WITH_UNIT (LENGTH_MEASURE( 1.000000000000000082E-05 ), #1035, 'distance_accuracy_value', 'NONE');
#340 = LINE ( 'NONE', #179, #207 ) ;
#341 = COLOUR_RGB ( '',0.8431372549019607865, 0.8431372549019607865, 0.8431372549019607865 ) ;
#342 =( GEOMETRIC_REPRESENTATION_CONTEXT ( 3 ) GLOBAL_UNCERTAINTY_ASSIGNED_CONTEXT ( ( #339 ) ) GLOBAL_UNIT_ASSIGNED_CONTEXT ( ( #1035, #197, #273 ) ) REPRESENTATION_CONTEXT ( 'NONE', 'WORKASPACE' ) );
#343 = VERTEX_POINT ( 'NONE', #12 ) ;
#344 = DIRECTION ( 'NONE',  ( 0.000000000000000000, 0.000000000000000000, 1.000000000000000000 ) ) ;
#345 = AXIS2_PLACEMENT_3D ( 'NONE', #440, #883, #122 ) ;
#346 = ORIENTED_EDGE ( 'NONE', *, *, #775, .F. ) ;
#347 = ADVANCED_FACE ( 'NONE', ( #353 ), #1088, .T. ) ;
#348 = ORIENTED_EDGE ( 'NONE', *, *, #1058, .T. ) ;
#349 = DIRECTION ( 'NONE',  ( -1.000000000000000000, 0.000000000000000000, 0.000000000000000000 ) ) ;
#350 = ORIENTED_EDGE ( 'NONE', *, *, #1003, .T. ) ;
#351 = ADVANCED_FACE ( 'NONE', ( #866 ), #951, .T. ) ;
#352 = UNCERTAINTY_MEASURE_WITH_UNIT (LENGTH_MEASURE( 1.000000000000000082E-05 ), #929, 'distance_accuracy_value', 'NONE');
#353 = FACE_OUTER_BOUND ( 'NONE', #131, .T. ) ;
#354 = FILL_AREA_STYLE_COLOUR ( '', #1066 ) ;
#355 = ORIENTED_EDGE ( 'NONE', *, *, #84, .T. ) ;
#356 = LINE ( 'NONE', #267, #151 ) ;
#357 = SHAPE_DEFINITION_REPRESENTATION ( #925, #939 ) ;
#358 = EDGE_CURVE ( 'NONE', #181, #74, #462, .T. ) ;
#359 = PRESENTATION_LAYER_ASSIGNMENT (  '', '', ( #961 ) ) ;
#360 = AXIS2_PLACEMENT_3D ( 'NONE', #286, #611, #629 ) ;
#361 = SURFACE_STYLE_USAGE ( .BOTH. , #954 ) ;
#362 = EDGE_CURVE ( 'NONE', #717, #674, #356, .T. ) ;
#363 =( GEOMETRIC_REPRESENTATION_CONTEXT ( 3 ) GLOBAL_UNCERTAINTY_ASSIGNED_CONTEXT ( ( #1093 ) ) GLOBAL_UNIT_ASSIGNED_CONTEXT ( ( #400, #1087, #744 ) ) REPRESENTATION_CONTEXT ( 'NONE', 'WORKASPACE' ) );
#364 = ORIENTED_EDGE ( 'NONE', *, *, #314, .F. ) ;
#365 = VECTOR ( 'NONE', #56, 1000.000000000000000 ) ;
#366 = FILL_AREA_STYLE ('',( #703 ) ) ;
#367 =( NAMED_UNIT ( * ) SI_UNIT ( $, .STERADIAN. ) SOLID_ANGLE_UNIT ( ) );
#368 = CARTESIAN_POINT ( 'NONE',  ( 0.7550000000000000044, 0.8499999999999999778, 0.000000000000000000 ) ) ;
#369 = CARTESIAN_POINT ( 'NONE',  ( 1.324999999999999956, -0.0009999999999999529664, -0.005000000000000000104 ) ) ;
#370 = ORIENTED_EDGE ( 'NONE', *, *, #52, .F. ) ;
#371 =( NAMED_UNIT ( * ) PLANE_ANGLE_UNIT ( ) SI_UNIT ( $, .RADIAN. ) );
#372 = PLANE ( 'NONE',  #810 ) ;
#373 = ORIENTED_EDGE ( 'NONE', *, *, #223, .F. ) ;
#374 = DIRECTION ( 'NONE',  ( 1.000000000000000000, -0.000000000000000000, 0.000000000000000000 ) ) ;
#375 = SURFACE_STYLE_FILL_AREA ( #965 ) ;
#376 = LINE ( 'NONE', #530, #25 ) ;
#377 = ORIENTED_EDGE ( 'NONE', *, *, #670, .T. ) ;
#378 = LINE ( 'NONE', #725, #661 ) ;
#379 = PRESENTATION_LAYER_ASSIGNMENT (  '', '', ( #684 ) ) ;
#380 = SURFACE_STYLE_FILL_AREA ( #149 ) ;
#381 = CARTESIAN_POINT ( 'NONE',  ( 1.135000000000000009, -2.227549267545988124E-17, 0.4899999999999999911 ) ) ;
#382 = PRESENTATION_STYLE_ASSIGNMENT (( #217 ) ) ;
#383 = ORIENTED_EDGE ( 'NONE', *, *, #494, .F. ) ;
#384 = LINE ( 'NONE', #467, #255 ) ;
#385 = CARTESIAN_POINT ( 'NONE',  ( 1.135000000000000009, 0.8499999999999999778, 0.2449999999999999956 ) ) ;
#386 = FILL_AREA_STYLE ('',( #966 ) ) ;
#387 = ORIENTED_EDGE ( 'NONE', *, *, #821, .F. ) ;
#388 = EDGE_CURVE ( 'NONE', #909, #1090, #121, .T. ) ;
#389 = SURFACE_STYLE_FILL_AREA ( #474 ) ;
#390 = VERTEX_POINT ( 'NONE', #110 ) ;
#391 = DIRECTION ( 'NONE',  ( 0.000000000000000000, 0.000000000000000000, 1.000000000000000000 ) ) ;
#392 = VECTOR ( 'NONE', #862, 1000.000000000000000 ) ;
#393 = STYLED_ITEM ( 'NONE', ( #106 ), #399 ) ;
#394 = VECTOR ( 'NONE', #554, 1000.000000000000000 ) ;
#395 = DIRECTION ( 'NONE',  ( 4.440892098500630106E-16, -1.000000000000000000, 0.000000000000000000 ) ) ;
#396 = LINE ( 'NONE', #1002, #365 ) ;
#397 = VERTEX_POINT ( 'NONE', #969 ) ;
#398 =( NAMED_UNIT ( * ) PLANE_ANGLE_UNIT ( ) SI_UNIT ( $, .RADIAN. ) );
#399 = ADVANCED_FACE ( 'NONE', ( #26 ), #444, .T. ) ;
#400 =( LENGTH_UNIT ( ) NAMED_UNIT ( * ) SI_UNIT ( .MILLI., .METRE. ) );
#401 = SURFACE_STYLE_USAGE ( .BOTH. , #646 ) ;
#402 = ORIENTED_EDGE ( 'NONE', *, *, #167, .T. ) ;
#403 =( LENGTH_UNIT ( ) NAMED_UNIT ( * ) SI_UNIT ( .MILLI., .METRE. ) );
#404 = CARTESIAN_POINT ( 'NONE',  ( 1.510000000000000009, 1.310603406671443925E-16, 0.4899999999999999911 ) ) ;
#405 = CARTESIAN_POINT ( 'NONE',  ( 0.3750000000000000000, 0.000000000000000000, 0.2449999999999999956 ) ) ;
#406 = SURFACE_STYLE_USAGE ( .BOTH. , #320 ) ;
#407 = ORIENTED_EDGE ( 'NONE', *, *, #469, .T. ) ;
#408 = PRESENTATION_STYLE_ASSIGNMENT (( #896 ) ) ;
#409 = CLOSED_SHELL ( 'NONE', ( #1025, #941, #105, #1055, #745, #843 ) ) ;
#410 =( GEOMETRIC_REPRESENTATION_CONTEXT ( 3 ) GLOBAL_UNCERTAINTY_ASSIGNED_CONTEXT ( ( #764 ) ) GLOBAL_UNIT_ASSIGNED_CONTEXT ( ( #794, #215, #544 ) ) REPRESENTATION_CONTEXT ( 'NONE', 'WORKASPACE' ) );
#411 = STYLED_ITEM ( 'NONE', ( #498 ), #743 ) ;
#412 = EDGE_CURVE ( 'NONE', #528, #955, #529, .T. ) ;
#413 = VECTOR ( 'NONE', #806, 1000.000000000000000 ) ;
#414 = DIRECTION ( 'NONE',  ( 1.000000000000000000, -0.000000000000000000, 0.000000000000000000 ) ) ;
#415 = CARTESIAN_POINT ( 'NONE',  ( 1.510000000000000009, -0.001000000000000000021, 0.4899999999999999911 ) ) ;
#416 = DIRECTION ( 'NONE',  ( 0.000000000000000000, 1.000000000000000000, -0.000000000000000000 ) ) ;
#417 = UNCERTAINTY_MEASURE_WITH_UNIT (LENGTH_MEASURE( 1.000000000000000082E-05 ), #332, 'distance_accuracy_value', 'NONE');
#418 = DIRECTION ( 'NONE',  ( 1.000000000000000000, 0.000000000000000000, -0.000000000000000000 ) ) ;
#419 =( NAMED_UNIT ( * ) SI_UNIT ( $, .STERADIAN. ) SOLID_ANGLE_UNIT ( ) );
#420 = SURFACE_STYLE_FILL_AREA ( #953 ) ;
#421 = SURFACE_STYLE_USAGE ( .BOTH. , #602 ) ;
#422 = CARTESIAN_POINT ( 'NONE',  ( 1.135000000000000009, 0.8499999999999999778, 0.4949999999999999956 ) ) ;
#423 = VERTEX_POINT ( 'NONE', #45 ) ;
#424 = DIRECTION ( 'NONE',  ( 0.000000000000000000, -0.000000000000000000, 1.000000000000000000 ) ) ;
#425 = EDGE_CURVE ( 'NONE', #957, #330, #193, .T. ) ;
#426 = MECHANICAL_DESIGN_GEOMETRIC_PRESENTATION_REPRESENTATION (  '', ( #465 ), #995 ) ;
#427 = SURFACE_STYLE_FILL_AREA ( #262 ) ;
#428 = SURFACE_SIDE_STYLE ('',( #604 ) ) ;
#429 = PRESENTATION_LAYER_ASSIGNMENT (  '', '', ( #908 ) ) ;
#430 =( NAMED_UNIT ( * ) SI_UNIT ( $, .STERADIAN. ) SOLID_ANGLE_UNIT ( ) );
#431 = PRESENTATION_STYLE_ASSIGNMENT (( #361 ) ) ;
#432 = PRESENTATION_LAYER_ASSIGNMENT (  '', '', ( #999 ) ) ;
#433 = AXIS2_PLACEMENT_3D ( 'NONE', #677, #250, #1089 ) ;
#434 = SURFACE_SIDE_STYLE ('',( #96 ) ) ;
#435 = DIRECTION ( 'NONE',  ( 0.000000000000000000, 1.000000000000000000, 0.000000000000000000 ) ) ;
#436 = DIRECTION ( 'NONE',  ( 0.000000000000000000, -0.000000000000000000, -1.000000000000000000 ) ) ;
#437 = EDGE_LOOP ( 'NONE', ( #574, #244, #355, #487 ) ) ;
#438 =( NAMED_UNIT ( * ) SI_UNIT ( $, .STERADIAN. ) SOLID_ANGLE_UNIT ( ) );
#439 = UNCERTAINTY_MEASURE_WITH_UNIT (LENGTH_MEASURE( 1.000000000000000082E-05 ), #164, 'distance_accuracy_value', 'NONE');
#440 = CARTESIAN_POINT ( 'NONE',  ( 0.000000000000000000, 0.000000000000000000, 0.000000000000000000 ) ) ;
#441 = CARTESIAN_POINT ( 'NONE',  ( 0.1849999999999999978, -0.001000000000000000021, -0.005000000000000000104 ) ) ;
#442 = FACE_OUTER_BOUND ( 'NONE', #619, .T. ) ;
#443 = ORIENTED_EDGE ( 'NONE', *, *, #938, .T. ) ;
#444 = PLANE ( 'NONE',  #446 ) ;
#445 = STYLED_ITEM ( 'NONE', ( #33 ), #117 ) ;
#446 = AXIS2_PLACEMENT_3D ( 'NONE', #886, #374, #802 ) ;
#447 = DIRECTION ( 'NONE',  ( 1.000000000000000000, -0.000000000000000000, 0.000000000000000000 ) ) ;
#448 = DIRECTION ( 'NONE',  ( 0.000000000000000000, 0.000000000000000000, 1.000000000000000000 ) ) ;
#449 = PRESENTATION_LAYER_ASSIGNMENT (  '', '', ( #411 ) ) ;
#450 = ORIENTED_EDGE ( 'NONE', *, *, #864, .F. ) ;
#451 = VECTOR ( 'NONE', #414, 1000.000000000000000 ) ;
#452 = FILL_AREA_STYLE_COLOUR ( '', #133 ) ;
#453 = DIRECTION ( 'NONE',  ( 0.000000000000000000, 1.000000000000000000, -0.000000000000000000 ) ) ;
#454 = DIRECTION ( 'NONE',  ( -0.000000000000000000, -1.000000000000000000, 0.000000000000000000 ) ) ;
#455 = EDGE_LOOP ( 'NONE', ( #671, #402, #986, #639, #221, #248, #959, #5 ) ) ;
#456 = SURFACE_STYLE_USAGE ( .BOTH. , #209 ) ;
#457 = SURFACE_STYLE_FILL_AREA ( #631 ) ;
#458 = LINE ( 'NONE', #1047, #413 ) ;
#459 = VERTEX_POINT ( 'NONE', #404 ) ;
#460 =( NAMED_UNIT ( * ) PLANE_ANGLE_UNIT ( ) SI_UNIT ( $, .RADIAN. ) );
#461 = EDGE_CURVE ( 'NONE', #634, #623, #507, .T. ) ;
#462 = LINE ( 'NONE', #295, #188 ) ;
#463 = FILL_AREA_STYLE_COLOUR ( '', #927 ) ;
#464 = DIRECTION ( 'NONE',  ( 1.000000000000000000, 4.440892098500630106E-16, 0.000000000000000000 ) ) ;
#465 = STYLED_ITEM ( 'NONE', ( #892 ), #234 ) ;
#466 = ORIENTED_EDGE ( 'NONE', *, *, #233, .F. ) ;
#467 = CARTESIAN_POINT ( 'NONE',  ( 0.3750000000000000000, -0.001000000000000000021, 0.4899999999999999911 ) ) ;
#468 =( GEOMETRIC_REPRESENTATION_CONTEXT ( 3 ) GLOBAL_UNCERTAINTY_ASSIGNED_CONTEXT ( ( #519 ) ) GLOBAL_UNIT_ASSIGNED_CONTEXT ( ( #559, #398, #816 ) ) REPRESENTATION_CONTEXT ( 'NONE', 'WORKASPACE' ) );
#469 = EDGE_CURVE ( 'NONE', #423, #74, #232, .T. ) ;
#470 = VECTOR ( 'NONE', #741, 1000.000000000000000 ) ;
#471 = FILL_AREA_STYLE ('',( #711 ) ) ;
#472 = EDGE_LOOP ( 'NONE', ( #1027, #260, #377, #165 ) ) ;
#473 = ADVANCED_FACE ( 'NONE', ( #847 ), #834, .T. ) ;
#474 = FILL_AREA_STYLE ('',( #988 ) ) ;
#475 = LINE ( 'NONE', #73, #912 ) ;
#476 = ORIENTED_EDGE ( 'NONE', *, *, #84, .F. ) ;
#477 = DIRECTION ( 'NONE',  ( -0.000000000000000000, 0.000000000000000000, 1.000000000000000000 ) ) ;
#478 = CARTESIAN_POINT ( 'NONE',  ( 0.3750000000000000000, 0.000000000000000000, -0.005000000000000002706 ) ) ;
#479 = ADVANCED_FACE ( 'NONE', ( #563 ), #754, .T. ) ;
#480 = ORIENTED_EDGE ( 'NONE', *, *, #1051, .T. ) ;
#481 = CARTESIAN_POINT ( 'NONE',  ( 0.000000000000000000, -0.001000000000000000021, 0.2449999999999999956 ) ) ;
#482 = MECHANICAL_DESIGN_GEOMETRIC_PRESENTATION_REPRESENTATION (  '', ( #305 ), #801 ) ;
#483 =( GEOMETRIC_REPRESENTATION_CONTEXT ( 3 ) GLOBAL_UNCERTAINTY_ASSIGNED_CONTEXT ( ( #417 ) ) GLOBAL_UNIT_ASSIGNED_CONTEXT ( ( #332, #946, #591 ) ) REPRESENTATION_CONTEXT ( 'NONE', 'WORKASPACE' ) );
#484 = AXIS2_PLACEMENT_3D ( 'NONE', #813, #714, #219 ) ;
#485 = LINE ( 'NONE', #154, #1086 ) ;
#486 = PRODUCT_RELATED_PRODUCT_CATEGORY ( 'part', '', ( #984 ) ) ;
#487 = ORIENTED_EDGE ( 'NONE', *, *, #1019, .T. ) ;
#488 = FILL_AREA_STYLE_COLOUR ( '', #95 ) ;
#489 =( NAMED_UNIT ( * ) PLANE_ANGLE_UNIT ( ) SI_UNIT ( $, .RADIAN. ) );
#490 = CARTESIAN_POINT ( 'NONE',  ( 1.135000000000000009, -6.383304665012398238E-17, 2.117582368135750848E-19 ) ) ;
#491 = VERTEX_POINT ( 'NONE', #166 ) ;
#492 = FILL_AREA_STYLE_COLOUR ( '', #891 ) ;
#493 = DIRECTION ( 'NONE',  ( 0.000000000000000000, -0.000000000000000000, -1.000000000000000000 ) ) ;
#494 = EDGE_CURVE ( 'NONE', #459, #1084, #66, .T. ) ;
#495 = APPLICATION_CONTEXT ( 'automotive_design' ) ;
#496 = DIRECTION ( 'NONE',  ( -0.000000000000000000, 0.000000000000000000, -1.000000000000000000 ) ) ;
#497 = ORIENTED_EDGE ( 'NONE', *, *, #974, .T. ) ;
#498 = PRESENTATION_STYLE_ASSIGNMENT (( #70 ) ) ;
#499 = LINE ( 'NONE', #840, #683 ) ;
#500 = COLOUR_RGB ( '',0.8666666666666666963, 0.8666666666666666963, 0.8666666666666666963 ) ;
#501 = MECHANICAL_DESIGN_GEOMETRIC_PRESENTATION_REPRESENTATION (  '', ( #393 ), #410 ) ;
#502 = COLOUR_RGB ( '',0.8431372549019607865, 0.8431372549019607865, 0.8431372549019607865 ) ;
#503 = AXIS2_PLACEMENT_3D ( 'NONE', #65, #173, #947 ) ;
#504 = DIRECTION ( 'NONE',  ( 0.000000000000000000, 0.000000000000000000, 1.000000000000000000 ) ) ;
#505 = CARTESIAN_POINT ( 'NONE',  ( -0.005000000000000006176, 0.000000000000000000, -0.005000000000000006176 ) ) ;
#506 = CARTESIAN_POINT ( 'NONE',  ( 0.3750000000000000000, 0.8499999999999999778, 0.2449999999999999956 ) ) ;
#507 = LINE ( 'NONE', #576, #170 ) ;
#508 = EDGE_CURVE ( 'NONE', #780, #799, #499, .T. ) ;
#509 = UNCERTAINTY_MEASURE_WITH_UNIT (LENGTH_MEASURE( 1.000000000000000082E-05 ), #39, 'distance_accuracy_value', 'NONE');
#510 = SURFACE_SIDE_STYLE ('',( #676 ) ) ;
#511 = CARTESIAN_POINT ( 'NONE',  ( 0.1849999999999999978, 0.8499999999999999778, -0.005000000000000000104 ) ) ;
#512 = DIRECTION ( 'NONE',  ( -1.000000000000000000, 0.000000000000000000, -0.000000000000000000 ) ) ;
#513 = FACE_OUTER_BOUND ( 'NONE', #1073, .T. ) ;
#514 = ADVANCED_FACE ( 'NONE', ( #1092 ), #336, .T. ) ;
#515 = CARTESIAN_POINT ( 'NONE',  ( 1.135000000000000009, -0.0009999999999999770357, 0.4949999999999999956 ) ) ;
#516 = FILL_AREA_STYLE_COLOUR ( '', #894 ) ;
#517 = ORIENTED_EDGE ( 'NONE', *, *, #34, .F. ) ;
#518 = MANIFOLD_SOLID_BREP ( 'Solide1', #701 ) ;
#519 = UNCERTAINTY_MEASURE_WITH_UNIT (LENGTH_MEASURE( 1.000000000000000082E-05 ), #559, 'distance_accuracy_value', 'NONE');
#520 = PRESENTATION_STYLE_ASSIGNMENT (( #581 ) ) ;
#521 = STYLED_ITEM ( 'NONE', ( #963 ), #351 ) ;
#522 = MECHANICAL_DESIGN_GEOMETRIC_PRESENTATION_REPRESENTATION (  '', ( #8 ), #1017 ) ;
#523 = LINE ( 'NONE', #855, #290 ) ;
#524 = VECTOR ( 'NONE', #454, 1000.000000000000000 ) ;
#525 = PRESENTATION_STYLE_ASSIGNMENT (( #774 ) ) ;
#526 =( NAMED_UNIT ( * ) SI_UNIT ( $, .STERADIAN. ) SOLID_ANGLE_UNIT ( ) );
#527 =( NAMED_UNIT ( * ) SI_UNIT ( $, .STERADIAN. ) SOLID_ANGLE_UNIT ( ) );
#528 = VERTEX_POINT ( 'NONE', #7 ) ;
#529 = LINE ( 'NONE', #789, #552 ) ;
#530 = CARTESIAN_POINT ( 'NONE',  ( 1.516000000000000014, 1.336708521648689908E-16, 0.000000000000000000 ) ) ;
#531 = ORIENTED_EDGE ( 'NONE', *, *, #388, .T. ) ;
#532 = DIRECTION ( 'NONE',  ( -0.000000000000000000, -1.000000000000000000, 0.000000000000000000 ) ) ;
#533 = FILL_AREA_STYLE_COLOUR ( '', #99 ) ;
#534 = VECTOR ( 'NONE', #447, 1000.000000000000000 ) ;
#535 = VECTOR ( 'NONE', #726, 1000.000000000000000 ) ;
#536 = SURFACE_STYLE_USAGE ( .BOTH. , #216 ) ;
#537 = CARTESIAN_POINT ( 'NONE',  ( -0.005000000000000002706, 0.8499999999999999778, -0.005000000000000009645 ) ) ;
#538 = ORIENTED_EDGE ( 'NONE', *, *, #596, .T. ) ;
#539 = SURFACE_SIDE_STYLE ('',( #132 ) ) ;
#540 = AXIS2_PLACEMENT_3D ( 'NONE', #1014, #849, #424 ) ;
#541 = LINE ( 'NONE', #289, #860 ) ;
#542 = ORIENTED_EDGE ( 'NONE', *, *, #1070, .T. ) ;
#543 = LINE ( 'NONE', #885, #307 ) ;
#544 =( NAMED_UNIT ( * ) SI_UNIT ( $, .STERADIAN. ) SOLID_ANGLE_UNIT ( ) );
#545 = CARTESIAN_POINT ( 'NONE',  ( 1.135000000000000009, -6.383304665012398238E-17, 0.4949999999999999956 ) ) ;
#546 = ADVANCED_FACE ( 'NONE', ( #689 ), #944, .T. ) ;
#547 = ORIENTED_EDGE ( 'NONE', *, *, #277, .T. ) ;
#548 = DIRECTION ( 'NONE',  ( 0.000000000000000000, -0.000000000000000000, -1.000000000000000000 ) ) ;
#549 = CARTESIAN_POINT ( 'NONE',  ( -0.005000000000000000104, -0.001000000000000000021, 0.2449999999999999956 ) ) ;
#550 = DIRECTION ( 'NONE',  ( 1.000000000000000000, 0.000000000000000000, 0.000000000000000000 ) ) ;
#551 = AXIS2_PLACEMENT_3D ( 'NONE', #549, #145, #1071 ) ;
#552 = VECTOR ( 'NONE', #715, 1000.000000000000000 ) ;
#553 = ORIENTED_EDGE ( 'NONE', *, *, #201, .T. ) ;
#554 = DIRECTION ( 'NONE',  ( -1.000000000000000000, -4.440892098500630106E-16, -0.000000000000000000 ) ) ;
#555 = VECTOR ( 'NONE', #923, 1000.000000000000000 ) ;
#556 = EDGE_CURVE ( 'NONE', #317, #561, #384, .T. ) ;
#557 = LINE ( 'NONE', #160, #950 ) ;
#558 = ORIENTED_EDGE ( 'NONE', *, *, #596, .F. ) ;
#559 =( LENGTH_UNIT ( ) NAMED_UNIT ( * ) SI_UNIT ( .MILLI., .METRE. ) );
#560 = DIRECTION ( 'NONE',  ( 0.000000000000000000, 0.000000000000000000, -1.000000000000000000 ) ) ;
#561 = VERTEX_POINT ( 'NONE', #302 ) ;
#562 = DIRECTION ( 'NONE',  ( -0.000000000000000000, -1.000000000000000000, -0.000000000000000000 ) ) ;
#563 = FACE_OUTER_BOUND ( 'NONE', #848, .T. ) ;
#564 = CARTESIAN_POINT ( 'NONE',  ( -0.006000000000000009666, 0.000000000000000000, 0.000000000000000000 ) ) ;
#565 = ORIENTED_EDGE ( 'NONE', *, *, #163, .F. ) ;
#566 = CARTESIAN_POINT ( 'NONE',  ( 1.135000000000000009, -7.546233467747517962E-18, -0.005000000000000006176 ) ) ;
#567 =( NAMED_UNIT ( * ) PLANE_ANGLE_UNIT ( ) SI_UNIT ( $, .RADIAN. ) );
#568 = PRESENTATION_LAYER_ASSIGNMENT (  '', '', ( #589 ) ) ;
#569 = COLOUR_RGB ( '',0.7921568627450980005, 0.8196078431372548767, 0.9333333333333333481 ) ;
#570 = UNCERTAINTY_MEASURE_WITH_UNIT (LENGTH_MEASURE( 1.000000000000000082E-05 ), #809, 'distance_accuracy_value', 'NONE');
#571 = DIRECTION ( 'NONE',  ( 0.000000000000000000, 1.000000000000000000, 0.000000000000000000 ) ) ;
#572 = DIRECTION ( 'NONE',  ( -0.000000000000000000, -0.000000000000000000, -1.000000000000000000 ) ) ;
#573 = ADVANCED_FACE ( 'NONE', ( #214 ), #972, .T. ) ;
#574 = ORIENTED_EDGE ( 'NONE', *, *, #768, .T. ) ;
#575 = CARTESIAN_POINT ( 'NONE',  ( 1.514999999999999902, 1.332113469553787911E-16, -0.005000000000000009645 ) ) ;
#576 = CARTESIAN_POINT ( 'NONE',  ( 1.134000000000000119, 0.8499999999999999778, 0.000000000000000000 ) ) ;
#577 = EDGE_LOOP ( 'NONE', ( #303, #497, #443, #531 ) ) ;
#578 = CARTESIAN_POINT ( 'NONE',  ( -0.006000000000000009666, 0.000000000000000000, 0.4899999999999999911 ) ) ;
#579 = UNCERTAINTY_MEASURE_WITH_UNIT (LENGTH_MEASURE( 1.000000000000000082E-05 ), #177, 'distance_accuracy_value', 'NONE');
#580 = CARTESIAN_POINT ( 'NONE',  ( 1.135000000000000009, -0.001000000000000129908, -0.002500000000000000052 ) ) ;
#581 = SURFACE_STYLE_USAGE ( .BOTH. , #428 ) ;
#582 =( NAMED_UNIT ( * ) PLANE_ANGLE_UNIT ( ) SI_UNIT ( $, .RADIAN. ) );
#583 = LINE ( 'NONE', #869, #114 ) ;
#584 = ORIENTED_EDGE ( 'NONE', *, *, #1051, .F. ) ;
#585 = DIRECTION ( 'NONE',  ( 1.000000000000000000, 0.000000000000000000, -0.000000000000000000 ) ) ;
#586 = EDGE_CURVE ( 'NONE', #990, #199, #543, .T. ) ;
#587 = STYLED_ITEM ( 'NONE', ( #624 ), #141 ) ;
#588 = PRESENTATION_LAYER_ASSIGNMENT (  '', '', ( #682 ) ) ;
#589 = STYLED_ITEM ( 'NONE', ( #525 ), #546 ) ;
#590 = MECHANICAL_DESIGN_GEOMETRIC_PRESENTATION_REPRESENTATION (  '', ( #999 ), #135 ) ;
#591 =( NAMED_UNIT ( * ) SI_UNIT ( $, .STERADIAN. ) SOLID_ANGLE_UNIT ( ) );
#592 = CARTESIAN_POINT ( 'NONE',  ( 1.322500000000000009, -0.0009999999999999549180, 0.4899999999999999911 ) ) ;
#593 = DIRECTION ( 'NONE',  ( -0.000000000000000000, -1.000000000000000000, -0.000000000000000000 ) ) ;
#594 =( NAMED_UNIT ( * ) SI_UNIT ( $, .STERADIAN. ) SOLID_ANGLE_UNIT ( ) );
#595 = SURFACE_STYLE_FILL_AREA ( #91 ) ;
#596 = EDGE_CURVE ( 'NONE', #815, #58, #378, .T. ) ;
#597 = CARTESIAN_POINT ( 'NONE',  ( 1.514999999999999902, -0.0009999999999998670976, 0.2449999999999999956 ) ) ;
#598 = DIRECTION ( 'NONE',  ( 1.000000000000000000, 0.000000000000000000, -0.000000000000000000 ) ) ;
#599 = FILL_AREA_STYLE_COLOUR ( '', #976 ) ;
#600 = LINE ( 'NONE', #86, #756 ) ;
#601 = ORIENTED_EDGE ( 'NONE', *, *, #57, .T. ) ;
#602 = SURFACE_SIDE_STYLE ('',( #595 ) ) ;
#603 = PLANE ( 'NONE',  #753 ) ;
#604 = SURFACE_STYLE_FILL_AREA ( #1011 ) ;
#605 = ORIENTED_EDGE ( 'NONE', *, *, #358, .T. ) ;
#606 = EDGE_LOOP ( 'NONE', ( #1041, #258, #724, #698 ) ) ;
#607 = FILL_AREA_STYLE_COLOUR ( '', #1052 ) ;
#608 = VECTOR ( 'NONE', #435, 1000.000000000000000 ) ;
#609 = VECTOR ( 'NONE', #772, 1000.000000000000000 ) ;
#610 = UNCERTAINTY_MEASURE_WITH_UNIT (LENGTH_MEASURE( 1.000000000000000082E-05 ), #881, 'distance_accuracy_value', 'NONE');
#611 = DIRECTION ( 'NONE',  ( -1.000000000000000000, 0.000000000000000000, 0.000000000000000000 ) ) ;
#612 = VECTOR ( 'NONE', #1091, 1000.000000000000000 ) ;
#613 = PRESENTATION_LAYER_ASSIGNMENT (  '', '', ( #980 ) ) ;
#614 = PLANE ( 'NONE',  #1034 ) ;
#615 = SURFACE_STYLE_FILL_AREA ( #20 ) ;
#616 = AXIS2_PLACEMENT_3D ( 'NONE', #1072, #560, #230 ) ;
#617 = EDGE_CURVE ( 'NONE', #119, #815, #800, .T. ) ;
#618 = MECHANICAL_DESIGN_GEOMETRIC_PRESENTATION_REPRESENTATION (  '', ( #932 ), #663 ) ;
#619 = EDGE_LOOP ( 'NONE', ( #558, #517, #1096, #178 ) ) ;
#620 =( LENGTH_UNIT ( ) NAMED_UNIT ( * ) SI_UNIT ( .MILLI., .METRE. ) );
#621 = SURFACE_STYLE_FILL_AREA ( #878 ) ;
#622 = CARTESIAN_POINT ( 'NONE',  ( 0.000000000000000000, -0.001000000000000000021, 0.000000000000000000 ) ) ;
#623 = VERTEX_POINT ( 'NONE', #960 ) ;
#624 = PRESENTATION_STYLE_ASSIGNMENT (( #798 ) ) ;
#625 =( NAMED_UNIT ( * ) SI_UNIT ( $, .STERADIAN. ) SOLID_ANGLE_UNIT ( ) );
#626 = ORIENTED_EDGE ( 'NONE', *, *, #983, .F. ) ;
#627 = ADVANCED_FACE ( 'NONE', ( #55 ), #127, .T. ) ;
#628 = EDGE_CURVE ( 'NONE', #799, #138, #991, .T. ) ;
#629 = DIRECTION ( 'NONE',  ( 0.000000000000000000, 0.000000000000000000, 1.000000000000000000 ) ) ;
#630 = VECTOR ( 'NONE', #571, 1000.000000000000000 ) ;
#631 = FILL_AREA_STYLE ('',( #795 ) ) ;
#632 =( NAMED_UNIT ( * ) PLANE_ANGLE_UNIT ( ) SI_UNIT ( $, .RADIAN. ) );
#633 =( GEOMETRIC_REPRESENTATION_CONTEXT ( 3 ) GLOBAL_UNCERTAINTY_ASSIGNED_CONTEXT ( ( #570 ) ) GLOBAL_UNIT_ASSIGNED_CONTEXT ( ( #809, #113, #139 ) ) REPRESENTATION_CONTEXT ( 'NONE', 'WORKASPACE' ) );
#634 = VERTEX_POINT ( 'NONE', #322 ) ;
#635 = PRESENTATION_LAYER_ASSIGNMENT (  '', '', ( #705 ) ) ;
#636 = SURFACE_STYLE_USAGE ( .BOTH. , #887 ) ;
#637 = VERTEX_POINT ( 'NONE', #900 ) ;
#638 = LINE ( 'NONE', #368, #534 ) ;
#639 = ORIENTED_EDGE ( 'NONE', *, *, #1018, .F. ) ;
#640 = FILL_AREA_STYLE ('',( #1062 ) ) ;
#641 = SURFACE_STYLE_USAGE ( .BOTH. , #1080 ) ;
#642 = PRESENTATION_LAYER_ASSIGNMENT (  '', '', ( #305 ) ) ;
#643 = EDGE_LOOP ( 'NONE', ( #50, #899, #693, #321, #877, #1067, #103, #833 ) ) ;
#644 = MECHANICAL_DESIGN_GEOMETRIC_PRESENTATION_REPRESENTATION (  '', ( #589 ), #739 ) ;
#645 = MECHANICAL_DESIGN_GEOMETRIC_PRESENTATION_REPRESENTATION (  '', ( #684 ), #825 ) ;
#646 = SURFACE_SIDE_STYLE ('',( #67 ) ) ;
#647 = PLANE ( 'NONE',  #616 ) ;
#648 = ORIENTED_EDGE ( 'NONE', *, *, #1003, .F. ) ;
#649 = FACE_OUTER_BOUND ( 'NONE', #997, .T. ) ;
#650 = CARTESIAN_POINT ( 'NONE',  ( 1.510000000000000009, 0.000000000000000000, -2.710505431213761085E-17 ) ) ;
#651 = ORIENTED_EDGE ( 'NONE', *, *, #796, .T. ) ;
#652 =( NAMED_UNIT ( * ) SI_UNIT ( $, .STERADIAN. ) SOLID_ANGLE_UNIT ( ) );
#653 = CARTESIAN_POINT ( 'NONE',  ( 0.3750000000000000000, -0.001000000000000000021, 0.4924999999999999933 ) ) ;
#654 = EDGE_CURVE ( 'NONE', #491, #317, #313, .T. ) ;
#655 = PLANE ( 'NONE',  #551 ) ;
#656 = DIRECTION ( 'NONE',  ( -1.000000000000000000, 0.000000000000000000, -0.000000000000000000 ) ) ;
#657 = ORIENTED_EDGE ( 'NONE', *, *, #1019, .F. ) ;
#658 = VECTOR ( 'NONE', #129, 1000.000000000000000 ) ;
#659 = DIRECTION ( 'NONE',  ( 0.000000000000000000, 1.000000000000000000, -0.000000000000000000 ) ) ;
#660 = MECHANICAL_DESIGN_GEOMETRIC_PRESENTATION_REPRESENTATION (  '', ( #1050 ), #839 ) ;
#661 = VECTOR ( 'NONE', #548, 1000.000000000000000 ) ;
#662 = PRESENTATION_LAYER_ASSIGNMENT (  '', '', ( #740 ) ) ;
#663 =( GEOMETRIC_REPRESENTATION_CONTEXT ( 3 ) GLOBAL_UNCERTAINTY_ASSIGNED_CONTEXT ( ( #275 ) ) GLOBAL_UNIT_ASSIGNED_CONTEXT ( ( #27, #371, #367 ) ) REPRESENTATION_CONTEXT ( 'NONE', 'WORKASPACE' ) );
#664 =( LENGTH_UNIT ( ) NAMED_UNIT ( * ) SI_UNIT ( .MILLI., .METRE. ) );
#665 = DIRECTION ( 'NONE',  ( -1.000000000000000000, 0.000000000000000000, 0.000000000000000000 ) ) ;
#666 = ORIENTED_EDGE ( 'NONE', *, *, #201, .F. ) ;
#667 = CARTESIAN_POINT ( 'NONE',  ( -0.001000000000000000021, 0.000000000000000000, 0.4899999999999999911 ) ) ;
#668 = PRESENTATION_STYLE_ASSIGNMENT (( #1079 ) ) ;
#669 = CARTESIAN_POINT ( 'NONE',  ( 1.514999999999999902, 0.8499999999999999778, -0.004999999999999982757 ) ) ;
#670 = EDGE_CURVE ( 'NONE', #748, #780, #1074, .T. ) ;
#671 = ORIENTED_EDGE ( 'NONE', *, *, #314, .T. ) ;
#672 = DIRECTION ( 'NONE',  ( 1.000000000000000000, -0.000000000000000000, 0.000000000000000000 ) ) ;
#673 = EDGE_CURVE ( 'NONE', #717, #266, #830, .T. ) ;
#674 = VERTEX_POINT ( 'NONE', #566 ) ;
#675 =( NAMED_UNIT ( * ) SI_UNIT ( $, .STERADIAN. ) SOLID_ANGLE_UNIT ( ) );
#676 = SURFACE_STYLE_FILL_AREA ( #690 ) ;
#677 = CARTESIAN_POINT ( 'NONE',  ( 1.510000000000000009, -0.001000000000000000021, 0.2449999999999999956 ) ) ;
#678 = LINE ( 'NONE', #515, #392 ) ;
#679 = ORIENTED_EDGE ( 'NONE', *, *, #586, .T. ) ;
#680 = SURFACE_STYLE_FILL_AREA ( #786 ) ;
#681 = PRESENTATION_LAYER_ASSIGNMENT (  '', '', ( #445 ) ) ;
#682 = STYLED_ITEM ( 'NONE', ( #668 ), #479 ) ;
#683 = VECTOR ( 'NONE', #416, 1000.000000000000000 ) ;
#684 = STYLED_ITEM ( 'NONE', ( #130 ), #876 ) ;
#685 = CARTESIAN_POINT ( 'NONE',  ( 0.3750000000000000000, 0.000000000000000000, 0.4899999999999999911 ) ) ;
#686 =( LENGTH_UNIT ( ) NAMED_UNIT ( * ) SI_UNIT ( .MILLI., .METRE. ) );
#687 = STYLED_ITEM ( 'NONE', ( #520 ), #1060 ) ;
#688 = SURFACE_SIDE_STYLE ('',( #863 ) ) ;
#689 = FACE_OUTER_BOUND ( 'NONE', #85, .T. ) ;
#690 = FILL_AREA_STYLE ('',( #853 ) ) ;
#691 = ORIENTED_EDGE ( 'NONE', *, *, #508, .F. ) ;
#692 = DIRECTION ( 'NONE',  ( -0.000000000000000000, 0.000000000000000000, 1.000000000000000000 ) ) ;
#693 = ORIENTED_EDGE ( 'NONE', *, *, #983, .T. ) ;
#694 = SURFACE_STYLE_USAGE ( .BOTH. , #22 ) ;
#695 = DIRECTION ( 'NONE',  ( 1.000000000000000000, -0.000000000000000000, 0.000000000000000000 ) ) ;
#696 = DIRECTION ( 'NONE',  ( -0.000000000000000000, -0.000000000000000000, -1.000000000000000000 ) ) ;
#697 = EDGE_CURVE ( 'NONE', #284, #119, #752, .T. ) ;
#698 = ORIENTED_EDGE ( 'NONE', *, *, #673, .F. ) ;
#699 = CARTESIAN_POINT ( 'NONE',  ( 0.000000000000000000, 0.8499999999999999778, 0.4899999999999999911 ) ) ;
#700 = ORIENTED_EDGE ( 'NONE', *, *, #556, .F. ) ;
#701 = CLOSED_SHELL ( 'NONE', ( #347, #917, #200, #573, #811, #280, #351, #1060, #761, #546 ) ) ;
#702 = COLOUR_RGB ( '',0.8431372549019607865, 0.8431372549019607865, 0.8431372549019607865 ) ;
#703 = FILL_AREA_STYLE_COLOUR ( '', #804 ) ;
#704 = SURFACE_SIDE_STYLE ('',( #287 ) ) ;
#705 = STYLED_ITEM ( 'NONE', ( #382 ), #917 ) ;
#706 = CARTESIAN_POINT ( 'NONE',  ( 0.000000000000000000, 0.8499999999999999778, 1.355252715606880543E-17 ) ) ;
#707 = LINE ( 'NONE', #937, #191 ) ;
#708 = AXIS2_PLACEMENT_3D ( 'NONE', #1026, #93, #598 ) ;
#709 = EDGE_LOOP ( 'NONE', ( #312, #301, #922, #126, #350, #407, #1048, #601 ) ) ;
#710 =( LENGTH_UNIT ( ) NAMED_UNIT ( * ) SI_UNIT ( .MILLI., .METRE. ) );
#711 = FILL_AREA_STYLE_COLOUR ( '', #10 ) ;
#712 = EDGE_CURVE ( 'NONE', #1090, #147, #81, .T. ) ;
#713 = ORIENTED_EDGE ( 'NONE', *, *, #125, .F. ) ;
#714 = DIRECTION ( 'NONE',  ( 0.000000000000000000, 0.000000000000000000, 1.000000000000000000 ) ) ;
#715 = DIRECTION ( 'NONE',  ( -0.000000000000000000, -1.000000000000000000, -0.000000000000000000 ) ) ;
#716 = DIRECTION ( 'NONE',  ( 0.000000000000000000, -1.000000000000000000, 0.000000000000000000 ) ) ;
#717 = VERTEX_POINT ( 'NONE', #575 ) ;
#718 = DIRECTION ( 'NONE',  ( 1.000000000000000000, 0.000000000000000000, -0.000000000000000000 ) ) ;
#719 = SURFACE_STYLE_FILL_AREA ( #366 ) ;
#720 = MECHANICAL_DESIGN_GEOMETRIC_PRESENTATION_REPRESENTATION (  '', ( #682 ), #363 ) ;
#721 = CARTESIAN_POINT ( 'NONE',  ( -0.006000000000000009666, 0.8499999999999999778, 5.421010862427522170E-17 ) ) ;
#722 = FACE_OUTER_BOUND ( 'NONE', #606, .T. ) ;
#723 = PRESENTATION_LAYER_ASSIGNMENT (  '', '', ( #327 ) ) ;
#724 = ORIENTED_EDGE ( 'NONE', *, *, #992, .T. ) ;
#725 = CARTESIAN_POINT ( 'NONE',  ( 1.135000000000000009, -3.552713678800502852E-17, 0.2449999999999999956 ) ) ;
#726 = DIRECTION ( 'NONE',  ( -0.000000000000000000, 0.000000000000000000, -1.000000000000000000 ) ) ;
#727 = CARTESIAN_POINT ( 'NONE',  ( 1.510000000000000009, 0.8499999999999999778, 0.4899999999999999911 ) ) ;
#728 =( NAMED_UNIT ( * ) SI_UNIT ( $, .STERADIAN. ) SOLID_ANGLE_UNIT ( ) );
#729 = EDGE_LOOP ( 'NONE', ( #11, #732, #648, #700 ) ) ;
#730 = FACE_OUTER_BOUND ( 'NONE', #1061, .T. ) ;
#731 = DIRECTION ( 'NONE',  ( 0.000000000000000000, 1.000000000000000000, -0.000000000000000000 ) ) ;
#732 = ORIENTED_EDGE ( 'NONE', *, *, #52, .T. ) ;
#733 = CARTESIAN_POINT ( 'NONE',  ( 1.516000000000000014, 1.336708521648689908E-16, 0.4949999999999999956 ) ) ;
#734 =( NAMED_UNIT ( * ) SI_UNIT ( $, .STERADIAN. ) SOLID_ANGLE_UNIT ( ) );
#735 = CARTESIAN_POINT ( 'NONE',  ( 1.514999999999999902, 0.8499999999999999778, 0.2449999999999999956 ) ) ;
#736 =( GEOMETRIC_REPRESENTATION_CONTEXT ( 3 ) GLOBAL_UNCERTAINTY_ASSIGNED_CONTEXT ( ( #579 ) ) GLOBAL_UNIT_ASSIGNED_CONTEXT ( ( #177, #582, #430 ) ) REPRESENTATION_CONTEXT ( 'NONE', 'WORKASPACE' ) );
#737 = EDGE_LOOP ( 'NONE', ( #626, #822, #565, #850 ) ) ;
#738 = SURFACE_SIDE_STYLE ('',( #1005 ) ) ;
#739 =( GEOMETRIC_REPRESENTATION_CONTEXT ( 3 ) GLOBAL_UNCERTAINTY_ASSIGNED_CONTEXT ( ( #945 ) ) GLOBAL_UNIT_ASSIGNED_CONTEXT ( ( #30, #460, #120 ) ) REPRESENTATION_CONTEXT ( 'NONE', 'WORKASPACE' ) );
#740 = STYLED_ITEM ( 'NONE', ( #431 ), #811 ) ;
#741 = DIRECTION ( 'NONE',  ( -0.000000000000000000, -0.000000000000000000, 1.000000000000000000 ) ) ;
#742 = ORIENTED_EDGE ( 'NONE', *, *, #508, .T. ) ;
#743 = ADVANCED_FACE ( 'NONE', ( #910 ), #148, .T. ) ;
#744 =( NAMED_UNIT ( * ) SI_UNIT ( $, .STERADIAN. ) SOLID_ANGLE_UNIT ( ) );
#745 = ADVANCED_FACE ( 'NONE', ( #649 ), #823, .T. ) ;
#746 = LINE ( 'NONE', #749, #4 ) ;
#747 = CARTESIAN_POINT ( 'NONE',  ( 1.510000000000000009, 3.365155173289984730E-17, 0.000000000000000000 ) ) ;
#748 = VERTEX_POINT ( 'NONE', #767 ) ;
#749 = CARTESIAN_POINT ( 'NONE',  ( 1.510000000000000009, 0.8499999999999999778, 0.2449999999999999956 ) ) ;
#750 = LINE ( 'NONE', #735, #470 ) ;
#751 = VERTEX_POINT ( 'NONE', #1033 ) ;
#752 = LINE ( 'NONE', #157, #930 ) ;
#753 = AXIS2_PLACEMENT_3D ( 'NONE', #580, #926, #168 ) ;
#754 = PLANE ( 'NONE',  #60 ) ;
#755 = VECTOR ( 'NONE', #919, 1000.000000000000000 ) ;
#756 = VECTOR ( 'NONE', #436, 1000.000000000000000 ) ;
#757 = FILL_AREA_STYLE_COLOUR ( '', #996 ) ;
#758 = CARTESIAN_POINT ( 'NONE',  ( 0.000000000000000000, -0.001000000000000000021, 0.4899999999999999911 ) ) ;
#759 = CARTESIAN_POINT ( 'NONE',  ( 1.514999999999999902, -0.0009999999999998670976, -0.005000000000000013115 ) ) ;
#760 = SURFACE_STYLE_USAGE ( .BOTH. , #920 ) ;
#761 = ADVANCED_FACE ( 'NONE', ( #442 ), #107, .T. ) ;
#762 = PRESENTATION_STYLE_ASSIGNMENT (( #256 ) ) ;
#763 = DIRECTION ( 'NONE',  ( -1.000000000000000000, -0.000000000000000000, 0.000000000000000000 ) ) ;
#764 = UNCERTAINTY_MEASURE_WITH_UNIT (LENGTH_MEASURE( 1.000000000000000082E-05 ), #794, 'distance_accuracy_value', 'NONE');
#765 = CARTESIAN_POINT ( 'NONE',  ( 0.000000000000000000, 0.000000000000000000, 0.2449999999999999956 ) ) ;
#766 = ORIENTED_EDGE ( 'NONE', *, *, #792, .T. ) ;
#767 = CARTESIAN_POINT ( 'NONE',  ( 1.510000000000000009, 0.000000000000000000, 0.4899999999999999911 ) ) ;
#768 = EDGE_CURVE ( 'NONE', #1021, #918, #707, .T. ) ;
#769 = FILL_AREA_STYLE_COLOUR ( '', #502 ) ;
#770 = AXIS2_PLACEMENT_3D ( 'NONE', #83, #1000, #493 ) ;
#771 = COLOUR_RGB ( '',0.8431372549019607865, 0.8431372549019607865, 0.8431372549019607865 ) ;
#772 = DIRECTION ( 'NONE',  ( -1.000000000000000000, -0.000000000000000000, 0.000000000000000000 ) ) ;
#773 = ORIENTED_EDGE ( 'NONE', *, *, #425, .T. ) ;
#774 = SURFACE_STYLE_USAGE ( .BOTH. , #434 ) ;
#775 = EDGE_CURVE ( 'NONE', #1021, #748, #784, .T. ) ;
#776 = UNCERTAINTY_MEASURE_WITH_UNIT (LENGTH_MEASURE( 1.000000000000000082E-05 ), #265, 'distance_accuracy_value', 'NONE');
#777 = CARTESIAN_POINT ( 'NONE',  ( 1.514999999999999902, 0.8499999999999999778, 0.4949999999999999956 ) ) ;
#778 = FACE_OUTER_BOUND ( 'NONE', #69, .T. ) ;
#779 = DIRECTION ( 'NONE',  ( 0.000000000000000000, 1.000000000000000000, 0.000000000000000000 ) ) ;
#780 = VERTEX_POINT ( 'NONE', #90 ) ;
#781 = CARTESIAN_POINT ( 'NONE',  ( -0.005000000000000000104, -0.001000000000000000021, -0.005000000000000013115 ) ) ;
#782 = APPLICATION_PROTOCOL_DEFINITION ( 'draft international standard', 'automotive_design', 1998, #495 ) ;
#783 =( NAMED_UNIT ( * ) PLANE_ANGLE_UNIT ( ) SI_UNIT ( $, .RADIAN. ) );
#784 = LINE ( 'NONE', #856, #293 ) ;
#785 = ORIENTED_EDGE ( 'NONE', *, *, #617, .F. ) ;
#786 = FILL_AREA_STYLE ('',( #871 ) ) ;
#787 = AXIS2_PLACEMENT_3D ( 'NONE', #72, #395, #240 ) ;
#788 = PRESENTATION_LAYER_ASSIGNMENT (  '', '', ( #393 ) ) ;
#789 = CARTESIAN_POINT ( 'NONE',  ( 0.3750000000000000000, -0.001000000000000000021, -0.005000000000000000104 ) ) ;
#790 = VECTOR ( 'NONE', #146, 1000.000000000000000 ) ;
#791 =( LENGTH_UNIT ( ) NAMED_UNIT ( * ) SI_UNIT ( .MILLI., .METRE. ) );
#792 = EDGE_CURVE ( 'NONE', #459, #1016, #600, .T. ) ;
#793 = ORIENTED_EDGE ( 'NONE', *, *, #817, .F. ) ;
#794 =( LENGTH_UNIT ( ) NAMED_UNIT ( * ) SI_UNIT ( .MILLI., .METRE. ) );
#795 = FILL_AREA_STYLE_COLOUR ( '', #500 ) ;
#796 = EDGE_CURVE ( 'NONE', #284, #272, #583, .T. ) ;
#797 = ORIENTED_EDGE ( 'NONE', *, *, #37, .F. ) ;
#798 = SURFACE_STYLE_USAGE ( .BOTH. , #805 ) ;
#799 = VERTEX_POINT ( 'NONE', #699 ) ;
#800 = LINE ( 'NONE', #733, #394 ) ;
#801 =( GEOMETRIC_REPRESENTATION_CONTEXT ( 3 ) GLOBAL_UNCERTAINTY_ASSIGNED_CONTEXT ( ( #87 ) ) GLOBAL_UNIT_ASSIGNED_CONTEXT ( ( #664, #489, #1064 ) ) REPRESENTATION_CONTEXT ( 'NONE', 'WORKASPACE' ) );
#802 = DIRECTION ( 'NONE',  ( 0.000000000000000000, 0.000000000000000000, -1.000000000000000000 ) ) ;
#803 = VECTOR ( 'NONE', #48, 1000.000000000000000 ) ;
#804 = COLOUR_RGB ( '',0.8431372549019607865, 0.8431372549019607865, 0.8431372549019607865 ) ;
#805 = SURFACE_SIDE_STYLE ('',( #457 ) ) ;
#806 = DIRECTION ( 'NONE',  ( 0.000000000000000000, -0.000000000000000000, 1.000000000000000000 ) ) ;
#807 = PRESENTATION_LAYER_ASSIGNMENT (  '', '', ( #171 ) ) ;
#808 = ORIENTED_EDGE ( 'NONE', *, *, #670, .F. ) ;
#809 =( LENGTH_UNIT ( ) NAMED_UNIT ( * ) SI_UNIT ( .MILLI., .METRE. ) );
#810 = AXIS2_PLACEMENT_3D ( 'NONE', #369, #236, #656 ) ;
#811 = ADVANCED_FACE ( 'NONE', ( #195 ), #271, .T. ) ;
#812 = ORIENTED_EDGE ( 'NONE', *, *, #388, .F. ) ;
#813 = CARTESIAN_POINT ( 'NONE',  ( 1.322500000000000009, -0.0009999999999999789873, 0.000000000000000000 ) ) ;
#814 = DIRECTION ( 'NONE',  ( 1.000000000000000000, -0.000000000000000000, 0.000000000000000000 ) ) ;
#815 = VERTEX_POINT ( 'NONE', #545 ) ;
#816 =( NAMED_UNIT ( * ) SI_UNIT ( $, .STERADIAN. ) SOLID_ANGLE_UNIT ( ) );
#817 = EDGE_CURVE ( 'NONE', #1016, #1008, #376, .T. ) ;
#818 = DIRECTION ( 'NONE',  ( 0.000000000000000000, -0.000000000000000000, 1.000000000000000000 ) ) ;
#819 = VECTOR ( 'NONE', #453, 1000.000000000000000 ) ;
#820 = VECTOR ( 'NONE', #418, 1000.000000000000000 ) ;
#821 = EDGE_CURVE ( 'NONE', #623, #1016, #893, .T. ) ;
#822 = ORIENTED_EDGE ( 'NONE', *, *, #425, .F. ) ;
#823 = PLANE ( 'NONE',  #503 ) ;
#824 = MECHANICAL_DESIGN_GEOMETRIC_PRESENTATION_REPRESENTATION (  '', ( #171 ), #633 ) ;
#825 =( GEOMETRIC_REPRESENTATION_CONTEXT ( 3 ) GLOBAL_UNCERTAINTY_ASSIGNED_CONTEXT ( ( #1030 ) ) GLOBAL_UNIT_ASSIGNED_CONTEXT ( ( #791, #632, #625 ) ) REPRESENTATION_CONTEXT ( 'NONE', 'WORKASPACE' ) );
#826 = VECTOR ( 'NONE', #696, 1000.000000000000000 ) ;
#827 = FILL_AREA_STYLE_COLOUR ( '', #907 ) ;
#828 = FILL_AREA_STYLE_COLOUR ( '', #136 ) ;
#829 = ORIENTED_EDGE ( 'NONE', *, *, #37, .T. ) ;
#830 = LINE ( 'NONE', #759, #134 ) ;
#831 = CARTESIAN_POINT ( 'NONE',  ( 0.3750000000000000000, -0.001000000000000000021, -5.548065804515667221E-17 ) ) ;
#832 = PLANE ( 'NONE',  #708 ) ;
#833 = ORIENTED_EDGE ( 'NONE', *, *, #712, .F. ) ;
#834 = PLANE ( 'NONE',  #770 ) ;
#835 = CARTESIAN_POINT ( 'NONE',  ( 0.3750000000000000000, 0.000000000000000000, -1.387016451128916805E-17 ) ) ;
#836 = DIRECTION ( 'NONE',  ( 0.000000000000000000, 0.000000000000000000, 1.000000000000000000 ) ) ;
#837 = VECTOR ( 'NONE', #211, 1000.000000000000000 ) ;
#838 =( NAMED_UNIT ( * ) PLANE_ANGLE_UNIT ( ) SI_UNIT ( $, .RADIAN. ) );
#839 =( GEOMETRIC_REPRESENTATION_CONTEXT ( 3 ) GLOBAL_UNCERTAINTY_ASSIGNED_CONTEXT ( ( #1006 ) ) GLOBAL_UNIT_ASSIGNED_CONTEXT ( ( #182, #1094, #175 ) ) REPRESENTATION_CONTEXT ( 'NONE', 'WORKASPACE' ) );
#840 = CARTESIAN_POINT ( 'NONE',  ( 0.000000000000000000, -0.001000000000000000021, 0.4899999999999999911 ) ) ;
#841 = MECHANICAL_DESIGN_GEOMETRIC_PRESENTATION_REPRESENTATION (  '', ( #327 ), #468 ) ;
#842 = VECTOR ( 'NONE', #985, 1000.000000000000000 ) ;
#843 = ADVANCED_FACE ( 'NONE', ( #875 ), #111, .T. ) ;
#844 = CARTESIAN_POINT ( 'NONE',  ( 0.1849999999999999978, 0.000000000000000000, 0.4949999999999999956 ) ) ;
#845 =( NAMED_UNIT ( * ) PLANE_ANGLE_UNIT ( ) SI_UNIT ( $, .RADIAN. ) );
#846 =( NAMED_UNIT ( * ) PLANE_ANGLE_UNIT ( ) SI_UNIT ( $, .RADIAN. ) );
#847 = FACE_OUTER_BOUND ( 'NONE', #643, .T. ) ;
#848 = EDGE_LOOP ( 'NONE', ( #466, #1004, #884, #278 ) ) ;
#849 = DIRECTION ( 'NONE',  ( 0.000000000000000000, 1.000000000000000000, 0.000000000000000000 ) ) ;
#850 = ORIENTED_EDGE ( 'NONE', *, *, #358, .F. ) ;
#851 = PRESENTATION_STYLE_ASSIGNMENT (( #421 ) ) ;
#852 = UNCERTAINTY_MEASURE_WITH_UNIT (LENGTH_MEASURE( 1.000000000000000082E-05 ), #620, 'distance_accuracy_value', 'NONE');
#853 = FILL_AREA_STYLE_COLOUR ( '', #341 ) ;
#854 = CARTESIAN_POINT ( 'NONE',  ( 1.514999999999999902, 1.331959309557387283E-16, 0.2449999999999999956 ) ) ;
#855 = CARTESIAN_POINT ( 'NONE',  ( 1.135000000000000009, -3.552713678800502852E-17, 0.2449999999999999956 ) ) ;
#856 = CARTESIAN_POINT ( 'NONE',  ( 1.510000000000000009, 0.000000000000000000, 0.2449999999999999956 ) ) ;
#857 = EDGE_CURVE ( 'NONE', #637, #634, #458, .T. ) ;
#858 = FILL_AREA_STYLE ('',( #607 ) ) ;
#859 = VECTOR ( 'NONE', #477, 1000.000000000000000 ) ;
#860 = VECTOR ( 'NONE', #464, 1000.000000000000000 ) ;
#861 = DIRECTION ( 'NONE',  ( 0.000000000000000000, 0.000000000000000000, -1.000000000000000000 ) ) ;
#862 = DIRECTION ( 'NONE',  ( 0.000000000000000000, -1.000000000000000000, -0.000000000000000000 ) ) ;
#863 = SURFACE_STYLE_FILL_AREA ( #187 ) ;
#864 = EDGE_CURVE ( 'NONE', #58, #459, #541, .T. ) ;
#865 = UNCERTAINTY_MEASURE_WITH_UNIT (LENGTH_MEASURE( 1.000000000000000082E-05 ), #333, 'distance_accuracy_value', 'NONE');
#866 = FACE_OUTER_BOUND ( 'NONE', #1077, .T. ) ;
#867 = LINE ( 'NONE', #511, #451 ) ;
#868 = CARTESIAN_POINT ( 'NONE',  ( 1.135000000000000009, -0.001000000000000129908, 8.470329472543003391E-19 ) ) ;
#869 = CARTESIAN_POINT ( 'NONE',  ( 1.324999999999999956, 0.8499999999999999778, 0.4949999999999999956 ) ) ;
#870 = EDGE_LOOP ( 'NONE', ( #547, #742, #542, #229 ) ) ;
#871 = FILL_AREA_STYLE_COLOUR ( '', #998 ) ;
#872 = EDGE_CURVE ( 'NONE', #1090, #955, #970, .T. ) ;
#873 = PRODUCT_CONTEXT ( 'NONE', #495, 'mechanical' ) ;
#874 = CARTESIAN_POINT ( 'NONE',  ( -0.005000000000000002706, 0.000000000000000000, 0.4949999999999999956 ) ) ;
#875 = FACE_OUTER_BOUND ( 'NONE', #264, .T. ) ;
#876 = MANIFOLD_SOLID_BREP ( 'Solide2', #59 ) ;
#877 = ORIENTED_EDGE ( 'NONE', *, *, #654, .T. ) ;
#878 = FILL_AREA_STYLE ('',( #452 ) ) ;
#879 = PRESENTATION_LAYER_ASSIGNMENT (  '', '', ( #46 ) ) ;
#880 = VECTOR ( 'NONE', #550, 1000.000000000000000 ) ;
#881 =( LENGTH_UNIT ( ) NAMED_UNIT ( * ) SI_UNIT ( .MILLI., .METRE. ) );
#882 = ORIENTED_EDGE ( 'NONE', *, *, #242, .T. ) ;
#883 = DIRECTION ( 'NONE',  ( 0.000000000000000000, 0.000000000000000000, 1.000000000000000000 ) ) ;
#884 = ORIENTED_EDGE ( 'NONE', *, *, #263, .F. ) ;
#885 = CARTESIAN_POINT ( 'NONE',  ( 0.3750000000000000000, -0.001000000000000000021, 0.4949999999999999956 ) ) ;
#886 = CARTESIAN_POINT ( 'NONE',  ( 0.3750000000000000000, -0.001000000000000000021, -0.002500000000000010027 ) ) ;
#887 = SURFACE_SIDE_STYLE ('',( #1039 ) ) ;
#888 = ORIENTED_EDGE ( 'NONE', *, *, #9, .F. ) ;
#889 = FILL_AREA_STYLE ('',( #206 ) ) ;
#890 = COLOUR_RGB ( '',0.8431372549019607865, 0.8431372549019607865, 0.8431372549019607865 ) ;
#891 = COLOUR_RGB ( '',0.8431372549019607865, 0.8431372549019607865, 0.8431372549019607865 ) ;
#892 = PRESENTATION_STYLE_ASSIGNMENT (( #641 ) ) ;
#893 = LINE ( 'NONE', #53, #524 ) ;
#894 = COLOUR_RGB ( '',0.8431372549019607865, 0.8431372549019607865, 0.8431372549019607865 ) ;
#895 = ORIENTED_EDGE ( 'NONE', *, *, #872, .F. ) ;
#896 = SURFACE_STYLE_USAGE ( .BOTH. , #539 ) ;
#897 = CARTESIAN_POINT ( 'NONE',  ( 0.3750000000000000000, 0.8499999999999999778, 0.4949999999999999956 ) ) ;
#898 = LINE ( 'NONE', #1065, #274 ) ;
#899 = ORIENTED_EDGE ( 'NONE', *, *, #987, .T. ) ;
#900 = CARTESIAN_POINT ( 'NONE',  ( 1.135000000000000009, 0.8499999999999999778, -0.004999999999999979287 ) ) ;
#901 = EDGE_CURVE ( 'NONE', #918, #751, #300, .T. ) ;
#902 = FACE_OUTER_BOUND ( 'NONE', #218, .T. ) ;
#903 = ORIENTED_EDGE ( 'NONE', *, *, #412, .F. ) ;
#904 = DIRECTION ( 'NONE',  ( 1.000000000000000000, -0.000000000000000000, 0.000000000000000000 ) ) ;
#905 = FILL_AREA_STYLE ('',( #827 ) ) ;
#906 = FACE_OUTER_BOUND ( 'NONE', #870, .T. ) ;
#907 = COLOUR_RGB ( '',0.8431372549019607865, 0.8431372549019607865, 0.8431372549019607865 ) ;
#908 = STYLED_ITEM ( 'NONE', ( #88 ), #280 ) ;
#909 = VERTEX_POINT ( 'NONE', #537 ) ;
#910 = FACE_OUTER_BOUND ( 'NONE', #213, .T. ) ;
#911 = PRESENTATION_LAYER_ASSIGNMENT (  '', '', ( #8 ) ) ;
#912 = VECTOR ( 'NONE', #572, 1000.000000000000000 ) ;
#913 = PRESENTATION_STYLE_ASSIGNMENT (( #760 ) ) ;
#914 = VECTOR ( 'NONE', #861, 1000.000000000000000 ) ;
#915 = PRESENTATION_STYLE_ASSIGNMENT (( #401 ) ) ;
#916 = CARTESIAN_POINT ( 'NONE',  ( 0.3750000000000000000, 0.000000000000000000, 0.4949999999999999956 ) ) ;
#917 = ADVANCED_FACE ( 'NONE', ( #722 ), #372, .T. ) ;
#918 = VERTEX_POINT ( 'NONE', #241 ) ;
#919 = DIRECTION ( 'NONE',  ( 0.000000000000000000, 0.000000000000000000, 1.000000000000000000 ) ) ;
#920 = SURFACE_SIDE_STYLE ('',( #380 ) ) ;
#921 = DIRECTION ( 'NONE',  ( -1.000000000000000000, -0.000000000000000000, 0.000000000000000000 ) ) ;
#922 = ORIENTED_EDGE ( 'NONE', *, *, #242, .F. ) ;
#923 = DIRECTION ( 'NONE',  ( 1.000000000000000000, 0.000000000000000000, -0.000000000000000000 ) ) ;
#924 = DIRECTION ( 'NONE',  ( 0.000000000000000000, 0.000000000000000000, -1.000000000000000000 ) ) ;
#925 = PRODUCT_DEFINITION_SHAPE ( 'NONE', 'NONE',  #109 ) ;
#926 = DIRECTION ( 'NONE',  ( -1.000000000000000000, 0.000000000000000000, 0.000000000000000000 ) ) ;
#927 = COLOUR_RGB ( '',0.8431372549019607865, 0.8431372549019607865, 0.8431372549019607865 ) ;
#928 = LINE ( 'NONE', #758, #94 ) ;
#929 =( LENGTH_UNIT ( ) NAMED_UNIT ( * ) SI_UNIT ( .MILLI., .METRE. ) );
#930 = VECTOR ( 'NONE', #562, 1000.000000000000000 ) ;
#931 =( GEOMETRIC_REPRESENTATION_CONTEXT ( 3 ) GLOBAL_UNCERTAINTY_ASSIGNED_CONTEXT ( ( #610 ) ) GLOBAL_UNIT_ASSIGNED_CONTEXT ( ( #881, #212, #728 ) ) REPRESENTATION_CONTEXT ( 'NONE', 'WORKASPACE' ) );
#932 = STYLED_ITEM ( 'NONE', ( #32 ), #939 ) ;
#933 = UNCERTAINTY_MEASURE_WITH_UNIT (LENGTH_MEASURE( 1.000000000000000082E-05 ), #710, 'distance_accuracy_value', 'NONE');
#934 = SURFACE_SIDE_STYLE ('',( #427 ) ) ;
#935 = LINE ( 'NONE', #176, #826 ) ;
#936 = CARTESIAN_POINT ( 'NONE',  ( 1.135000000000000009, -0.0009999999999999529664, -0.005000000000000000104 ) ) ;
#937 = CARTESIAN_POINT ( 'NONE',  ( 0.7550000000000000044, 0.000000000000000000, 0.000000000000000000 ) ) ;
#938 = EDGE_CURVE ( 'NONE', #390, #909, #475, .T. ) ;
#939 = ADVANCED_BREP_SHAPE_REPRESENTATION ( 'P0603Y3122BNT', ( #141, #518, #876, #345 ), #1037 ) ;
#940 = PLANE ( 'NONE',  #433 ) ;
#941 = ADVANCED_FACE ( 'NONE', ( #906 ), #228, .T. ) ;
#942 = ORIENTED_EDGE ( 'NONE', *, *, #987, .F. ) ;
#943 = CARTESIAN_POINT ( 'NONE',  ( 1.135000000000000009, -0.001000000000000129908, 0.4924999999999999933 ) ) ;
#944 = PLANE ( 'NONE',  #484 ) ;
#945 = UNCERTAINTY_MEASURE_WITH_UNIT (LENGTH_MEASURE( 1.000000000000000082E-05 ), #30, 'distance_accuracy_value', 'NONE');
#946 =( NAMED_UNIT ( * ) PLANE_ANGLE_UNIT ( ) SI_UNIT ( $, .RADIAN. ) );
#947 = DIRECTION ( 'NONE',  ( 0.000000000000000000, -0.000000000000000000, 1.000000000000000000 ) ) ;
#948 = AXIS2_PLACEMENT_3D ( 'NONE', #441, #19, #282 ) ;
#949 = ORIENTED_EDGE ( 'NONE', *, *, #140, .F. ) ;
#950 = VECTOR ( 'NONE', #731, 1000.000000000000000 ) ;
#951 = PLANE ( 'NONE',  #360 ) ;
#952 = LINE ( 'NONE', #854, #914 ) ;
#953 = FILL_AREA_STYLE ('',( #599 ) ) ;
#954 = SURFACE_SIDE_STYLE ('',( #615 ) ) ;
#955 = VERTEX_POINT ( 'NONE', #478 ) ;
#956 =( NAMED_UNIT ( * ) SI_UNIT ( $, .STERADIAN. ) SOLID_ANGLE_UNIT ( ) );
#957 = VERTEX_POINT ( 'NONE', #78 ) ;
#958 = FACE_OUTER_BOUND ( 'NONE', #472, .T. ) ;
#959 = ORIENTED_EDGE ( 'NONE', *, *, #461, .T. ) ;
#960 = CARTESIAN_POINT ( 'NONE',  ( 1.510000000000000009, 0.8499999999999999778, 0.000000000000000000 ) ) ;
#961 = STYLED_ITEM ( 'NONE', ( #762 ), #1 ) ;
#962 = PRESENTATION_LAYER_ASSIGNMENT (  '', '', ( #521 ) ) ;
#963 = PRESENTATION_STYLE_ASSIGNMENT (( #31 ) ) ;
#964 = VECTOR ( 'NONE', #137, 1000.000000000000000 ) ;
#965 = FILL_AREA_STYLE ('',( #463 ) ) ;
#966 = FILL_AREA_STYLE_COLOUR ( '', #569 ) ;
#967 = ORIENTED_EDGE ( 'NONE', *, *, #673, .T. ) ;
#968 = SURFACE_STYLE_USAGE ( .BOTH. , #304 ) ;
#969 = CARTESIAN_POINT ( 'NONE',  ( 1.510000000000000009, 0.8499999999999999778, -1.355252715606880543E-17 ) ) ;
#970 = LINE ( 'NONE', #40, #880 ) ;
#971 = ORIENTED_EDGE ( 'NONE', *, *, #412, .T. ) ;
#972 = PLANE ( 'NONE',  #97 ) ;
#973 = DIRECTION ( 'NONE',  ( 0.000000000000000000, -0.000000000000000000, -1.000000000000000000 ) ) ;
#974 = EDGE_CURVE ( 'NONE', #147, #390, #557, .T. ) ;
#975 = ORIENTED_EDGE ( 'NONE', *, *, #974, .F. ) ;
#976 = COLOUR_RGB ( '',0.8431372549019607865, 0.8431372549019607865, 0.8431372549019607865 ) ;
#977 = MECHANICAL_DESIGN_GEOMETRIC_PRESENTATION_REPRESENTATION (  '', ( #908 ), #483 ) ;
#978 = VECTOR ( 'NONE', #659, 1000.000000000000000 ) ;
#979 =( NAMED_UNIT ( * ) PLANE_ANGLE_UNIT ( ) SI_UNIT ( $, .RADIAN. ) );
#980 = STYLED_ITEM ( 'NONE', ( #247 ), #1040 ) ;
#981 = ORIENTED_EDGE ( 'NONE', *, *, #318, .T. ) ;
#982 = DIRECTION ( 'NONE',  ( 0.000000000000000000, 0.000000000000000000, 1.000000000000000000 ) ) ;
#983 = EDGE_CURVE ( 'NONE', #330, #181, #62, .T. ) ;
#984 = PRODUCT ( 'P0603Y3122BNT', 'P0603Y3122BNT', '', ( #873 ) ) ;
#985 = DIRECTION ( 'NONE',  ( -1.000000000000000000, -0.000000000000000000, -0.000000000000000000 ) ) ;
#986 = ORIENTED_EDGE ( 'NONE', *, *, #796, .F. ) ;
#987 = EDGE_CURVE ( 'NONE', #955, #330, #994, .T. ) ;
#988 = FILL_AREA_STYLE_COLOUR ( '', #890 ) ;
#989 = SURFACE_STYLE_FILL_AREA ( #316 ) ;
#990 = VERTEX_POINT ( 'NONE', #916 ) ;
#991 = LINE ( 'NONE', #1068, #555 ) ;
#992 = EDGE_CURVE ( 'NONE', #637, #266, #898, .T. ) ;
#993 = CARTESIAN_POINT ( 'NONE',  ( 1.510000000000000009, 0.8499999999999999778, 0.2449999999999999956 ) ) ;
#994 = LINE ( 'NONE', #1059, #790 ) ;
#995 =( GEOMETRIC_REPRESENTATION_CONTEXT ( 3 ) GLOBAL_UNCERTAINTY_ASSIGNED_CONTEXT ( ( #331 ) ) GLOBAL_UNIT_ASSIGNED_CONTEXT ( ( #319, #979, #734 ) ) REPRESENTATION_CONTEXT ( 'NONE', 'WORKASPACE' ) );
#996 = COLOUR_RGB ( '',0.8431372549019607865, 0.8431372549019607865, 0.8431372549019607865 ) ;
#997 = EDGE_LOOP ( 'NONE', ( #476, #298, #108, #666 ) ) ;
#998 = COLOUR_RGB ( '',0.7921568627450980005, 0.8196078431372548767, 0.9333333333333333481 ) ;
#999 = STYLED_ITEM ( 'NONE', ( #1022 ), #761 ) ;
#1000 = DIRECTION ( 'NONE',  ( 0.000000000000000000, -1.000000000000000000, 0.000000000000000000 ) ) ;
#1001 = SURFACE_STYLE_USAGE ( .BOTH. , #934 ) ;
#1002 = CARTESIAN_POINT ( 'NONE',  ( -0.006000000000000009666, 0.8499999999999999778, 0.4899999999999999911 ) ) ;
#1003 = EDGE_CURVE ( 'NONE', #561, #423, #396, .T. ) ;
#1004 = ORIENTED_EDGE ( 'NONE', *, *, #556, .T. ) ;
#1005 = SURFACE_STYLE_FILL_AREA ( #75 ) ;
#1006 = UNCERTAINTY_MEASURE_WITH_UNIT (LENGTH_MEASURE( 1.000000000000000082E-05 ), #182, 'distance_accuracy_value', 'NONE');
#1007 = FILL_AREA_STYLE_COLOUR ( '', #82 ) ;
#1008 = VERTEX_POINT ( 'NONE', #490 ) ;
#1009 = FILL_AREA_STYLE_COLOUR ( '', #702 ) ;
#1010 = SURFACE_STYLE_USAGE ( .BOTH. , #510 ) ;
#1011 = FILL_AREA_STYLE ('',( #1007 ) ) ;
#1012 = VECTOR ( 'NONE', #593, 1000.000000000000000 ) ;
#1013 = LINE ( 'NONE', #415, #1012 ) ;
#1014 = CARTESIAN_POINT ( 'NONE',  ( 1.134000000000000119, 0.8499999999999999778, 0.2449999999999999956 ) ) ;
#1015 = VECTOR ( 'NONE', #532, 1000.000000000000000 ) ;
#1016 = VERTEX_POINT ( 'NONE', #747 ) ;
#1017 =( GEOMETRIC_REPRESENTATION_CONTEXT ( 3 ) GLOBAL_UNCERTAINTY_ASSIGNED_CONTEXT ( ( #852 ) ) GLOBAL_UNIT_ASSIGNED_CONTEXT ( ( #620, #189, #438 ) ) REPRESENTATION_CONTEXT ( 'NONE', 'WORKASPACE' ) );
#1018 = EDGE_CURVE ( 'NONE', #266, #284, #750, .T. ) ;
#1019 = EDGE_CURVE ( 'NONE', #397, #1021, #485, .T. ) ;
#1020 = LINE ( 'NONE', #765, #224 ) ;
#1021 = VERTEX_POINT ( 'NONE', #650 ) ;
#1022 = PRESENTATION_STYLE_ASSIGNMENT (( #257 ) ) ;
#1023 = ORIENTED_EDGE ( 'NONE', *, *, #140, .T. ) ;
#1024 = CARTESIAN_POINT ( 'NONE',  ( -0.006000000000000009666, 0.8499999999999999778, 0.2449999999999999956 ) ) ;
#1025 = ADVANCED_FACE ( 'NONE', ( #311 ), #647, .T. ) ;
#1026 = CARTESIAN_POINT ( 'NONE',  ( 0.1849999999999999978, -0.001000000000000000021, 0.4949999999999999956 ) ) ;
#1027 = ORIENTED_EDGE ( 'NONE', *, *, #768, .F. ) ;
#1028 =( NAMED_UNIT ( * ) SI_UNIT ( $, .STERADIAN. ) SOLID_ANGLE_UNIT ( ) );
#1029 = EDGE_LOOP ( 'NONE', ( #785, #1032, #651, #205 ) ) ;
#1030 = UNCERTAINTY_MEASURE_WITH_UNIT (LENGTH_MEASURE( 1.000000000000000082E-05 ), #791, 'distance_accuracy_value', 'NONE');
#1031 = CARTESIAN_POINT ( 'NONE',  ( 1.510000000000000009, 0.8499999999999999778, 0.4899999999999999911 ) ) ;
#1032 = ORIENTED_EDGE ( 'NONE', *, *, #697, .F. ) ;
#1033 = CARTESIAN_POINT ( 'NONE',  ( 0.000000000000000000, 0.8499999999999999778, 0.000000000000000000 ) ) ;
#1034 = AXIS2_PLACEMENT_3D ( 'NONE', #80, #186, #512 ) ;
#1035 =( LENGTH_UNIT ( ) NAMED_UNIT ( * ) SI_UNIT ( .MILLI., .METRE. ) );
#1036 = AXIS2_PLACEMENT_3D ( 'NONE', #481, #672, #245 ) ;
#1037 =( GEOMETRIC_REPRESENTATION_CONTEXT ( 3 ) GLOBAL_UNCERTAINTY_ASSIGNED_CONTEXT ( ( #16 ) ) GLOBAL_UNIT_ASSIGNED_CONTEXT ( ( #686, #845, #419 ) ) REPRESENTATION_CONTEXT ( 'NONE', 'WORKASPACE' ) );
#1038 = PLANE ( 'NONE',  #43 ) ;
#1039 = SURFACE_STYLE_FILL_AREA ( #386 ) ;
#1040 = ADVANCED_FACE ( 'NONE', ( #902 ), #832, .T. ) ;
#1041 = ORIENTED_EDGE ( 'NONE', *, *, #362, .T. ) ;
#1042 = PLANE ( 'NONE',  #948 ) ;
#1043 = ORIENTED_EDGE ( 'NONE', *, *, #494, .T. ) ;
#1044 = DIRECTION ( 'NONE',  ( 0.000000000000000000, 1.000000000000000000, 0.000000000000000000 ) ) ;
#1045 = FILL_AREA_STYLE ('',( #533 ) ) ;
#1046 = LINE ( 'NONE', #288, #658 ) ;
#1047 = CARTESIAN_POINT ( 'NONE',  ( 1.135000000000000009, 0.8499999999999999778, 0.2449999999999999956 ) ) ;
#1048 = ORIENTED_EDGE ( 'NONE', *, *, #163, .T. ) ;
#1049 = MECHANICAL_DESIGN_GEOMETRIC_PRESENTATION_REPRESENTATION (  '', ( #961 ), #736 ) ;
#1050 = STYLED_ITEM ( 'NONE', ( #77 ), #347 ) ;
#1051 = EDGE_CURVE ( 'NONE', #119, #717, #952, .T. ) ;
#1052 = COLOUR_RGB ( '',0.8431372549019607865, 0.8431372549019607865, 0.8431372549019607865 ) ;
#1053 = SURFACE_STYLE_FILL_AREA ( #471 ) ;
#1054 = ORIENTED_EDGE ( 'NONE', *, *, #628, .F. ) ;
#1055 = ADVANCED_FACE ( 'NONE', ( #194 ), #940, .T. ) ;
#1056 = EDGE_LOOP ( 'NONE', ( #895, #812, #348, #971 ) ) ;
#1057 = DIRECTION ( 'NONE',  ( 0.000000000000000000, 1.000000000000000000, 0.000000000000000000 ) ) ;
#1058 = EDGE_CURVE ( 'NONE', #909, #528, #867, .T. ) ;
#1059 = CARTESIAN_POINT ( 'NONE',  ( 0.3750000000000000000, 0.000000000000000000, 0.2449999999999999956 ) ) ;
#1060 = ADVANCED_FACE ( 'NONE', ( #778 ), #13, .T. ) ;
#1061 = EDGE_LOOP ( 'NONE', ( #64, #766, #231, #270, #15, #584, #41, #538 ) ) ;
#1062 = FILL_AREA_STYLE_COLOUR ( '', #190 ) ;
#1063 =( GEOMETRIC_REPRESENTATION_CONTEXT ( 3 ) GLOBAL_UNCERTAINTY_ASSIGNED_CONTEXT ( ( #439 ) ) GLOBAL_UNIT_ASSIGNED_CONTEXT ( ( #164, #567, #675 ) ) REPRESENTATION_CONTEXT ( 'NONE', 'WORKASPACE' ) );
#1064 =( NAMED_UNIT ( * ) SI_UNIT ( $, .STERADIAN. ) SOLID_ANGLE_UNIT ( ) );
#1065 = CARTESIAN_POINT ( 'NONE',  ( 1.324999999999999956, 0.8499999999999999778, -0.005000000000000000104 ) ) ;
#1066 = COLOUR_RGB ( '',0.8431372549019607865, 0.8431372549019607865, 0.8431372549019607865 ) ;
#1067 = ORIENTED_EDGE ( 'NONE', *, *, #233, .T. ) ;
#1068 = CARTESIAN_POINT ( 'NONE',  ( -0.001000000000000000021, 0.8499999999999999778, 0.4899999999999999911 ) ) ;
#1069 = PRESENTATION_LAYER_ASSIGNMENT (  '', '', ( #932 ) ) ;
#1070 = EDGE_CURVE ( 'NONE', #799, #751, #935, .T. ) ;
#1071 = DIRECTION ( 'NONE',  ( 0.000000000000000000, 0.000000000000000000, 1.000000000000000000 ) ) ;
#1072 = CARTESIAN_POINT ( 'NONE',  ( 0.7550000000000000044, -0.001000000000000000021, 0.000000000000000000 ) ) ;
#1073 = EDGE_LOOP ( 'NONE', ( #888, #1023, #237, #29 ) ) ;
#1074 = LINE ( 'NONE', #667, #225 ) ;
#1075 = CARTESIAN_POINT ( 'NONE',  ( 1.510000000000000009, -0.0009999999999998690492, 0.4899999999999999911 ) ) ;
#1076 = LINE ( 'NONE', #405, #859 ) ;
#1077 = EDGE_LOOP ( 'NONE', ( #161, #1043, #373, #14 ) ) ;
#1078 = CARTESIAN_POINT ( 'NONE',  ( 0.1875000000000000000, -0.001000000000000000021, 0.000000000000000000 ) ) ;
#1079 = SURFACE_STYLE_USAGE ( .BOTH. , #76 ) ;
#1080 = SURFACE_SIDE_STYLE ('',( #389 ) ) ;
#1081 = CARTESIAN_POINT ( 'NONE',  ( 0.000000000000000000, -0.001000000000000000021, 0.2449999999999999956 ) ) ;
#1082 = VECTOR ( 'NONE', #921, 1000.000000000000000 ) ;
#1083 = AXIS2_PLACEMENT_3D ( 'NONE', #1078, #391, #162 ) ;
#1084 = VERTEX_POINT ( 'NONE', #1031 ) ;
#1085 = DIRECTION ( 'NONE',  ( 0.000000000000000000, 1.000000000000000000, 0.000000000000000000 ) ) ;
#1086 = VECTOR ( 'NONE', #68, 1000.000000000000000 ) ;
#1087 =( NAMED_UNIT ( * ) PLANE_ANGLE_UNIT ( ) SI_UNIT ( $, .RADIAN. ) );
#1088 = PLANE ( 'NONE',  #306 ) ;
#1089 = DIRECTION ( 'NONE',  ( 0.000000000000000000, 0.000000000000000000, -1.000000000000000000 ) ) ;
#1090 = VERTEX_POINT ( 'NONE', #505 ) ;
#1091 = DIRECTION ( 'NONE',  ( 1.000000000000000000, 0.000000000000000000, 0.000000000000000000 ) ) ;
#1092 = FACE_OUTER_BOUND ( 'NONE', #709, .T. ) ;
#1093 = UNCERTAINTY_MEASURE_WITH_UNIT (LENGTH_MEASURE( 1.000000000000000082E-05 ), #400, 'distance_accuracy_value', 'NONE');
#1094 =( NAMED_UNIT ( * ) PLANE_ANGLE_UNIT ( ) SI_UNIT ( $, .RADIAN. ) );
#1095 = DIRECTION ( 'NONE',  ( 0.000000000000000000, 0.000000000000000000, -1.000000000000000000 ) ) ;
#1096 = ORIENTED_EDGE ( 'NONE', *, *, #167, .F. ) ;
ENDSEC;
END-ISO-10303-21;
