G04 ================== begin FILE IDENTIFICATION RECORD ==================*
G04 Layout Name:  LIDAR_READOUT_VER1_2_top_bot_gnd.brd*
G04 Film Name:    GROUND*
G04 File Format:  Gerber RS274X*
G04 File Origin:  Cadence Allegro 17.2-P019*
G04 Origin Date:  Mon Jul 17 15:10:13 2023*
G04 *
G04 Layer:  ETCH/GROUND*
G04 Layer:  PIN/GROUND*
G04 Layer:  VIA CLASS/GROUND*
G04 *
G04 Offset:    (0.0 0.0)*
G04 Mirror:    No*
G04 Mode:      Positive*
G04 Rotation:  0*
G04 FullContactRelief:  No*
G04 UndefLineWidth:     0.0*
G04 ================== end FILE IDENTIFICATION RECORD ====================*
%FSLAX25Y25*MOIN*%
%IR0*IPPOS*OFA0.00000B0.00000*MIA0B0*SFA1.00000B1.00000*%
%ADD14C,.15*%
%ADD12C,.024*%
%ADD10C,.025*%
%ADD11C,.055*%
%ADD15C,.065*%
%ADD18C,.075*%
%ADD20C,.058*%
%ADD13C,.0485*%
%ADD17R,.075X.075*%
%ADD19R,.058X.058*%
%ADD16C,.0899*%
%ADD21C,.012*%
%ADD27C,.1102*%
%ADD29C,.1704*%
%ADD24C,.0444*%
%ADD22C,.0754*%
%ADD28C,.0854*%
%ADD23C,.0954*%
%ADD25C,.0784*%
%ADD26C,.0688*%
G75*
%LPD*%
G75*
G36*
G01X538000Y508000D02*
Y5000D01*
X3000D01*
Y508000D01*
X538000D01*
G37*
%LPC*%
G75*
G36*
G01X462510Y442990D02*
X461000D01*
X460940Y442940D01*
G02X444060I-8440J10060D01*
G01X444000Y442990D01*
X442490D01*
Y444500D01*
X442440Y444560D01*
G02Y461440I10060J8440D01*
G01X442490Y461500D01*
Y463010D01*
X444000D01*
X444060Y463060D01*
G02X460940I8440J-10060D01*
G01X461000Y463010D01*
X462510D01*
Y461500D01*
X462560Y461440D01*
G02Y444560I-10060J-8440D01*
G01X462510Y444500D01*
Y442990D01*
G37*
G36*
G01X69010Y48990D02*
X67500D01*
X67440Y48940D01*
G02X50560I-8440J10060D01*
G01X50500Y48990D01*
X48990D01*
Y50500D01*
X48940Y50560D01*
G02Y67440I10060J8440D01*
G01X48990Y67500D01*
Y69010D01*
X50500D01*
X50560Y69060D01*
G02X67440I8440J-10060D01*
G01X67500Y69010D01*
X69010D01*
Y67500D01*
X69060Y67440D01*
G02Y50560I-10060J-8440D01*
G01X69010Y50500D01*
Y48990D01*
G37*
G36*
G01X226840Y421650D02*
Y429150D01*
G02X227850Y430160I1010J0D01*
G01X235350D01*
G02X236360Y429150I0J-1010D01*
G01Y421650D01*
G02X235350Y420640I-1010J0D01*
G01X227850D01*
G02X226840Y421650I0J1010D01*
G37*
G36*
G01X484190Y203500D02*
Y209300D01*
G02X485200Y210310I1010J0D01*
G01X491000D01*
G02X492010Y209300I0J-1010D01*
G01Y203500D01*
G02X491000Y202490I-1010J0D01*
G01X485200D01*
G02X484190Y203500I0J1010D01*
G37*
G36*
G01X494190Y243500D02*
Y249300D01*
G02X495200Y250310I1010J0D01*
G01X501000D01*
G02X502010Y249300I0J-1010D01*
G01Y243500D01*
G02X501000Y242490I-1010J0D01*
G01X495200D01*
G02X494190Y243500I0J1010D01*
G37*
G36*
G01X462510Y48990D02*
X461000D01*
X460940Y48940D01*
G02X444060I-8440J10060D01*
G01X444000Y48990D01*
X442490D01*
Y50500D01*
X442440Y50560D01*
G02Y67440I10060J8440D01*
G01X442490Y67500D01*
Y69010D01*
X444000D01*
X444060Y69060D01*
G02X460940I8440J-10060D01*
G01X461000Y69010D01*
X462510D01*
Y67500D01*
X462560Y67440D01*
G02Y50560I-10060J-8440D01*
G01X462510Y50500D01*
Y48990D01*
G37*
G36*
G01X48990Y442990D02*
Y444500D01*
X48940Y444560D01*
G02Y461440I10060J8440D01*
G01X48990Y461500D01*
Y463010D01*
X50500D01*
X50560Y463060D01*
G02X67440I8440J-10060D01*
G01X67500Y463010D01*
X69010D01*
Y461500D01*
X69060Y461440D01*
G02Y444560I-10060J-8440D01*
G01X69010Y444500D01*
Y442990D01*
X67500D01*
X67440Y442940D01*
G02X50560I-8440J10060D01*
G01X50500Y442990D01*
X48990D01*
G37*
G54D27*
X222200Y475000D03*
X206610D03*
X253390D03*
X237800D03*
G54D29*
X110000Y465000D03*
G54D24*
X126700Y275500D03*
X199200Y306900D03*
X398700Y345600D03*
X146900Y134200D03*
X305500Y133000D03*
X250200Y254700D03*
X168600Y306900D03*
X451800Y332100D03*
X449700Y309300D03*
X262700Y324100D03*
X67550Y141650D03*
X97200Y139500D03*
X81300Y237600D03*
X116900Y127900D03*
X105000Y201900D03*
X156900Y121500D03*
X136900Y134200D03*
X156000Y256800D03*
X154200Y264900D03*
X156800Y275000D03*
X133200Y294900D03*
X135900Y435000D03*
X183000Y258600D03*
X180300Y301500D03*
X173700Y344100D03*
X196200Y328500D03*
X212700Y354000D03*
X195200Y383800D03*
X234150Y292200D03*
X233100Y339300D03*
X261000Y239400D03*
X258300Y278100D03*
X253800Y270600D03*
X264900Y281100D03*
X260700Y299700D03*
X253970Y286070D03*
X254700Y323400D03*
X254600Y381400D03*
X298500Y240000D03*
X294300Y303600D03*
X333300Y208500D03*
X313800Y332400D03*
X325200Y337200D03*
X312900Y344700D03*
X396400Y192400D03*
X393700Y231700D03*
X400500Y279600D03*
X401100Y259200D03*
X425100Y198600D03*
X411000Y320100D03*
X454050Y246150D03*
X433500Y325800D03*
X432900Y358500D03*
X505200Y338100D03*
X186000Y171900D03*
X325500Y174000D03*
X409000Y187900D03*
X102900Y244500D03*
X207600Y264600D03*
X366950Y292150D03*
X285000Y309900D03*
X203900Y329200D03*
X328500Y354900D03*
X426900Y347100D03*
X488600Y367900D03*
X298800Y208800D03*
X319300Y227000D03*
X404700Y222600D03*
X431550Y256650D03*
X210700Y274700D03*
X410700Y270900D03*
X239400Y295800D03*
X388200Y315600D03*
X270600Y349800D03*
X311900Y384700D03*
X172400Y127100D03*
X317700Y217100D03*
X117800Y255500D03*
X209400Y257100D03*
X151500Y302100D03*
X469200Y327000D03*
X466200Y322500D03*
X184500Y294900D03*
X98400Y222600D03*
X109200D03*
X387300Y235200D03*
X291300Y126900D03*
X190700Y133300D03*
X99300Y352500D03*
X58800Y306300D03*
X66000Y272100D03*
X58200Y276000D03*
X124500Y127800D03*
G54D22*
X136900Y189700D03*
X146900D03*
X176900D03*
X186900D03*
X271300Y189600D03*
X261300D03*
X311300D03*
X301300D03*
X231300D03*
X40900Y255500D03*
X50900D03*
X116900Y159700D03*
X126900D03*
X136900D03*
X146900D03*
X156900D03*
X166900D03*
X176900D03*
X186900D03*
X196900D03*
X206900D03*
X251300Y159600D03*
X241300D03*
X231300D03*
X281300D03*
X271300D03*
X261300D03*
X311300D03*
X301300D03*
X291300D03*
X321300D03*
X126900Y189700D03*
X206900D03*
X321300Y189600D03*
X116900Y189700D03*
X196900D03*
X281300Y189600D03*
X291300D03*
X241300D03*
X251300D03*
X166900Y189700D03*
X156900D03*
G54D28*
X167500Y455000D03*
Y465000D03*
Y475000D03*
G54D23*
X392000Y171700D03*
X357700Y212200D03*
X401300Y381700D03*
X357700Y232200D03*
X367700Y222200D03*
X421300Y361700D03*
X402000Y161700D03*
X412000Y171700D03*
X241600Y425400D03*
X251600D03*
X401300Y361700D03*
X411300Y371700D03*
X377700Y232200D03*
X412000Y151700D03*
X421300Y381700D03*
X377700Y212200D03*
X392000Y151700D03*
G54D25*
X498100Y236400D03*
Y226400D03*
Y276400D03*
Y266400D03*
X488100Y216400D03*
Y226400D03*
Y236400D03*
Y246400D03*
Y256400D03*
Y266400D03*
Y276400D03*
Y286400D03*
Y296400D03*
X498100Y286400D03*
Y296400D03*
Y256400D03*
Y206400D03*
Y216400D03*
G54D26*
X131300Y331800D03*
X71300D03*
X61300D03*
X41300D03*
X81300D03*
X41300Y391800D03*
X81300D03*
X131300D03*
X141300D03*
X71300D03*
X61300D03*
X141300Y331800D03*
%LPD*%
G75*
G54D10*
X24950Y29570D03*
Y49570D03*
Y69570D03*
Y89570D03*
Y109570D03*
Y129570D03*
Y149570D03*
Y169570D03*
Y189570D03*
Y209570D03*
Y229570D03*
Y249570D03*
Y269570D03*
Y289570D03*
Y309570D03*
Y329570D03*
Y349570D03*
Y369570D03*
Y389570D03*
Y409570D03*
Y429570D03*
Y449570D03*
Y469570D03*
X44950Y29570D03*
X64950D03*
X59000Y59000D03*
X44950Y89570D03*
X64950D03*
X44950Y109570D03*
X64950D03*
X44950Y129570D03*
X64950D03*
X44950Y149570D03*
Y169570D03*
X64950D03*
X44950Y189570D03*
X64950D03*
X44950Y209570D03*
X64950D03*
X44950Y229570D03*
X64950D03*
Y289570D03*
X44950Y409570D03*
X64950D03*
X59000Y453000D03*
X44950Y429570D03*
X64950D03*
X84950Y29570D03*
Y49570D03*
Y69570D03*
Y89570D03*
Y109570D03*
Y129570D03*
Y169570D03*
Y189570D03*
Y209570D03*
Y229570D03*
Y269570D03*
Y289570D03*
Y309570D03*
Y409570D03*
Y429570D03*
Y449570D03*
Y469570D03*
X104950Y29570D03*
Y49570D03*
Y69570D03*
Y89570D03*
Y109570D03*
Y129570D03*
Y149570D03*
Y169570D03*
Y189570D03*
Y209570D03*
Y289570D03*
Y309570D03*
Y329570D03*
Y369570D03*
Y389570D03*
Y409570D03*
Y429570D03*
X124950Y29570D03*
X144950D03*
X124950Y49570D03*
X144950D03*
X124950Y69570D03*
X144950D03*
X124950Y89570D03*
X144950D03*
X124950Y109570D03*
X144950D03*
X124950Y169570D03*
X144950D03*
Y209570D03*
X124950Y289570D03*
Y309570D03*
X144950D03*
X124950Y349570D03*
Y369570D03*
Y409570D03*
X144950D03*
X124950Y429570D03*
X164950Y29570D03*
Y49570D03*
Y69570D03*
Y89570D03*
Y109570D03*
Y169570D03*
Y209570D03*
Y229570D03*
Y249570D03*
Y349570D03*
Y369570D03*
Y409570D03*
X184950Y29570D03*
Y49570D03*
Y69570D03*
Y89570D03*
Y109570D03*
Y209570D03*
Y229570D03*
Y249570D03*
Y389570D03*
Y429570D03*
Y449570D03*
X204950Y29570D03*
X224950D03*
X204950Y49570D03*
X224950D03*
X204950Y69570D03*
X224950D03*
X204950Y89570D03*
X224950D03*
X204950Y109570D03*
X224950D03*
X204950Y129570D03*
X224950D03*
X204950Y149570D03*
X224950D03*
X204950Y209570D03*
X224950D03*
X204950Y229570D03*
X224950D03*
Y249570D03*
Y309570D03*
X204950Y329570D03*
X224950D03*
Y349570D03*
Y369570D03*
X204950Y389570D03*
X224950D03*
X204950Y409570D03*
X224950D03*
X244950Y29570D03*
Y49570D03*
Y69570D03*
Y89570D03*
Y109570D03*
Y129570D03*
Y149570D03*
Y169570D03*
Y209570D03*
Y229570D03*
Y389570D03*
X264950Y29570D03*
Y49570D03*
Y69570D03*
Y89570D03*
Y109570D03*
Y129570D03*
Y149570D03*
Y169570D03*
Y209570D03*
Y229570D03*
Y309570D03*
Y389570D03*
Y409570D03*
Y449570D03*
Y469570D03*
X284950Y29570D03*
X304950D03*
X284950Y49570D03*
X304950D03*
X284950Y69570D03*
X304950D03*
X284950Y89570D03*
X304950D03*
X284950Y109570D03*
X304950D03*
X284950Y169570D03*
X304950D03*
X284950Y249570D03*
X304950D03*
X284950Y309570D03*
Y349570D03*
Y369570D03*
Y389570D03*
X304950D03*
X284950Y409570D03*
X304950D03*
X284950Y429570D03*
X304950D03*
X284950Y449570D03*
X304950D03*
X284950Y469570D03*
X304950D03*
X324950Y29570D03*
Y49570D03*
Y69570D03*
Y89570D03*
Y109570D03*
Y129570D03*
Y149570D03*
Y249570D03*
Y309570D03*
Y369570D03*
Y389570D03*
Y409570D03*
Y429570D03*
Y449570D03*
Y469570D03*
X344950Y29570D03*
X364950D03*
X344950Y49570D03*
X364950D03*
X344950Y69570D03*
X364950D03*
X344950Y89570D03*
X364950D03*
X344950Y109570D03*
X364950D03*
X344950Y129570D03*
X364950D03*
X344950Y149570D03*
X364950D03*
X344950Y169570D03*
X364950D03*
X344950Y189570D03*
X364950D03*
X344950Y209570D03*
Y249570D03*
X364950D03*
X344950Y309570D03*
X364950D03*
X344950Y329570D03*
X364950D03*
X344950Y349570D03*
X364950D03*
X344950Y369570D03*
X364950D03*
X344950Y389570D03*
X364950D03*
X344950Y409570D03*
X364950D03*
X344950Y429570D03*
X364950D03*
X344950Y449570D03*
X364950D03*
X344950Y469570D03*
X364950D03*
X384950Y29570D03*
Y49570D03*
Y69570D03*
Y89570D03*
Y109570D03*
Y129570D03*
Y189570D03*
Y329570D03*
Y349570D03*
Y369570D03*
Y389570D03*
Y409570D03*
Y429570D03*
Y449570D03*
Y469570D03*
X404950Y29570D03*
Y49570D03*
Y69570D03*
Y89570D03*
Y109570D03*
Y129570D03*
Y229570D03*
Y249570D03*
Y309570D03*
Y409570D03*
Y429570D03*
Y449570D03*
Y469570D03*
X424950Y29570D03*
X444950D03*
X452500Y59000D03*
X424950Y49570D03*
Y69570D03*
Y89570D03*
X444950D03*
X424950Y109570D03*
X444950D03*
X424950Y129570D03*
X444950D03*
X424950Y149570D03*
X444950D03*
X424950Y169570D03*
X444950D03*
Y189570D03*
X424950Y229570D03*
X444950D03*
X424950Y249570D03*
X444950Y369570D03*
Y389570D03*
X424950Y409570D03*
X444950D03*
X452500Y453000D03*
X424950Y429570D03*
X444950D03*
X424950Y449570D03*
Y469570D03*
X464950Y29570D03*
Y89570D03*
Y109570D03*
Y129570D03*
Y149570D03*
Y169570D03*
Y189570D03*
Y229570D03*
Y309570D03*
Y369570D03*
Y389570D03*
Y409570D03*
Y429570D03*
X484950Y29570D03*
Y49570D03*
Y69570D03*
Y89570D03*
Y109570D03*
Y129570D03*
Y149570D03*
Y169570D03*
Y189570D03*
Y309570D03*
Y329570D03*
Y389570D03*
Y409570D03*
Y429570D03*
Y449570D03*
Y469570D03*
X504950Y29570D03*
Y49570D03*
Y69570D03*
Y89570D03*
Y109570D03*
Y129570D03*
Y149570D03*
Y169570D03*
Y189570D03*
Y309570D03*
Y369570D03*
Y389570D03*
Y409570D03*
Y429570D03*
Y449570D03*
Y469570D03*
G54D20*
X498100Y206400D03*
X488100Y216400D03*
X498100D03*
X488100Y226400D03*
X498100D03*
X488100Y236400D03*
X498100D03*
X488100Y246400D03*
Y256400D03*
X498100D03*
X488100Y266400D03*
X498100D03*
X488100Y276400D03*
X498100D03*
X488100Y286400D03*
X498100D03*
X488100Y296400D03*
X498100D03*
G54D11*
X40900Y255500D03*
X50900D03*
X116900Y159700D03*
Y189700D03*
X146900Y159700D03*
X136900D03*
X126900D03*
Y189700D03*
X136900D03*
X146900D03*
X166900Y159700D03*
X156900D03*
Y189700D03*
X166900D03*
X196900Y159700D03*
X186900D03*
X176900D03*
Y189700D03*
X186900D03*
X196900D03*
X206900Y159700D03*
Y189700D03*
X251300Y159600D03*
X241300D03*
X231300D03*
Y189600D03*
X241300D03*
X251300D03*
X281300Y159600D03*
X271300D03*
X261300D03*
Y189600D03*
X271300D03*
X281300D03*
X311300Y159600D03*
X301300D03*
X291300D03*
Y189600D03*
X301300D03*
X311300D03*
X321300Y159600D03*
Y189600D03*
G54D21*
G01X58200Y273590D02*
Y276000D01*
G01D02*
Y278410D01*
G01X55790Y276000D02*
X58200D01*
G01D02*
X60610D01*
G01X58800Y303890D02*
Y306300D01*
G01D02*
Y308710D01*
G01X56390Y306300D02*
X58800D01*
G01D02*
X61210D01*
G01X61300Y328160D02*
Y331800D01*
G01D02*
Y335440D01*
G01X57660Y331800D02*
X61300D01*
G01D02*
X64940D01*
G01X61300Y388160D02*
Y391800D01*
G01D02*
Y395440D01*
G01X57660Y391800D02*
X61300D01*
G01D02*
X64940D01*
G01X81300Y235190D02*
Y237600D01*
G01D02*
Y240010D01*
G01X78890Y237600D02*
X81300D01*
G01D02*
X83710D01*
G01X66000Y269690D02*
Y272100D01*
G01D02*
Y274510D01*
G01X63590Y272100D02*
X66000D01*
G01D02*
X68410D01*
G01X116900Y125490D02*
Y127900D01*
G01D02*
Y130310D01*
G01X114490Y127900D02*
X116900D01*
G01D02*
X119310D01*
G01X105000Y199490D02*
Y201900D01*
G01D02*
Y204310D01*
G01X102590Y201900D02*
X105000D01*
G01D02*
X107410D01*
G01X109200Y220190D02*
Y222600D01*
G01D02*
Y225010D01*
G01X106790Y222600D02*
X109200D01*
G01D02*
X111610D01*
G01X102900Y242090D02*
Y244500D01*
G01D02*
Y246910D01*
G01X100490Y244500D02*
X102900D01*
G01D02*
X105310D01*
G01X99300Y350090D02*
Y352500D01*
G01D02*
Y354910D01*
G01X96890Y352500D02*
X99300D01*
G01D02*
X101710D01*
G01X110000Y456290D02*
Y465000D01*
G01D02*
Y473710D01*
G01X101290Y465000D02*
X110000D01*
G01D02*
X118710D01*
G01X136900Y131790D02*
Y134200D01*
G01D02*
Y136610D01*
G01X134490Y134200D02*
X136900D01*
G01D02*
X139310D01*
G01X144490D02*
X146900D01*
G01X124500Y125390D02*
Y127800D01*
G01D02*
Y130210D01*
G01X122090Y127800D02*
X124500D01*
G01D02*
X126910D01*
G01X136900Y185740D02*
Y189700D01*
G01D02*
Y193660D01*
G01X132940Y189700D02*
X136900D01*
G01D02*
X140860D01*
G01X142940D02*
X146900D01*
G01X126700Y273090D02*
Y275500D01*
G01D02*
Y277910D01*
G01X124290Y275500D02*
X126700D01*
G01D02*
X129110D01*
G01X133200Y292490D02*
Y294900D01*
G01D02*
Y297310D01*
G01X130790Y294900D02*
X133200D01*
G01D02*
X135610D01*
G01X141300Y328160D02*
Y331800D01*
G01D02*
Y335440D01*
G01X137660Y331800D02*
X141300D01*
G01D02*
X144940D01*
G01X131300Y328160D02*
Y331800D01*
G01D02*
Y335440D01*
G01X127660Y331800D02*
X131300D01*
G01D02*
X134940D01*
G01X135900Y432590D02*
Y435000D01*
G01D02*
Y437410D01*
G01X133490Y435000D02*
X135900D01*
G01D02*
X138310D01*
G01X156900Y119090D02*
Y121500D01*
G01D02*
Y123910D01*
G01X154490Y121500D02*
X156900D01*
G01D02*
X159310D01*
G01X146900Y131790D02*
Y134200D01*
G01D02*
Y136610D01*
G01Y134200D02*
X149310D01*
G01X156900Y185740D02*
Y189700D01*
G01D02*
Y193660D01*
G01X152940Y189700D02*
X156900D01*
G01D02*
X160860D01*
G01X166900Y185740D02*
Y189700D01*
G01D02*
Y193660D01*
G01X162940Y189700D02*
X166900D01*
G01D02*
X170860D01*
G01X146900Y185740D02*
Y189700D01*
G01D02*
Y193660D01*
G01Y189700D02*
X150860D01*
G01X156000Y254390D02*
Y256800D01*
G01D02*
Y259210D01*
G01X153590Y256800D02*
X156000D01*
G01D02*
X158410D01*
G01X168600Y304490D02*
Y306900D01*
G01D02*
Y309310D01*
G01X166190Y306900D02*
X168600D01*
G01D02*
X171010D01*
G01X171290Y344100D02*
X173700D01*
G01X167500Y460540D02*
Y465000D01*
G01D02*
Y469460D01*
G01X163040Y465000D02*
X167500D01*
G01D02*
X171960D01*
G01X190700Y130890D02*
Y133300D01*
G01D02*
Y135710D01*
G01X188290Y133300D02*
X190700D01*
G01D02*
X193110D01*
G01X186900Y185740D02*
Y189700D01*
G01D02*
Y193660D01*
G01X182940Y189700D02*
X186900D01*
G01D02*
X190860D01*
G01X183000Y256190D02*
Y258600D01*
G01D02*
Y261010D01*
G01X180590Y258600D02*
X183000D01*
G01D02*
X185410D01*
G01X184500Y292490D02*
Y294900D01*
G01D02*
Y297310D01*
G01X182090Y294900D02*
X184500D01*
G01D02*
X186910D01*
G01X173700Y341690D02*
Y344100D01*
G01D02*
Y346510D01*
G01Y344100D02*
X176110D01*
G01X209400Y254690D02*
Y257100D01*
G01D02*
Y259510D01*
G01X206990Y257100D02*
X209400D01*
G01D02*
X211810D01*
G01X203900Y326790D02*
Y329200D01*
G01D02*
Y331610D01*
G01X201490Y329200D02*
X203900D01*
G01D02*
X206310D01*
G01X226640Y425400D02*
X231600D01*
G01X222200Y469290D02*
Y475000D01*
G01D02*
Y480710D01*
G01X216490Y475000D02*
X222200D01*
G01D02*
X227910D01*
G01X241300Y155640D02*
Y159600D01*
G01D02*
Y163560D01*
G01X237340Y159600D02*
X241300D01*
G01D02*
X245260D01*
G01X251300Y155640D02*
Y159600D01*
G01D02*
Y163560D01*
G01X247340Y159600D02*
X251300D01*
G01D02*
X255260D01*
G01X251300Y185640D02*
Y189600D01*
G01D02*
Y193560D01*
G01X247340Y189600D02*
X251300D01*
G01D02*
X255260D01*
G01X241300Y185640D02*
Y189600D01*
G01D02*
Y193560D01*
G01X237340Y189600D02*
X241300D01*
G01D02*
X245260D01*
G01X250200Y252290D02*
Y254700D01*
G01D02*
Y257110D01*
G01X247790Y254700D02*
X250200D01*
G01D02*
X252610D01*
G01X234150Y289790D02*
Y292200D01*
G01D02*
Y294610D01*
G01X231740Y292200D02*
X234150D01*
G01D02*
X236560D01*
G01X233100Y336890D02*
Y339300D01*
G01D02*
Y341710D01*
G01X230690Y339300D02*
X233100D01*
G01D02*
X235510D01*
G01X231600Y420440D02*
Y425400D01*
G01D02*
Y430360D01*
G01X261300Y155640D02*
Y159600D01*
G01D02*
Y163560D01*
G01X257340Y159600D02*
X261300D01*
G01D02*
X265260D01*
G01X271300Y155640D02*
Y159600D01*
G01D02*
Y163560D01*
G01X267340Y159600D02*
X271300D01*
G01D02*
X275260D01*
G01X281300Y185640D02*
Y189600D01*
G01D02*
Y193560D01*
G01X277340Y189600D02*
X281300D01*
G01D02*
X285260D01*
G01X271300Y185640D02*
Y189600D01*
G01D02*
Y193560D01*
G01X267340Y189600D02*
X271300D01*
G01D02*
X275260D01*
G01X261300Y185640D02*
Y189600D01*
G01D02*
Y193560D01*
G01X257340Y189600D02*
X261300D01*
G01D02*
X265260D01*
G01X258300Y275690D02*
Y278100D01*
G01D02*
Y280510D01*
G01X255890Y278100D02*
X258300D01*
G01D02*
X260710D01*
G01X260700Y297290D02*
Y299700D01*
G01D02*
Y302110D01*
G01X258290Y299700D02*
X260700D01*
G01D02*
X263110D01*
G01X262700Y321690D02*
Y324100D01*
G01D02*
Y326510D01*
G01X260290Y324100D02*
X262700D01*
G01D02*
X265110D01*
G01X305500Y130590D02*
Y133000D01*
G01D02*
Y135410D01*
G01X303090Y133000D02*
X305500D01*
G01D02*
X307910D01*
G01X301300Y155640D02*
Y159600D01*
G01D02*
Y163560D01*
G01X297340Y159600D02*
X301300D01*
G01D02*
X305260D01*
G01X301300Y185640D02*
Y189600D01*
G01D02*
Y193560D01*
G01X297340Y189600D02*
X301300D01*
G01D02*
X305260D01*
G01X298800Y206390D02*
Y208800D01*
G01D02*
Y211210D01*
G01X296390Y208800D02*
X298800D01*
G01D02*
X301210D01*
G01X298500Y237590D02*
Y240000D01*
G01D02*
Y242410D01*
G01X296090Y240000D02*
X298500D01*
G01D02*
X300910D01*
G01X285000Y307490D02*
Y309900D01*
G01D02*
Y312310D01*
G01X282590Y309900D02*
X285000D01*
G01D02*
X287410D01*
G01X333300Y206090D02*
Y208500D01*
G01D02*
Y210910D01*
G01X330890Y208500D02*
X333300D01*
G01D02*
X335710D01*
G01X325200Y334790D02*
Y337200D01*
G01X312900Y342290D02*
Y344700D01*
G01D02*
Y347110D01*
G01X310490Y344700D02*
X312900D01*
G01D02*
X315310D01*
G01X325200Y337200D02*
Y339610D01*
G01X322790Y337200D02*
X325200D01*
G01D02*
X327610D01*
G01X357700Y207240D02*
Y212200D01*
G01D02*
Y217160D01*
G01X352740Y212200D02*
X357700D01*
G01D02*
X362660D01*
G01X357700Y227240D02*
Y232200D01*
G01D02*
Y237160D01*
G01X352740Y232200D02*
X357700D01*
G01D02*
X362660D01*
G01X387040Y171700D02*
X392000D01*
G01X387040Y151700D02*
X392000D01*
G01X377700Y207240D02*
Y212200D01*
G01D02*
Y217160D01*
G01X372740Y212200D02*
X377700D01*
G01D02*
X382660D01*
G01X377700Y227240D02*
Y232200D01*
G01D02*
Y237160D01*
G01X372740Y232200D02*
X377700D01*
G01D02*
X382660D01*
G01X412000Y166740D02*
Y171700D01*
G01D02*
Y176660D01*
G01X407040Y171700D02*
X412000D01*
G01D02*
X416960D01*
G01X412000Y146740D02*
Y151700D01*
G01D02*
Y156660D01*
G01X407040Y151700D02*
X412000D01*
G01D02*
X416960D01*
G01X392000Y166740D02*
Y171700D01*
G01D02*
Y176660D01*
G01Y171700D02*
X396960D01*
G01X392000Y146740D02*
Y151700D01*
G01D02*
Y156660D01*
G01Y151700D02*
X396960D01*
G01X396400Y189990D02*
Y192400D01*
G01D02*
Y194810D01*
G01X393990Y192400D02*
X396400D01*
G01D02*
X398810D01*
G01X409000Y185490D02*
Y187900D01*
G01D02*
Y190310D01*
G01X406590Y187900D02*
X409000D01*
G01D02*
X411410D01*
G01X404700Y220190D02*
Y222600D01*
G01D02*
Y225010D01*
G01X402290Y222600D02*
X404700D01*
G01D02*
X407110D01*
G01X401100Y256790D02*
Y259200D01*
G01D02*
Y261610D01*
G01X398690Y259200D02*
X401100D01*
G01D02*
X403510D01*
G01X400500Y277190D02*
Y279600D01*
G01D02*
Y282010D01*
G01X398090Y279600D02*
X400500D01*
G01D02*
X402910D01*
G01X411000Y317690D02*
Y320100D01*
G01D02*
Y322510D01*
G01X408590Y320100D02*
X411000D01*
G01D02*
X413410D01*
G01X401300Y356740D02*
Y361700D01*
G01D02*
Y366660D01*
G01X396340Y361700D02*
X401300D01*
G01D02*
X406260D01*
G01X416340D02*
X421300D01*
G01X398700Y343190D02*
Y345600D01*
G01D02*
Y348010D01*
G01X396290Y345600D02*
X398700D01*
G01D02*
X401110D01*
G01X401300Y376740D02*
Y381700D01*
G01D02*
Y386660D01*
G01X396340Y381700D02*
X401300D01*
G01D02*
X406260D01*
G01X416340D02*
X421300D01*
G01X432900Y356090D02*
Y358500D01*
G01D02*
Y360910D01*
G01X430490Y358500D02*
X432900D01*
G01D02*
X435310D01*
G01X421300Y356740D02*
Y361700D01*
G01D02*
Y366660D01*
G01Y361700D02*
X426260D01*
G01X421300Y376740D02*
Y381700D01*
G01D02*
Y386660D01*
G01Y381700D02*
X426260D01*
G01X449700Y306890D02*
Y309300D01*
G01D02*
Y311710D01*
G01X447290Y309300D02*
X449700D01*
G01D02*
X452110D01*
G01X451800Y329690D02*
Y332100D01*
G01D02*
Y334510D01*
G01X449390Y332100D02*
X451800D01*
G01D02*
X454210D01*
G01X469200Y324590D02*
Y327000D01*
G01D02*
Y329410D01*
G01X466790Y327000D02*
X469200D01*
G01D02*
X471610D01*
G01X498100Y222290D02*
Y226400D01*
G01D02*
Y230510D01*
G01X493990Y226400D02*
X498100D01*
G01D02*
X502210D01*
G01X498100Y212290D02*
Y216400D01*
G01D02*
Y220510D01*
G01X493990Y216400D02*
X498100D01*
G01D02*
X502210D01*
G01X498100Y202290D02*
Y206400D01*
G01D02*
Y210510D01*
G01X493990Y206400D02*
X498100D01*
G01D02*
X502210D01*
G01X498100Y252290D02*
Y256400D01*
G01Y242290D02*
Y246400D01*
G01D02*
Y250510D01*
G01X493990Y246400D02*
X498100D01*
G01D02*
X502210D01*
G01X498100Y232290D02*
Y236400D01*
G01D02*
Y240510D01*
G01X493990Y236400D02*
X498100D01*
G01D02*
X502210D01*
G01X498100Y272290D02*
Y276400D01*
G01D02*
Y280510D01*
G01X493990Y276400D02*
X498100D01*
G01D02*
X502210D01*
G01X498100Y262290D02*
Y266400D01*
G01D02*
Y270510D01*
G01X493990Y266400D02*
X498100D01*
G01D02*
X502210D01*
G01X498100Y256400D02*
Y260510D01*
G01X493990Y256400D02*
X498100D01*
G01D02*
X502210D01*
G01X498100Y292290D02*
Y296400D01*
G01D02*
Y300510D01*
G01X493990Y296400D02*
X498100D01*
G01D02*
X502210D01*
G01X498100Y282290D02*
Y286400D01*
G01D02*
Y290510D01*
G01X493990Y286400D02*
X498100D01*
G01D02*
X502210D01*
G54D12*
X58200Y276000D03*
X58800Y306300D03*
X67550Y141650D03*
X81300Y237600D03*
X66000Y272100D03*
X116900Y127900D03*
X97200Y139500D03*
X105000Y201900D03*
X109200Y222600D03*
X98400D03*
X102900Y244500D03*
X117800Y255500D03*
X99300Y352500D03*
X124500Y127800D03*
X136900Y134200D03*
X126700Y275500D03*
X133200Y294900D03*
X135900Y435000D03*
X156900Y121500D03*
X146900Y134200D03*
X172400Y127100D03*
X156000Y256800D03*
X156800Y275000D03*
X154200Y264900D03*
X168600Y306900D03*
X151500Y302100D03*
X173700Y344100D03*
X190700Y133300D03*
X186000Y171900D03*
X183000Y258600D03*
X184500Y294900D03*
X199200Y306900D03*
X180300Y301500D03*
X196200Y328500D03*
X195200Y383800D03*
X209400Y257100D03*
X210700Y274700D03*
X207600Y264600D03*
X203900Y329200D03*
X212700Y354000D03*
X250200Y254700D03*
X253800Y270600D03*
X234150Y292200D03*
X253970Y286070D03*
X239400Y295800D03*
X254700Y323400D03*
X233100Y339300D03*
X254600Y381400D03*
X261000Y239400D03*
X258300Y278100D03*
X264900Y281100D03*
X260700Y299700D03*
X262700Y324100D03*
X270600Y349800D03*
X305500Y133000D03*
X291300Y126900D03*
X298800Y208800D03*
X298500Y240000D03*
X285000Y309900D03*
X294300Y303600D03*
X325500Y174000D03*
X333300Y208500D03*
X319300Y227000D03*
X317700Y217100D03*
X325200Y337200D03*
X313800Y332400D03*
X312900Y344700D03*
X328500Y354900D03*
X311900Y384700D03*
X387300Y235200D03*
X366950Y292150D03*
X388200Y315600D03*
X409000Y187900D03*
X396400Y192400D03*
X404700Y222600D03*
X393700Y231700D03*
X400500Y279600D03*
X401100Y259200D03*
X410700Y270900D03*
X411000Y320100D03*
X398700Y345600D03*
X425100Y198600D03*
X431550Y256650D03*
X433500Y325800D03*
X432900Y358500D03*
X426900Y347100D03*
X454050Y246150D03*
X449700Y309300D03*
X451800Y332100D03*
X469200Y327000D03*
X466200Y322500D03*
X488600Y367900D03*
X505200Y338100D03*
G54D13*
X41300Y331800D03*
X61300D03*
Y391800D03*
X41300D03*
X71300Y331800D03*
X81300D03*
Y391800D03*
X71300D03*
X131300Y331800D03*
X141300D03*
Y391800D03*
X131300D03*
G54D14*
X110000Y465000D03*
G54D15*
X167500Y455000D03*
Y465000D03*
Y475000D03*
G54D16*
X206610D03*
X222200D03*
X237800D03*
X253390D03*
G54D17*
X231600Y425400D03*
G54D18*
X241600D03*
X251600D03*
X357700Y212200D03*
Y232200D03*
X392000Y151700D03*
Y171700D03*
X367700Y222200D03*
X377700Y212200D03*
Y232200D03*
X402000Y161700D03*
X412000Y151700D03*
Y171700D03*
X421300Y361700D03*
X401300D03*
X411300Y371700D03*
X401300Y381700D03*
X421300D03*
G54D19*
X488100Y206400D03*
X498100Y246400D03*
M02*
