G04 ================== begin FILE IDENTIFICATION RECORD ==================*
G04 Layout Name:  LIDAR_READOUT_VER1_2_top_bot_gnd.brd*
G04 Film Name:    Silkscreen_Top*
G04 File Format:  Gerber RS274X*
G04 File Origin:  Cadence Allegro 17.2-P019*
G04 Origin Date:  Mon Jul 17 15:10:13 2023*
G04 *
G04 Layer:  REF DES/SILKSCREEN_TOP*
G04 Layer:  PACKAGE GEOMETRY/SILKSCREEN_TOP*
G04 Layer:  BOARD GEOMETRY/SOLDERMASK_TOP*
G04 *
G04 Offset:    (0.0 0.0)*
G04 Mirror:    No*
G04 Mode:      Positive*
G04 Rotation:  0*
G04 FullContactRelief:  No*
G04 UndefLineWidth:     0.0*
G04 ================== end FILE IDENTIFICATION RECORD ====================*
%FSLAX25Y25*MOIN*%
%IR0*IPPOS*OFA0.00000B0.00000*MIA0B0*SFA1.00000B1.00000*%
%ADD10C,.006*%
%ADD11C,.008*%
%ADD12C,.046*%
G75*
%LPD*%
G75*
G54D10*
G01X53600Y360450D02*
X37600D01*
G01D02*
Y367950D01*
G01X53600D02*
Y360450D01*
G01X37600Y367950D02*
X53600D01*
G01X72550Y252250D02*
Y258700D01*
G01X84050D02*
Y252250D01*
G01D02*
X72550D01*
G01X78050Y251050D02*
X84500D01*
G01D02*
Y239550D01*
G01D02*
X78050D01*
G01D02*
Y251050D01*
G01X72550Y258700D02*
X84050D01*
G01X120150Y130250D02*
X113700D01*
G01D02*
Y141750D01*
G01D02*
X120150D01*
G01X113950Y142950D02*
Y149400D01*
G01X125450Y142950D02*
X113950D01*
G01X96050Y156350D02*
Y162800D01*
G01D02*
X107550D01*
G01D02*
Y156350D01*
G01D02*
X96050D01*
G01X113950Y149400D02*
X125450D01*
G01X119950Y198700D02*
X108450D01*
G01D02*
Y205150D01*
G01D02*
X119950D01*
G01X125650Y209200D02*
X114150D01*
G01D02*
Y215650D01*
G01D02*
X125650D01*
G01X95550Y235250D02*
Y241700D01*
G01D02*
X107050D01*
G01D02*
Y235250D01*
G01D02*
X95550D01*
G01X97050Y271750D02*
Y278200D01*
G01D02*
X108550D01*
G01D02*
Y271750D01*
G01D02*
X97050D01*
G01Y264250D02*
Y270700D01*
G01D02*
X108550D01*
G01D02*
Y264250D01*
G01D02*
X97050D01*
G01X120150Y141750D02*
Y130250D01*
G01X125450Y149400D02*
Y142950D01*
G01X121250Y141850D02*
X127700D01*
G01D02*
Y130350D01*
G01D02*
X121250D01*
G01D02*
Y141850D01*
G01X140100Y149150D02*
Y137650D01*
G01D02*
X133650D01*
G01D02*
Y149150D01*
G01X150100Y137650D02*
X143650D01*
G01D02*
Y149150D01*
G01X133650D02*
X140100D01*
G01X143650D02*
X150100D01*
G01X119950Y205150D02*
Y198700D01*
G01X135550Y205450D02*
Y199000D01*
G01D02*
X124050D01*
G01D02*
Y205450D01*
G01X125650Y215650D02*
Y209200D01*
G01X124050Y205450D02*
X135550D01*
G01X142250Y253550D02*
Y260000D01*
G01X153750Y253550D02*
X142250D01*
G01X136250Y247550D02*
X129800D01*
G01D02*
Y259050D01*
G01X136250D02*
Y247550D01*
G01X121750Y253450D02*
X128200D01*
G01D02*
Y241950D01*
G01D02*
X121750D01*
G01D02*
Y253450D01*
G01X142250Y260000D02*
X153750D01*
G01X129800Y259050D02*
X136250D01*
G01X129750Y278450D02*
X136200D01*
G01D02*
Y266950D01*
G01D02*
X129750D01*
G01D02*
Y278450D01*
G01X147550Y291700D02*
X136050D01*
G01D02*
Y298150D01*
G01D02*
X147550D01*
G01X134000Y377800D02*
Y344800D01*
G01D02*
X148000D01*
G01Y377800D02*
X142250D01*
G01D02*
X141000Y379050D01*
G01D02*
X139750Y377800D01*
G01D02*
X134000D01*
G01X141200Y428000D02*
X174200D01*
G01Y442000D02*
X141200D01*
G01D02*
Y428000D01*
G01X163950Y142950D02*
Y149400D01*
G01X175450Y142950D02*
X163950D01*
G01X160100Y149150D02*
Y137650D01*
G01D02*
X153650D01*
G01D02*
Y149150D01*
G01X150100D02*
Y137650D01*
G01X153650Y136150D02*
X160100D01*
G01D02*
Y124650D01*
G01D02*
X153650D01*
G01D02*
Y136150D01*
G01X169150Y141650D02*
X175600D01*
G01Y130150D02*
X169150D01*
G01D02*
Y141650D01*
G01X163950Y149400D02*
X175450D01*
G01X153650Y149150D02*
X160100D01*
G01X179650Y198100D02*
X168150D01*
G01D02*
Y204550D01*
G01D02*
X179650D01*
G01X153750Y260000D02*
Y253550D01*
G01X148850Y283550D02*
Y290000D01*
G01D02*
X160350D01*
G01D02*
Y283550D01*
G01D02*
X148850D01*
G01X147550Y298150D02*
Y291700D01*
G01X148000Y344800D02*
Y377800D01*
G01X175450Y149400D02*
Y142950D01*
G01X192550Y149650D02*
Y143200D01*
G01D02*
X181050D01*
G01D02*
Y149650D01*
G01X180950Y141850D02*
X187400D01*
G01D02*
Y130350D01*
G01D02*
X180950D01*
G01D02*
Y141850D01*
G01X175600Y141650D02*
Y130150D01*
G01X181050Y149650D02*
X192550D01*
G01X179650Y204550D02*
Y198100D01*
G01X192550Y204550D02*
Y198100D01*
G01D02*
X181050D01*
G01D02*
Y204550D01*
G01D02*
X192550D01*
G01X195650Y253850D02*
Y260300D01*
G01X207150Y253850D02*
X195650D01*
G01Y260300D02*
X207150D01*
G01X186250Y274250D02*
X179800D01*
G01D02*
Y285750D01*
G01X186250D02*
Y274250D01*
G01Y261050D02*
X179800D01*
G01D02*
Y272550D01*
G01D02*
X186250D01*
G01D02*
Y261050D01*
G01X179800Y285750D02*
X186250D01*
G01X202150Y291700D02*
X190650D01*
G01D02*
Y298150D01*
G01D02*
X202150D01*
G01X174200Y428000D02*
Y433750D01*
G01D02*
X175450Y435000D01*
G01D02*
X174200Y436250D01*
G01D02*
Y442000D01*
G01X207150Y260300D02*
Y253850D01*
G01X202850Y283250D02*
Y289700D01*
G01D02*
X214350D01*
G01D02*
Y283250D01*
G01D02*
X202850D01*
G01X202150Y298150D02*
Y291700D01*
G01X263950Y251500D02*
X252450D01*
G01D02*
Y257950D01*
G01D02*
X263950D01*
G01X239600Y285250D02*
Y273750D01*
G01D02*
X233150D01*
G01D02*
Y285250D01*
G01X247450Y281150D02*
X241000D01*
G01D02*
Y292650D01*
G01X247450D02*
Y281150D01*
G01X240950Y279550D02*
X247400D01*
G01D02*
Y268050D01*
G01D02*
X240950D01*
G01D02*
Y279550D01*
G01X233150Y285250D02*
X239600D01*
G01X241000Y292650D02*
X247450D01*
G01X263950Y257950D02*
Y251500D01*
G01X279650Y269150D02*
Y275600D01*
G01D02*
X291150D01*
G01Y269150D02*
X279650D01*
G01X275350Y260750D02*
X268900D01*
G01D02*
Y272250D01*
G01D02*
X275350D01*
G01D02*
Y260750D01*
G01X279950Y260450D02*
Y266900D01*
G01D02*
X291450D01*
G01Y260450D02*
X279950D01*
G01X279650Y292850D02*
Y299300D01*
G01D02*
X291150D01*
G01Y292850D02*
X279650D01*
G01Y282950D02*
Y289400D01*
G01D02*
X291150D01*
G01Y282950D02*
X279650D01*
G01X275050Y285050D02*
X268600D01*
G01D02*
Y296550D01*
G01D02*
X275050D01*
G01D02*
Y285050D01*
G01X282650Y142850D02*
Y149300D01*
G01X294150D02*
Y142850D01*
G01D02*
X282650D01*
G01X307150Y149350D02*
Y142900D01*
G01D02*
X295650D01*
G01D02*
Y149350D01*
G01X295850Y141550D02*
X302300D01*
G01D02*
Y130050D01*
G01D02*
X295850D01*
G01D02*
Y141550D01*
G01X294550Y129950D02*
X288100D01*
G01D02*
Y141450D01*
G01D02*
X294550D01*
G01D02*
Y129950D01*
G01X282650Y149300D02*
X294150D01*
G01X295650Y149350D02*
X307150D01*
G01X288350Y197750D02*
Y204200D01*
G01X299850D02*
Y197750D01*
G01D02*
X288350D01*
G01Y204200D02*
X299850D01*
G01X304550Y212350D02*
X311000D01*
G01Y200850D02*
X304550D01*
G01D02*
Y212350D01*
G01X282350Y205850D02*
Y212300D01*
G01D02*
X293850D01*
G01D02*
Y205850D01*
G01D02*
X282350D01*
G01Y224150D02*
Y230600D01*
G01X293850D02*
Y224150D01*
G01D02*
X282350D01*
G01X301700Y235750D02*
Y224250D01*
G01D02*
X295250D01*
G01D02*
Y235750D01*
G01X302050Y211550D02*
X295600D01*
G01D02*
Y223050D01*
G01D02*
X302050D01*
G01D02*
Y211550D01*
G01X282350Y230600D02*
X293850D01*
G01X295250Y235750D02*
X301700D01*
G01X291150Y275600D02*
Y269150D01*
G01X291450Y266900D02*
Y260450D01*
G01X291150Y299300D02*
Y292850D01*
G01Y289400D02*
Y282950D01*
G01X333650Y226550D02*
Y233000D01*
G01X345150Y226550D02*
X333650D01*
G01X311000Y212350D02*
Y200850D01*
G01X333650Y218750D02*
Y225200D01*
G01D02*
X345150D01*
G01Y218750D02*
X333650D01*
G01Y233000D02*
X345150D01*
G01D02*
Y226550D01*
G01X346550Y218750D02*
Y225200D01*
G01D02*
X358050D01*
G01D02*
Y218750D01*
G01D02*
X346550D01*
G01X345150Y225200D02*
Y218750D01*
G01X378050Y219050D02*
Y225500D01*
G01D02*
X389550D01*
G01D02*
Y219050D01*
G01D02*
X378050D01*
G01X390650D02*
Y225500D01*
G01D02*
X402150D01*
G01Y219050D02*
X390650D01*
G01X412200Y201150D02*
Y189650D01*
G01D02*
X405750D01*
G01D02*
Y201150D01*
G01X404950Y200950D02*
Y194500D01*
G01D02*
X393450D01*
G01D02*
Y200950D01*
G01X405750Y201150D02*
X412200D01*
G01X402150Y225500D02*
Y219050D01*
G01X393450Y200950D02*
X404950D01*
G01X411350Y218050D02*
X417800D01*
G01D02*
Y206550D01*
G01D02*
X411350D01*
G01D02*
Y218050D01*
G01X419750Y212750D02*
Y219200D01*
G01D02*
X431250D01*
G01D02*
Y212750D01*
G01D02*
X419750D01*
G01Y204350D02*
Y210800D01*
G01D02*
X431250D01*
G01D02*
Y204350D01*
G01D02*
X419750D01*
G54D11*
G01X34400Y255500D02*
G02X45900Y267000I11500J0D01*
G02X57400Y255500I0J-11500D01*
G02X45900Y244000I-11500J0D01*
G02X34400Y255500I0J11500D01*
G54D12*
G01X36670Y264770D02*
X35650Y265750D01*
M02*
