G04 ================== begin FILE IDENTIFICATION RECORD ==================*
G04 Layout Name:  LIDAR_READOUT_VER1_2_top_bot_gnd.brd*
G04 Film Name:    Silkscreen_Bottom*
G04 File Format:  Gerber RS274X*
G04 File Origin:  Cadence Allegro 17.2-P019*
G04 Origin Date:  Mon Jul 17 15:10:13 2023*
G04 *
G04 Layer:  REF DES/SILKSCREEN_BOTTOM*
G04 Layer:  PACKAGE GEOMETRY/SILKSCREEN_BOTTOM*
G04 *
G04 Offset:    (0.0 0.0)*
G04 Mirror:    No*
G04 Mode:      Positive*
G04 Rotation:  0*
G04 FullContactRelief:  No*
G04 UndefLineWidth:     0.0*
G04 ================== end FILE IDENTIFICATION RECORD ====================*
%FSLAX25Y25*MOIN*%
%IR0*IPPOS*OFA0.00000B0.00000*MIA0B0*SFA1.00000B1.00000*%
%ADD10C,.006*%
%ADD11C,.008*%
G75*
%LPD*%
G75*
G54D10*
G01X108100Y258550D02*
Y247050D01*
G01D02*
X114550D01*
G01D02*
Y258550D01*
G01D02*
X108100D01*
G01X144350Y266450D02*
X150800D01*
G01Y277950D02*
X144350D01*
G01D02*
Y266450D01*
G01X170750Y278350D02*
Y271900D01*
G01D02*
X182250D01*
G01Y278350D02*
X170750D01*
G01X150800Y266450D02*
Y277950D01*
G01X171750Y310100D02*
Y303650D01*
G01D02*
X183250D01*
G01Y310100D02*
X171750D01*
G01X170350Y312350D02*
Y318800D01*
G01D02*
X158850D01*
G01D02*
Y312350D01*
G01D02*
X170350D01*
G01X170650Y331750D02*
X164200D01*
G01D02*
Y320250D01*
G01D02*
X170650D01*
G01D02*
Y331750D01*
G01X188150Y175150D02*
Y168700D01*
G01D02*
X199650D01*
G01X199750Y182600D02*
X188250D01*
G01D02*
Y176150D01*
G01D02*
X199750D01*
G01X199650Y175150D02*
X188150D01*
G01X182250Y271900D02*
Y278350D01*
G01X198050Y266150D02*
X204500D01*
G01Y277650D02*
X198050D01*
G01D02*
Y266150D01*
G01X183250Y303650D02*
Y310100D01*
G01X195850Y303650D02*
Y310100D01*
G01X184350D02*
Y303650D01*
G01D02*
X195850D01*
G01X195350Y338950D02*
Y332500D01*
G01D02*
X206850D01*
G01X195850Y310100D02*
X184350D01*
G01X188050Y340850D02*
Y347300D01*
G01D02*
X176550D01*
G01D02*
Y340850D01*
G01D02*
X188050D01*
G01X206850Y338950D02*
X195350D01*
G01X177300Y477950D02*
Y466450D01*
G01D02*
X183750D01*
G01D02*
Y477950D01*
G01D02*
X177300D01*
G01X199650Y168700D02*
Y175150D01*
G01X199750Y176150D02*
Y182600D01*
G01X224150Y277750D02*
Y271300D01*
G01D02*
X235650D01*
G01Y277750D02*
X224150D01*
G01X204500Y266150D02*
Y277650D01*
G01X206850Y332500D02*
Y338950D01*
G01X229750Y325450D02*
X223300D01*
G01D02*
Y313950D01*
G01D02*
X229750D01*
G01X258200Y393200D02*
X225200D01*
G01D02*
Y398950D01*
G01D02*
X223950Y400200D01*
G01D02*
X225200Y401450D01*
G01D02*
Y407200D01*
G01D02*
X258200D01*
G01X248300Y447200D02*
X215300D01*
G01D02*
Y452950D01*
G01D02*
X214050Y454200D01*
G01D02*
X215300Y455450D01*
G01D02*
Y461200D01*
G01D02*
X248300D01*
G01X235650Y271300D02*
Y277750D01*
G01X240550Y298850D02*
Y305300D01*
G01D02*
X229050D01*
G01D02*
Y298850D01*
G01D02*
X240550D01*
G01X241850Y305350D02*
Y298900D01*
G01D02*
X253350D01*
G01D02*
Y305350D01*
G01D02*
X241850D01*
G01X247450Y336050D02*
Y342500D01*
G01X235950D02*
Y336050D01*
G01D02*
X247450D01*
G01X229750Y313950D02*
Y325450D01*
G01X247450Y342500D02*
X235950D01*
G01X233150Y445450D02*
Y439000D01*
G01D02*
X244650D01*
G01D02*
Y445450D01*
G01D02*
X233150D01*
G01X248300Y461200D02*
Y447200D01*
G01X261650Y285050D02*
X268100D01*
G01D02*
Y296550D01*
G01D02*
X261650D01*
G01D02*
Y285050D01*
G01X254150Y333250D02*
Y326800D01*
G01D02*
X265650D01*
G01D02*
Y333250D01*
G01D02*
X254150D01*
G01X287350Y332350D02*
X280900D01*
G01D02*
Y320850D01*
G01D02*
X287350D01*
G01X258200Y407200D02*
Y393200D01*
G01X314350Y182900D02*
X302850D01*
G01D02*
Y176450D01*
G01D02*
X314350D01*
G01X307550Y218450D02*
X314000D01*
G01X307550Y229950D02*
Y218450D01*
G01X314000Y229950D02*
X307550D01*
G01X299950Y306650D02*
Y313100D01*
G01X288450D02*
Y306650D01*
G01D02*
X299950D01*
G01X305050Y300850D02*
X298600D01*
G01D02*
Y289350D01*
G01D02*
X305050D01*
G01D02*
Y300850D01*
G01X299950Y313100D02*
X288450D01*
G01X287350Y320850D02*
Y332350D01*
G01X298850Y347950D02*
Y341500D01*
G01D02*
X310350D01*
G01Y347950D02*
X298850D01*
G01X316250Y171050D02*
X322700D01*
G01D02*
Y182550D01*
G01X316250D02*
Y171050D01*
G01X314350Y176450D02*
Y182900D01*
G01X322700Y182550D02*
X316250D01*
G01X314000Y218450D02*
Y229950D01*
G01X310850Y340450D02*
Y334000D01*
G01D02*
X322350D01*
G01D02*
Y340450D01*
G01X310350Y341500D02*
Y347950D01*
G01X322350Y340450D02*
X310850D01*
G01X386350Y240050D02*
Y246500D01*
G01D02*
X374850D01*
G01D02*
Y240050D01*
G01D02*
X386350D01*
G01X385250Y282850D02*
Y276400D01*
G01D02*
X396750D01*
G01X373750Y267550D02*
X367300D01*
G01D02*
Y256050D01*
G01D02*
X373750D01*
G01D02*
Y267550D01*
G01X396750Y282850D02*
X385250D01*
G01X396750Y276400D02*
Y282850D01*
G01X404350Y273850D02*
X397900D01*
G01D02*
Y262350D01*
G01D02*
X404350D01*
G01D02*
Y273850D01*
G01X415950Y314300D02*
Y307850D01*
G01D02*
X427450D01*
G01X420850Y305650D02*
X414400D01*
G01D02*
Y294150D01*
G01D02*
X420850D01*
G01X408100Y340750D02*
Y329250D01*
G01D02*
X414550D01*
G01D02*
Y340750D01*
G01X427450Y314300D02*
X415950D01*
G01X414250Y342350D02*
Y348800D01*
G01D02*
X402750D01*
G01D02*
Y342350D01*
G01D02*
X414250D01*
G01X414550Y340750D02*
X408100D01*
G01X427450Y307850D02*
Y314300D01*
G01X420850Y294150D02*
Y305650D01*
G01X428950D02*
X422500D01*
G01D02*
Y294150D01*
G01D02*
X428950D01*
G01D02*
Y305650D01*
G01X436750Y323050D02*
X430300D01*
G01D02*
Y311550D01*
G01D02*
X436750D01*
G01D02*
Y323050D01*
G01X422500Y340750D02*
Y329250D01*
G01D02*
X428950D01*
G01D02*
Y340750D01*
G01X429650Y344150D02*
X436100D01*
G01D02*
Y355650D01*
G01D02*
X429650D01*
G01D02*
Y344150D01*
G01X428950Y340750D02*
X422500D01*
G01X455650Y359600D02*
X444150D01*
G01D02*
Y353150D01*
G01D02*
X455650D01*
G01X466000Y341050D02*
Y329550D01*
G01D02*
X472450D01*
G01D02*
Y341050D01*
G01X463450Y322250D02*
Y328700D01*
G01D02*
X451950D01*
G01D02*
Y322250D01*
G01D02*
X463450D01*
G01X472450Y341050D02*
X466000D01*
G01X455650Y353150D02*
Y359600D01*
G54D11*
G01X220600Y413900D02*
Y436400D01*
G01X262600Y413900D02*
X220600D01*
G01Y436400D02*
X262600D01*
G01X220600Y419400D02*
X262600D01*
G01Y436400D02*
Y413900D01*
G01X355200Y217200D02*
Y227200D01*
G01X372700Y209700D02*
X362700D01*
G01Y234700D02*
X372700D01*
G01X389500Y156700D02*
Y166700D01*
G01X380200Y227200D02*
Y217200D01*
G01X414500Y166700D02*
Y156700D01*
G01X407000Y149200D02*
X397000D01*
G01Y174200D02*
X407000D01*
G01X416300Y359200D02*
X406300D01*
G01X398800Y366700D02*
Y376700D01*
G01X406300Y384200D02*
X416300D01*
G01X423800Y376700D02*
Y366700D01*
G01X503100Y201400D02*
X483100D01*
G01D02*
Y301400D01*
G01D02*
X503100D01*
G01D02*
Y201400D01*
M02*
