G04 ================== begin FILE IDENTIFICATION RECORD ==================*
G04 Layout Name:  LIDAR_READOUT_VER1_2_top_bot_gnd.brd*
G04 Film Name:    Soldermask_Bottom*
G04 File Format:  Gerber RS274X*
G04 File Origin:  Cadence Allegro 17.2-P019*
G04 Origin Date:  Mon Jul 17 15:10:13 2023*
G04 *
G04 Layer:  VIA CLASS/SOLDERMASK_BOTTOM*
G04 Layer:  PIN/SOLDERMASK_BOTTOM*
G04 *
G04 Offset:    (0.0 0.0)*
G04 Mirror:    No*
G04 Mode:      Positive*
G04 Rotation:  0*
G04 FullContactRelief:  No*
G04 UndefLineWidth:     0.0*
G04 ================== end FILE IDENTIFICATION RECORD ====================*
%FSLAX25Y25*MOIN*%
%IR0*IPPOS*OFA0.00000B0.00000*MIA0B0*SFA1.00000B1.00000*%
%ADD18C,.17*%
%ADD25R,.104X.088*%
%ADD10C,.2562*%
%ADD24C,.1099*%
%ADD26R,.1099X.1099*%
%ADD22R,.03X.055*%
%ADD29R,.055X.03*%
%ADD20R,.032X.038*%
%ADD17R,.038X.032*%
%ADD12C,.044*%
%ADD11C,.055*%
%ADD15C,.075*%
%ADD31C,.058*%
%ADD16R,.084X.055*%
%ADD28R,.039X.019*%
%ADD21C,.095*%
%ADD19R,.055X.084*%
%ADD23R,.061X.0839*%
%ADD27R,.0839X.061*%
%ADD14R,.075X.075*%
%ADD13C,.0685*%
%ADD30R,.058X.058*%
%LPD*%
G75*
G54D10*
X59000Y59000D03*
Y453000D03*
X452500Y59000D03*
Y453000D03*
G54D11*
X40900Y255500D03*
X50900D03*
G54D20*
X167400Y315600D03*
X161800D03*
X191100Y171900D03*
X196700D03*
X196800Y179400D03*
X191200D03*
X173700Y275100D03*
X179300D03*
X180300Y306900D03*
X174700D03*
X192900D03*
X187300D03*
X198300Y335700D03*
X185100Y344100D03*
X179500D03*
X227100Y274500D03*
X203900Y335700D03*
X232700Y274500D03*
X237600Y302100D03*
X232000D03*
X244800D03*
X250400D03*
X244500Y339300D03*
X238900D03*
X236100Y442200D03*
X241700D03*
X257100Y330000D03*
X262700D03*
X305800Y179700D03*
X297000Y309900D03*
X291400D03*
X301800Y344700D03*
X307400D03*
X311400Y179700D03*
X313800Y337200D03*
X319400D03*
X383400Y243300D03*
X377800D03*
X388200Y279600D03*
X393800D03*
X418900Y311100D03*
X411300Y345600D03*
X405700D03*
X424500Y311100D03*
X460500Y325500D03*
X454900D03*
X452700Y356400D03*
X447100D03*
G54D30*
X488100Y206400D03*
X498100Y246400D03*
G54D21*
X167500Y455000D03*
Y465000D03*
Y475000D03*
G54D12*
X58200Y276000D03*
X58800Y306300D03*
X67550Y141650D03*
X81300Y237600D03*
X66000Y272100D03*
X116900Y127900D03*
X97200Y139500D03*
X105000Y201900D03*
X109200Y222600D03*
X98400D03*
X102900Y244500D03*
X117800Y255500D03*
X99300Y352500D03*
X124500Y127800D03*
X136900Y134200D03*
X126700Y275500D03*
X133200Y294900D03*
X135900Y435000D03*
X156900Y121500D03*
X146900Y134200D03*
X172400Y127100D03*
X156000Y256800D03*
X156800Y275000D03*
X154200Y264900D03*
X168600Y306900D03*
X151500Y302100D03*
X173700Y344100D03*
X190700Y133300D03*
X186000Y171900D03*
X183000Y258600D03*
X184500Y294900D03*
X199200Y306900D03*
X180300Y301500D03*
X196200Y328500D03*
X195200Y383800D03*
X209400Y257100D03*
X210700Y274700D03*
X207600Y264600D03*
X203900Y329200D03*
X212700Y354000D03*
X250200Y254700D03*
X253800Y270600D03*
X234150Y292200D03*
X253970Y286070D03*
X239400Y295800D03*
X254700Y323400D03*
X233100Y339300D03*
X254600Y381400D03*
X261000Y239400D03*
X258300Y278100D03*
X264900Y281100D03*
X260700Y299700D03*
X262700Y324100D03*
X270600Y349800D03*
X305500Y133000D03*
X291300Y126900D03*
X298800Y208800D03*
X298500Y240000D03*
X285000Y309900D03*
X294300Y303600D03*
X325500Y174000D03*
X333300Y208500D03*
X319300Y227000D03*
X317700Y217100D03*
X325200Y337200D03*
X313800Y332400D03*
X312900Y344700D03*
X328500Y354900D03*
X311900Y384700D03*
X387300Y235200D03*
X366950Y292150D03*
X388200Y315600D03*
X409000Y187900D03*
X396400Y192400D03*
X404700Y222600D03*
X393700Y231700D03*
X400500Y279600D03*
X401100Y259200D03*
X410700Y270900D03*
X411000Y320100D03*
X398700Y345600D03*
X425100Y198600D03*
X431550Y256650D03*
X433500Y325800D03*
X432900Y358500D03*
X426900Y347100D03*
X454050Y246150D03*
X449700Y309300D03*
X451800Y332100D03*
X469200Y327000D03*
X466200Y322500D03*
X488600Y367900D03*
X505200Y338100D03*
G54D13*
X41300Y331800D03*
X61300D03*
Y391800D03*
X41300D03*
X71300Y331800D03*
X81300D03*
Y391800D03*
X71300D03*
X131300Y331800D03*
X141300D03*
Y391800D03*
X131300D03*
G54D31*
X498100Y206400D03*
X488100Y216400D03*
X498100D03*
X488100Y226400D03*
X498100D03*
X488100Y236400D03*
X498100D03*
X488100Y246400D03*
Y256400D03*
X498100D03*
X488100Y266400D03*
X498100D03*
X488100Y276400D03*
X498100D03*
X488100Y286400D03*
X498100D03*
X488100Y296400D03*
X498100D03*
G54D22*
X180200Y316350D03*
X175200D03*
X185200D03*
X190200D03*
X175200Y335850D03*
X180200D03*
X185200D03*
X190200D03*
X239600Y310350D03*
X234600D03*
X244600D03*
X249600D03*
X234600Y329850D03*
X239600D03*
X244600D03*
X249600D03*
X296900Y317550D03*
X291900D03*
X301900D03*
X306900D03*
X291900Y337050D03*
X296900D03*
X301900D03*
X306900D03*
X383300Y251550D03*
X378300D03*
X388300D03*
X378300Y271050D03*
X383300D03*
X388300D03*
X393300Y251550D03*
Y271050D03*
G54D14*
X116900Y159700D03*
X231300Y159600D03*
X231600Y425400D03*
G54D23*
X185200Y354000D03*
X195200Y375250D03*
X205200Y354000D03*
X244600Y349800D03*
X254600Y371050D03*
X264600Y349800D03*
X301900Y354900D03*
X321900D03*
X311900Y376150D03*
X478600Y338100D03*
X498600D03*
X488600Y359350D03*
G54D15*
X116900Y189700D03*
X146900Y159700D03*
X136900D03*
X126900D03*
Y189700D03*
X136900D03*
X146900D03*
X166900Y159700D03*
X156900D03*
Y189700D03*
X166900D03*
X196900Y159700D03*
X186900D03*
X176900D03*
Y189700D03*
X186900D03*
X196900D03*
X206900Y159700D03*
Y189700D03*
X251300Y159600D03*
X241300D03*
X231300Y189600D03*
X241300D03*
X251300D03*
X241600Y425400D03*
X251600D03*
X281300Y159600D03*
X271300D03*
X261300D03*
Y189600D03*
X271300D03*
X281300D03*
X311300Y159600D03*
X301300D03*
X291300D03*
Y189600D03*
X301300D03*
X311300D03*
X321300Y159600D03*
Y189600D03*
X357700Y212200D03*
Y232200D03*
X392000Y151700D03*
Y171700D03*
X367700Y222200D03*
X377700Y212200D03*
Y232200D03*
X402000Y161700D03*
X412000Y151700D03*
Y171700D03*
X421300Y361700D03*
X401300D03*
X411300Y371700D03*
X401300Y381700D03*
X421300D03*
G54D24*
X206610Y475000D03*
X222200D03*
X237800D03*
G54D16*
X102900Y249900D03*
Y260700D03*
X190000Y464100D03*
Y474900D03*
X218900Y169800D03*
Y180600D03*
X273300Y298800D03*
Y288000D03*
X442200Y309300D03*
Y320100D03*
G54D25*
X222000Y454200D03*
X231900Y400200D03*
X251500D03*
X241600Y454200D03*
G54D17*
X111300Y250000D03*
Y255600D03*
X147600Y269400D03*
Y275000D03*
X167400Y328800D03*
Y323200D03*
X180500Y469400D03*
Y475000D03*
X201300Y269100D03*
Y274700D03*
X226500Y322500D03*
Y316900D03*
X264900Y288000D03*
Y293600D03*
X301800Y297900D03*
Y292300D03*
X284100Y329400D03*
Y323800D03*
X319500Y174000D03*
Y179600D03*
X310800Y221400D03*
Y227000D03*
X370500Y264600D03*
Y259000D03*
X401100Y270900D03*
Y265300D03*
X417600Y302700D03*
Y297100D03*
X411300Y332200D03*
Y337800D03*
X425700Y302700D03*
Y297100D03*
X433500Y320100D03*
Y314500D03*
X425700Y332200D03*
X432900Y347100D03*
Y352700D03*
X425700Y337800D03*
X469200Y332500D03*
Y338100D03*
G54D26*
X253390Y475000D03*
G54D27*
X366950Y298400D03*
X388200Y288400D03*
Y308400D03*
G54D18*
X110000Y465000D03*
G54D19*
X173700Y286500D03*
X184500D03*
X227100Y282900D03*
X237900D03*
G54D28*
X417170Y322660D03*
Y320100D03*
Y317540D03*
X425830D03*
Y320100D03*
Y322660D03*
G54D29*
X440850Y333000D03*
Y343000D03*
Y348000D03*
Y338000D03*
X460350Y333000D03*
Y348000D03*
Y343000D03*
Y338000D03*
M02*
