G04 ================== begin FILE IDENTIFICATION RECORD ==================*
G04 Layout Name:  LIDAR_READOUT_VER1_2_top_bot_gnd.brd*
G04 Film Name:    TOP*
G04 File Format:  Gerber RS274X*
G04 File Origin:  Cadence Allegro 17.2-P019*
G04 Origin Date:  Mon Jul 17 15:10:13 2023*
G04 *
G04 Layer:  ETCH/TOP*
G04 Layer:  PIN/TOP*
G04 Layer:  VIA CLASS/TOP*
G04 *
G04 Offset:    (0.0 0.0)*
G04 Mirror:    No*
G04 Mode:      Positive*
G04 Rotation:  0*
G04 FullContactRelief:  No*
G04 UndefLineWidth:     0.0*
G04 ================== end FILE IDENTIFICATION RECORD ====================*
%FSLAX25Y25*MOIN*%
%IR0*IPPOS*OFA0.00000B0.00000*MIA0B0*SFA1.00000B1.00000*%
%ADD24C,.16*%
%ADD26R,.104X.088*%
%ADD25R,.088X.104*%
%ADD34R,.014X.034*%
%ADD10C,.03*%
%ADD23R,.05X.025*%
%ADD22C,.06*%
%ADD15C,.024*%
%ADD19R,.032X.038*%
%ADD11C,.025*%
%ADD29C,.08*%
%ADD20R,.038X.032*%
%ADD12C,.055*%
%ADD27R,.053X.0408*%
%ADD32C,.075*%
%ADD28R,.0408X.053*%
%ADD17R,.05X.05*%
%ADD13R,.079X.05*%
%ADD36C,.058*%
%ADD21R,.06X.06*%
%ADD16C,.0535*%
%ADD14R,.05X.079*%
%ADD31R,.075X.075*%
%ADD35R,.058X.058*%
%ADD30C,.0949*%
%ADD18R,.0787X.0551*%
%ADD33R,.0949X.0949*%
%ADD37C,.012*%
%ADD42C,.1152*%
%ADD40C,.1804*%
%ADD41C,.0804*%
%ADD38C,.0444*%
%ADD43C,.0954*%
%ADD39C,.0738*%
%ADD44C,.0784*%
G75*
%LPD*%
G75*
G36*
G01X540000Y509700D02*
Y3900D01*
X3000D01*
Y509700D01*
X540000D01*
G37*
%LPC*%
G75*
G36*
G01X411900Y199980D02*
X411920Y199810D01*
X412540D01*
Y201100D01*
G02X413550Y202110I1010J0D01*
G01X421450D01*
G02X422460Y201100I0J-1010D01*
G01Y200210D01*
X423570D01*
G02Y196990I1530J-1610D01*
G01X422460D01*
Y196100D01*
G02X421450Y195090I-1010J0D01*
G01X413550D01*
G02X412540Y196100I0J1010D01*
G01Y196590D01*
X411920D01*
X411900Y196420D01*
G02X411430Y195740I-995J185D01*
G03Y195060I211J-340D01*
G02X411910Y194200I-530J-860D01*
G01Y191000D01*
G02X410900Y189990I-1010J0D01*
G01X410310D01*
Y189690D01*
X410390Y189630D01*
G02X407610I-1390J-1730D01*
G01X407690Y189690D01*
Y189990D01*
X407100D01*
G02X406090Y191000I0J1010D01*
G01Y194200D01*
G02X406570Y195060I1010J0D01*
G03Y195740I-211J340D01*
G02X406090Y196600I530J860D01*
G01Y199800D01*
G02X407080Y200810I1010J0D01*
G01X407160D01*
X407290Y200940D01*
Y201080D01*
X407030Y201340D01*
X405080D01*
X404430Y201990D01*
G03X403750Y201710I-281J-284D01*
G01Y200620D01*
X403890Y200580D01*
G02X404620Y199600I-293J-980D01*
G01Y195800D01*
G02X403780Y194800I-1015J0D01*
G01X403610Y194770D01*
Y166190D01*
G02X400390I-1610J-4490D01*
G01Y194780D01*
X398110D01*
G03X397850Y194080I4J-400D01*
G02X395440Y194400I-1449J-1681D01*
G01X395550Y194450D01*
Y194780D01*
X394800D01*
G02X393780Y195800I0J1020D01*
G01Y199600D01*
G02X394800Y200620I1020J0D01*
G01X400390D01*
Y201870D01*
X400530Y202010D01*
Y205310D01*
X400510Y205350D01*
G02X400420Y205770I935J420D01*
G01Y209170D01*
G02X401440Y210190I1020J0D01*
G01X407960D01*
G02X408850Y209680I0J-1032D01*
G03X409470Y209590I345J197D01*
G01X410990Y211110D01*
X411680D01*
X411700Y211280D01*
G02X412170Y211960I995J-185D01*
G03Y212640I-211J340D01*
G02X411700Y213320I525J865D01*
G01X411680Y213490D01*
X410330D01*
X409300Y214520D01*
X408990D01*
X408980Y214340D01*
G02X407960Y213410I-1020J94D01*
G01X401440D01*
G02X400420Y214340I0J1024D01*
G01X400410Y214520D01*
X395500D01*
X391990Y218030D01*
Y219370D01*
X391820Y219400D01*
G02X390980Y220400I175J1000D01*
G01Y220690D01*
X389220D01*
Y220400D01*
G02X388200Y219380I-1020J0D01*
G01X379400D01*
G02X378380Y220390I0J1020D01*
G01Y220590D01*
X372190D01*
G02X363260Y220450I-4491J1609D01*
G01X363250Y220490D01*
X363150Y220590D01*
X363010D01*
X362810Y220390D01*
X357720D01*
Y220100D01*
G02X356700Y219080I-1020J0D01*
G01X347900D01*
G02X346880Y220100I0J1020D01*
G01Y220390D01*
X344820D01*
Y220100D01*
G02X343800Y219080I-1020J0D01*
G01X335000D01*
G02X333980Y220100I0J1020D01*
G01Y220390D01*
X332730D01*
X332630Y220490D01*
X330700D01*
X330650Y220380D01*
G02X329750Y219840I-900J480D01*
G01X324750D01*
G02X323740Y220850I0J1010D01*
G01Y223350D01*
G02X324750Y224360I1010J0D01*
G01X329750D01*
G02X330650Y223820I0J-1020D01*
G01X330700Y223710D01*
X333980D01*
Y223910D01*
G02X335000Y224920I1020J-10D01*
G01X343800D01*
G02X344820Y223900I0J-1020D01*
G01Y223610D01*
X346880D01*
Y223900D01*
G02X347900Y224920I1020J0D01*
G01X356700D01*
G02X357720Y223900I0J-1020D01*
G01Y223610D01*
X361470D01*
X361670Y223810D01*
X363210D01*
G02X372190I4490J-1610D01*
G01X377030D01*
X377130Y223910D01*
X378380D01*
Y224200D01*
G02X379400Y225220I1020J0D01*
G01X388200D01*
G02X389220Y224200I0J-1020D01*
G01Y223910D01*
X390980D01*
Y224200D01*
G02X391820Y225200I1015J0D01*
G01X391990Y225230D01*
Y226470D01*
X392090Y226570D01*
Y230170D01*
G02X395310I1610J1530D01*
G01Y225220D01*
X400800D01*
G02X401820Y224200I0J-1020D01*
G01Y220400D01*
G02X400800Y219380I-1020J0D01*
G01X396160D01*
G03X395880Y218700I4J-399D01*
G01X396840Y217740D01*
X400410D01*
X400420Y217920D01*
G02X401440Y218850I1020J-94D01*
G01X407960D01*
G02X408980Y217920I0J-1024D01*
G01X408990Y217740D01*
X410640D01*
X411220Y217160D01*
G03X411840Y217230I282J283D01*
G02X412700Y217710I860J-530D01*
G01X416500D01*
G02X417270Y217360I0J-1022D01*
G03X417860Y217330I309J255D01*
G01X418130Y217610D01*
X420080D01*
Y217900D01*
G02X421100Y218920I1020J0D01*
G01X429900D01*
G02X430920Y217900I0J-1020D01*
G01Y217610D01*
X482530D01*
X482930Y218010D01*
X484530D01*
G02X484580Y214680I3571J-1612D01*
G01X484520Y214790D01*
X484270D01*
X483870Y214390D01*
X430920D01*
Y214100D01*
G02X429900Y213080I-1020J0D01*
G01X421100D01*
G02X420080Y214100I0J1020D01*
G01Y214390D01*
X419470D01*
X418570Y213490D01*
X417520D01*
X417500Y213320D01*
G02X417030Y212640I-995J185D01*
G03Y211960I211J-340D01*
G02X417500Y211280I-525J-865D01*
G01X417520Y211110D01*
X417970D01*
X419740Y209340D01*
G03X420080Y209480I141J141D01*
G01Y209500D01*
G02X421100Y210520I1020J0D01*
G01X429900D01*
G02X430920Y209500I0J-1020D01*
G01Y209210D01*
X483070D01*
X483510Y208770D01*
G03X484190Y209050I281J284D01*
G01Y209300D01*
G02X485200Y210310I1010J0D01*
G01X491000D01*
G02X492010Y209300I0J-1010D01*
G01Y203500D01*
G02X491000Y202490I-1010J0D01*
G01X485200D01*
G02X484190Y203500I0J1010D01*
G01Y204790D01*
X482930D01*
X481730Y205990D01*
X430920D01*
Y205700D01*
G02X429900Y204680I-1020J0D01*
G01X421100D01*
G02X420100Y205520I0J1015D01*
G01X420070Y205690D01*
X418830D01*
X417410Y207110D01*
G03X417140Y207120I-140J-142D01*
G02X416500Y206890I-640J775D01*
G01X412700D01*
G02X412060Y207120I0J1005D01*
G03X411530Y207090I-248J-313D01*
G01X410300Y205860D01*
X408990D01*
X408980Y205680D01*
G02X408590Y204970I-1016J96D01*
G03X408560Y204370I248J-313D01*
G01X410510Y202420D01*
Y200810D01*
X410900D01*
G02X411900Y199980I0J-1017D01*
G37*
G36*
G01X494190Y243500D02*
Y249300D01*
G02X495200Y250310I1010J0D01*
G01X501000D01*
G02X502010Y249300I0J-1010D01*
G01Y243500D01*
G02X501000Y242490I-1010J0D01*
G01X495200D01*
G02X494190Y243500I0J1010D01*
G37*
G36*
G01X412540Y185300D02*
Y190300D01*
G02X413550Y191310I1010J0D01*
G01X421450D01*
G02X422460Y190300I0J-1010D01*
G01Y185300D01*
G02X421450Y184290I-1010J0D01*
G01X413550D01*
G02X412540Y185300I0J1010D01*
G37*
G36*
G01X343590Y234550D02*
Y242450D01*
G02X344600Y243460I1010J0D01*
G01X349600D01*
G02X350610Y242450I0J-1010D01*
G01Y234550D01*
G02X349600Y233540I-1010J0D01*
G01X344600D01*
G02X343590Y234550I0J1010D01*
G37*
G36*
G01X323740Y230850D02*
Y233350D01*
G02X324750Y234360I1010J0D01*
G01X329750D01*
G02X330760Y233350I0J-1010D01*
G01Y230850D01*
G02X329750Y229840I-1010J0D01*
G01X324750D01*
G02X323740Y230850I0J1010D01*
G37*
G36*
G01Y215850D02*
Y218350D01*
G02X324750Y219360I1010J0D01*
G01X329750D01*
G02X330760Y218350I0J-1010D01*
G01Y215850D01*
G02X329750Y214840I-1010J0D01*
G01X324750D01*
G02X323740Y215850I0J1010D01*
G37*
G36*
G01X322290Y204550D02*
Y212450D01*
G02X323300Y213460I1010J0D01*
G01X328300D01*
G02X329310Y212450I0J-1010D01*
G01Y204550D01*
G02X328300Y203540I-1010J0D01*
G01X323300D01*
G02X322290Y204550I0J1010D01*
G37*
G36*
G01X304240Y230850D02*
Y233350D01*
G02X305250Y234360I1010J0D01*
G01X310250D01*
G02X311260Y233350I0J-1010D01*
G01Y230850D01*
G02X310250Y229840I-1010J0D01*
G01X305250D01*
G02X304240Y230850I0J1010D01*
G37*
G36*
G01X247630Y470260D02*
Y479740D01*
G02X248640Y480760I1015J5D01*
G01X258140D01*
G02X259150Y479740I-5J-1015D01*
G01Y470260D01*
G02X258140Y469240I-1015J-5D01*
G01X248640D01*
G02X247630Y470260I5J1015D01*
G37*
G36*
G01X246690Y242350D02*
Y250250D01*
G02X247700Y251260I1010J0D01*
G01X252700D01*
G02X253710Y250250I0J-1010D01*
G01Y242350D01*
G02X252700Y241340I-1010J0D01*
G01X247700D01*
G02X246690Y242350I0J1010D01*
G37*
G36*
G01X227290Y156600D02*
Y162600D01*
G02X228300Y163610I1010J0D01*
G01X234300D01*
G02X235310Y162600I0J-1010D01*
G01Y156600D01*
G02X234300Y155590I-1010J0D01*
G01X228300D01*
G02X227290Y156600I0J1010D01*
G37*
G36*
G01X195240Y278350D02*
Y280850D01*
G02X196250Y281860I1010J0D01*
G01X201250D01*
G02X202260Y280850I0J-1010D01*
G01Y278350D01*
G02X201250Y277340I-1010J0D01*
G01X196250D01*
G02X195240Y278350I0J1010D01*
G37*
G36*
G01X214740Y263350D02*
Y265850D01*
G02X215750Y266860I1010J0D01*
G01X220750D01*
G02X221760Y265850I0J-1010D01*
G01Y263350D01*
G02X220750Y262340I-1010J0D01*
G01X215750D01*
G02X214740Y263350I0J1010D01*
G37*
G36*
G01Y278350D02*
Y280850D01*
G02X215750Y281860I1010J0D01*
G01X220750D01*
G02X221760Y280850I0J-1010D01*
G01Y278350D01*
G02X220750Y277340I-1010J0D01*
G01X215750D01*
G02X214740Y278350I0J1010D01*
G37*
G36*
G01X205890Y244450D02*
Y252350D01*
G02X206900Y253360I1010J0D01*
G01X211900D01*
G02X212910Y252350I0J-1010D01*
G01Y244450D01*
G02X211900Y243440I-1010J0D01*
G01X206900D01*
G02X205890Y244450I0J1010D01*
G37*
G36*
G01X161040Y263650D02*
Y266150D01*
G02X162050Y267160I1010J0D01*
G01X167050D01*
G02X168060Y266150I0J-1010D01*
G01Y263650D01*
G02X167050Y262640I-1010J0D01*
G01X162050D01*
G02X161040Y263650I0J1010D01*
G37*
G36*
G01Y278650D02*
Y281150D01*
G02X162050Y282160I1010J0D01*
G01X167050D01*
G02X168060Y281150I0J-1010D01*
G01Y278650D01*
G02X167050Y277640I-1010J0D01*
G01X162050D01*
G02X161040Y278650I0J1010D01*
G37*
G36*
G01X141690Y430600D02*
Y439400D01*
G02X142700Y440410I1010J0D01*
G01X153100D01*
G02X154110Y439400I0J-1010D01*
G01Y430600D01*
G02X153100Y429590I-1010J0D01*
G01X142700D01*
G02X141690Y430600I0J1010D01*
G37*
G36*
G01X135590Y346300D02*
Y356700D01*
G02X136600Y357710I1010J0D01*
G01X145400D01*
G02X146410Y356700I0J-1010D01*
G01Y346300D01*
G02X145400Y345290I-1010J0D01*
G01X136600D01*
G02X135590Y346300I0J1010D01*
G37*
G36*
G01X141540Y278650D02*
Y281150D01*
G02X142550Y282160I1010J0D01*
G01X147550D01*
G02X148560Y281150I0J-1010D01*
G01Y278650D01*
G02X147550Y277640I-1010J0D01*
G01X142550D01*
G02X141540Y278650I0J1010D01*
G37*
G36*
G01X152490Y244150D02*
Y252050D01*
G02X153500Y253060I1010J0D01*
G01X158500D01*
G02X159510Y252050I0J-1010D01*
G01Y244150D01*
G02X158500Y243140I-1010J0D01*
G01X153500D01*
G02X152490Y244150I0J1010D01*
G37*
G36*
G01X108740Y259250D02*
Y261750D01*
G02X109750Y262760I1010J0D01*
G01X114750D01*
G02X115760Y261750I0J-1010D01*
G01Y259250D01*
G02X114750Y258240I-1010J0D01*
G01X109750D01*
G02X108740Y259250I0J1010D01*
G37*
G36*
G01Y244250D02*
Y246750D01*
G02X109750Y247760I1010J0D01*
G01X114750D01*
G02X115760Y246750I0J-1010D01*
G01Y244250D01*
G02X114750Y243240I-1010J0D01*
G01X109750D01*
G02X108740Y244250I0J1010D01*
G37*
G36*
G01X89240Y259250D02*
Y261750D01*
G02X90250Y262760I1010J0D01*
G01X95250D01*
G02X96260Y261750I0J-1010D01*
G01Y259250D01*
G02X95250Y258240I-1010J0D01*
G01X90250D01*
G02X89240Y259250I0J1010D01*
G37*
G36*
G01X46290Y361700D02*
Y366700D01*
G02X47300Y367710I1010J0D01*
G01X52300D01*
G02X53310Y366700I0J-1010D01*
G01Y361700D01*
G02X52300Y360690I-1010J0D01*
G01X47300D01*
G02X46290Y361700I0J1010D01*
G37*
G36*
G01X48390Y302350D02*
Y310250D01*
G02X49400Y311260I1010J0D01*
G01X54400D01*
G02X55410Y310250I0J-1010D01*
G01Y302350D01*
G02X54400Y301340I-1010J0D01*
G01X49400D01*
G02X48390Y302350I0J1010D01*
G37*
G36*
G01Y272050D02*
Y279950D01*
G02X49400Y280960I1010J0D01*
G01X54400D01*
G02X55410Y279950I0J-1010D01*
G01Y272050D01*
G02X54400Y271040I-1010J0D01*
G01X49400D01*
G02X48390Y272050I0J1010D01*
G37*
G36*
G01X444060Y442940D02*
X444000Y442990D01*
X442490D01*
Y444500D01*
X442440Y444560D01*
G02Y461440I10060J8440D01*
G01X442490Y461500D01*
Y463010D01*
X444000D01*
X444060Y463060D01*
G02X460940I8440J-10060D01*
G01X461000Y463010D01*
X462510D01*
Y461500D01*
X462560Y461440D01*
G02Y444560I-10060J-8440D01*
G01X462510Y444500D01*
Y442990D01*
X461000D01*
X460940Y442940D01*
G02X444060I-8440J10060D01*
G37*
G36*
G01X48940Y461440D02*
X48990Y461500D01*
Y463010D01*
X50500D01*
X50560Y463060D01*
G02X67440I8440J-10060D01*
G01X67500Y463010D01*
X69010D01*
Y461500D01*
X69060Y461440D01*
G02Y444560I-10060J-8440D01*
G01X69010Y444500D01*
Y442990D01*
X67500D01*
X67440Y442940D01*
G02X50560I-8440J10060D01*
G01X50500Y442990D01*
X48990D01*
Y444500D01*
X48940Y444560D01*
G02Y461440I10060J8440D01*
G37*
G36*
G01X235970Y420850D02*
G02X235350Y420640I-620J810D01*
G01X227850D01*
G02X226840Y421650I0J1010D01*
G01Y429150D01*
G02X227850Y430160I1010J0D01*
G01X233750D01*
G03X234030Y430840I-5J400D01*
G01X229690Y435180D01*
Y479220D01*
X234180Y483710D01*
X241620D01*
X246110Y479220D01*
Y429720D01*
X247310Y428520D01*
Y428020D01*
X247620D01*
X247670Y428110D01*
G02Y422690I3930J-2710D01*
G01X247620Y422780D01*
X247310D01*
Y422280D01*
X243720Y418690D01*
X238380D01*
X236230Y420840D01*
G03X235970Y420850I-136J-146D01*
G37*
G36*
G01X145400Y364890D02*
X136600D01*
G02X135590Y365900I0J1010D01*
G01Y376300D01*
G02X136600Y377310I1010J0D01*
G01X138490D01*
Y385090D01*
X128580D01*
X124390Y389280D01*
Y395820D01*
X128580Y400010D01*
X165480D01*
X199090Y433620D01*
Y465480D01*
X195480Y469090D01*
X171470D01*
G03X171180Y468420I2J-399D01*
G02X169440Y460370I-3678J-3418D01*
G03Y459630I151J-370D01*
G02X170010Y450650I-1939J-4631D01*
G01Y440410D01*
X172700D01*
G02X173710Y439400I0J-1010D01*
G01Y430600D01*
G02X172700Y429590I-1010J0D01*
G01X162300D01*
G02X161290Y430600I0J1010D01*
G01Y439400D01*
G02X162300Y440410I1010J0D01*
G01X164990D01*
Y450650D01*
G02X165560Y459630I2509J4349D01*
G03Y460370I-151J370D01*
G02X163820Y468420I1938J4632D01*
G03X163530Y469090I-292J271D01*
G01X163380D01*
X159790Y472680D01*
Y478620D01*
X164880Y483710D01*
X211310D01*
Y482820D01*
X214310Y479820D01*
Y427680D01*
X171720Y385090D01*
X143510D01*
Y377310D01*
X145400D01*
G02X146410Y376300I0J-1010D01*
G01Y365900D01*
G02X145400Y364890I-1010J0D01*
G37*
G36*
G01X96340Y348730D02*
X88460D01*
G02X87450Y349740I5J1015D01*
G01Y355260D01*
G02X88460Y356270I1015J-5D01*
G01X96340D01*
G02X97350Y355260I-5J-1015D01*
G01Y354610D01*
G03X97980Y354290I397J1D01*
G02Y350710I1320J-1790D01*
G03X97350Y350390I-233J-321D01*
G01Y349740D01*
G02X96340Y348730I-1015J5D01*
G37*
G36*
G01X79690Y335120D02*
Y369070D01*
X84730Y374110D01*
X87450D01*
Y375260D01*
G02X88460Y376270I1015J-5D01*
G01X90790D01*
Y385430D01*
X86030Y390190D01*
X84620D01*
G02Y393410I-3320J1610D01*
G01X87370D01*
X94010Y386770D01*
Y376270D01*
X96340D01*
G02X97350Y375260I-5J-1015D01*
G01Y369740D01*
G02X96340Y368730I-1015J5D01*
G01X88460D01*
G02X87450Y369740I5J1015D01*
G01Y370890D01*
X86070D01*
X82910Y367730D01*
Y335120D01*
G02X79690I-1610J-3320D01*
G37*
G36*
G01X69540Y335040D02*
Y358730D01*
X67220D01*
G02X66200Y359740I-5J1015D01*
G01Y365260D01*
G02X67220Y366270I1015J-5D01*
G01X69540D01*
Y367030D01*
X69690Y367180D01*
Y388480D01*
G02X72910I1610J3320D01*
G01Y366270D01*
X75080D01*
G02X76100Y365260I5J-1015D01*
G01Y359740D01*
G02X75080Y358730I-1015J5D01*
G01X72760D01*
Y336400D01*
X72910Y336250D01*
Y335120D01*
G02X69540Y335040I-1607J-3321D01*
G37*
G36*
G01X38420Y311250D02*
X38590Y311270D01*
Y327960D01*
X38790Y328160D01*
Y329090D01*
X38730Y329150D01*
G02X38790Y334500I2570J2647D01*
G01Y337520D01*
X38890Y337620D01*
Y360680D01*
X38720Y360700D01*
G02X37890Y361700I187J1000D01*
G01Y366700D01*
G02X38720Y367700I1017J0D01*
G01X38890Y367720D01*
Y385980D01*
X38790Y386080D01*
Y389100D01*
G02X43870Y389150I2514J2700D01*
G01X43810Y389090D01*
Y388160D01*
X43910Y388060D01*
Y367720D01*
X44080Y367700D01*
G02X44910Y366700I-187J-1000D01*
G01Y361700D01*
G02X44080Y360700I-1017J0D01*
G01X43910Y360680D01*
Y335540D01*
X43810Y335440D01*
Y334510D01*
X43870Y334450D01*
G02X43810Y329100I-2570J-2647D01*
G01Y326080D01*
X43610Y325880D01*
Y311270D01*
X43780Y311250D01*
G02X44610Y310250I-187J-1000D01*
G01Y302350D01*
G02X43780Y301350I-1017J0D01*
G01X43610Y301330D01*
Y300510D01*
X45050D01*
G02X46060Y299500I0J-1010D01*
G01Y294500D01*
G02X45050Y293490I-1010J0D01*
G01X37150D01*
G02X36140Y294500I0J1010D01*
G01Y299500D01*
G02X37150Y300510I1010J0D01*
G01X38590D01*
Y301330D01*
X38420Y301350D01*
G02X37590Y302350I187J1000D01*
G01Y310250D01*
G02X38420Y311250I1017J0D01*
G37*
G36*
G01X167050Y272640D02*
X162050D01*
G02X161150Y273180I0J1020D01*
G01X161100Y273290D01*
X159780D01*
X159680Y273390D01*
X158330D01*
G02Y276610I-1530J1610D01*
G01X161140D01*
X161200Y276700D01*
G02X162050Y277160I850J-555D01*
G01X167050D01*
G02X168060Y276150I0J-1010D01*
G01Y273650D01*
G02X167050Y272640I-1010J0D01*
G37*
G36*
G01X220750Y272340D02*
X215750D01*
G02X214850Y272880I0J1020D01*
G01X214800Y272990D01*
X213480D01*
X213380Y273090D01*
X212230D01*
G02Y276310I-1530J1610D01*
G01X214840D01*
X214900Y276400D01*
G02X215750Y276860I850J-555D01*
G01X220750D01*
G02X221760Y275850I0J-1010D01*
G01Y273350D01*
G02X220750Y272340I-1010J0D01*
G37*
G36*
G01X176950Y266810D02*
X171650D01*
G02X170640Y267820I0J1010D01*
G01Y268250D01*
X169380D01*
X169340Y268290D01*
X168000D01*
X167950Y268180D01*
G02X167050Y267640I-900J480D01*
G01X162050D01*
G02X161040Y268650I0J1010D01*
G01Y271150D01*
G02X162050Y272160I1010J0D01*
G01X167050D01*
G02X167950Y271620I0J-1020D01*
G01X168000Y271510D01*
X170640D01*
Y271900D01*
G02X171650Y272910I1010J0D01*
G01X176950D01*
G02X177960Y271900I0J-1010D01*
G01Y267820D01*
G02X176950Y266810I-1010J0D01*
G37*
G36*
G01X230950Y266510D02*
X225650D01*
G02X224640Y267520I0J1010D01*
G01Y267950D01*
X223380D01*
X223340Y267990D01*
X221700D01*
X221650Y267880D01*
G02X220750Y267340I-900J480D01*
G01X215750D01*
G02X214740Y268350I0J1010D01*
G01Y270850D01*
G02X215750Y271860I1010J0D01*
G01X220750D01*
G02X221650Y271320I0J-1020D01*
G01X221700Y271210D01*
X224640D01*
Y271600D01*
G02X225650Y272610I1010J0D01*
G01X230950D01*
G02X231960Y271600I0J-1010D01*
G01Y267520D01*
G02X230950Y266510I-1010J0D01*
G37*
G36*
G01X69950Y262890D02*
X62050D01*
G02X61040Y263900I0J1010D01*
G01Y268900D01*
G02X62050Y269910I1010J0D01*
G01X64090D01*
G03X64380Y270580I-4J399D01*
G02X67620I1620J1520D01*
G03X67910Y269910I294J-271D01*
G01X69950D01*
G02X70960Y268900I0J-1010D01*
G01Y263900D01*
G02X69950Y262890I-1010J0D01*
G37*
G36*
G01X114750Y253240D02*
X109750D01*
G02X108740Y254250I0J1010D01*
G01Y256750D01*
G02X109750Y257760I1010J0D01*
G01X114750D01*
G02X115650Y257220I0J-1020D01*
G01X115700Y257110D01*
X116270D01*
X116330Y257160D01*
G02Y253840I1470J-1660D01*
G01X116270Y253890D01*
X115700D01*
X115650Y253780D01*
G02X114750Y253240I-900J480D01*
G37*
G36*
G01X484530Y254790D02*
X482930D01*
X482680Y255040D01*
X433080D01*
G02Y258260I-1530J1610D01*
G01X484020D01*
X484270Y258010D01*
X484520D01*
X484580Y258120D01*
G02X484530Y254790I3521J-1718D01*
G37*
G36*
G01X38390Y258310D02*
Y261300D01*
X38590Y261500D01*
Y271030D01*
X38420Y271050D01*
G02X37590Y272050I187J1000D01*
G01Y279950D01*
G02X38420Y280950I1017J0D01*
G01X38590Y280970D01*
Y282690D01*
X37150D01*
G02X36140Y283700I0J1010D01*
G01Y288700D01*
G02X37150Y289710I1010J0D01*
G01X45050D01*
G02X46060Y288700I0J-1010D01*
G01Y283700D01*
G02X45050Y282690I-1010J0D01*
G01X43610D01*
Y280970D01*
X43780Y280950D01*
G02X44610Y279950I-187J-1000D01*
G01Y272050D01*
G02X43780Y271050I-1017J0D01*
G01X43610Y271030D01*
Y259420D01*
X43410Y259220D01*
Y258310D01*
X43470Y258250D01*
G02X38390Y258310I-2573J-2752D01*
G37*
G36*
G01X484580Y244680D02*
X484520Y244790D01*
X484270D01*
X484020Y244540D01*
X455580D01*
G02Y247760I-1530J1610D01*
G01X482680D01*
X482930Y248010D01*
X484530D01*
G02X484580Y244680I3571J-1612D01*
G37*
G36*
G01X333440Y227560D02*
X331370Y225490D01*
X330700D01*
X330650Y225380D01*
G02X329750Y224840I-900J480D01*
G01X324750D01*
G02X323900Y225300I0J1015D01*
G01X323840Y225390D01*
X320830D01*
G02Y228610I-1530J1610D01*
G01X322380D01*
X322480Y228710D01*
X323800D01*
X323850Y228820D01*
G02X324750Y229360I900J-480D01*
G01X329750D01*
G02X330300Y229200I4J-1011D01*
G01X330430Y229110D01*
X332730Y231410D01*
X333980D01*
Y231700D01*
G02X334820Y232700I1015J0D01*
G01X334990Y232730D01*
Y233540D01*
X333800D01*
G02X332790Y234550I0J1010D01*
G01Y242450D01*
G02X333800Y243460I1010J0D01*
G01X338800D01*
G02X339810Y242450I0J-1010D01*
G01Y234550D01*
G02X338800Y233540I-1010J0D01*
G01X338210D01*
Y232720D01*
X343800D01*
G02X344820Y231700I0J-1020D01*
G01Y227900D01*
G02X343800Y226880I-1020J0D01*
G01X335000D01*
G02X334080Y227450I0J1027D01*
G03X333440Y227560I-359J-171D01*
G37*
G36*
G01X95880Y236600D02*
Y236890D01*
X94130D01*
X91140Y239880D01*
Y243240D01*
X90250D01*
G02X89240Y244250I0J1010D01*
G01Y246750D01*
G02X90250Y247760I1010J0D01*
G01X95250D01*
G02X96260Y246750I0J-1010D01*
G01Y244250D01*
G02X95250Y243240I-1010J0D01*
G01X94360D01*
Y241220D01*
X95470Y240110D01*
X95880D01*
Y240400D01*
G02X96900Y241420I1020J0D01*
G01X105700D01*
G02X106720Y240400I0J-1020D01*
G01Y236600D01*
G02X105700Y235580I-1020J0D01*
G01X100110D01*
Y235060D01*
X100900D01*
G02X101910Y234050I0J-1010D01*
G01Y226150D01*
G02X100900Y225140I-1010J0D01*
G01X100010D01*
Y224130D01*
G02X96790I-1610J-1530D01*
G01Y225140D01*
X95900D01*
G02X94890Y226150I0J1010D01*
G01Y234050D01*
G02X95900Y235060I1010J0D01*
G01X96890D01*
Y235570D01*
X96720Y235600D01*
G02X95880Y236600I175J1000D01*
G37*
G36*
G01X65940Y143180D02*
Y145730D01*
X63620D01*
G02X62600Y146740I-5J1015D01*
G01Y152260D01*
G02X63620Y153270I1015J-5D01*
G01X71480D01*
G02X72500Y152260I5J-1015D01*
G01Y146740D01*
G02X71480Y145730I-1015J5D01*
G01X69160D01*
Y143180D01*
G02X65940I-1610J-1530D01*
G37*
G36*
G01X92740Y135730D02*
X84860D01*
G02X83850Y136740I5J1015D01*
G01Y142260D01*
G02X84860Y143270I1015J-5D01*
G01X92740D01*
G02X93750Y142260I-5J-1015D01*
G01Y141110D01*
X95670D01*
G02Y137890I1530J-1610D01*
G01X93750D01*
Y136740D01*
G02X92740Y135730I-1015J5D01*
G37*
G36*
G01X442440Y67440D02*
X442490Y67500D01*
Y69010D01*
X444000D01*
X444060Y69060D01*
G02X460940I8440J-10060D01*
G01X461000Y69010D01*
X462510D01*
Y67500D01*
X462560Y67440D01*
G02Y50560I-10060J-8440D01*
G01X462510Y50500D01*
Y48990D01*
X461000D01*
X460940Y48940D01*
G02X444060I-8440J10060D01*
G01X444000Y48990D01*
X442490D01*
Y50500D01*
X442440Y50560D01*
G02Y67440I10060J8440D01*
G37*
G36*
G01X50560Y48940D02*
X50500Y48990D01*
X48990D01*
Y50500D01*
X48940Y50560D01*
G02Y67440I10060J8440D01*
G01X48990Y67500D01*
Y69010D01*
X50500D01*
X50560Y69060D01*
G02X67440I8440J-10060D01*
G01X67500Y69010D01*
X69010D01*
Y67500D01*
X69060Y67440D01*
G02Y50560I-10060J-8440D01*
G01X69010Y50500D01*
Y48990D01*
X67500D01*
X67440Y48940D01*
G02X50560I-8440J10060D01*
G37*
G36*
G01X184900Y261390D02*
X181100D01*
G02X180090Y262400I0J1010D01*
G01Y265600D01*
G02X180570Y266460I1010J0D01*
G03Y267140I-211J340D01*
G02X180090Y268000I530J860D01*
G01Y271200D01*
G02X181100Y272210I1010J0D01*
G01X181390D01*
Y274590D01*
X181100D01*
G02X180090Y275600I0J1010D01*
G01Y278800D01*
G02X180570Y279660I1010J0D01*
G03Y280340I-211J340D01*
G02X180120Y280970I533J857D01*
G01X180080Y281130D01*
X177960D01*
Y280700D01*
G02X176950Y279690I-1010J0D01*
G01X171650D01*
G02X170640Y280700I0J1010D01*
G01Y281130D01*
X169380D01*
X169220Y281290D01*
X169130D01*
X165230Y285190D01*
X160020D01*
Y284900D01*
G02X159000Y283880I-1020J0D01*
G01X153410D01*
Y276230D01*
X150370Y273190D01*
X148460D01*
X148400Y273100D01*
G02X147550Y272640I-850J555D01*
G01X142550D01*
G02X141540Y273650I0J1010D01*
G01Y276150D01*
G02X142550Y277160I1010J0D01*
G01X147550D01*
G02X148480Y276530I0J-1001D01*
G01X148540Y276410D01*
X149030D01*
X150190Y277570D01*
Y283870D01*
X150020Y283900D01*
G02X149180Y284900I175J1000D01*
G01Y288700D01*
G02X149930Y289680I1015J0D01*
G01X149980Y289700D01*
X150080Y289800D01*
X150070Y289960D01*
X150050Y289980D01*
Y291240D01*
X149620D01*
G02X148610Y292250I0J1010D01*
G01Y293290D01*
X147220D01*
Y293000D01*
G02X146200Y291980I-1020J0D01*
G01X137400D01*
G02X136380Y293000I0J1020D01*
G01Y296800D01*
G02X137400Y297820I1020J0D01*
G01X146200D01*
G02X147220Y296800I0J-1020D01*
G01Y296510D01*
X148610D01*
Y297550D01*
G02X149620Y298560I1010J0D01*
G01X149890D01*
Y300570D01*
G02X153110I1610J1530D01*
G01Y298560D01*
X153700D01*
G02X154710Y297550I0J-1010D01*
G01Y292250D01*
G02X153700Y291240I-1010J0D01*
G01X153410D01*
Y289720D01*
X155790D01*
Y292770D01*
X159530Y296510D01*
X161490D01*
Y297550D01*
G02X162500Y298560I1010J0D01*
G01X166580D01*
G02X167590Y297550I0J-1010D01*
G01Y292250D01*
G02X166580Y291240I-1010J0D01*
G01X162500D01*
G02X161490Y292250I0J1010D01*
G01Y293290D01*
X160870D01*
X159010Y291430D01*
Y289730D01*
X159180Y289700D01*
G02X160020Y288700I-175J-1000D01*
G01Y288410D01*
X166570D01*
X170030Y284950D01*
G03X170690Y285100I283J280D01*
G02X171650Y285790I960J-323D01*
G01X176950D01*
G02X177960Y284780I0J-1010D01*
G01Y284350D01*
X178770D01*
X178830Y284410D01*
X180080D01*
X180100Y284580D01*
G02X181100Y285410I1000J-187D01*
G01X184900D01*
G02X185910Y284400I0J-1010D01*
G01Y281200D01*
G02X185430Y280340I-1010J0D01*
G03Y279660I211J-340D01*
G02X185910Y278800I-530J-860D01*
G01Y275600D01*
G02X184900Y274590I-1010J0D01*
G01X184610D01*
Y272210D01*
X184900D01*
G02X185900Y271380I0J-1017D01*
G01X185920Y271210D01*
X195300D01*
X195350Y271320D01*
G02X196250Y271860I900J-480D01*
G01X201250D01*
G02X202260Y270850I0J-1010D01*
G01Y268350D01*
G02X201250Y267340I-1010J0D01*
G01X196250D01*
G02X195350Y267880I0J1020D01*
G01X195300Y267990D01*
X185920D01*
X185900Y267820D01*
G02X185430Y267140I-995J185D01*
G03Y266460I211J-340D01*
G02X185910Y265600I-530J-860D01*
G01Y262400D01*
G02X184900Y261390I-1010J0D01*
G37*
G36*
G01X201100Y243440D02*
X196100D01*
G02X195090Y244450I0J1010D01*
G01Y252350D01*
G02X196100Y253360I1010J0D01*
G01X196990D01*
Y254170D01*
X196820Y254200D01*
G02X195980Y255200I175J1000D01*
G01Y259000D01*
G02X196820Y260000I1015J0D01*
G01X196990Y260030D01*
Y261270D01*
X197140Y261420D01*
Y262340D01*
X196250D01*
G02X195240Y263350I0J1010D01*
G01Y265850D01*
G02X196250Y266860I1010J0D01*
G01X201250D01*
G02X202150Y266320I0J-1020D01*
G01X202200Y266210D01*
X206070D01*
G02Y262990I1530J-1610D01*
G01X202200D01*
X202150Y262880D01*
G02X201250Y262340I-900J480D01*
G01X200360D01*
Y260020D01*
X205800D01*
G02X206820Y259000I0J-1020D01*
G01Y258550D01*
G03X207550Y258330I399J3D01*
G02Y255870I1850J-1230D01*
G03X206820Y255650I-331J-223D01*
G01Y255200D01*
G02X205800Y254180I-1020J0D01*
G01X200210D01*
Y253360D01*
X201100D01*
G02X202110Y252350I0J-1010D01*
G01Y244450D01*
G02X201100Y243440I-1010J0D01*
G37*
G36*
G01X147700Y243140D02*
X142700D01*
G02X141690Y244150I0J1010D01*
G01Y252050D01*
G02X142700Y253060I1010J0D01*
G01X143590D01*
Y253870D01*
X143420Y253900D01*
G02X142580Y254900I175J1000D01*
G01Y258700D01*
G02X143300Y259670I1013J0D01*
G01X143440Y259720D01*
Y262640D01*
X142550D01*
G02X141540Y263650I0J1010D01*
G01Y266150D01*
G02X142550Y267160I1010J0D01*
G01X147550D01*
G02X148450Y266620I0J-1020D01*
G01X148500Y266510D01*
X152670D01*
G02Y263290I1530J-1610D01*
G01X148500D01*
X148450Y263180D01*
G02X147550Y262640I-900J480D01*
G01X146660D01*
Y261120D01*
X146810Y260970D01*
Y259720D01*
X152400D01*
G02X153420Y258700I0J-1020D01*
G01Y258250D01*
G03X154150Y258030I399J3D01*
G02Y255570I1850J-1230D01*
G03X153420Y255350I-331J-223D01*
G01Y254900D01*
G02X152400Y253880I-1020J0D01*
G01X146810D01*
Y253060D01*
X147700D01*
G02X148710Y252050I0J-1010D01*
G01Y244150D01*
G02X147700Y243140I-1010J0D01*
G37*
G36*
G01X259340Y240870D02*
X259390Y240930D01*
Y241340D01*
X258500D01*
G02X257490Y242350I0J1010D01*
G01Y250250D01*
G02X258500Y251260I1010J0D01*
G01X259390D01*
Y251780D01*
X253800D01*
G02X252780Y252800I0J1020D01*
G01Y253250D01*
G03X252050Y253470I-399J-3D01*
G02Y255930I-1850J1230D01*
G03X252780Y256150I331J223D01*
G01Y256600D01*
G02X253800Y257620I1020J0D01*
G01X259390D01*
Y259350D01*
X257740D01*
G02X256720Y260280I0J1024D01*
G01X256710Y260460D01*
X246960D01*
X242590Y264830D01*
Y268390D01*
X242300D01*
G02X241290Y269400I0J1010D01*
G01Y272600D01*
G02X241770Y273460I1010J0D01*
G03Y274140I-211J340D01*
G02X241300Y274820I525J865D01*
G01X241280Y274990D01*
X240030D01*
X239930Y275090D01*
X239320D01*
X239300Y274920D01*
G02X238300Y274090I-1000J187D01*
G01X234500D01*
G02X233490Y275100I0J1010D01*
G01Y278300D01*
G02X233970Y279160I1010J0D01*
G03Y279840I-211J340D01*
G02X233500Y280520I525J865D01*
G01X233480Y280690D01*
X231960D01*
Y280400D01*
G02X230950Y279390I-1010J0D01*
G01X225650D01*
G02X224640Y280400I0J1010D01*
G01Y280690D01*
X223130D01*
X218930Y284890D01*
X214020D01*
Y284600D01*
G02X213000Y283580I-1020J0D01*
G01X207410D01*
Y276230D01*
X204370Y273190D01*
X203720D01*
X203520Y272990D01*
X202200D01*
X202150Y272880D01*
G02X201250Y272340I-900J480D01*
G01X196250D01*
G02X195240Y273350I0J1010D01*
G01Y275850D01*
G02X196250Y276860I1010J0D01*
G01X201250D01*
G02X202080Y276430I0J-1016D01*
G03X202380Y276410I159J120D01*
G01X203030D01*
X204190Y277570D01*
Y283570D01*
X204020Y283600D01*
G02X203180Y284600I175J1000D01*
G01Y288400D01*
G02X204020Y289400I1015J0D01*
G01X204190Y289430D01*
Y291240D01*
X203920D01*
G02X202910Y292250I0J1010D01*
G01Y293290D01*
X201820D01*
Y293000D01*
G02X200800Y291980I-1020J0D01*
G01X192000D01*
G02X190980Y293000I0J1020D01*
G01Y296800D01*
G02X192000Y297820I1020J0D01*
G01X197590D01*
Y305370D01*
G02X200810I1610J1530D01*
G01Y297830D01*
X200980Y297800D01*
G02X201820Y296800I-175J-1000D01*
G01Y296510D01*
X202910D01*
Y297550D01*
G02X203920Y298560I1010J0D01*
G01X208000D01*
G02X209010Y297550I0J-1010D01*
G01Y292250D01*
G02X208000Y291240I-1010J0D01*
G01X207570D01*
Y289980D01*
X207410Y289820D01*
Y289420D01*
X209790D01*
Y293070D01*
X213230Y296510D01*
X215790D01*
Y297550D01*
G02X216800Y298560I1010J0D01*
G01X220880D01*
G02X221890Y297550I0J-1010D01*
G01Y292250D01*
G02X220880Y291240I-1010J0D01*
G01X216800D01*
G02X215790Y292250I0J1010D01*
G01Y293290D01*
X214570D01*
X213010Y291730D01*
Y289430D01*
X213180Y289400D01*
G02X214020Y288400I-175J-1000D01*
G01Y288110D01*
X220270D01*
X224300Y284080D01*
G03X224640Y284220I141J141D01*
G01Y284480D01*
G02X225650Y285490I1010J0D01*
G01X230950D01*
G02X231960Y284480I0J-1010D01*
G01Y284050D01*
X233490D01*
X233530Y284190D01*
G02X234500Y284910I970J-293D01*
G01X238300D01*
G02X239310Y283900I0J-1010D01*
G01Y280700D01*
G02X238830Y279840I-1010J0D01*
G03Y279160I211J-340D01*
G02X239300Y278480I-525J-865D01*
G01X239320Y278310D01*
X241280D01*
X241320Y278460D01*
G02X242300Y279210I980J-265D01*
G01X242590D01*
Y281490D01*
X242300D01*
G02X241290Y282500I0J1010D01*
G01Y285700D01*
G02X241770Y286560I1010J0D01*
G03Y287240I-211J340D01*
G02X241290Y288100I530J860D01*
G01Y291300D01*
G02X242300Y292310I1010J0D01*
G01X246100D01*
G02X247100Y291480I0J-1017D01*
G01X247120Y291310D01*
X249130D01*
X254030Y296210D01*
X255040D01*
X255170Y296340D01*
X256410D01*
X256420Y296520D01*
G02X257440Y297450I1020J-94D01*
G01X258850D01*
G03X259130Y298130I-5J400D01*
G02X262270I1570J1570D01*
G03X262550Y297450I285J-280D01*
G01X263960D01*
G02X264980Y296520I0J-1024D01*
G01X264990Y296340D01*
X266640D01*
X267670Y295310D01*
X268880D01*
X268920Y295460D01*
G02X269900Y296210I980J-265D01*
G01X273700D01*
G02X274700Y295380I0J-1017D01*
G01X274720Y295210D01*
X275530D01*
X278030Y297710D01*
X279980D01*
Y298000D01*
G02X281000Y299020I1020J0D01*
G01X289800D01*
G02X290820Y298000I0J-1020D01*
G01Y297710D01*
X482630D01*
X482930Y298010D01*
X484530D01*
G02X484580Y294680I3571J-1612D01*
G01X484520Y294790D01*
X484270D01*
X483970Y294490D01*
X368710D01*
G03X368440Y293790I-2J-401D01*
G02X365460I-1490J-1640D01*
G03X365190Y294490I-268J299D01*
G01X290820D01*
Y294200D01*
G02X289800Y293180I-1020J0D01*
G01X281000D01*
G02X279980Y294200I0J1020D01*
G01Y294490D01*
X279370D01*
X276870Y291990D01*
X274720D01*
X274700Y291820D01*
G02X274230Y291140I-995J185D01*
G03Y290460I211J-340D01*
G02X274700Y289780I-525J-865D01*
G01X274720Y289610D01*
X276670D01*
X278470Y287810D01*
X279980D01*
Y288100D01*
G02X281000Y289120I1020J0D01*
G01X289800D01*
G02X290820Y288100I0J-1020D01*
G01Y287810D01*
X482730D01*
X482930Y288010D01*
X484530D01*
G02X484580Y284680I3571J-1612D01*
G01X484520Y284790D01*
X484270D01*
X484070Y284590D01*
X290820D01*
Y284300D01*
G02X289800Y283280I-1020J0D01*
G01X281000D01*
G02X279980Y284300I0J1020D01*
G01Y284590D01*
X277130D01*
X275330Y286390D01*
X274720D01*
X274700Y286220D01*
G02X273700Y285390I-1000J187D01*
G01X269900D01*
G02X268900Y286220I0J1017D01*
G01X268880Y286390D01*
X268570D01*
X266640Y284460D01*
X264990D01*
X264980Y284280D01*
G02X264860Y283890I-1016J99D01*
G03X265160Y283300I352J-192D01*
G02X263370Y279490I-260J-2204D01*
G01X262130D01*
X259090Y282530D01*
Y283350D01*
X257440D01*
G02X256420Y284280I0J1024D01*
G01X256410Y284460D01*
X255500D01*
G02Y287680I-1530J1610D01*
G01X256410D01*
X256420Y287860D01*
G02X257440Y288790I1020J-94D01*
G01X263960D01*
G02X264980Y287860I0J-1024D01*
G01X264990Y287680D01*
X265300D01*
X267230Y289610D01*
X268880D01*
X268900Y289780D01*
G02X269370Y290460I995J-185D01*
G03Y291140I-211J340D01*
G02X268900Y291820I525J865D01*
G01X268880Y291990D01*
X267630D01*
X267530Y292090D01*
X266330D01*
X265300Y293120D01*
X264990D01*
X264980Y292940D01*
G02X263960Y292010I-1020J94D01*
G01X257440D01*
G02X256440Y292830I0J1020D01*
G01X256410Y292990D01*
X255370D01*
X250470Y288090D01*
X247120D01*
X247100Y287920D01*
G02X246630Y287240I-995J185D01*
G03Y286560I211J-340D01*
G02X247110Y285700I-530J-860D01*
G01Y282500D01*
G02X246100Y281490I-1010J0D01*
G01X245810D01*
Y279210D01*
X246100D01*
G02X247110Y278200I0J-1010D01*
G01Y275000D01*
G02X246630Y274140I-1010J0D01*
G03Y273460I211J-340D01*
G02X247110Y272600I-530J-860D01*
G01Y269400D01*
G02X246100Y268390I-1010J0D01*
G01X245810D01*
Y266170D01*
X248300Y263680D01*
X256710D01*
X256720Y263860D01*
G02X257740Y264790I1020J-94D01*
G01X264260D01*
G02X265280Y263860I0J-1024D01*
G01X265290Y263680D01*
X265900D01*
X267530Y265310D01*
X269180D01*
X269200Y265480D01*
G02X269670Y266160I995J-185D01*
G03Y266840I-211J340D01*
G02X269200Y267520I525J865D01*
G01X269180Y267690D01*
X267930D01*
X267830Y267790D01*
X267230D01*
X265900Y269120D01*
X265290D01*
X265280Y268940D01*
G02X264260Y268010I-1020J94D01*
G01X257740D01*
G02X256740Y268830I0J1020D01*
G01X256710Y268990D01*
X255330D01*
G02Y272210I-1530J1610D01*
G01X256720D01*
Y272430D01*
G02X257740Y273450I1020J0D01*
G01X264260D01*
G02X265280Y272520I0J-1024D01*
G01X265290Y272340D01*
X267240D01*
X268570Y271010D01*
X269180D01*
X269220Y271160D01*
G02X270200Y271910I980J-265D01*
G01X274000D01*
G02X274910Y271340I0J-1011D01*
G03X275550Y271230I359J174D01*
G01X278330Y274010D01*
X279980D01*
Y274300D01*
G02X281000Y275320I1020J0D01*
G01X289800D01*
G02X290820Y274300I0J-1020D01*
G01Y274010D01*
X404630D01*
X408530Y277910D01*
X482830D01*
X482930Y278010D01*
X484530D01*
G02X484580Y274680I3571J-1612D01*
G01X484520Y274790D01*
X484270D01*
X484170Y274690D01*
X409870D01*
X405970Y270790D01*
X290820D01*
Y270500D01*
G02X289800Y269480I-1020J0D01*
G01X281000D01*
G02X279980Y270500I0J1020D01*
G01Y270790D01*
X279670D01*
X276570Y267690D01*
X275020D01*
X275000Y267520D01*
G02X274530Y266840I-995J185D01*
G03Y266160I211J-340D01*
G02X275000Y265480I-525J-865D01*
G01X275020Y265310D01*
X280280D01*
Y265600D01*
G02X281300Y266620I1020J0D01*
G01X290100D01*
G02X291120Y265600I0J-1020D01*
G01Y265310D01*
X392930D01*
X395630Y268010D01*
X484530D01*
G02Y264790I3570J-1610D01*
G01X396970D01*
X394270Y262090D01*
X291120D01*
Y261800D01*
G02X290100Y260780I-1020J0D01*
G01X281300D01*
G02X280280Y261800I0J1020D01*
G01Y262090D01*
X275020D01*
X275000Y261920D01*
G02X274000Y261090I-1000J187D01*
G01X270200D01*
G02X269200Y261920I0J1017D01*
G01X269180Y262090D01*
X268870D01*
X267240Y260460D01*
X265290D01*
X265280Y260280D01*
G02X264260Y259350I-1020J94D01*
G01X262610D01*
Y257630D01*
X262780Y257600D01*
G02X263620Y256600I-175J-1000D01*
G01Y252800D01*
G02X262780Y251800I-1015J0D01*
G01X262610Y251770D01*
Y251260D01*
X263500D01*
G02X264510Y250250I0J-1010D01*
G01Y242350D01*
G02X263500Y241340I-1010J0D01*
G01X262610D01*
Y240930D01*
X262660Y240870D01*
G02X259340I-1660J-1470D01*
G37*
G36*
G01X82840Y239200D02*
G02X79760I-1540J-1600D01*
G03X79490Y239890I-275J290D01*
G01X79400D01*
G02X78390Y240900I0J1010D01*
G01Y244100D01*
G02X78870Y244960I1010J0D01*
G03Y245640I-211J340D01*
G02X78390Y246500I530J860D01*
G01Y249700D01*
G02X79400Y250710I1010J0D01*
G01X83200D01*
G02X84200Y249880I0J-1017D01*
G01X84220Y249710D01*
X84530D01*
X86930Y252110D01*
X89300D01*
X89350Y252220D01*
G02X90250Y252760I900J-480D01*
G01X95250D01*
G02X96260Y251750I0J-1010D01*
G01Y249250D01*
G02X95250Y248240I-1010J0D01*
G01X90250D01*
G02X89350Y248780I0J1020D01*
G01X89300Y248890D01*
X88270D01*
X85870Y246490D01*
X84220D01*
X84200Y246320D01*
G02X83730Y245640I-995J185D01*
G03Y244960I211J-340D01*
G02X84210Y244100I-530J-860D01*
G01Y240900D01*
G02X83200Y239890I-1010J0D01*
G01X83110D01*
G03X82840Y239200I5J-400D01*
G37*
G36*
G01X107690Y225140D02*
X106700D01*
G02X105690Y226150I0J1010D01*
G01Y234050D01*
G02X106700Y235060I1010J0D01*
G01X111700D01*
G02X112710Y234050I0J-1010D01*
G01Y226150D01*
G02X111700Y225140I-1010J0D01*
G01X110710D01*
G03X110480Y224410I-1J-401D01*
G02X107920I-1280J-1810D01*
G03X107690Y225140I-229J329D01*
G37*
G36*
G01X300700Y211890D02*
X296900D01*
G02X295890Y212900I0J1010D01*
G01Y216100D01*
G02X296370Y216960I1010J0D01*
G03Y217640I-211J340D01*
G02X295890Y218500I530J860D01*
G01Y221700D01*
G02X296900Y222710I1010J0D01*
G01X300700D01*
G02X301320Y222500I0J-1020D01*
G03X301850Y222530I248J312D01*
G01X302930Y223610D01*
X304260D01*
X304320Y223730D01*
G02X305250Y224360I930J-371D01*
G01X310250D01*
G02X311260Y223350I0J-1010D01*
G01Y220850D01*
G02X310250Y219840I-1010J0D01*
G01X305250D01*
G02X304550Y220120I0J1015D01*
G03X303990Y220110I-275J-289D01*
G01X302370Y218490D01*
X301720D01*
X301700Y218320D01*
G02X301230Y217640I-995J185D01*
G03Y216960I211J-340D01*
G02X301710Y216100I-530J-860D01*
G01Y212900D01*
G02X300700Y211890I-1010J0D01*
G37*
G36*
G01X309700Y201190D02*
X305900D01*
G02X304890Y202200I0J1010D01*
G01Y205400D01*
G02X305370Y206260I1010J0D01*
G03Y206940I-211J340D01*
G02X304890Y207800I530J860D01*
G01Y211000D01*
G02X305900Y212010I1010J0D01*
G01X306190D01*
Y213530D01*
X306140Y213580D01*
Y214840D01*
X305250D01*
G02X304240Y215850I0J1010D01*
G01Y218350D01*
G02X305250Y219360I1010J0D01*
G01X310250D01*
G02X311150Y218820I0J-1020D01*
G01X311200Y218710D01*
X316170D01*
G02Y215490I1530J-1610D01*
G01X311200D01*
X311150Y215380D01*
G02X310250Y214840I-900J480D01*
G01X309410D01*
Y212010D01*
X309700D01*
G02X310710Y211040I0J-1011D01*
G01Y210960D01*
X310810Y210870D01*
G03X311490Y211150I281J284D01*
G01Y212450D01*
G02X312500Y213460I1010J0D01*
G01X317500D01*
G02X318510Y212450I0J-1010D01*
G01Y204550D01*
G02X317500Y203540I-1010J0D01*
G01X312500D01*
G02X311490Y204550I0J1010D01*
G01Y206890D01*
X310140D01*
X310100Y206870D01*
G02X309830Y206800I-386J934D01*
G03Y206400I28J-200D01*
G02X310710Y205400I-128J-1000D01*
G01Y202200D01*
G02X309700Y201190I-1010J0D01*
G37*
G36*
G01X289690Y193280D02*
Y198070D01*
X289520Y198100D01*
G02X288680Y199100I175J1000D01*
G01Y202900D01*
G02X289300Y203840I1023J0D01*
G01X289330Y203850D01*
X289500Y204020D01*
X289290Y204230D01*
Y206180D01*
X286910D01*
Y203630D01*
X282970Y199690D01*
X192220D01*
Y199400D01*
G02X191200Y198380I-1020J0D01*
G01X182400D01*
G02X181380Y199400I0J1020D01*
G01Y199690D01*
X179320D01*
Y199400D01*
G02X178480Y198400I-1015J0D01*
G01X178310Y198370D01*
Y195170D01*
X178510Y194970D01*
Y193380D01*
G02X175180Y193330I-1610J-3681D01*
G01X175290Y193390D01*
Y193630D01*
X175090Y193830D01*
Y198380D01*
X169500D01*
G02X168480Y199400I0J1020D01*
G01Y203200D01*
G02X169500Y204220I1020J0D01*
G01X178300D01*
G02X179320Y203200I0J-1020D01*
G01Y202910D01*
X181380D01*
Y203200D01*
G02X182400Y204220I1020J0D01*
G01X191200D01*
G02X192220Y203200I0J-1020D01*
G01Y202910D01*
X281630D01*
X283690Y204970D01*
Y206170D01*
X283520Y206200D01*
G02X282680Y207200I175J1000D01*
G01Y211000D01*
G02X283520Y212000I1015J0D01*
G01X283690Y212030D01*
Y224470D01*
X283520Y224500D01*
G02X282680Y225500I175J1000D01*
G01Y229300D01*
G02X283700Y230320I1020J0D01*
G01X292500D01*
G02X293520Y229300I0J-1020D01*
G01Y229010D01*
X295600D01*
X295650Y229140D01*
G02X296070Y229660I951J-339D01*
G03Y230340I-211J340D01*
G02X295590Y231200I530J860D01*
G01Y234400D01*
G02X296600Y235410I1010J0D01*
G01X300400D01*
G02X301410Y234400I0J-1010D01*
G01Y231200D01*
G02X300930Y230340I-1010J0D01*
G03Y229660I211J-340D01*
G02X301400Y228980I-525J-865D01*
G01X301420Y228810D01*
X304340D01*
X304400Y228900D01*
G02X305250Y229360I850J-555D01*
G01X310250D01*
G02X311260Y228350I0J-1010D01*
G01Y225850D01*
G02X310250Y224840I-1010J0D01*
G01X305250D01*
G02X304350Y225380I0J1020D01*
G01X304300Y225490D01*
X302980D01*
X302880Y225590D01*
X301420D01*
X301400Y225420D01*
G02X300400Y224590I-1000J187D01*
G01X296600D01*
G02X295600Y225420I0J1017D01*
G01X295580Y225590D01*
X294330D01*
X294130Y225790D01*
X293520D01*
Y225500D01*
G02X292500Y224480I-1020J0D01*
G01X286910D01*
Y212020D01*
X292500D01*
G02X293520Y211000I0J-1020D01*
G01Y207200D01*
G02X292680Y206200I-1015J0D01*
G01X292510Y206170D01*
Y205570D01*
X292910Y205170D01*
Y203920D01*
X298500D01*
G02X299520Y202900I0J-1020D01*
G01Y199100D01*
G02X298500Y198080I-1020J0D01*
G01X292910D01*
Y193280D01*
G02X289690I-1610J-3680D01*
G37*
G36*
G01X138800Y137990D02*
X135000D01*
G02X133990Y139000I0J1010D01*
G01Y142200D01*
G02X134470Y143060I1010J0D01*
G03Y143740I-211J340D01*
G02X133990Y144600I530J860D01*
G01Y147800D01*
G02X135000Y148810I1010J0D01*
G01X135290D01*
Y156020D01*
G02X138510I1610J3680D01*
G01Y148810D01*
X138800D01*
G02X139810Y147800I0J-1010D01*
G01Y144600D01*
G02X139330Y143740I-1010J0D01*
G03Y143060I211J-340D01*
G02X139810Y142200I-530J-860D01*
G01Y139000D01*
G02X138800Y137990I-1010J0D01*
G37*
G36*
G01X118800Y130590D02*
X115000D01*
G02X113990Y131600I0J1010D01*
G01Y134800D01*
G02X114470Y135660I1010J0D01*
G03Y136340I-211J340D01*
G02X113990Y137200I530J860D01*
G01Y140400D01*
G02X115000Y141410I1010J0D01*
G01X115290D01*
Y143270D01*
X115120Y143300D01*
G02X114280Y144300I175J1000D01*
G01Y148100D01*
G02X115120Y149100I1015J0D01*
G01X115290Y149130D01*
Y155690D01*
X113900D01*
G02X112890Y156700I0J1010D01*
G01Y157990D01*
X107220D01*
Y157700D01*
G02X106200Y156680I-1020J0D01*
G01X97400D01*
G02X96380Y157690I0J1020D01*
G01Y157890D01*
X93750D01*
Y156740D01*
G02X92740Y155730I-1015J5D01*
G01X84860D01*
G02X83850Y156740I5J1015D01*
G01Y162260D01*
G02X84860Y163270I1015J-5D01*
G01X92740D01*
G02X93750Y162260I-5J-1015D01*
G01Y161110D01*
X95030D01*
X95130Y161210D01*
X96380D01*
Y161500D01*
G02X97400Y162520I1020J0D01*
G01X106200D01*
G02X107220Y161500I0J-1020D01*
G01Y161210D01*
X111530D01*
X111630Y161310D01*
X112890D01*
Y162700D01*
G02X113900Y163710I1010J0D01*
G01X119900D01*
G02X120910Y162700I0J-1010D01*
G01Y156700D01*
G02X119900Y155690I-1010J0D01*
G01X118510D01*
Y149120D01*
X120790D01*
Y150370D01*
X125290Y154870D01*
Y156020D01*
G02X128510I1610J3680D01*
G01Y153530D01*
X124570Y149590D01*
G03X124640Y148970I280J-282D01*
G02X125120Y148100I-548J-870D01*
G01Y144300D01*
G02X125070Y143970I-1022J-14D01*
G01X125030Y143850D01*
X126110Y142770D01*
Y141510D01*
X126400D01*
G02X127410Y140500I0J-1010D01*
G01Y137300D01*
G02X126930Y136440I-1010J0D01*
G03Y135760I211J-340D01*
G02X127410Y134900I-530J-860D01*
G01Y131700D01*
G02X126400Y130690I-1010J0D01*
G01X122600D01*
G02X121590Y131700I0J1010D01*
G01Y134900D01*
G02X122070Y135760I1010J0D01*
G03Y136440I-211J340D01*
G02X121590Y137300I530J860D01*
G01Y140500D01*
G02X122160Y141410I1011J0D01*
G03X122270Y142050I-174J359D01*
G01X121040Y143280D01*
X118510D01*
Y141410D01*
X118800D01*
G02X119810Y140400I0J-1010D01*
G01Y137200D01*
G02X119330Y136340I-1010J0D01*
G03Y135660I211J-340D01*
G02X119810Y134800I-530J-860D01*
G01Y131600D01*
G02X118800Y130590I-1010J0D01*
G37*
G36*
G01X158800Y124990D02*
X155000D01*
G02X153990Y126000I0J1010D01*
G01Y129200D01*
G02X154470Y130060I1010J0D01*
G03Y130740I-211J340D01*
G02X153990Y131600I530J860D01*
G01Y134800D01*
G02X155000Y135810I1010J0D01*
G01X155290D01*
Y137990D01*
X155000D01*
G02X154000Y138820I0J1017D01*
G01X153980Y138990D01*
X153330D01*
X150490Y141830D01*
G03X149810Y141550I-281J-284D01*
G01Y139000D01*
G02X148800Y137990I-1010J0D01*
G01X145000D01*
G02X143990Y139000I0J1010D01*
G01Y142200D01*
G02X144470Y143060I1010J0D01*
G03Y143740I-211J340D01*
G02X143990Y144600I530J860D01*
G01Y147800D01*
G02X145000Y148810I1010J0D01*
G01X145290D01*
Y156020D01*
G02X149530Y162740I1608J3683D01*
G03X150190Y163040I260J304D01*
G01Y186360D01*
G03X149530Y186660I-400J-4D01*
G02Y192740I-2630J3040D01*
G03X150190Y193040I260J304D01*
G01Y219230D01*
X136990Y232430D01*
Y247730D01*
X136340Y248380D01*
G03X135730Y248320I-280J-283D01*
G02X134900Y247890I-830J586D01*
G01X131100D01*
G02X130100Y248720I0J1017D01*
G01X130080Y248890D01*
X127920D01*
X127900Y248720D01*
G02X127430Y248040I-995J185D01*
G03Y247360I211J-340D01*
G02X127910Y246500I-530J-860D01*
G01Y243300D01*
G02X126900Y242290I-1010J0D01*
G01X126610D01*
Y227830D01*
X118910Y220130D01*
Y215320D01*
X124300D01*
G02X125320Y214300I0J-1020D01*
G01Y210500D01*
G02X124480Y209500I-1015J0D01*
G01X124310Y209470D01*
Y205340D01*
G03X124900Y204990I400J1D01*
G02X125400Y205120I500J-897D01*
G01X134200D01*
G02X135220Y204100I0J-1020D01*
G01Y200300D01*
G02X134200Y199280I-1020J0D01*
G01X128610D01*
Y193730D01*
X128510Y193630D01*
Y193390D01*
X128620Y193330D01*
G02X125290Y193380I-1720J-3631D01*
G01Y194970D01*
X125390Y195070D01*
Y199270D01*
X125220Y199300D01*
G02X124380Y200300I175J1000D01*
G01Y200590D01*
X123130D01*
X121090Y202630D01*
Y209480D01*
X118710D01*
Y204830D01*
X118860Y204790D01*
G02X119620Y203800I-265J-990D01*
G01Y200000D01*
G02X118780Y199000I-1015J0D01*
G01X118610Y198970D01*
Y193730D01*
X118510Y193630D01*
Y193390D01*
X118620Y193330D01*
G02X115290Y193380I-1720J-3631D01*
G01Y194970D01*
X115390Y195070D01*
Y198980D01*
X109800D01*
G02X108780Y200000I0J1020D01*
G01Y203800D01*
G02X109800Y204820I1020J0D01*
G01X115390D01*
Y206070D01*
X115490Y206170D01*
Y209470D01*
X115320Y209500D01*
G02X114480Y210500I175J1000D01*
G01Y214300D01*
G02X115320Y215300I1015J0D01*
G01X115490Y215330D01*
Y216570D01*
X115690Y216770D01*
Y221470D01*
X123390Y229170D01*
Y242290D01*
X123100D01*
G02X122090Y243300I0J1010D01*
G01Y246500D01*
G02X122570Y247360I1010J0D01*
G03Y248040I-211J340D01*
G02X122100Y248720I525J865D01*
G01X122080Y248890D01*
X115700D01*
X115650Y248780D01*
G02X114750Y248240I-900J480D01*
G01X109750D01*
G02X108850Y248780I0J1020D01*
G01X108800Y248890D01*
X107330D01*
X103990Y252230D01*
Y264580D01*
X101610D01*
Y257130D01*
X98470Y253990D01*
X97120D01*
X97020Y253890D01*
X96200D01*
X96150Y253780D01*
G02X95250Y253240I-900J480D01*
G01X90250D01*
G02X89350Y253780I0J1020D01*
G01X89300Y253890D01*
X83720D01*
Y253600D01*
G02X82700Y252580I-1020J0D01*
G01X73900D01*
G02X72880Y253600I0J1020D01*
G01Y253890D01*
X70960D01*
Y253100D01*
G02X69950Y252090I-1010J0D01*
G01X62050D01*
G02X61070Y252840I0J1015D01*
G01X61030Y252990D01*
X53710D01*
G02Y258010I-2810J2510D01*
G01X58910D01*
X59010Y258110D01*
X61030D01*
X61050Y258280D01*
G02X62050Y259110I1000J-187D01*
G01X69950D01*
G02X70960Y258100I0J-1010D01*
G01Y257210D01*
X71720D01*
X71820Y257110D01*
X72880D01*
Y257400D01*
G02X73900Y258420I1020J0D01*
G01X82700D01*
G02X83720Y257400I0J-1020D01*
G01Y257110D01*
X89300D01*
X89350Y257220D01*
G02X90250Y257760I900J-480D01*
G01X95250D01*
G02X96100Y257300I0J-1015D01*
G01X96160Y257210D01*
X97130D01*
X98390Y258470D01*
Y264570D01*
X98220Y264600D01*
G02X97380Y265600I175J1000D01*
G01Y269400D01*
G02X98220Y270400I1015J0D01*
G01X98390Y270430D01*
Y272070D01*
X98220Y272100D01*
G02X97380Y273100I175J1000D01*
G01Y276900D01*
G02X98400Y277920I1020J0D01*
G01X107200D01*
G02X108220Y276900I0J-1020D01*
G01Y273100D01*
G02X107380Y272100I-1015J0D01*
G01X107210Y272070D01*
Y270430D01*
X107380Y270400D01*
G02X108220Y269400I-175J-1000D01*
G01Y265600D01*
G02X107380Y264600I-1015J0D01*
G01X107210Y264570D01*
Y253570D01*
X108390Y252380D01*
G03X108980Y252410I281J285D01*
G02X109750Y252760I770J-672D01*
G01X114750D01*
G02X115650Y252220I0J-1020D01*
G01X115700Y252110D01*
X122080D01*
X122100Y252280D01*
G02X123100Y253110I1000J-187D01*
G01X126900D01*
G02X127900Y252280I0J-1017D01*
G01X127920Y252110D01*
X130080D01*
X130100Y252280D01*
G02X130570Y252960I995J-185D01*
G03Y253640I-211J340D01*
G02X130090Y254500I530J860D01*
G01Y257700D01*
G02X131100Y258710I1010J0D01*
G01X131390D01*
Y267290D01*
X131100D01*
G02X130090Y268300I0J1010D01*
G01Y271500D01*
G02X130570Y272360I1010J0D01*
G03Y273040I-211J340D01*
G02X130090Y273900I530J860D01*
G01Y277100D01*
G02X131100Y278110I1010J0D01*
G01X134900D01*
G02X135910Y277100I0J-1010D01*
G01Y273900D01*
G02X135430Y273040I-1010J0D01*
G03Y272360I211J-340D01*
G02X135900Y271680I-525J-865D01*
G01X135920Y271510D01*
X141600D01*
X141650Y271620D01*
G02X142550Y272160I900J-480D01*
G01X147550D01*
G02X148560Y271150I0J-1010D01*
G01Y268650D01*
G02X147550Y267640I-1010J0D01*
G01X142550D01*
G02X141650Y268180I0J1020D01*
G01X141600Y268290D01*
X135920D01*
X135900Y268120D01*
G02X134900Y267290I-1000J187D01*
G01X134610D01*
Y258710D01*
X134900D01*
G02X135910Y257700I0J-1010D01*
G01Y254500D01*
G02X135430Y253640I-1010J0D01*
G03Y252960I211J-340D01*
G02X135900Y252280I-525J-865D01*
G01X135920Y252110D01*
X137170D01*
X140210Y249070D01*
Y233770D01*
X153410Y220570D01*
Y192860D01*
G03X154090Y192570I401J-2D01*
G02Y186830I2810J-2870D01*
G03X153410Y186540I-279J-288D01*
G01Y162860D01*
G03X154090Y162570I401J-2D01*
G02X158510Y156020I2815J-2867D01*
G01Y148810D01*
X158800D01*
G02X159810Y147800I0J-1010D01*
G01Y144600D01*
G02X159330Y143740I-1010J0D01*
G03Y143060I211J-340D01*
G02X159810Y142200I-530J-860D01*
G01Y139000D01*
G02X158800Y137990I-1010J0D01*
G01X158510D01*
Y135810D01*
X158800D01*
G02X159810Y134800I0J-1010D01*
G01Y131600D01*
G02X159330Y130740I-1010J0D01*
G03Y130060I211J-340D01*
G02X159810Y129200I-530J-860D01*
G01Y126000D01*
G02X158800Y124990I-1010J0D01*
G37*
G36*
G01X170790Y128630D02*
Y130490D01*
X170500D01*
G02X169490Y131500I0J1010D01*
G01Y134700D01*
G02X169970Y135560I1010J0D01*
G03Y136240I-211J340D01*
G02X169490Y137100I530J860D01*
G01Y140300D01*
G02X170500Y141310I1010J0D01*
G01X170790D01*
Y142570D01*
X170890Y142670D01*
Y143280D01*
X165300D01*
G02X164280Y144300I0J1020D01*
G01Y148100D01*
G02X165120Y149100I1015J0D01*
G01X165290Y149130D01*
Y156020D01*
G02X168510I1610J3680D01*
G01Y149120D01*
X170890D01*
Y150670D01*
X175090Y154870D01*
Y155570D01*
X175290Y155770D01*
Y156010D01*
X175180Y156070D01*
G02X178510Y156020I1720J3631D01*
G01Y154430D01*
X178310Y154230D01*
Y153530D01*
X174440Y149660D01*
G03X174550Y149020I281J-281D01*
G02X175120Y148100I-457J-920D01*
G01Y147810D01*
X179930D01*
X180130Y148010D01*
X181380D01*
Y148300D01*
G02X182400Y149320I1020J0D01*
G01X191200D01*
G02X192220Y148300I0J-1020D01*
G01Y148010D01*
X193130D01*
X195290Y150170D01*
Y156020D01*
G02X198510I1610J3680D01*
G01Y148830D01*
X194470Y144790D01*
X192220D01*
Y144500D01*
G02X191200Y143480I-1020J0D01*
G01X185610D01*
Y142970D01*
X185810Y142770D01*
Y141510D01*
X186100D01*
G02X187110Y140500I0J-1010D01*
G01Y137300D01*
G02X186630Y136440I-1010J0D01*
G03Y135760I211J-340D01*
G02X187110Y134900I-530J-860D01*
G01Y131700D01*
G02X186100Y130690I-1010J0D01*
G01X182300D01*
G02X181290Y131700I0J1010D01*
G01Y134900D01*
G02X181770Y135760I1010J0D01*
G03Y136440I-211J340D01*
G02X181290Y137300I530J860D01*
G01Y140500D01*
G02X182210Y141510I1014J0D01*
G03X182390Y141710I-19J198D01*
G01Y143470D01*
X182220Y143500D01*
G02X181380Y144410I176J1005D01*
G01X181370Y144590D01*
X175120D01*
Y144300D01*
G02X174280Y143300I-1015J0D01*
G01X174110Y143270D01*
Y141510D01*
G03X174310Y141310I200J0D01*
G02X175310Y140300I-10J-1010D01*
G01Y137100D01*
G02X174830Y136240I-1010J0D01*
G03Y135560I211J-340D01*
G02X175310Y134700I-530J-860D01*
G01Y131500D01*
G02X174300Y130490I-1010J0D01*
G01X174010D01*
Y128630D01*
G02X170790I-1610J-1530D01*
G37*
G36*
G01X289690Y128430D02*
Y130290D01*
X289400D01*
G02X288390Y131300I0J1010D01*
G01Y134500D01*
G02X288870Y135360I1010J0D01*
G03Y136040I-211J340D01*
G02X288390Y136900I530J860D01*
G01Y140100D01*
G02X289400Y141110I1010J0D01*
G01X289690D01*
Y141830D01*
X289590Y141930D01*
Y143180D01*
X284000D01*
G02X282980Y144200I0J1020D01*
G01Y148000D01*
G02X283340Y148780I1025J0D01*
G03X283360Y149360I-263J299D01*
G01X279690Y153030D01*
Y155920D01*
G02X282910I1610J3680D01*
G01Y154370D01*
X287210Y150070D01*
Y149020D01*
X289590D01*
Y155570D01*
X289690Y155670D01*
Y155910D01*
X289580Y155970D01*
G02X292910Y155920I1720J3631D01*
G01Y154330D01*
X292810Y154230D01*
Y149030D01*
X292980Y149000D01*
G02X293820Y148000I-175J-1000D01*
G01Y147710D01*
X295980D01*
Y148000D01*
G02X297000Y149020I1020J0D01*
G01X305800D01*
G02X306820Y148000I0J-1020D01*
G01Y147710D01*
X307130D01*
X309790Y150370D01*
Y154230D01*
X309690Y154330D01*
Y155920D01*
G02X313020Y155970I1610J3681D01*
G01X312910Y155910D01*
Y155670D01*
X313010Y155570D01*
Y149030D01*
X308470Y144490D01*
X306820D01*
Y144200D01*
G02X305800Y143180I-1020J0D01*
G01X297000D01*
G02X295980Y144200I0J1020D01*
G01Y144490D01*
X293820D01*
Y144200D01*
G02X293060Y143210I-1025J0D01*
G01X292910Y143170D01*
Y141110D01*
X293200D01*
G02X294200Y140280I0J-1017D01*
G01X294220Y140110D01*
X294830D01*
X294930Y140210D01*
X296180D01*
X296200Y140380D01*
G02X297200Y141210I1000J-187D01*
G01X301000D01*
G02X302010Y140200I0J-1010D01*
G01Y137000D01*
G02X301530Y136140I-1010J0D01*
G03Y135460I211J-340D01*
G02X302010Y134600I-530J-860D01*
G01Y131400D01*
G02X301000Y130390I-1010J0D01*
G01X297200D01*
G02X296190Y131400I0J1010D01*
G01Y134600D01*
G02X296670Y135460I1010J0D01*
G03Y136140I-211J340D01*
G02X296220Y136740I527J864D01*
G01X296180Y136890D01*
X294220D01*
X294200Y136720D01*
G02X293730Y136040I-995J185D01*
G03Y135360I211J-340D01*
G02X294210Y134500I-530J-860D01*
G01Y131300D01*
G02X293200Y130290I-1010J0D01*
G01X292910D01*
Y128430D01*
G02X289690I-1610J-1530D01*
G37*
G54D42*
X222200Y475000D03*
G54D40*
X110000Y465000D03*
G54D41*
X136900Y189700D03*
X186900Y159700D03*
X166900Y189700D03*
X186900D03*
X206900Y159700D03*
X196900Y189700D03*
X206900D03*
X251300Y159600D03*
X241300D03*
X231300Y189600D03*
X241300D03*
X251300D03*
X271300Y159600D03*
X261300D03*
Y189600D03*
X271300D03*
X281300D03*
X301300Y159600D03*
Y189600D03*
X311300D03*
X321300Y159600D03*
Y189600D03*
G54D38*
X58200Y276000D03*
X58800Y306300D03*
X116900Y127900D03*
X124500Y127800D03*
X105000Y201900D03*
X102900Y244500D03*
X126700Y275500D03*
X156900Y121500D03*
X146900Y134200D03*
X136900D03*
X133200Y294900D03*
X135900Y435000D03*
X190700Y133300D03*
X186000Y171900D03*
X183000Y258600D03*
X180300Y301500D03*
X184500Y294900D03*
X168600Y306900D03*
X173700Y344100D03*
X196200Y328500D03*
X203900Y329200D03*
X212700Y354000D03*
X195200Y383800D03*
X239400Y295800D03*
X234150Y292200D03*
X233100Y339300D03*
X258300Y278100D03*
X254700Y323400D03*
X262700Y324100D03*
X270600Y349800D03*
X254600Y381400D03*
X305500Y133000D03*
X298800Y208800D03*
X298500Y240000D03*
X294300Y303600D03*
X285000Y309900D03*
X311900Y384700D03*
X325500Y174000D03*
X333300Y208500D03*
X313800Y332400D03*
X325200Y337200D03*
X328500Y354900D03*
X312900Y344700D03*
X387300Y235200D03*
X400500Y279600D03*
X401100Y259200D03*
X388200Y315600D03*
X398700Y345600D03*
X404700Y222600D03*
X410700Y270900D03*
X411000Y320100D03*
X426900Y347100D03*
X449700Y309300D03*
X433500Y325800D03*
X451800Y332100D03*
X432900Y358500D03*
X466200Y322500D03*
X469200Y327000D03*
X488600Y367900D03*
X505200Y338100D03*
G54D43*
X357700Y212200D03*
Y232200D03*
X392000Y151700D03*
Y171700D03*
X377700Y212200D03*
Y232200D03*
X401300Y361700D03*
Y381700D03*
X412000Y151700D03*
Y171700D03*
X411300Y371700D03*
X421300Y361700D03*
Y381700D03*
G54D39*
X61300Y331800D03*
Y391800D03*
X131300Y331800D03*
X141300D03*
G54D44*
X488100Y226400D03*
Y236400D03*
X498100Y206400D03*
Y216400D03*
Y226400D03*
Y236400D03*
Y256400D03*
Y266400D03*
Y276400D03*
Y286400D03*
Y296400D03*
%LPD*%
G75*
G36*
G01X129000Y386100D02*
X125400Y389700D01*
Y395400D01*
X129000Y399000D01*
X165900D01*
X200100Y433200D01*
Y465900D01*
X195900Y470100D01*
X163800D01*
X160800Y473100D01*
Y478200D01*
X165300Y482700D01*
X210300D01*
Y482400D01*
X213300Y479400D01*
Y428100D01*
X171300Y386100D01*
X129000D01*
G37*
G36*
G01X234600Y482700D02*
X241200D01*
X245100Y478800D01*
Y429300D01*
X246300Y428100D01*
Y422700D01*
X243300Y419700D01*
X238800D01*
X236400Y422100D01*
Y429900D01*
X230700Y435600D01*
Y478800D01*
X234600Y482700D01*
G37*
G54D10*
G01X50900Y255500D02*
X59950D01*
X60050Y255600D01*
X66000D01*
G01X51900Y276000D02*
X58200D01*
G01X41100Y286200D02*
Y276000D01*
G01D02*
Y260460D01*
X40900Y260260D01*
Y255500D01*
G01X41100Y306300D02*
Y326920D01*
X41300Y327120D01*
Y331800D01*
G01X41100Y297000D02*
Y306300D01*
G01X51900D02*
X58800D01*
G01X41400Y364200D02*
Y336580D01*
X41300Y336480D01*
Y331800D01*
G01X61300Y336480D02*
Y331800D01*
G01X49800Y356400D02*
X61200Y345000D01*
Y336580D01*
X61300Y336480D01*
G01X41400Y364200D02*
Y387020D01*
X41300Y387120D01*
Y391800D01*
G01X49800Y364200D02*
Y371400D01*
G01Y364200D02*
Y356400D01*
G01Y371400D02*
X61200Y382800D01*
Y387020D01*
X61300Y387120D01*
G01D02*
Y391800D01*
G01X66000Y266400D02*
Y272100D01*
G01X141300Y331800D02*
X131300D01*
G01X141000Y351500D02*
Y336780D01*
G01D02*
X141300Y336480D01*
G01D02*
Y331800D01*
G01X206610Y475000D02*
Y430710D01*
X167700Y391800D01*
X141300D01*
G01X131300D02*
X141300D01*
G01D02*
Y387120D01*
X141000Y386820D01*
G01D02*
Y371100D01*
G01X147900Y435000D02*
X135900D01*
G01X167500D02*
Y455000D01*
X24950Y29570D03*
Y49570D03*
Y69570D03*
Y89570D03*
Y109570D03*
Y129570D03*
Y149570D03*
Y169570D03*
Y189570D03*
Y209570D03*
Y229570D03*
Y249570D03*
Y269570D03*
Y289570D03*
Y309570D03*
Y329570D03*
Y349570D03*
Y369570D03*
Y389570D03*
Y409570D03*
Y429570D03*
Y449570D03*
Y469570D03*
X44950Y29570D03*
X64950D03*
X44950Y89570D03*
X64950D03*
X44950Y109570D03*
X64950D03*
X44950Y129570D03*
X64950D03*
X44950Y149570D03*
Y169570D03*
X64950D03*
X44950Y189570D03*
X64950D03*
X44950Y209570D03*
X64950D03*
X44950Y229570D03*
X64950D03*
Y289570D03*
X44950Y409570D03*
X64950D03*
X44950Y429570D03*
X64950D03*
X84950Y29570D03*
Y49570D03*
Y69570D03*
Y89570D03*
Y109570D03*
Y129570D03*
Y169570D03*
Y189570D03*
Y209570D03*
Y229570D03*
Y269570D03*
Y289570D03*
Y309570D03*
Y409570D03*
Y429570D03*
Y449570D03*
Y469570D03*
X104950Y29570D03*
Y49570D03*
Y69570D03*
Y89570D03*
Y109570D03*
Y129570D03*
Y149570D03*
Y169570D03*
Y189570D03*
Y209570D03*
Y289570D03*
Y309570D03*
Y329570D03*
Y369570D03*
Y389570D03*
Y409570D03*
Y429570D03*
X124950Y29570D03*
X144950D03*
X124950Y49570D03*
X144950D03*
X124950Y69570D03*
X144950D03*
X124950Y89570D03*
X144950D03*
X124950Y109570D03*
X144950D03*
X124950Y169570D03*
X144950D03*
Y209570D03*
X124950Y289570D03*
Y309570D03*
X144950D03*
X124950Y349570D03*
Y369570D03*
Y409570D03*
X144950D03*
X124950Y429570D03*
X164950Y29570D03*
Y49570D03*
Y69570D03*
Y89570D03*
Y109570D03*
Y169570D03*
Y209570D03*
Y229570D03*
Y249570D03*
Y349570D03*
Y369570D03*
Y409570D03*
X184950Y29570D03*
Y49570D03*
Y69570D03*
Y89570D03*
Y109570D03*
Y209570D03*
Y229570D03*
Y249570D03*
Y389570D03*
Y429570D03*
Y449570D03*
X204950Y29570D03*
X224950D03*
X204950Y49570D03*
X224950D03*
X204950Y69570D03*
X224950D03*
X204950Y89570D03*
X224950D03*
X204950Y109570D03*
X224950D03*
X204950Y129570D03*
X224950D03*
X204950Y149570D03*
X224950D03*
X204950Y209570D03*
X224950D03*
X204950Y229570D03*
X224950D03*
Y249570D03*
Y309570D03*
X204950Y329570D03*
X224950D03*
Y349570D03*
Y369570D03*
X204950Y389570D03*
X224950D03*
X204950Y409570D03*
X224950D03*
X244950Y29570D03*
Y49570D03*
Y69570D03*
Y89570D03*
Y109570D03*
Y129570D03*
Y149570D03*
Y169570D03*
Y209570D03*
Y229570D03*
Y389570D03*
X264950Y29570D03*
Y49570D03*
Y69570D03*
Y89570D03*
Y109570D03*
Y129570D03*
Y149570D03*
Y169570D03*
Y209570D03*
Y229570D03*
Y309570D03*
Y389570D03*
Y409570D03*
Y449570D03*
Y469570D03*
X284950Y29570D03*
X304950D03*
X284950Y49570D03*
X304950D03*
X284950Y69570D03*
X304950D03*
X284950Y89570D03*
X304950D03*
X284950Y109570D03*
X304950D03*
X284950Y169570D03*
X304950D03*
X284950Y249570D03*
X304950D03*
X284950Y309570D03*
Y349570D03*
Y369570D03*
Y389570D03*
X304950D03*
X284950Y409570D03*
X304950D03*
X284950Y429570D03*
X304950D03*
X284950Y449570D03*
X304950D03*
X284950Y469570D03*
X304950D03*
X324950Y29570D03*
Y49570D03*
Y69570D03*
Y89570D03*
Y109570D03*
Y129570D03*
Y149570D03*
Y249570D03*
Y309570D03*
Y369570D03*
Y389570D03*
Y409570D03*
Y429570D03*
Y449570D03*
Y469570D03*
X344950Y29570D03*
X364950D03*
X344950Y49570D03*
X364950D03*
X344950Y69570D03*
X364950D03*
X344950Y89570D03*
X364950D03*
X344950Y109570D03*
X364950D03*
X344950Y129570D03*
X364950D03*
X344950Y149570D03*
X364950D03*
X344950Y169570D03*
X364950D03*
X344950Y189570D03*
X364950D03*
X344950Y209570D03*
Y249570D03*
X364950D03*
X344950Y309570D03*
X364950D03*
X344950Y329570D03*
X364950D03*
X344950Y349570D03*
X364950D03*
X344950Y369570D03*
X364950D03*
X344950Y389570D03*
X364950D03*
X344950Y409570D03*
X364950D03*
X344950Y429570D03*
X364950D03*
X344950Y449570D03*
X364950D03*
X344950Y469570D03*
X364950D03*
X384950Y29570D03*
Y49570D03*
Y69570D03*
Y89570D03*
Y109570D03*
Y129570D03*
Y189570D03*
Y329570D03*
Y349570D03*
Y369570D03*
Y389570D03*
Y409570D03*
Y429570D03*
Y449570D03*
Y469570D03*
X404950Y29570D03*
Y49570D03*
Y69570D03*
Y89570D03*
Y109570D03*
Y129570D03*
Y229570D03*
Y249570D03*
Y309570D03*
Y409570D03*
Y429570D03*
Y449570D03*
Y469570D03*
X424950Y29570D03*
X444950D03*
X424950Y49570D03*
Y69570D03*
Y89570D03*
X444950D03*
X424950Y109570D03*
X444950D03*
X424950Y129570D03*
X444950D03*
X424950Y149570D03*
X444950D03*
X424950Y169570D03*
X444950D03*
Y189570D03*
X424950Y229570D03*
X444950D03*
X424950Y249570D03*
X444950Y369570D03*
Y389570D03*
X424950Y409570D03*
X444950D03*
X424950Y429570D03*
X444950D03*
X424950Y449570D03*
Y469570D03*
X464950Y29570D03*
Y89570D03*
Y109570D03*
Y129570D03*
Y149570D03*
Y169570D03*
Y189570D03*
Y229570D03*
Y309570D03*
Y369570D03*
Y389570D03*
Y409570D03*
Y429570D03*
X484950Y29570D03*
Y49570D03*
Y69570D03*
Y89570D03*
Y109570D03*
Y129570D03*
Y149570D03*
Y169570D03*
Y189570D03*
Y309570D03*
Y329570D03*
Y389570D03*
Y409570D03*
Y429570D03*
Y449570D03*
Y469570D03*
X504950Y29570D03*
Y49570D03*
Y69570D03*
Y89570D03*
Y109570D03*
Y129570D03*
Y149570D03*
Y169570D03*
Y189570D03*
Y309570D03*
Y369570D03*
Y389570D03*
Y409570D03*
Y429570D03*
Y449570D03*
Y469570D03*
G54D20*
X81300Y248100D03*
Y242500D03*
X116900Y133200D03*
Y138800D03*
X124500Y138900D03*
Y133300D03*
X136900Y140600D03*
Y146200D03*
X133000Y250500D03*
X125000D03*
Y244900D03*
X133000Y256100D03*
Y275500D03*
Y269900D03*
X156900Y140600D03*
X146900D03*
X156900Y133200D03*
Y127600D03*
X172400Y138700D03*
Y133100D03*
X156900Y146200D03*
X146900D03*
X184200Y138900D03*
Y133300D03*
X183000Y277200D03*
Y264000D03*
Y269600D03*
Y282800D03*
X236400Y282300D03*
Y276700D03*
X244200Y276600D03*
Y271000D03*
Y284100D03*
Y289700D03*
X272100Y263700D03*
Y269300D03*
X271800Y288000D03*
Y293600D03*
X299100Y138600D03*
Y133000D03*
X291300Y132900D03*
Y138500D03*
X307800Y209400D03*
Y203800D03*
X298500Y227200D03*
X298800Y214500D03*
Y220100D03*
X298500Y232800D03*
X409000Y198200D03*
Y192600D03*
X414600Y215100D03*
Y209500D03*
G54D11*
X59000Y59000D03*
Y453000D03*
X452500Y59000D03*
Y453000D03*
G54D30*
X206610Y475000D03*
X222200D03*
X237800D03*
G54D21*
X116900Y159700D03*
X231300Y159600D03*
G54D12*
X40900Y255500D03*
X50900D03*
G54D31*
X231600Y425400D03*
G54D13*
X66000Y255600D03*
Y266400D03*
X41100Y286200D03*
Y297000D03*
X417500Y187800D03*
Y198600D03*
G54D22*
X116900Y189700D03*
X146900Y159700D03*
X136900D03*
X126900D03*
Y189700D03*
X136900D03*
X146900D03*
X166900Y159700D03*
X156900D03*
Y189700D03*
X166900D03*
X196900Y159700D03*
X186900D03*
X176900D03*
Y189700D03*
X186900D03*
X196900D03*
X206900Y159700D03*
Y189700D03*
X251300Y159600D03*
X241300D03*
X231300Y189600D03*
X241300D03*
X251300D03*
X281300Y159600D03*
X271300D03*
X261300D03*
Y189600D03*
X271300D03*
X281300D03*
X311300Y159600D03*
X301300D03*
X291300D03*
Y189600D03*
X301300D03*
X311300D03*
X321300Y159600D03*
Y189600D03*
G54D14*
X51900Y276000D03*
X41100D03*
X51900Y306300D03*
X41100D03*
X109200Y230100D03*
X98400D03*
X145200Y248100D03*
X156000D03*
X198600Y248400D03*
X209400D03*
X250200Y246300D03*
X261000D03*
X325800Y208500D03*
X315000D03*
X336300Y238500D03*
X347100D03*
G54D32*
X241600Y425400D03*
X251600D03*
X357700Y212200D03*
Y232200D03*
X392000Y151700D03*
Y171700D03*
X367700Y222200D03*
X377700Y212200D03*
Y232200D03*
X402000Y161700D03*
X412000Y151700D03*
Y171700D03*
X421300Y361700D03*
X401300D03*
X411300Y371700D03*
X401300Y381700D03*
X421300D03*
G54D23*
X112250Y250500D03*
Y245500D03*
X92750Y250500D03*
Y245500D03*
X112250Y255500D03*
Y260500D03*
X92750D03*
Y255500D03*
X145050Y279900D03*
Y274900D03*
Y269900D03*
Y264900D03*
X164550Y274900D03*
Y279900D03*
Y269900D03*
Y264900D03*
X198750Y279600D03*
Y274600D03*
Y269600D03*
Y264600D03*
X218250Y274600D03*
Y279600D03*
Y269600D03*
Y264600D03*
X307750Y227100D03*
Y222100D03*
Y217100D03*
Y232100D03*
X327250Y227100D03*
Y222100D03*
Y217100D03*
Y232100D03*
G54D33*
X253390Y475000D03*
G54D15*
X58200Y276000D03*
X58800Y306300D03*
X67550Y141650D03*
X81300Y237600D03*
X66000Y272100D03*
X116900Y127900D03*
X97200Y139500D03*
X105000Y201900D03*
X109200Y222600D03*
X98400D03*
X102900Y244500D03*
X117800Y255500D03*
X99300Y352500D03*
X124500Y127800D03*
X136900Y134200D03*
X126700Y275500D03*
X133200Y294900D03*
X135900Y435000D03*
X156900Y121500D03*
X146900Y134200D03*
X172400Y127100D03*
X156000Y256800D03*
X156800Y275000D03*
X154200Y264900D03*
X168600Y306900D03*
X151500Y302100D03*
X173700Y344100D03*
X190700Y133300D03*
X186000Y171900D03*
X183000Y258600D03*
X184500Y294900D03*
X199200Y306900D03*
X180300Y301500D03*
X196200Y328500D03*
X195200Y383800D03*
X209400Y257100D03*
X210700Y274700D03*
X207600Y264600D03*
X203900Y329200D03*
X212700Y354000D03*
X250200Y254700D03*
X253800Y270600D03*
X234150Y292200D03*
X253970Y286070D03*
X239400Y295800D03*
X254700Y323400D03*
X233100Y339300D03*
X254600Y381400D03*
X261000Y239400D03*
X258300Y278100D03*
X264900Y281100D03*
X260700Y299700D03*
X262700Y324100D03*
X270600Y349800D03*
X305500Y133000D03*
X291300Y126900D03*
X298800Y208800D03*
X298500Y240000D03*
X285000Y309900D03*
X294300Y303600D03*
X325500Y174000D03*
X333300Y208500D03*
X319300Y227000D03*
X317700Y217100D03*
X325200Y337200D03*
X313800Y332400D03*
X312900Y344700D03*
X328500Y354900D03*
X311900Y384700D03*
X387300Y235200D03*
X366950Y292150D03*
X388200Y315600D03*
X409000Y187900D03*
X396400Y192400D03*
X404700Y222600D03*
X393700Y231700D03*
X400500Y279600D03*
X401100Y259200D03*
X410700Y270900D03*
X411000Y320100D03*
X398700Y345600D03*
X425100Y198600D03*
X431550Y256650D03*
X433500Y325800D03*
X432900Y358500D03*
X426900Y347100D03*
X454050Y246150D03*
X449700Y309300D03*
X451800Y332100D03*
X469200Y327000D03*
X466200Y322500D03*
X488600Y367900D03*
X505200Y338100D03*
G54D24*
X110000Y465000D03*
G54D16*
X41300Y331800D03*
X61300D03*
Y391800D03*
X41300D03*
X71300Y331800D03*
X81300D03*
Y391800D03*
X71300D03*
X131300Y331800D03*
X141300D03*
Y391800D03*
X131300D03*
G54D34*
X263560Y262070D03*
X261000D03*
X258440D03*
Y270730D03*
X261000D03*
X263560D03*
X263260Y286070D03*
X260700D03*
X258140D03*
Y294730D03*
X260700D03*
X263260D03*
X407260Y207470D03*
X404700D03*
X402140D03*
Y216130D03*
X404700D03*
X407260D03*
G54D25*
X141000Y351500D03*
Y371100D03*
G54D35*
X488100Y206400D03*
X498100Y246400D03*
G54D17*
X41400Y364200D03*
X49800D03*
G54D26*
X147900Y435000D03*
X167500D03*
G54D18*
X88800Y139500D03*
X67550Y149500D03*
X88800Y159500D03*
X71150Y362500D03*
X92400Y352500D03*
Y372500D03*
G54D36*
X498100Y206400D03*
X488100Y216400D03*
X498100D03*
X488100Y226400D03*
X498100D03*
X488100Y236400D03*
X498100D03*
X488100Y246400D03*
Y256400D03*
X498100D03*
X488100Y266400D03*
X498100D03*
X488100Y276400D03*
X498100D03*
X488100Y286400D03*
X498100D03*
X488100Y296400D03*
X498100D03*
G54D27*
X174300Y269860D03*
Y282740D03*
X228300Y269560D03*
Y282440D03*
G54D37*
G01X51900Y270840D02*
Y276000D01*
G01D02*
Y281160D01*
G01X48190Y276000D02*
X51900D01*
G01X60840Y266400D02*
X66000D01*
G01X58200Y273590D02*
Y276000D01*
G01D02*
Y278410D01*
G01Y276000D02*
X60610D01*
G01X51900Y301140D02*
Y306300D01*
G01D02*
Y311460D01*
G01X48190Y306300D02*
X51900D01*
G01X58800Y303890D02*
Y306300D01*
G01D02*
Y308710D01*
G01Y306300D02*
X61210D01*
G01X61300Y327910D02*
Y331800D01*
G01X57410D02*
X61300D01*
G01D02*
X65190D01*
G01X46090Y364200D02*
X49800D01*
G01D02*
X53510D01*
G01X61300Y391800D02*
Y395690D01*
G01X57410Y391800D02*
X61300D01*
G01D02*
X65190D01*
G01X88800Y139500D02*
X97200D01*
G01X67550Y149500D02*
Y141650D01*
G01X88800Y159500D02*
X95700D01*
X95800Y159600D01*
X99000D01*
G01X92750Y250500D02*
X87600D01*
X85200Y248100D01*
X81300D01*
G01Y242500D02*
Y237600D01*
G01X78190Y242500D02*
X81300D01*
G01D02*
X84410D01*
G01X81300Y235190D02*
Y237600D01*
G01X78890D02*
X81300D01*
G01D02*
X83710D01*
G01X66000Y262690D02*
Y266400D01*
G01D02*
X71160D01*
G01X66000Y272100D02*
Y274510D01*
G01X63590Y272100D02*
X66000D01*
G01D02*
X68410D01*
G01X75500Y255500D02*
X71150D01*
X71050Y255600D01*
X66000D01*
G01X81100Y255500D02*
X92750D01*
G01X71150Y362500D02*
Y335730D01*
X71300Y335580D01*
Y331800D01*
G01X81300D02*
Y368400D01*
X85400Y372500D01*
X92400D01*
G01X71300Y391800D02*
Y366510D01*
X71150Y366360D01*
Y362500D01*
G01X87250Y352500D02*
X92400D01*
G01Y372500D02*
Y386100D01*
X86700Y391800D01*
X81300D01*
G01X116900Y133200D02*
Y127900D01*
G01X113790Y133200D02*
X116900D01*
G01D02*
X120010D01*
G01X116900Y125490D02*
Y127900D01*
G01X114490D02*
X116900D01*
G01D02*
X119310D01*
G01X116900Y146200D02*
Y138800D01*
G01X104600Y159600D02*
X112200D01*
X112300Y159700D01*
X116900D01*
G01Y146200D02*
Y159700D01*
G01X117000Y201900D02*
Y194400D01*
X116900Y194300D01*
Y189700D01*
G01X105000Y199490D02*
Y201900D01*
G01X111400Y198790D02*
Y201900D01*
G01X117100Y212400D02*
Y215900D01*
X117300Y216100D01*
Y220800D01*
X125000Y228500D01*
Y244900D01*
G01X117100Y212400D02*
Y205500D01*
X117000Y205400D01*
Y201900D01*
G01X111400D02*
X105000D01*
G01X109200Y230100D02*
Y222600D01*
G01Y220190D02*
Y222600D01*
G01X106790D02*
X109200D01*
G01D02*
X111610D01*
G01X105000Y201900D02*
Y204310D01*
G01X102590Y201900D02*
X105000D01*
G01X111400D02*
Y205010D01*
G01X98400Y230100D02*
Y222600D01*
G01X112250Y250500D02*
X108000D01*
X105600Y252900D01*
Y267500D01*
G01X112250Y250500D02*
X125000D01*
G01X109200Y230100D02*
Y237000D01*
G01D02*
X107700Y238500D01*
G01D02*
X104100D01*
G01X105490Y230100D02*
X109200D01*
G01D02*
X112910D01*
G01X102900Y242090D02*
Y244500D01*
G01D02*
Y246910D01*
G01X100490Y244500D02*
X102900D01*
G01D02*
X105310D01*
G01X104100Y235390D02*
Y238500D01*
G01D02*
Y241610D01*
G01X98500Y238500D02*
X94800D01*
X92750Y240550D01*
Y245500D01*
G01X98500Y238500D02*
Y230200D01*
X98400Y230100D01*
G01X105600Y275000D02*
Y267500D01*
G01X112250Y255500D02*
X117800D01*
G01X92750D02*
X96350D01*
X96450Y255600D01*
X97800D01*
X100000Y257800D01*
Y267500D01*
G01Y275000D02*
Y267500D01*
G01X92400Y352500D02*
X99300D01*
G01X92400Y348530D02*
Y352500D01*
G01D02*
Y356470D01*
G01X99300Y350090D02*
Y352500D01*
G01D02*
Y354910D01*
G01Y352500D02*
X101710D01*
G01X110000Y455790D02*
Y465000D01*
G01D02*
Y474210D01*
G01X100790Y465000D02*
X110000D01*
G01D02*
X119210D01*
G01X124500Y133300D02*
Y127800D01*
G01X136900Y140600D02*
Y134200D01*
G01X143790Y140600D02*
X146900D01*
G01X133790D02*
X136900D01*
G01D02*
X140010D01*
G01X136900Y131790D02*
Y134200D01*
G01X134490D02*
X136900D01*
G01D02*
X139310D01*
G01X144490D02*
X146900D01*
G01X121390Y133300D02*
X124500D01*
G01D02*
X127610D01*
G01X124500Y125390D02*
Y127800D01*
G01X122090D02*
X124500D01*
G01D02*
X126910D01*
G01X124500Y138900D02*
Y142100D01*
X122500Y144100D01*
Y146200D01*
G01D02*
X122400Y146300D01*
Y149700D01*
X126900Y154200D01*
Y159700D01*
G01X136900Y146200D02*
Y159700D01*
G01X127000Y202200D02*
Y194400D01*
X126900Y194300D01*
Y189700D01*
G01X136900D02*
Y194300D01*
G01D02*
X136800Y194400D01*
Y195300D01*
G01D02*
X132600Y199500D01*
Y202200D01*
G01X142690Y189700D02*
X146900D01*
G01X136900Y185490D02*
Y189700D01*
G01X132690D02*
X136900D01*
G01D02*
X141110D01*
G01X122700Y212400D02*
Y203300D01*
X123800Y202200D01*
X127000D01*
G01X132600D02*
Y205310D01*
G01Y202200D02*
X135410D01*
G01X125000Y250500D02*
X133000D01*
G01D02*
X136500D01*
X138600Y248400D01*
Y233100D01*
X151800Y219900D01*
Y142800D01*
X154000Y140600D01*
X156900D01*
G01X133000Y275500D02*
X126700D01*
G01X133000D02*
Y278310D01*
G01Y275500D02*
X136110D01*
G01X126700Y273090D02*
Y275500D01*
G01D02*
Y277910D01*
G01X124290Y275500D02*
X126700D01*
G01X133000Y256100D02*
Y269900D01*
G01D02*
X145050D01*
G01Y274900D02*
X145150Y274800D01*
X149700D01*
X151800Y276900D01*
Y286800D01*
G01X145050Y264900D02*
Y260450D01*
X145200Y260300D01*
Y256800D01*
G01X139000Y294900D02*
X133200D01*
G01Y292490D02*
Y294900D01*
G01D02*
Y297310D01*
G01X130790Y294900D02*
X133200D01*
G01X139000Y291790D02*
Y294900D01*
G01D02*
Y298010D01*
G01X151660Y294900D02*
X144600D01*
G01X141300Y327910D02*
Y331800D01*
G01D02*
X145190D01*
G01X131300Y327910D02*
Y331800D01*
G01D02*
Y335690D01*
G01X127410Y331800D02*
X131300D01*
G01X141000Y351500D02*
Y357910D01*
G01X135390Y351500D02*
X141000D01*
G01D02*
X146610D01*
G01X135900Y432590D02*
Y435000D01*
G01D02*
Y437410D01*
G01X133490Y435000D02*
X135900D01*
G01X156900Y140600D02*
Y133200D01*
G01Y127600D02*
Y121500D01*
G01X146900Y140600D02*
Y134200D01*
G01Y140600D02*
X150010D01*
G01X146900Y131790D02*
Y134200D01*
G01D02*
X149310D01*
G01X153790Y127600D02*
X156900D01*
G01D02*
X160010D01*
G01X156900Y119090D02*
Y121500D01*
G01X154490D02*
X156900D01*
G01D02*
X159310D01*
G01X172500Y146200D02*
Y142000D01*
X172400Y141900D01*
Y138700D01*
G01X146900Y146200D02*
Y159700D01*
G01X156900Y146200D02*
Y159700D01*
G01X166900Y146200D02*
Y159700D01*
G01X176900D02*
Y155100D01*
X176700Y154900D01*
Y154200D01*
X172500Y150000D01*
Y146200D01*
G01X166900Y189700D02*
X171000Y193800D01*
G01D02*
Y197700D01*
X171100Y197800D01*
G01D02*
Y201300D01*
G01X166900Y185490D02*
Y189700D01*
G01D02*
Y193910D01*
G01X162690Y189700D02*
X166900D01*
G01D02*
X171110D01*
G01X156900Y185490D02*
Y189700D01*
G01D02*
Y193910D01*
G01Y189700D02*
X161110D01*
G01X146900Y185490D02*
Y189700D01*
G01D02*
Y193910D01*
G01X171100Y201300D02*
Y204410D01*
G01X168290Y201300D02*
X171100D01*
G01X156000Y248100D02*
Y256800D01*
G01Y242940D02*
Y248100D01*
G01X152290D02*
X156000D01*
G01D02*
X159710D01*
G01X150800Y253690D02*
Y256800D01*
G01X145200D02*
Y248100D01*
G01X150800Y256800D02*
X156000D01*
G01D02*
Y259210D01*
G01Y256800D02*
X158410D01*
G01X150800D02*
Y259910D01*
G01X164550Y269900D02*
X170010D01*
X170050Y269860D01*
X174300D01*
G01X156800Y275000D02*
X160350D01*
X160450Y274900D01*
X164550D01*
G01X154200Y264900D02*
X145050D01*
G01X168600Y304490D02*
Y306900D01*
G01D02*
Y309310D01*
G01X166190Y306900D02*
X168600D01*
G01D02*
X171010D01*
G01X151800Y286800D02*
Y290510D01*
X151660Y290650D01*
Y294900D01*
G01X151500Y302100D02*
Y295060D01*
X151660Y294900D01*
G01X164540D02*
X160200D01*
X157400Y292100D01*
Y286800D01*
G01X174300Y282740D02*
X170050D01*
X169890Y282900D01*
X169800D01*
X165900Y286800D01*
X157400D01*
G01X171290Y344100D02*
X173700D01*
G01X147900Y429390D02*
Y435000D01*
G01D02*
Y440610D01*
G01Y435000D02*
X154310D01*
G01X162290Y465000D02*
X167500D01*
G01D02*
X172710D01*
G01X184200Y133300D02*
X190700D01*
G01X184200Y130490D02*
Y133300D01*
G01X181090D02*
X184200D01*
G01X190700Y130890D02*
Y133300D01*
G01D02*
Y135710D01*
G01Y133300D02*
X193110D01*
G01X184000Y146400D02*
Y142300D01*
X184200Y142100D01*
Y138900D01*
G01X172400Y133100D02*
Y127100D01*
G01X189600Y146400D02*
X193800D01*
X196900Y149500D01*
Y159700D01*
G01X172500Y146200D02*
X180600D01*
X180800Y146400D01*
X184000D01*
G01X186900Y185490D02*
Y189700D01*
G01D02*
Y193910D01*
G01X182690Y189700D02*
X186900D01*
G01D02*
X191110D01*
G01X176700Y201300D02*
Y194500D01*
X176900Y194300D01*
Y189700D01*
G01X176700Y201300D02*
X184000D01*
G01X285300Y209100D02*
Y204300D01*
X282300Y201300D01*
X189600D01*
G01X198600Y257100D02*
Y248400D01*
G01X183000Y264000D02*
Y258600D01*
G01X179890Y264000D02*
X183000D01*
G01D02*
X186110D01*
G01X183000Y256190D02*
Y258600D01*
G01X180590D02*
X183000D01*
G01D02*
X185410D01*
G01X183000Y277200D02*
Y269600D01*
G01D02*
X198750D01*
G01Y274600D02*
X202850D01*
X203050Y274800D01*
X203700D01*
X205800Y276900D01*
Y286500D01*
G01X207600Y264600D02*
X198750D01*
G01D02*
Y260750D01*
X198600Y260600D01*
Y257100D01*
G01X193600Y294900D02*
X184500D01*
G01Y292490D02*
Y294900D01*
G01D02*
Y297310D01*
G01X182090Y294900D02*
X184500D01*
G01X193600Y291790D02*
Y294900D01*
G01D02*
Y298010D01*
G01X174300Y282740D02*
X179440D01*
X179500Y282800D01*
X183000D01*
G01X199200Y306900D02*
Y294900D01*
G01D02*
X205960D01*
G01X173700Y341690D02*
Y344100D01*
G01D02*
Y346510D01*
G01Y344100D02*
X176110D01*
G01X209400Y248400D02*
Y257100D01*
G01Y243240D02*
Y248400D01*
G01X205690D02*
X209400D01*
G01D02*
X213110D01*
G01X204200Y253990D02*
Y257100D01*
G01D02*
X209400D01*
G01D02*
Y259510D01*
G01Y257100D02*
X211810D01*
G01X204200D02*
Y260210D01*
G01X218250Y269600D02*
X224010D01*
X224050Y269560D01*
X228300D01*
G01X210700Y274700D02*
X214050D01*
X214150Y274600D01*
X218250D01*
G01X218840Y294900D02*
X213900D01*
X211400Y292400D01*
Y286500D01*
G01X228300Y282440D02*
X228160Y282300D01*
X223800D01*
X219600Y286500D01*
X211400D01*
G01X205800D02*
Y290490D01*
X205960Y290650D01*
Y294900D01*
G01X203900Y326790D02*
Y329200D01*
G01D02*
Y331610D01*
G01X201490Y329200D02*
X203900D01*
G01D02*
X206310D01*
G01X226640Y425400D02*
X231600D01*
G01X222200Y469040D02*
Y475000D01*
G01D02*
Y480960D01*
G01X216240Y475000D02*
X222200D01*
G01D02*
X228160D01*
G01X241300Y155390D02*
Y159600D01*
G01D02*
Y163810D01*
G01X237090Y159600D02*
X241300D01*
G01D02*
X245510D01*
G01X251300Y155390D02*
Y159600D01*
G01D02*
Y163810D01*
G01X247090Y159600D02*
X251300D01*
G01D02*
X255510D01*
G01X251300Y185390D02*
Y189600D01*
G01D02*
Y193810D01*
G01X247090Y189600D02*
X251300D01*
G01D02*
X255510D01*
G01X241300Y185390D02*
Y189600D01*
G01D02*
Y193810D01*
G01X237090Y189600D02*
X241300D01*
G01D02*
X245510D01*
G01X250200Y246300D02*
Y254700D01*
G01Y241140D02*
Y246300D01*
G01X246490D02*
X250200D01*
G01D02*
X253910D01*
G01X255400Y254700D02*
X250200D01*
G01D02*
Y257110D01*
G01X247790Y254700D02*
X250200D01*
G01X244200Y271000D02*
Y265500D01*
X247630Y262070D01*
X258440D01*
G01X253800Y270600D02*
X258310D01*
X258440Y270730D01*
G01X236400Y276700D02*
X240600D01*
X240700Y276600D01*
X244200D01*
G01D02*
Y284100D01*
G01X234150Y289790D02*
Y292200D01*
G01D02*
Y294610D01*
G01X231740Y292200D02*
X234150D01*
G01D02*
X236560D01*
G01X258140Y294730D02*
X255840D01*
X255710Y294600D01*
X254700D01*
X249800Y289700D01*
X244200D01*
G01X258140Y286070D02*
X253970D01*
G01X228300Y282440D02*
X232760D01*
X232900Y282300D01*
X236400D01*
G01X233100Y336890D02*
Y339300D01*
G01D02*
Y341710D01*
G01X230690Y339300D02*
X233100D01*
G01D02*
X235510D01*
G01X231600Y420440D02*
Y425400D01*
G01D02*
Y430360D01*
G01X261300Y155390D02*
Y159600D01*
G01D02*
Y163810D01*
G01X257090Y159600D02*
X261300D01*
G01D02*
X265510D01*
G01X271300Y155390D02*
Y159600D01*
G01D02*
Y163810D01*
G01X267090Y159600D02*
X271300D01*
G01D02*
X275510D01*
G01X285600Y146100D02*
Y149400D01*
X281300Y153700D01*
Y159600D01*
G01Y185390D02*
Y189600D01*
G01D02*
Y193810D01*
G01X277090Y189600D02*
X281300D01*
G01D02*
X285510D01*
G01X271300Y185390D02*
Y189600D01*
G01D02*
Y193810D01*
G01X267090Y189600D02*
X271300D01*
G01D02*
X275510D01*
G01X261300Y185390D02*
Y189600D01*
G01D02*
Y193810D01*
G01X257090Y189600D02*
X261300D01*
G01D02*
X265510D01*
G01X255400Y251590D02*
Y254700D01*
G01X261000Y246300D02*
Y239400D01*
G01Y254700D02*
Y246300D01*
G01X258300Y278100D02*
X261000Y275400D01*
G01D02*
Y270730D01*
G01X258300Y275690D02*
Y278100D01*
G01D02*
Y280510D01*
G01X255890Y278100D02*
X258300D01*
G01D02*
X260710D01*
G01X255400Y254700D02*
Y257810D01*
G01X272100Y263700D02*
X268200D01*
X266570Y262070D01*
X263560D01*
G01X272100Y263700D02*
X282900D01*
G01X272100Y269300D02*
X268600D01*
X268500Y269400D01*
X267900D01*
X266570Y270730D01*
X263560D01*
G01X282600Y272400D02*
X279000D01*
X275900Y269300D01*
X272100D01*
G01X261000Y262070D02*
Y254700D01*
G01X264900Y281100D02*
X262800D01*
X260700Y283200D01*
Y286070D01*
G01Y294730D02*
Y299700D01*
G01D02*
Y302110D01*
G01X258290Y299700D02*
X260700D01*
G01D02*
X263110D01*
G01X271800Y288000D02*
X267900D01*
X265970Y286070D01*
X263260D01*
G01X282600Y286200D02*
X277800D01*
X276000Y288000D01*
X271800D01*
G01Y293600D02*
X268300D01*
X268200Y293700D01*
X267000D01*
X265970Y294730D01*
X263260D01*
G01X282600Y296100D02*
X278700D01*
X276200Y293600D01*
X271800D01*
G01X262700Y321690D02*
Y324100D01*
G01D02*
Y326510D01*
G01X260290Y324100D02*
X262700D01*
G01D02*
X265110D01*
G01X299100Y133000D02*
X305500D01*
G01X299100Y130190D02*
Y133000D01*
G01X295990D02*
X299100D01*
G01X305500Y130590D02*
Y133000D01*
G01D02*
Y135410D01*
G01Y133000D02*
X307910D01*
G01X291300Y138500D02*
Y142500D01*
X291200Y142600D01*
Y146100D01*
G01X291300Y138500D02*
X295500D01*
X295600Y138600D01*
X299100D01*
G01X291300Y132900D02*
Y126900D01*
G01X301300Y155390D02*
Y159600D01*
G01D02*
Y163810D01*
G01X297090Y159600D02*
X301300D01*
G01D02*
X305510D01*
G01X291200Y146100D02*
Y154900D01*
X291300Y155000D01*
Y159600D01*
G01X291200Y146100D02*
X298600D01*
G01X311300Y159600D02*
Y155000D01*
X311400Y154900D01*
Y149700D01*
X307800Y146100D01*
X304200D01*
G01X301300Y189600D02*
Y194200D01*
G01Y189600D02*
X307800Y196100D01*
G01D02*
Y203800D01*
G01X301300Y194200D02*
X301200Y194300D01*
Y199800D01*
X300000Y201000D01*
G01X301300Y185390D02*
Y189600D01*
G01X297090D02*
X301300D01*
G01D02*
X305510D01*
G01X296900Y197890D02*
Y201000D01*
G01X291300D02*
Y189600D01*
G01X298800Y214500D02*
Y208800D01*
G01X300000Y201000D02*
X296900D01*
G01X295690Y214500D02*
X298800D01*
G01D02*
X301910D01*
G01X304690Y203800D02*
X307800D01*
G01D02*
X310910D01*
G01X298800Y206390D02*
Y208800D01*
G01X296390D02*
X298800D01*
G01D02*
X301210D01*
G01X296900Y201000D02*
Y204110D01*
G01X290900Y209100D02*
Y204900D01*
X291300Y204500D01*
Y201000D01*
G01X285300Y209100D02*
Y227400D01*
G01X290900D02*
X294800D01*
X295000Y227200D01*
X298500D01*
G01D02*
X303550D01*
X303650Y227100D01*
X307750D01*
G01Y222100D02*
X307650Y222000D01*
X303600D01*
X301700Y220100D01*
X298800D01*
G01X307750Y217100D02*
X317700D01*
G01X307800Y209400D02*
Y214200D01*
X307750Y214250D01*
Y217100D01*
G01X315000Y208500D02*
X310900D01*
X310000Y209400D01*
X307800D01*
G01X298500Y232800D02*
Y240000D01*
G01X295390Y232800D02*
X298500D01*
G01D02*
X301610D01*
G01X298500Y240000D02*
Y242410D01*
G01X296090Y240000D02*
X298500D01*
G01D02*
X300910D01*
G01X488100Y276400D02*
X483600D01*
X483500Y276300D01*
X409200D01*
X405300Y272400D01*
X288200D01*
G01X488100Y266400D02*
X396300D01*
X393600Y263700D01*
X288500D01*
G01X285000Y307490D02*
Y309900D01*
G01X288200Y296100D02*
X483300D01*
X483600Y296400D01*
X488100D01*
G01X288200Y286200D02*
X483400D01*
X483600Y286400D01*
X488100D01*
G01X285000Y309900D02*
Y312310D01*
G01X282590Y309900D02*
X285000D01*
G01D02*
X287410D01*
G01X325800Y208500D02*
X333300D01*
G01X325800Y203340D02*
Y208500D01*
G01D02*
Y213660D01*
G01X322090Y208500D02*
X325800D01*
G01X333300Y206090D02*
Y208500D01*
G01D02*
Y210910D01*
G01Y208500D02*
X335710D01*
G01X327250Y222100D02*
X333300D01*
X333400Y222000D01*
X336600D01*
G01X319300Y227000D02*
X323050D01*
X323150Y227100D01*
X327250D01*
G01X336600Y229800D02*
X333400D01*
X330700Y227100D01*
X327250D01*
G01X336600Y229800D02*
Y238200D01*
X336300Y238500D01*
G01X325200Y334790D02*
Y337200D01*
G01X312900Y342290D02*
Y344700D01*
G01D02*
Y347110D01*
G01X310490Y344700D02*
X312900D01*
G01D02*
X315310D01*
G01X325200Y337200D02*
Y339610D01*
G01X322790Y337200D02*
X325200D01*
G01D02*
X327610D01*
G01X355100Y222000D02*
X362140D01*
X362340Y222200D01*
X367700D01*
G01X357700Y207240D02*
Y212200D01*
G01D02*
Y217160D01*
G01X352740Y212200D02*
X357700D01*
G01D02*
X362660D01*
G01X342200Y226690D02*
Y229800D01*
G01Y222000D02*
X349500D01*
G01X347100Y238500D02*
Y231600D01*
G01X357700Y232200D02*
X351400Y238500D01*
G01D02*
X347100D01*
G01Y231600D02*
X345300Y229800D01*
G01D02*
X342200D01*
G01X347100Y238500D02*
Y243660D01*
G01X343390Y238500D02*
X347100D01*
G01X357700Y227240D02*
Y232200D01*
G01D02*
Y237160D01*
G01X352740Y232200D02*
X357700D01*
G01D02*
X362660D01*
G01X342200Y229800D02*
Y232910D01*
G01X387040Y171700D02*
X392000D01*
G01X387040Y151700D02*
X392000D01*
G01X386600Y222300D02*
X393600D01*
G01X367700Y222200D02*
X377700D01*
X377800Y222300D01*
X381000D01*
G01X377700Y207240D02*
Y212200D01*
G01D02*
Y217160D01*
G01X372740Y212200D02*
X377700D01*
G01D02*
X382660D01*
G01X377700Y227240D02*
Y232200D01*
G01D02*
Y237160D01*
G01X372740Y232200D02*
X377700D01*
G01D02*
X382660D01*
G01X402000Y197700D02*
Y161700D01*
G01X412000Y166740D02*
Y171700D01*
G01D02*
Y176660D01*
G01X407040Y171700D02*
X412000D01*
G01D02*
X416960D01*
G01X412000Y146740D02*
Y151700D01*
G01D02*
Y156660D01*
G01X407040Y151700D02*
X412000D01*
G01D02*
X416960D01*
G01X392000Y166740D02*
Y171700D01*
G01D02*
Y176660D01*
G01Y171700D02*
X396960D01*
G01X392000Y146740D02*
Y151700D01*
G01D02*
Y156660D01*
G01Y151700D02*
X396960D01*
G01X402140Y207470D02*
Y201340D01*
X402000Y201200D01*
Y197700D01*
G01X409000Y192600D02*
Y187900D01*
G01X396400Y197700D02*
Y192400D01*
G01X409000Y187900D02*
X411800D01*
G01D02*
X411900Y187800D01*
G01D02*
X417500D01*
G01X405890Y192600D02*
X409000D01*
G01D02*
X412110D01*
G01X417500Y184090D02*
Y187800D01*
G01D02*
Y191510D01*
G01Y187800D02*
X422660D01*
G01X409000Y185490D02*
Y187900D01*
G01X406590D02*
X409000D01*
G01X396400Y189990D02*
Y192400D01*
G01X393990D02*
X396400D01*
G01D02*
X398810D01*
G01X396400Y197700D02*
Y200810D01*
G01X393590Y197700D02*
X396400D01*
G01X417500Y198600D02*
X425100D01*
G01X409000Y198200D02*
X417100D01*
X417500Y198600D01*
G01X409000Y198200D02*
X408900Y198300D01*
Y201750D01*
X407700Y202950D01*
X405750D01*
X404700Y204000D01*
Y207470D01*
G01X393700Y231700D02*
Y225900D01*
X393600Y225800D01*
Y222300D01*
G01D02*
Y218700D01*
X396170Y216130D01*
X402140D01*
G01X414600Y215100D02*
X411000D01*
X409970Y216130D01*
X407260D01*
G01X422700Y216000D02*
X418800D01*
X417900Y215100D01*
X414600D01*
G01Y209500D02*
X411660D01*
X409630Y207470D01*
X407260D01*
G01X422700Y207600D02*
X422400Y207300D01*
X419500D01*
X417300Y209500D01*
X414600D01*
G01X399200Y222300D02*
X404400D01*
X404700Y222600D01*
G01Y216130D02*
Y222600D01*
G01D02*
Y225010D01*
G01X402290Y222600D02*
X404700D01*
G01D02*
X407110D01*
G01X399200Y219190D02*
Y222300D01*
G01D02*
Y225410D01*
G01X401100Y256790D02*
Y259200D01*
G01D02*
Y261610D01*
G01X398690Y259200D02*
X401100D01*
G01D02*
X403510D01*
G01X400500Y277190D02*
Y279600D01*
G01D02*
Y282010D01*
G01X398090Y279600D02*
X400500D01*
G01D02*
X402910D01*
G01X411000Y317690D02*
Y320100D01*
G01D02*
Y322510D01*
G01X408590Y320100D02*
X411000D01*
G01D02*
X413410D01*
G01X416340Y361700D02*
X421300D01*
G01X398700Y343190D02*
Y345600D01*
G01D02*
Y348010D01*
G01X396290Y345600D02*
X398700D01*
G01D02*
X401110D01*
G01X401300Y356740D02*
Y361700D01*
G01D02*
Y366660D01*
G01X396340Y361700D02*
X401300D01*
G01D02*
X406260D01*
G01X416340Y381700D02*
X421300D01*
G01X401300Y376740D02*
Y381700D01*
G01D02*
Y386660D01*
G01X396340Y381700D02*
X401300D01*
G01D02*
X406260D01*
G01X428300Y207600D02*
X482400D01*
X483600Y206400D01*
X488100D01*
G01X428300Y216000D02*
X483200D01*
X483600Y216400D01*
X488100D01*
G01X431550Y256650D02*
X483350D01*
X483600Y256400D01*
X488100D01*
G01X432900Y356090D02*
Y358500D01*
G01D02*
Y360910D01*
G01X430490Y358500D02*
X432900D01*
G01D02*
X435310D01*
G01X421300Y356740D02*
Y361700D01*
G01D02*
Y366660D01*
G01Y361700D02*
X426260D01*
G01X421300Y376740D02*
Y381700D01*
G01D02*
Y386660D01*
G01Y381700D02*
X426260D01*
G01X454050Y246150D02*
X483350D01*
X483600Y246400D01*
X488100D01*
G01X449700Y306890D02*
Y309300D01*
G01X469200Y324590D02*
Y327000D01*
G01D02*
Y329410D01*
G01X466790Y327000D02*
X469200D01*
G01D02*
X471610D01*
G01X451800Y329690D02*
Y332100D01*
G01D02*
Y334510D01*
G01X449390Y332100D02*
X451800D01*
G01D02*
X454210D01*
G01X449700Y309300D02*
Y311710D01*
G01X447290Y309300D02*
X449700D01*
G01D02*
X452110D01*
G01X498100Y222290D02*
Y226400D01*
G01D02*
Y230510D01*
G01X493990Y226400D02*
X498100D01*
G01D02*
X502210D01*
G01X498100Y212290D02*
Y216400D01*
G01D02*
Y220510D01*
G01X493990Y216400D02*
X498100D01*
G01D02*
X502210D01*
G01X498100Y202290D02*
Y206400D01*
G01D02*
Y210510D01*
G01X493990Y206400D02*
X498100D01*
G01D02*
X502210D01*
G01X498100Y252290D02*
Y256400D01*
G01Y232290D02*
Y236400D01*
G01D02*
Y240510D01*
G01X493990Y236400D02*
X498100D01*
G01D02*
X502210D01*
G01X498100Y242290D02*
Y246400D01*
G01D02*
Y250510D01*
G01X493990Y246400D02*
X498100D01*
G01D02*
X502210D01*
G01X498100Y272290D02*
Y276400D01*
G01D02*
Y280510D01*
G01X493990Y276400D02*
X498100D01*
G01D02*
X502210D01*
G01X498100Y262290D02*
Y266400D01*
G01D02*
Y270510D01*
G01X493990Y266400D02*
X498100D01*
G01D02*
X502210D01*
G01X498100Y256400D02*
Y260510D01*
G01X493990Y256400D02*
X498100D01*
G01D02*
X502210D01*
G01X498100Y292290D02*
Y296400D01*
G01D02*
Y300510D01*
G01X493990Y296400D02*
X498100D01*
G01D02*
X502210D01*
G01X498100Y282290D02*
Y286400D01*
G01D02*
Y290510D01*
G01X493990Y286400D02*
X498100D01*
G01D02*
X502210D01*
G54D28*
X151660Y294900D03*
X164540D03*
X205960D03*
X218840D03*
G54D19*
X75500Y255500D03*
X81100D03*
X99000Y159600D03*
X104600D03*
X116900Y146200D03*
X117000Y201900D03*
X111400D03*
X117100Y212400D03*
X98500Y238500D03*
X104100D03*
X100000Y275000D03*
X105600D03*
X100000Y267500D03*
X105600D03*
X122500Y146200D03*
X122700Y212400D03*
X132600Y202200D03*
X127000D03*
X145200Y256800D03*
X144600Y294900D03*
X139000D03*
X166900Y146200D03*
X172500D03*
X171100Y201300D03*
X150800Y256800D03*
X151800Y286800D03*
X157400D03*
X189600Y146400D03*
X184000D03*
X176700Y201300D03*
X189600D03*
X184000D03*
X198600Y257100D03*
X199200Y294900D03*
X193600D03*
X204200Y257100D03*
X205800Y286500D03*
X211400D03*
X261000Y254700D03*
X255400D03*
X282600Y272400D03*
Y296100D03*
Y286200D03*
X285600Y146100D03*
X291200D03*
X304200D03*
X298600D03*
X291300Y201000D03*
X296900D03*
X285300Y209100D03*
X290900D03*
X285300Y227400D03*
X290900D03*
X288200Y272400D03*
X282900Y263700D03*
X288500D03*
X288200Y296100D03*
Y286200D03*
X336600Y222000D03*
Y229800D03*
X349500Y222000D03*
X355100D03*
X342200D03*
Y229800D03*
X381000Y222300D03*
X386600D03*
X402000Y197700D03*
X396400D03*
X393600Y222300D03*
X399200D03*
X422700Y216000D03*
X428300D03*
X422700Y207600D03*
X428300D03*
G54D29*
X167500Y455000D03*
Y465000D03*
Y475000D03*
M02*
